G04 #@! TF.GenerationSoftware,KiCad,Pcbnew,(5.1.6-0-10_14)*
G04 #@! TF.CreationDate,2022-07-16T23:36:19+09:00*
G04 #@! TF.ProjectId,cool536,636f6f6c-3533-4362-9e6b-696361645f70,rev?*
G04 #@! TF.SameCoordinates,Original*
G04 #@! TF.FileFunction,Legend,Bot*
G04 #@! TF.FilePolarity,Positive*
%FSLAX46Y46*%
G04 Gerber Fmt 4.6, Leading zero omitted, Abs format (unit mm)*
G04 Created by KiCad (PCBNEW (5.1.6-0-10_14)) date 2022-07-16 23:36:19*
%MOMM*%
%LPD*%
G01*
G04 APERTURE LIST*
%ADD10C,0.500000*%
%ADD11C,0.120000*%
%ADD12C,0.150000*%
%ADD13C,0.125000*%
G04 APERTURE END LIST*
D10*
X15601428Y-63014285D02*
X15887142Y-63157142D01*
X16458571Y-63157142D01*
X16744285Y-63014285D01*
X16887142Y-62871428D01*
X17030000Y-62585714D01*
X17030000Y-61728571D01*
X16887142Y-61442857D01*
X16744285Y-61300000D01*
X16458571Y-61157142D01*
X15887142Y-61157142D01*
X15601428Y-61300000D01*
X13887142Y-63157142D02*
X14172857Y-63014285D01*
X14315714Y-62871428D01*
X14458571Y-62585714D01*
X14458571Y-61728571D01*
X14315714Y-61442857D01*
X14172857Y-61300000D01*
X13887142Y-61157142D01*
X13458571Y-61157142D01*
X13172857Y-61300000D01*
X13030000Y-61442857D01*
X12887142Y-61728571D01*
X12887142Y-62585714D01*
X13030000Y-62871428D01*
X13172857Y-63014285D01*
X13458571Y-63157142D01*
X13887142Y-63157142D01*
X11172857Y-63157142D02*
X11458571Y-63014285D01*
X11601428Y-62871428D01*
X11744285Y-62585714D01*
X11744285Y-61728571D01*
X11601428Y-61442857D01*
X11458571Y-61300000D01*
X11172857Y-61157142D01*
X10744285Y-61157142D01*
X10458571Y-61300000D01*
X10315714Y-61442857D01*
X10172857Y-61728571D01*
X10172857Y-62585714D01*
X10315714Y-62871428D01*
X10458571Y-63014285D01*
X10744285Y-63157142D01*
X11172857Y-63157142D01*
X8458571Y-63157142D02*
X8744285Y-63014285D01*
X8887142Y-62728571D01*
X8887142Y-60157142D01*
X5887142Y-60157142D02*
X7315714Y-60157142D01*
X7458571Y-61585714D01*
X7315714Y-61442857D01*
X7030000Y-61300000D01*
X6315714Y-61300000D01*
X6030000Y-61442857D01*
X5887142Y-61585714D01*
X5744285Y-61871428D01*
X5744285Y-62585714D01*
X5887142Y-62871428D01*
X6030000Y-63014285D01*
X6315714Y-63157142D01*
X7030000Y-63157142D01*
X7315714Y-63014285D01*
X7458571Y-62871428D01*
X4744285Y-60157142D02*
X2887142Y-60157142D01*
X3887142Y-61300000D01*
X3458571Y-61300000D01*
X3172857Y-61442857D01*
X3030000Y-61585714D01*
X2887142Y-61871428D01*
X2887142Y-62585714D01*
X3030000Y-62871428D01*
X3172857Y-63014285D01*
X3458571Y-63157142D01*
X4315714Y-63157142D01*
X4601428Y-63014285D01*
X4744285Y-62871428D01*
X315714Y-60157142D02*
X887142Y-60157142D01*
X1172857Y-60300000D01*
X1315714Y-60442857D01*
X1601428Y-60871428D01*
X1744285Y-61442857D01*
X1744285Y-62585714D01*
X1601428Y-62871428D01*
X1458571Y-63014285D01*
X1172857Y-63157142D01*
X601428Y-63157142D01*
X315714Y-63014285D01*
X172857Y-62871428D01*
X30000Y-62585714D01*
X30000Y-61871428D01*
X172857Y-61585714D01*
X315714Y-61442857D01*
X601428Y-61300000D01*
X1172857Y-61300000D01*
X1458571Y-61442857D01*
X1601428Y-61585714D01*
X1744285Y-61871428D01*
D11*
X79040000Y12640000D02*
G75*
G03*
X79040000Y12640000I-3000000J0D01*
G01*
X69340000Y18940000D02*
X69340000Y16440000D01*
X74140000Y18940000D02*
X69340000Y18940000D01*
X77840000Y18940000D02*
X82740000Y18940000D01*
X82740000Y18940000D02*
X82740000Y16340000D01*
X82740000Y13940000D02*
X82740000Y11340000D01*
X82740000Y8940000D02*
X82740000Y6340000D01*
X82740000Y6340000D02*
X77840000Y6340000D01*
X74240000Y6340000D02*
X69340000Y6340000D01*
X69340000Y6340000D02*
X69340000Y9140000D01*
X51810000Y6340000D02*
X51810000Y9140000D01*
X56710000Y6340000D02*
X51810000Y6340000D01*
X61510000Y12640000D02*
G75*
G03*
X61510000Y12640000I-3000000J0D01*
G01*
X51810000Y18940000D02*
X51810000Y16440000D01*
X56610000Y18940000D02*
X51810000Y18940000D01*
X60310000Y18940000D02*
X65210000Y18940000D01*
X65210000Y18940000D02*
X65210000Y16340000D01*
X65210000Y8940000D02*
X65210000Y6340000D01*
X65210000Y6340000D02*
X60310000Y6340000D01*
X65210000Y13940000D02*
X65210000Y11340000D01*
D12*
X56750000Y-33812500D02*
X57650000Y-34312500D01*
X57650000Y-34312500D02*
X57650000Y-33312500D01*
X57650000Y-33312500D02*
X56750000Y-33812500D01*
X56650000Y-34312500D02*
X56650000Y-33312500D01*
X59850000Y-34562500D02*
X54450000Y-34562500D01*
X54450000Y-34562500D02*
X54450000Y-33062500D01*
X54450000Y-33062500D02*
X59850000Y-33062500D01*
X59850000Y-33062500D02*
X59850000Y-34562500D01*
X75800000Y-33812500D02*
X76700000Y-34312500D01*
X76700000Y-34312500D02*
X76700000Y-33312500D01*
X76700000Y-33312500D02*
X75800000Y-33812500D01*
X75700000Y-34312500D02*
X75700000Y-33312500D01*
X78900000Y-34562500D02*
X73500000Y-34562500D01*
X73500000Y-34562500D02*
X73500000Y-33062500D01*
X73500000Y-33062500D02*
X78900000Y-33062500D01*
X78900000Y-33062500D02*
X78900000Y-34562500D01*
X47225000Y-71912500D02*
X48125000Y-72412500D01*
X48125000Y-72412500D02*
X48125000Y-71412500D01*
X48125000Y-71412500D02*
X47225000Y-71912500D01*
X47125000Y-72412500D02*
X47125000Y-71412500D01*
X50325000Y-72662500D02*
X44925000Y-72662500D01*
X44925000Y-72662500D02*
X44925000Y-71162500D01*
X44925000Y-71162500D02*
X50325000Y-71162500D01*
X50325000Y-71162500D02*
X50325000Y-72662500D01*
X71038000Y-71912500D02*
X71938000Y-72412500D01*
X71938000Y-72412500D02*
X71938000Y-71412500D01*
X71938000Y-71412500D02*
X71038000Y-71912500D01*
X70938000Y-72412500D02*
X70938000Y-71412500D01*
X74138000Y-72662500D02*
X68738000Y-72662500D01*
X68738000Y-72662500D02*
X68738000Y-71162500D01*
X68738000Y-71162500D02*
X74138000Y-71162500D01*
X74138000Y-71162500D02*
X74138000Y-72662500D01*
X58070000Y3350000D02*
X58970000Y3850000D01*
X58970000Y3850000D02*
X58970000Y2850000D01*
X58970000Y2850000D02*
X58070000Y3350000D01*
X57970000Y3850000D02*
X57970000Y2850000D01*
X61170000Y4100000D02*
X55770000Y4100000D01*
X55770000Y4100000D02*
X55770000Y2600000D01*
X55770000Y2600000D02*
X61170000Y2600000D01*
X61170000Y2600000D02*
X61170000Y4100000D01*
X77110000Y3370000D02*
X78010000Y3870000D01*
X78010000Y3870000D02*
X78010000Y2870000D01*
X78010000Y2870000D02*
X77110000Y3370000D01*
X77010000Y3870000D02*
X77010000Y2870000D01*
X80210000Y4120000D02*
X74810000Y4120000D01*
X74810000Y4120000D02*
X74810000Y2620000D01*
X74810000Y2620000D02*
X80210000Y2620000D01*
X80210000Y2620000D02*
X80210000Y4120000D01*
X-400000Y-57625000D02*
X500000Y-58125000D01*
X500000Y-58125000D02*
X500000Y-57125000D01*
X500000Y-57125000D02*
X-400000Y-57625000D01*
X-500000Y-58125000D02*
X-500000Y-57125000D01*
X2700000Y-58375000D02*
X-2700000Y-58375000D01*
X-2700000Y-58375000D02*
X-2700000Y-56875000D01*
X-2700000Y-56875000D02*
X2700000Y-56875000D01*
X2700000Y-56875000D02*
X2700000Y-58375000D01*
X37700000Y-10000000D02*
X38600000Y-10500000D01*
X38600000Y-10500000D02*
X38600000Y-9500000D01*
X38600000Y-9500000D02*
X37700000Y-10000000D01*
X37600000Y-10500000D02*
X37600000Y-9500000D01*
X40800000Y-10750000D02*
X35400000Y-10750000D01*
X35400000Y-10750000D02*
X35400000Y-9250000D01*
X35400000Y-9250000D02*
X40800000Y-9250000D01*
X40800000Y-9250000D02*
X40800000Y-10750000D01*
X56750000Y-14762499D02*
X57650000Y-15262499D01*
X57650000Y-15262499D02*
X57650000Y-14262499D01*
X57650000Y-14262499D02*
X56750000Y-14762499D01*
X56650000Y-15262499D02*
X56650000Y-14262499D01*
X59850000Y-15512499D02*
X54450000Y-15512499D01*
X54450000Y-15512499D02*
X54450000Y-14012499D01*
X54450000Y-14012499D02*
X59850000Y-14012499D01*
X59850000Y-14012499D02*
X59850000Y-15512499D01*
X-400000Y-38575000D02*
X500000Y-39075000D01*
X500000Y-39075000D02*
X500000Y-38075000D01*
X500000Y-38075000D02*
X-400000Y-38575000D01*
X-500000Y-39075000D02*
X-500000Y-38075000D01*
X2700000Y-39325000D02*
X-2700000Y-39325000D01*
X-2700000Y-39325000D02*
X-2700000Y-37825000D01*
X-2700000Y-37825000D02*
X2700000Y-37825000D01*
X2700000Y-37825000D02*
X2700000Y-39325000D01*
X75800000Y-14762499D02*
X76700000Y-15262499D01*
X76700000Y-15262499D02*
X76700000Y-14262499D01*
X76700000Y-14262499D02*
X75800000Y-14762499D01*
X75700000Y-15262499D02*
X75700000Y-14262499D01*
X78900000Y-15512499D02*
X73500000Y-15512499D01*
X73500000Y-15512499D02*
X73500000Y-14012499D01*
X73500000Y-14012499D02*
X78900000Y-14012499D01*
X78900000Y-14012499D02*
X78900000Y-15512499D01*
X37700000Y-29050000D02*
X38600000Y-29550000D01*
X38600000Y-29550000D02*
X38600000Y-28550000D01*
X38600000Y-28550000D02*
X37700000Y-29050000D01*
X37600000Y-29550000D02*
X37600000Y-28550000D01*
X40800000Y-29800000D02*
X35400000Y-29800000D01*
X35400000Y-29800000D02*
X35400000Y-28300000D01*
X35400000Y-28300000D02*
X40800000Y-28300000D01*
X40800000Y-28300000D02*
X40800000Y-29800000D01*
X18650000Y-33812500D02*
X19550000Y-34312500D01*
X19550000Y-34312500D02*
X19550000Y-33312500D01*
X19550000Y-33312500D02*
X18650000Y-33812500D01*
X18550000Y-34312500D02*
X18550000Y-33312500D01*
X21750000Y-34562500D02*
X16350000Y-34562500D01*
X16350000Y-34562500D02*
X16350000Y-33062500D01*
X16350000Y-33062500D02*
X21750000Y-33062500D01*
X21750000Y-33062500D02*
X21750000Y-34562500D01*
X18650000Y-52862500D02*
X19550000Y-53362500D01*
X19550000Y-53362500D02*
X19550000Y-52362500D01*
X19550000Y-52362500D02*
X18650000Y-52862500D01*
X18550000Y-53362500D02*
X18550000Y-52362500D01*
X21750000Y-53612500D02*
X16350000Y-53612500D01*
X16350000Y-53612500D02*
X16350000Y-52112500D01*
X16350000Y-52112500D02*
X21750000Y-52112500D01*
X21750000Y-52112500D02*
X21750000Y-53612500D01*
X37700000Y-48100000D02*
X38600000Y-48600000D01*
X38600000Y-48600000D02*
X38600000Y-47600000D01*
X38600000Y-47600000D02*
X37700000Y-48100000D01*
X37600000Y-48600000D02*
X37600000Y-47600000D01*
X40800000Y-48850000D02*
X35400000Y-48850000D01*
X35400000Y-48850000D02*
X35400000Y-47350000D01*
X35400000Y-47350000D02*
X40800000Y-47350000D01*
X40800000Y-47350000D02*
X40800000Y-48850000D01*
X56750000Y-52862500D02*
X57650000Y-53362500D01*
X57650000Y-53362500D02*
X57650000Y-52362500D01*
X57650000Y-52362500D02*
X56750000Y-52862500D01*
X56650000Y-53362500D02*
X56650000Y-52362500D01*
X59850000Y-53612500D02*
X54450000Y-53612500D01*
X54450000Y-53612500D02*
X54450000Y-52112500D01*
X54450000Y-52112500D02*
X59850000Y-52112500D01*
X59850000Y-52112500D02*
X59850000Y-53612500D01*
X75800000Y-52862500D02*
X76700000Y-53362500D01*
X76700000Y-53362500D02*
X76700000Y-52362500D01*
X76700000Y-52362500D02*
X75800000Y-52862500D01*
X75700000Y-53362500D02*
X75700000Y-52362500D01*
X78900000Y-53612500D02*
X73500000Y-53612500D01*
X73500000Y-53612500D02*
X73500000Y-52112500D01*
X73500000Y-52112500D02*
X78900000Y-52112500D01*
X78900000Y-52112500D02*
X78900000Y-53612500D01*
X28175000Y-71912500D02*
X29075000Y-72412500D01*
X29075000Y-72412500D02*
X29075000Y-71412500D01*
X29075000Y-71412500D02*
X28175000Y-71912500D01*
X28075000Y-72412500D02*
X28075000Y-71412500D01*
X31275000Y-72662500D02*
X25875000Y-72662500D01*
X25875000Y-72662500D02*
X25875000Y-71162500D01*
X25875000Y-71162500D02*
X31275000Y-71162500D01*
X31275000Y-71162500D02*
X31275000Y-72662500D01*
X-7128000Y20140000D02*
X-7128000Y22680000D01*
X-7128000Y22680000D02*
X23352000Y22680000D01*
X23352000Y22680000D02*
X23352000Y20140000D01*
X23352000Y20140000D02*
X-7128000Y20140000D01*
X-7128000Y4900000D02*
X-7128000Y7440000D01*
X-7128000Y7440000D02*
X23352000Y7440000D01*
X23352000Y7440000D02*
X23352000Y4900000D01*
X23352000Y4900000D02*
X-7128000Y4900000D01*
X-400000Y-19525000D02*
X500000Y-20025000D01*
X500000Y-20025000D02*
X500000Y-19025000D01*
X500000Y-19025000D02*
X-400000Y-19525000D01*
X-500000Y-20025000D02*
X-500000Y-19025000D01*
X2700000Y-20275000D02*
X-2700000Y-20275000D01*
X-2700000Y-20275000D02*
X-2700000Y-18775000D01*
X-2700000Y-18775000D02*
X2700000Y-18775000D01*
X2700000Y-18775000D02*
X2700000Y-20275000D01*
X69158000Y-69412500D02*
X69158000Y-70112500D01*
X64163000Y-63312500D02*
X64138000Y-67912500D01*
X73738000Y-65512500D02*
X73738000Y-70112500D01*
X67938000Y-67937500D02*
X64163000Y-67937500D01*
X68863000Y-63287500D02*
X64163000Y-63287500D01*
X73713000Y-65487500D02*
X71163000Y-65487500D01*
X73713000Y-70137500D02*
X69163000Y-70137500D01*
X76238000Y-59062500D02*
X71188000Y-59108500D01*
X76238000Y-59016500D02*
X76238000Y-55108500D01*
X76238000Y-55108500D02*
X67613000Y-55108500D01*
X65338000Y-57062500D02*
X65338000Y-61007500D01*
X65338000Y-61016500D02*
X68948000Y-61016500D01*
X65349000Y-56992500D02*
G75*
G02*
X67613000Y-55108500I2074000J-190000D01*
G01*
X68953000Y-60992500D02*
G75*
G02*
X71213000Y-59112500I2070000J-190000D01*
G01*
X68868000Y-63312500D02*
G75*
G03*
X71238000Y-65482500I2270000J100000D01*
G01*
X69158000Y-69362500D02*
G75*
G03*
X67938000Y-67942500I-1320000J100000D01*
G01*
X16770000Y-12212499D02*
G75*
G03*
X15550000Y-10792499I-1320000J100000D01*
G01*
X16480000Y-6162499D02*
G75*
G03*
X18850000Y-8332499I2270000J100000D01*
G01*
X16565000Y-3842499D02*
G75*
G02*
X18825000Y-1962499I2070000J-190000D01*
G01*
X12961000Y157501D02*
G75*
G02*
X15225000Y2041501I2074000J-190000D01*
G01*
X12950000Y-3866499D02*
X16560000Y-3866499D01*
X12950000Y87501D02*
X12950000Y-3857499D01*
X23850000Y2041501D02*
X15225000Y2041501D01*
X23850000Y-1866499D02*
X23850000Y2041501D01*
X23850000Y-1912499D02*
X18800000Y-1958499D01*
X21325000Y-12987499D02*
X16775000Y-12987499D01*
X21325000Y-8337499D02*
X18775000Y-8337499D01*
X16475000Y-6137499D02*
X11775000Y-6137499D01*
X15550000Y-10787499D02*
X11775000Y-10787499D01*
X21350000Y-8362499D02*
X21350000Y-12962499D01*
X11775000Y-6162499D02*
X11750000Y-10762499D01*
X16770000Y-12262499D02*
X16770000Y-12962499D01*
X35820000Y-7450000D02*
G75*
G03*
X34600000Y-6030000I-1320000J100000D01*
G01*
X35530000Y-1400000D02*
G75*
G03*
X37900000Y-3570000I2270000J100000D01*
G01*
X35615000Y920000D02*
G75*
G02*
X37875000Y2800000I2070000J-190000D01*
G01*
X32011000Y4920000D02*
G75*
G02*
X34275000Y6804000I2074000J-190000D01*
G01*
X32000000Y896000D02*
X35610000Y896000D01*
X32000000Y4850000D02*
X32000000Y905000D01*
X42900000Y6804000D02*
X34275000Y6804000D01*
X42900000Y2896000D02*
X42900000Y6804000D01*
X42900000Y2850000D02*
X37850000Y2804000D01*
X40375000Y-8225000D02*
X35825000Y-8225000D01*
X40375000Y-3575000D02*
X37825000Y-3575000D01*
X35525000Y-1375000D02*
X30825000Y-1375000D01*
X34600000Y-6025000D02*
X30825000Y-6025000D01*
X40400000Y-3600000D02*
X40400000Y-8200000D01*
X30825000Y-1400000D02*
X30800000Y-6000000D01*
X35820000Y-7500000D02*
X35820000Y-8200000D01*
X54870000Y-12212499D02*
G75*
G03*
X53650000Y-10792499I-1320000J100000D01*
G01*
X54580000Y-6162499D02*
G75*
G03*
X56950000Y-8332499I2270000J100000D01*
G01*
X54665000Y-3842499D02*
G75*
G02*
X56925000Y-1962499I2070000J-190000D01*
G01*
X51061000Y157501D02*
G75*
G02*
X53325000Y2041501I2074000J-190000D01*
G01*
X51050000Y-3866499D02*
X54660000Y-3866499D01*
X51050000Y87501D02*
X51050000Y-3857499D01*
X61950000Y2041501D02*
X53325000Y2041501D01*
X61950000Y-1866499D02*
X61950000Y2041501D01*
X61950000Y-1912499D02*
X56900000Y-1958499D01*
X59425000Y-12987499D02*
X54875000Y-12987499D01*
X59425000Y-8337499D02*
X56875000Y-8337499D01*
X54575000Y-6137499D02*
X49875000Y-6137499D01*
X53650000Y-10787499D02*
X49875000Y-10787499D01*
X59450000Y-8362499D02*
X59450000Y-12962499D01*
X49875000Y-6162499D02*
X49850000Y-10762499D01*
X54870000Y-12262499D02*
X54870000Y-12962499D01*
X-2280000Y-16975000D02*
G75*
G03*
X-3500000Y-15555000I-1320000J100000D01*
G01*
X-2570000Y-10925000D02*
G75*
G03*
X-200000Y-13095000I2270000J100000D01*
G01*
X-2485000Y-8605000D02*
G75*
G02*
X-225000Y-6725000I2070000J-190000D01*
G01*
X-6089000Y-4605000D02*
G75*
G02*
X-3825000Y-2721000I2074000J-190000D01*
G01*
X-6100000Y-8629000D02*
X-2490000Y-8629000D01*
X-6100000Y-4675000D02*
X-6100000Y-8620000D01*
X4800000Y-2721000D02*
X-3825000Y-2721000D01*
X4800000Y-6629000D02*
X4800000Y-2721000D01*
X4800000Y-6675000D02*
X-250000Y-6721000D01*
X2275000Y-17750000D02*
X-2275000Y-17750000D01*
X2275000Y-13100000D02*
X-275000Y-13100000D01*
X-2575000Y-10900000D02*
X-7275000Y-10900000D01*
X-3500000Y-15550000D02*
X-7275000Y-15550000D01*
X2300000Y-13125000D02*
X2300000Y-17725000D01*
X-7275000Y-10925000D02*
X-7300000Y-15525000D01*
X-2280000Y-17025000D02*
X-2280000Y-17725000D01*
X30330000Y12660000D02*
X30330000Y24660000D01*
X36330000Y12660000D02*
X30330000Y12660000D01*
X36330000Y24660000D02*
X36330000Y12660000D01*
X30330000Y24660000D02*
X36330000Y24660000D01*
X45345000Y-69362500D02*
G75*
G03*
X44125000Y-67942500I-1320000J100000D01*
G01*
X45055000Y-63312500D02*
G75*
G03*
X47425000Y-65482500I2270000J100000D01*
G01*
X45140000Y-60992500D02*
G75*
G02*
X47400000Y-59112500I2070000J-190000D01*
G01*
X41536000Y-56992500D02*
G75*
G02*
X43800000Y-55108500I2074000J-190000D01*
G01*
X41525000Y-61016500D02*
X45135000Y-61016500D01*
X41525000Y-57062500D02*
X41525000Y-61007500D01*
X52425000Y-55108500D02*
X43800000Y-55108500D01*
X52425000Y-59016500D02*
X52425000Y-55108500D01*
X52425000Y-59062500D02*
X47375000Y-59108500D01*
X49900000Y-70137500D02*
X45350000Y-70137500D01*
X49900000Y-65487500D02*
X47350000Y-65487500D01*
X45050000Y-63287500D02*
X40350000Y-63287500D01*
X44125000Y-67937500D02*
X40350000Y-67937500D01*
X49925000Y-65512500D02*
X49925000Y-70112500D01*
X40350000Y-63312500D02*
X40325000Y-67912500D01*
X45345000Y-69412500D02*
X45345000Y-70112500D01*
X26295000Y-69362500D02*
G75*
G03*
X25075000Y-67942500I-1320000J100000D01*
G01*
X26005000Y-63312500D02*
G75*
G03*
X28375000Y-65482500I2270000J100000D01*
G01*
X26090000Y-60992500D02*
G75*
G02*
X28350000Y-59112500I2070000J-190000D01*
G01*
X22486000Y-56992500D02*
G75*
G02*
X24750000Y-55108500I2074000J-190000D01*
G01*
X22475000Y-61016500D02*
X26085000Y-61016500D01*
X22475000Y-57062500D02*
X22475000Y-61007500D01*
X33375000Y-55108500D02*
X24750000Y-55108500D01*
X33375000Y-59016500D02*
X33375000Y-55108500D01*
X33375000Y-59062500D02*
X28325000Y-59108500D01*
X30850000Y-70137500D02*
X26300000Y-70137500D01*
X30850000Y-65487500D02*
X28300000Y-65487500D01*
X26000000Y-63287500D02*
X21300000Y-63287500D01*
X25075000Y-67937500D02*
X21300000Y-67937500D01*
X30875000Y-65512500D02*
X30875000Y-70112500D01*
X21300000Y-63312500D02*
X21275000Y-67912500D01*
X26295000Y-69412500D02*
X26295000Y-70112500D01*
X73920000Y-50362500D02*
X73920000Y-51062500D01*
X68925000Y-44262500D02*
X68900000Y-48862500D01*
X78500000Y-46462500D02*
X78500000Y-51062500D01*
X72700000Y-48887500D02*
X68925000Y-48887500D01*
X73625000Y-44237500D02*
X68925000Y-44237500D01*
X78475000Y-46437500D02*
X75925000Y-46437500D01*
X78475000Y-51087500D02*
X73925000Y-51087500D01*
X81000000Y-40012500D02*
X75950000Y-40058500D01*
X81000000Y-39966500D02*
X81000000Y-36058500D01*
X81000000Y-36058500D02*
X72375000Y-36058500D01*
X70100000Y-38012500D02*
X70100000Y-41957500D01*
X70100000Y-41966500D02*
X73710000Y-41966500D01*
X70111000Y-37942500D02*
G75*
G02*
X72375000Y-36058500I2074000J-190000D01*
G01*
X73715000Y-41942500D02*
G75*
G02*
X75975000Y-40062500I2070000J-190000D01*
G01*
X73630000Y-44262500D02*
G75*
G03*
X76000000Y-46432500I2270000J100000D01*
G01*
X73920000Y-50312500D02*
G75*
G03*
X72700000Y-48892500I-1320000J100000D01*
G01*
X73920000Y-12262499D02*
X73920000Y-12962499D01*
X68925000Y-6162499D02*
X68900000Y-10762499D01*
X78500000Y-8362499D02*
X78500000Y-12962499D01*
X72700000Y-10787499D02*
X68925000Y-10787499D01*
X73625000Y-6137499D02*
X68925000Y-6137499D01*
X78475000Y-8337499D02*
X75925000Y-8337499D01*
X78475000Y-12987499D02*
X73925000Y-12987499D01*
X81000000Y-1912499D02*
X75950000Y-1958499D01*
X81000000Y-1866499D02*
X81000000Y2041501D01*
X81000000Y2041501D02*
X72375000Y2041501D01*
X70100000Y87501D02*
X70100000Y-3857499D01*
X70100000Y-3866499D02*
X73710000Y-3866499D01*
X70111000Y157501D02*
G75*
G02*
X72375000Y2041501I2074000J-190000D01*
G01*
X73715000Y-3842499D02*
G75*
G02*
X75975000Y-1962499I2070000J-190000D01*
G01*
X73630000Y-6162499D02*
G75*
G03*
X76000000Y-8332499I2270000J100000D01*
G01*
X73920000Y-12212499D02*
G75*
G03*
X72700000Y-10792499I-1320000J100000D01*
G01*
X16770000Y-50312500D02*
G75*
G03*
X15550000Y-48892500I-1320000J100000D01*
G01*
X16480000Y-44262500D02*
G75*
G03*
X18850000Y-46432500I2270000J100000D01*
G01*
X16565000Y-41942500D02*
G75*
G02*
X18825000Y-40062500I2070000J-190000D01*
G01*
X12961000Y-37942500D02*
G75*
G02*
X15225000Y-36058500I2074000J-190000D01*
G01*
X12950000Y-41966500D02*
X16560000Y-41966500D01*
X12950000Y-38012500D02*
X12950000Y-41957500D01*
X23850000Y-36058500D02*
X15225000Y-36058500D01*
X23850000Y-39966500D02*
X23850000Y-36058500D01*
X23850000Y-40012500D02*
X18800000Y-40058500D01*
X21325000Y-51087500D02*
X16775000Y-51087500D01*
X21325000Y-46437500D02*
X18775000Y-46437500D01*
X16475000Y-44237500D02*
X11775000Y-44237500D01*
X15550000Y-48887500D02*
X11775000Y-48887500D01*
X21350000Y-46462500D02*
X21350000Y-51062500D01*
X11775000Y-44262500D02*
X11750000Y-48862500D01*
X16770000Y-50362500D02*
X16770000Y-51062500D01*
X35820000Y-45600000D02*
X35820000Y-46300000D01*
X30825000Y-39500000D02*
X30800000Y-44100000D01*
X40400000Y-41700000D02*
X40400000Y-46300000D01*
X34600000Y-44125000D02*
X30825000Y-44125000D01*
X35525000Y-39475000D02*
X30825000Y-39475000D01*
X40375000Y-41675000D02*
X37825000Y-41675000D01*
X40375000Y-46325000D02*
X35825000Y-46325000D01*
X42900000Y-35250000D02*
X37850000Y-35296000D01*
X42900000Y-35204000D02*
X42900000Y-31296000D01*
X42900000Y-31296000D02*
X34275000Y-31296000D01*
X32000000Y-33250000D02*
X32000000Y-37195000D01*
X32000000Y-37204000D02*
X35610000Y-37204000D01*
X32011000Y-33180000D02*
G75*
G02*
X34275000Y-31296000I2074000J-190000D01*
G01*
X35615000Y-37180000D02*
G75*
G02*
X37875000Y-35300000I2070000J-190000D01*
G01*
X35530000Y-39500000D02*
G75*
G03*
X37900000Y-41670000I2270000J100000D01*
G01*
X35820000Y-45550000D02*
G75*
G03*
X34600000Y-44130000I-1320000J100000D01*
G01*
X54870000Y-50362500D02*
X54870000Y-51062500D01*
X49875000Y-44262500D02*
X49850000Y-48862500D01*
X59450000Y-46462500D02*
X59450000Y-51062500D01*
X53650000Y-48887500D02*
X49875000Y-48887500D01*
X54575000Y-44237500D02*
X49875000Y-44237500D01*
X59425000Y-46437500D02*
X56875000Y-46437500D01*
X59425000Y-51087500D02*
X54875000Y-51087500D01*
X61950000Y-40012500D02*
X56900000Y-40058500D01*
X61950000Y-39966500D02*
X61950000Y-36058500D01*
X61950000Y-36058500D02*
X53325000Y-36058500D01*
X51050000Y-38012500D02*
X51050000Y-41957500D01*
X51050000Y-41966500D02*
X54660000Y-41966500D01*
X51061000Y-37942500D02*
G75*
G02*
X53325000Y-36058500I2074000J-190000D01*
G01*
X54665000Y-41942500D02*
G75*
G02*
X56925000Y-40062500I2070000J-190000D01*
G01*
X54580000Y-44262500D02*
G75*
G03*
X56950000Y-46432500I2270000J100000D01*
G01*
X54870000Y-50312500D02*
G75*
G03*
X53650000Y-48892500I-1320000J100000D01*
G01*
X73920000Y-31312500D02*
X73920000Y-32012500D01*
X68925000Y-25212500D02*
X68900000Y-29812500D01*
X78500000Y-27412500D02*
X78500000Y-32012500D01*
X72700000Y-29837500D02*
X68925000Y-29837500D01*
X73625000Y-25187500D02*
X68925000Y-25187500D01*
X78475000Y-27387500D02*
X75925000Y-27387500D01*
X78475000Y-32037500D02*
X73925000Y-32037500D01*
X81000000Y-20962500D02*
X75950000Y-21008500D01*
X81000000Y-20916500D02*
X81000000Y-17008500D01*
X81000000Y-17008500D02*
X72375000Y-17008500D01*
X70100000Y-18962500D02*
X70100000Y-22907500D01*
X70100000Y-22916500D02*
X73710000Y-22916500D01*
X70111000Y-18892500D02*
G75*
G02*
X72375000Y-17008500I2074000J-190000D01*
G01*
X73715000Y-22892500D02*
G75*
G02*
X75975000Y-21012500I2070000J-190000D01*
G01*
X73630000Y-25212500D02*
G75*
G03*
X76000000Y-27382500I2270000J100000D01*
G01*
X73920000Y-31262500D02*
G75*
G03*
X72700000Y-29842500I-1320000J100000D01*
G01*
X-2280000Y-55125000D02*
X-2280000Y-55825000D01*
X-7275000Y-49025000D02*
X-7300000Y-53625000D01*
X2300000Y-51225000D02*
X2300000Y-55825000D01*
X-3500000Y-53650000D02*
X-7275000Y-53650000D01*
X-2575000Y-49000000D02*
X-7275000Y-49000000D01*
X2275000Y-51200000D02*
X-275000Y-51200000D01*
X2275000Y-55850000D02*
X-2275000Y-55850000D01*
X4800000Y-44775000D02*
X-250000Y-44821000D01*
X4800000Y-44729000D02*
X4800000Y-40821000D01*
X4800000Y-40821000D02*
X-3825000Y-40821000D01*
X-6100000Y-42775000D02*
X-6100000Y-46720000D01*
X-6100000Y-46729000D02*
X-2490000Y-46729000D01*
X-6089000Y-42705000D02*
G75*
G02*
X-3825000Y-40821000I2074000J-190000D01*
G01*
X-2485000Y-46705000D02*
G75*
G02*
X-225000Y-44825000I2070000J-190000D01*
G01*
X-2570000Y-49025000D02*
G75*
G03*
X-200000Y-51195000I2270000J100000D01*
G01*
X-2280000Y-55075000D02*
G75*
G03*
X-3500000Y-53655000I-1320000J100000D01*
G01*
X54870000Y-31312500D02*
X54870000Y-32012500D01*
X49875000Y-25212500D02*
X49850000Y-29812500D01*
X59450000Y-27412500D02*
X59450000Y-32012500D01*
X53650000Y-29837500D02*
X49875000Y-29837500D01*
X54575000Y-25187500D02*
X49875000Y-25187500D01*
X59425000Y-27387500D02*
X56875000Y-27387500D01*
X59425000Y-32037500D02*
X54875000Y-32037500D01*
X61950000Y-20962500D02*
X56900000Y-21008500D01*
X61950000Y-20916500D02*
X61950000Y-17008500D01*
X61950000Y-17008500D02*
X53325000Y-17008500D01*
X51050000Y-18962500D02*
X51050000Y-22907500D01*
X51050000Y-22916500D02*
X54660000Y-22916500D01*
X51061000Y-18892500D02*
G75*
G02*
X53325000Y-17008500I2074000J-190000D01*
G01*
X54665000Y-22892500D02*
G75*
G02*
X56925000Y-21012500I2070000J-190000D01*
G01*
X54580000Y-25212500D02*
G75*
G03*
X56950000Y-27382500I2270000J100000D01*
G01*
X54870000Y-31262500D02*
G75*
G03*
X53650000Y-29842500I-1320000J100000D01*
G01*
X35820000Y-26550000D02*
X35820000Y-27250000D01*
X30825000Y-20450000D02*
X30800000Y-25050000D01*
X40400000Y-22650000D02*
X40400000Y-27250000D01*
X34600000Y-25075000D02*
X30825000Y-25075000D01*
X35525000Y-20425000D02*
X30825000Y-20425000D01*
X40375000Y-22625000D02*
X37825000Y-22625000D01*
X40375000Y-27275000D02*
X35825000Y-27275000D01*
X42900000Y-16200000D02*
X37850000Y-16246000D01*
X42900000Y-16154000D02*
X42900000Y-12246000D01*
X42900000Y-12246000D02*
X34275000Y-12246000D01*
X32000000Y-14200000D02*
X32000000Y-18145000D01*
X32000000Y-18154000D02*
X35610000Y-18154000D01*
X32011000Y-14130000D02*
G75*
G02*
X34275000Y-12246000I2074000J-190000D01*
G01*
X35615000Y-18130000D02*
G75*
G02*
X37875000Y-16250000I2070000J-190000D01*
G01*
X35530000Y-20450000D02*
G75*
G03*
X37900000Y-22620000I2270000J100000D01*
G01*
X35820000Y-26500000D02*
G75*
G03*
X34600000Y-25080000I-1320000J100000D01*
G01*
X-2280000Y-36025000D02*
G75*
G03*
X-3500000Y-34605000I-1320000J100000D01*
G01*
X-2570000Y-29975000D02*
G75*
G03*
X-200000Y-32145000I2270000J100000D01*
G01*
X-2485000Y-27655000D02*
G75*
G02*
X-225000Y-25775000I2070000J-190000D01*
G01*
X-6089000Y-23655000D02*
G75*
G02*
X-3825000Y-21771000I2074000J-190000D01*
G01*
X-6100000Y-27679000D02*
X-2490000Y-27679000D01*
X-6100000Y-23725000D02*
X-6100000Y-27670000D01*
X4800000Y-21771000D02*
X-3825000Y-21771000D01*
X4800000Y-25679000D02*
X4800000Y-21771000D01*
X4800000Y-25725000D02*
X-250000Y-25771000D01*
X2275000Y-36800000D02*
X-2275000Y-36800000D01*
X2275000Y-32150000D02*
X-275000Y-32150000D01*
X-2575000Y-29950000D02*
X-7275000Y-29950000D01*
X-3500000Y-34600000D02*
X-7275000Y-34600000D01*
X2300000Y-32175000D02*
X2300000Y-36775000D01*
X-7275000Y-29975000D02*
X-7300000Y-34575000D01*
X-2280000Y-36075000D02*
X-2280000Y-36775000D01*
X16770000Y-31312500D02*
X16770000Y-32012500D01*
X11775000Y-25212500D02*
X11750000Y-29812500D01*
X21350000Y-27412500D02*
X21350000Y-32012500D01*
X15550000Y-29837500D02*
X11775000Y-29837500D01*
X16475000Y-25187500D02*
X11775000Y-25187500D01*
X21325000Y-27387500D02*
X18775000Y-27387500D01*
X21325000Y-32037500D02*
X16775000Y-32037500D01*
X23850000Y-20962500D02*
X18800000Y-21008500D01*
X23850000Y-20916500D02*
X23850000Y-17008500D01*
X23850000Y-17008500D02*
X15225000Y-17008500D01*
X12950000Y-18962500D02*
X12950000Y-22907500D01*
X12950000Y-22916500D02*
X16560000Y-22916500D01*
X12961000Y-18892500D02*
G75*
G02*
X15225000Y-17008500I2074000J-190000D01*
G01*
X16565000Y-22892500D02*
G75*
G02*
X18825000Y-21012500I2070000J-190000D01*
G01*
X16480000Y-25212500D02*
G75*
G03*
X18850000Y-27382500I2270000J100000D01*
G01*
X16770000Y-31262500D02*
G75*
G03*
X15550000Y-29842500I-1320000J100000D01*
G01*
X18650000Y-14762499D02*
X19550000Y-15262499D01*
X19550000Y-15262499D02*
X19550000Y-14262499D01*
X19550000Y-14262499D02*
X18650000Y-14762499D01*
X18550000Y-15262499D02*
X18550000Y-14262499D01*
X21750000Y-15512499D02*
X16350000Y-15512499D01*
X16350000Y-15512499D02*
X16350000Y-14012499D01*
X16350000Y-14012499D02*
X21750000Y-14012499D01*
X21750000Y-14012499D02*
X21750000Y-15512499D01*
X27432380Y17692380D02*
X26956190Y18025714D01*
X27432380Y18263809D02*
X26432380Y18263809D01*
X26432380Y17882857D01*
X26480000Y17787619D01*
X26527619Y17740000D01*
X26622857Y17692380D01*
X26765714Y17692380D01*
X26860952Y17740000D01*
X26908571Y17787619D01*
X26956190Y17882857D01*
X26956190Y18263809D01*
X26908571Y17263809D02*
X26908571Y16930476D01*
X27432380Y16787619D02*
X27432380Y17263809D01*
X26432380Y17263809D01*
X26432380Y16787619D01*
X27384761Y16406666D02*
X27432380Y16263809D01*
X27432380Y16025714D01*
X27384761Y15930476D01*
X27337142Y15882857D01*
X27241904Y15835238D01*
X27146666Y15835238D01*
X27051428Y15882857D01*
X27003809Y15930476D01*
X26956190Y16025714D01*
X26908571Y16216190D01*
X26860952Y16311428D01*
X26813333Y16359047D01*
X26718095Y16406666D01*
X26622857Y16406666D01*
X26527619Y16359047D01*
X26480000Y16311428D01*
X26432380Y16216190D01*
X26432380Y15978095D01*
X26480000Y15835238D01*
X26908571Y15406666D02*
X26908571Y15073333D01*
X27432380Y14930476D02*
X27432380Y15406666D01*
X26432380Y15406666D01*
X26432380Y14930476D01*
X26432380Y14644761D02*
X26432380Y14073333D01*
X27432380Y14359047D02*
X26432380Y14359047D01*
X-6138095Y12490000D02*
X-6042857Y12537619D01*
X-5900000Y12537619D01*
X-5757142Y12490000D01*
X-5661904Y12394761D01*
X-5614285Y12299523D01*
X-5566666Y12109047D01*
X-5566666Y11966190D01*
X-5614285Y11775714D01*
X-5661904Y11680476D01*
X-5757142Y11585238D01*
X-5900000Y11537619D01*
X-5995238Y11537619D01*
X-6138095Y11585238D01*
X-6185714Y11632857D01*
X-6185714Y11966190D01*
X-5995238Y11966190D01*
X-6614285Y11537619D02*
X-6614285Y12537619D01*
X-7185714Y11537619D01*
X-7185714Y12537619D01*
X-7661904Y11537619D02*
X-7661904Y12537619D01*
X-7900000Y12537619D01*
X-8042857Y12490000D01*
X-8138095Y12394761D01*
X-8185714Y12299523D01*
X-8233333Y12109047D01*
X-8233333Y11966190D01*
X-8185714Y11775714D01*
X-8138095Y11680476D01*
X-8042857Y11585238D01*
X-7900000Y11537619D01*
X-7661904Y11537619D01*
X-6317142Y14197619D02*
X-5840952Y14197619D01*
X-5840952Y15197619D01*
X-6650476Y14721428D02*
X-6983809Y14721428D01*
X-7126666Y14197619D02*
X-6650476Y14197619D01*
X-6650476Y15197619D01*
X-7126666Y15197619D01*
X-7555238Y14197619D02*
X-7555238Y15197619D01*
X-7793333Y15197619D01*
X-7936190Y15150000D01*
X-8031428Y15054761D01*
X-8079047Y14959523D01*
X-8126666Y14769047D01*
X-8126666Y14626190D01*
X-8079047Y14435714D01*
X-8031428Y14340476D01*
X-7936190Y14245238D01*
X-7793333Y14197619D01*
X-7555238Y14197619D01*
X-5466666Y17667619D02*
X-5800000Y16667619D01*
X-6133333Y17667619D01*
X-7038095Y16762857D02*
X-6990476Y16715238D01*
X-6847619Y16667619D01*
X-6752380Y16667619D01*
X-6609523Y16715238D01*
X-6514285Y16810476D01*
X-6466666Y16905714D01*
X-6419047Y17096190D01*
X-6419047Y17239047D01*
X-6466666Y17429523D01*
X-6514285Y17524761D01*
X-6609523Y17620000D01*
X-6752380Y17667619D01*
X-6847619Y17667619D01*
X-6990476Y17620000D01*
X-7038095Y17572380D01*
X-8038095Y16762857D02*
X-7990476Y16715238D01*
X-7847619Y16667619D01*
X-7752380Y16667619D01*
X-7609523Y16715238D01*
X-7514285Y16810476D01*
X-7466666Y16905714D01*
X-7419047Y17096190D01*
X-7419047Y17239047D01*
X-7466666Y17429523D01*
X-7514285Y17524761D01*
X-7609523Y17620000D01*
X-7752380Y17667619D01*
X-7847619Y17667619D01*
X-7990476Y17620000D01*
X-8038095Y17572380D01*
D13*
X12324785Y4390952D02*
X11967642Y4557619D01*
X12324785Y4676666D02*
X11574785Y4676666D01*
X11574785Y4486190D01*
X11610500Y4438571D01*
X11646214Y4414761D01*
X11717642Y4390952D01*
X11824785Y4390952D01*
X11896214Y4414761D01*
X11931928Y4438571D01*
X11967642Y4486190D01*
X11967642Y4676666D01*
X11574785Y4081428D02*
X11574785Y3986190D01*
X11610500Y3938571D01*
X11681928Y3890952D01*
X11824785Y3867142D01*
X12074785Y3867142D01*
X12217642Y3890952D01*
X12289071Y3938571D01*
X12324785Y3986190D01*
X12324785Y4081428D01*
X12289071Y4129047D01*
X12217642Y4176666D01*
X12074785Y4200476D01*
X11824785Y4200476D01*
X11681928Y4176666D01*
X11610500Y4129047D01*
X11574785Y4081428D01*
X11574785Y3700476D02*
X12324785Y3581428D01*
X11789071Y3486190D01*
X12324785Y3390952D01*
X11574785Y3271904D01*
X12324785Y2819523D02*
X12324785Y3105238D01*
X12324785Y2962380D02*
X11574785Y2962380D01*
X11681928Y3010000D01*
X11753357Y3057619D01*
X11789071Y3105238D01*
X14729857Y19557619D02*
X14765571Y19581428D01*
X14801285Y19652857D01*
X14801285Y19700476D01*
X14765571Y19771904D01*
X14694142Y19819523D01*
X14622714Y19843333D01*
X14479857Y19867142D01*
X14372714Y19867142D01*
X14229857Y19843333D01*
X14158428Y19819523D01*
X14087000Y19771904D01*
X14051285Y19700476D01*
X14051285Y19652857D01*
X14087000Y19581428D01*
X14122714Y19557619D01*
X14051285Y19248095D02*
X14051285Y19152857D01*
X14087000Y19105238D01*
X14158428Y19057619D01*
X14301285Y19033809D01*
X14551285Y19033809D01*
X14694142Y19057619D01*
X14765571Y19105238D01*
X14801285Y19152857D01*
X14801285Y19248095D01*
X14765571Y19295714D01*
X14694142Y19343333D01*
X14551285Y19367142D01*
X14301285Y19367142D01*
X14158428Y19343333D01*
X14087000Y19295714D01*
X14051285Y19248095D01*
X14801285Y18581428D02*
X14801285Y18819523D01*
X14051285Y18819523D01*
X14301285Y18200476D02*
X14801285Y18200476D01*
X14015571Y18319523D02*
X14551285Y18438571D01*
X14551285Y18129047D01*
X14928285Y4390952D02*
X14571142Y4557619D01*
X14928285Y4676666D02*
X14178285Y4676666D01*
X14178285Y4486190D01*
X14214000Y4438571D01*
X14249714Y4414761D01*
X14321142Y4390952D01*
X14428285Y4390952D01*
X14499714Y4414761D01*
X14535428Y4438571D01*
X14571142Y4486190D01*
X14571142Y4676666D01*
X14178285Y4081428D02*
X14178285Y3986190D01*
X14214000Y3938571D01*
X14285428Y3890952D01*
X14428285Y3867142D01*
X14678285Y3867142D01*
X14821142Y3890952D01*
X14892571Y3938571D01*
X14928285Y3986190D01*
X14928285Y4081428D01*
X14892571Y4129047D01*
X14821142Y4176666D01*
X14678285Y4200476D01*
X14428285Y4200476D01*
X14285428Y4176666D01*
X14214000Y4129047D01*
X14178285Y4081428D01*
X14178285Y3700476D02*
X14928285Y3581428D01*
X14392571Y3486190D01*
X14928285Y3390952D01*
X14178285Y3271904D01*
X14249714Y3105238D02*
X14214000Y3081428D01*
X14178285Y3033809D01*
X14178285Y2914761D01*
X14214000Y2867142D01*
X14249714Y2843333D01*
X14321142Y2819523D01*
X14392571Y2819523D01*
X14499714Y2843333D01*
X14928285Y3129047D01*
X14928285Y2819523D01*
X17367857Y19607619D02*
X17403571Y19631428D01*
X17439285Y19702857D01*
X17439285Y19750476D01*
X17403571Y19821904D01*
X17332142Y19869523D01*
X17260714Y19893333D01*
X17117857Y19917142D01*
X17010714Y19917142D01*
X16867857Y19893333D01*
X16796428Y19869523D01*
X16725000Y19821904D01*
X16689285Y19750476D01*
X16689285Y19702857D01*
X16725000Y19631428D01*
X16760714Y19607619D01*
X16689285Y19298095D02*
X16689285Y19202857D01*
X16725000Y19155238D01*
X16796428Y19107619D01*
X16939285Y19083809D01*
X17189285Y19083809D01*
X17332142Y19107619D01*
X17403571Y19155238D01*
X17439285Y19202857D01*
X17439285Y19298095D01*
X17403571Y19345714D01*
X17332142Y19393333D01*
X17189285Y19417142D01*
X16939285Y19417142D01*
X16796428Y19393333D01*
X16725000Y19345714D01*
X16689285Y19298095D01*
X17439285Y18631428D02*
X17439285Y18869523D01*
X16689285Y18869523D01*
X16689285Y18226666D02*
X16689285Y18464761D01*
X17046428Y18488571D01*
X17010714Y18464761D01*
X16975000Y18417142D01*
X16975000Y18298095D01*
X17010714Y18250476D01*
X17046428Y18226666D01*
X17117857Y18202857D01*
X17296428Y18202857D01*
X17367857Y18226666D01*
X17403571Y18250476D01*
X17439285Y18298095D01*
X17439285Y18417142D01*
X17403571Y18464761D01*
X17367857Y18488571D01*
X17439285Y4390952D02*
X17082142Y4557619D01*
X17439285Y4676666D02*
X16689285Y4676666D01*
X16689285Y4486190D01*
X16725000Y4438571D01*
X16760714Y4414761D01*
X16832142Y4390952D01*
X16939285Y4390952D01*
X17010714Y4414761D01*
X17046428Y4438571D01*
X17082142Y4486190D01*
X17082142Y4676666D01*
X16689285Y4081428D02*
X16689285Y3986190D01*
X16725000Y3938571D01*
X16796428Y3890952D01*
X16939285Y3867142D01*
X17189285Y3867142D01*
X17332142Y3890952D01*
X17403571Y3938571D01*
X17439285Y3986190D01*
X17439285Y4081428D01*
X17403571Y4129047D01*
X17332142Y4176666D01*
X17189285Y4200476D01*
X16939285Y4200476D01*
X16796428Y4176666D01*
X16725000Y4129047D01*
X16689285Y4081428D01*
X16689285Y3700476D02*
X17439285Y3581428D01*
X16903571Y3486190D01*
X17439285Y3390952D01*
X16689285Y3271904D01*
X16689285Y3129047D02*
X16689285Y2819523D01*
X16975000Y2986190D01*
X16975000Y2914761D01*
X17010714Y2867142D01*
X17046428Y2843333D01*
X17117857Y2819523D01*
X17296428Y2819523D01*
X17367857Y2843333D01*
X17403571Y2867142D01*
X17439285Y2914761D01*
X17439285Y3057619D01*
X17403571Y3105238D01*
X17367857Y3129047D01*
X19424928Y19770880D02*
X19460642Y19699452D01*
X19496357Y19675642D01*
X19567785Y19651833D01*
X19674928Y19651833D01*
X19746357Y19675642D01*
X19782071Y19699452D01*
X19817785Y19747071D01*
X19817785Y19937547D01*
X19067785Y19937547D01*
X19067785Y19770880D01*
X19103500Y19723261D01*
X19139214Y19699452D01*
X19210642Y19675642D01*
X19282071Y19675642D01*
X19353500Y19699452D01*
X19389214Y19723261D01*
X19424928Y19770880D01*
X19424928Y19937547D01*
X19139214Y19461357D02*
X19103500Y19437547D01*
X19067785Y19389928D01*
X19067785Y19270880D01*
X19103500Y19223261D01*
X19139214Y19199452D01*
X19210642Y19175642D01*
X19282071Y19175642D01*
X19389214Y19199452D01*
X19817785Y19485166D01*
X19817785Y19175642D01*
X19551928Y4213380D02*
X19587642Y4141952D01*
X19623357Y4118142D01*
X19694785Y4094333D01*
X19801928Y4094333D01*
X19873357Y4118142D01*
X19909071Y4141952D01*
X19944785Y4189571D01*
X19944785Y4380047D01*
X19194785Y4380047D01*
X19194785Y4213380D01*
X19230500Y4165761D01*
X19266214Y4141952D01*
X19337642Y4118142D01*
X19409071Y4118142D01*
X19480500Y4141952D01*
X19516214Y4165761D01*
X19551928Y4213380D01*
X19551928Y4380047D01*
X19444785Y3665761D02*
X19944785Y3665761D01*
X19159071Y3784809D02*
X19694785Y3903857D01*
X19694785Y3594333D01*
X22091928Y4213380D02*
X22127642Y4141952D01*
X22163357Y4118142D01*
X22234785Y4094333D01*
X22341928Y4094333D01*
X22413357Y4118142D01*
X22449071Y4141952D01*
X22484785Y4189571D01*
X22484785Y4380047D01*
X21734785Y4380047D01*
X21734785Y4213380D01*
X21770500Y4165761D01*
X21806214Y4141952D01*
X21877642Y4118142D01*
X21949071Y4118142D01*
X22020500Y4141952D01*
X22056214Y4165761D01*
X22091928Y4213380D01*
X22091928Y4380047D01*
X21734785Y3641952D02*
X21734785Y3880047D01*
X22091928Y3903857D01*
X22056214Y3880047D01*
X22020500Y3832428D01*
X22020500Y3713380D01*
X22056214Y3665761D01*
X22091928Y3641952D01*
X22163357Y3618142D01*
X22341928Y3618142D01*
X22413357Y3641952D01*
X22449071Y3665761D01*
X22484785Y3713380D01*
X22484785Y3832428D01*
X22449071Y3880047D01*
X22413357Y3903857D01*
X22028428Y19707380D02*
X22064142Y19635952D01*
X22099857Y19612142D01*
X22171285Y19588333D01*
X22278428Y19588333D01*
X22349857Y19612142D01*
X22385571Y19635952D01*
X22421285Y19683571D01*
X22421285Y19874047D01*
X21671285Y19874047D01*
X21671285Y19707380D01*
X21707000Y19659761D01*
X21742714Y19635952D01*
X21814142Y19612142D01*
X21885571Y19612142D01*
X21957000Y19635952D01*
X21992714Y19659761D01*
X22028428Y19707380D01*
X22028428Y19874047D01*
X21671285Y19159761D02*
X21671285Y19255000D01*
X21707000Y19302619D01*
X21742714Y19326428D01*
X21849857Y19374047D01*
X21992714Y19397857D01*
X22278428Y19397857D01*
X22349857Y19374047D01*
X22385571Y19350238D01*
X22421285Y19302619D01*
X22421285Y19207380D01*
X22385571Y19159761D01*
X22349857Y19135952D01*
X22278428Y19112142D01*
X22099857Y19112142D01*
X22028428Y19135952D01*
X21992714Y19159761D01*
X21957000Y19207380D01*
X21957000Y19302619D01*
X21992714Y19350238D01*
X22028428Y19374047D01*
X22099857Y19397857D01*
X4667857Y19607619D02*
X4703571Y19631428D01*
X4739285Y19702857D01*
X4739285Y19750476D01*
X4703571Y19821904D01*
X4632142Y19869523D01*
X4560714Y19893333D01*
X4417857Y19917142D01*
X4310714Y19917142D01*
X4167857Y19893333D01*
X4096428Y19869523D01*
X4025000Y19821904D01*
X3989285Y19750476D01*
X3989285Y19702857D01*
X4025000Y19631428D01*
X4060714Y19607619D01*
X3989285Y19298095D02*
X3989285Y19202857D01*
X4025000Y19155238D01*
X4096428Y19107619D01*
X4239285Y19083809D01*
X4489285Y19083809D01*
X4632142Y19107619D01*
X4703571Y19155238D01*
X4739285Y19202857D01*
X4739285Y19298095D01*
X4703571Y19345714D01*
X4632142Y19393333D01*
X4489285Y19417142D01*
X4239285Y19417142D01*
X4096428Y19393333D01*
X4025000Y19345714D01*
X3989285Y19298095D01*
X4739285Y18631428D02*
X4739285Y18869523D01*
X3989285Y18869523D01*
X3989285Y18369523D02*
X3989285Y18321904D01*
X4025000Y18274285D01*
X4060714Y18250476D01*
X4132142Y18226666D01*
X4275000Y18202857D01*
X4453571Y18202857D01*
X4596428Y18226666D01*
X4667857Y18250476D01*
X4703571Y18274285D01*
X4739285Y18321904D01*
X4739285Y18369523D01*
X4703571Y18417142D01*
X4667857Y18440952D01*
X4596428Y18464761D01*
X4453571Y18488571D01*
X4275000Y18488571D01*
X4132142Y18464761D01*
X4060714Y18440952D01*
X4025000Y18417142D01*
X3989285Y18369523D01*
X4669071Y4618142D02*
X4704785Y4546714D01*
X4704785Y4427666D01*
X4669071Y4380047D01*
X4633357Y4356238D01*
X4561928Y4332428D01*
X4490500Y4332428D01*
X4419071Y4356238D01*
X4383357Y4380047D01*
X4347642Y4427666D01*
X4311928Y4522904D01*
X4276214Y4570523D01*
X4240500Y4594333D01*
X4169071Y4618142D01*
X4097642Y4618142D01*
X4026214Y4594333D01*
X3990500Y4570523D01*
X3954785Y4522904D01*
X3954785Y4403857D01*
X3990500Y4332428D01*
X4704785Y4118142D02*
X3954785Y4118142D01*
X3954785Y3999095D01*
X3990500Y3927666D01*
X4061928Y3880047D01*
X4133357Y3856238D01*
X4276214Y3832428D01*
X4383357Y3832428D01*
X4526214Y3856238D01*
X4597642Y3880047D01*
X4669071Y3927666D01*
X4704785Y3999095D01*
X4704785Y4118142D01*
X4490500Y3641952D02*
X4490500Y3403857D01*
X4704785Y3689571D02*
X3954785Y3522904D01*
X4704785Y3356238D01*
X7173357Y19607619D02*
X7209071Y19631428D01*
X7244785Y19702857D01*
X7244785Y19750476D01*
X7209071Y19821904D01*
X7137642Y19869523D01*
X7066214Y19893333D01*
X6923357Y19917142D01*
X6816214Y19917142D01*
X6673357Y19893333D01*
X6601928Y19869523D01*
X6530500Y19821904D01*
X6494785Y19750476D01*
X6494785Y19702857D01*
X6530500Y19631428D01*
X6566214Y19607619D01*
X6494785Y19298095D02*
X6494785Y19202857D01*
X6530500Y19155238D01*
X6601928Y19107619D01*
X6744785Y19083809D01*
X6994785Y19083809D01*
X7137642Y19107619D01*
X7209071Y19155238D01*
X7244785Y19202857D01*
X7244785Y19298095D01*
X7209071Y19345714D01*
X7137642Y19393333D01*
X6994785Y19417142D01*
X6744785Y19417142D01*
X6601928Y19393333D01*
X6530500Y19345714D01*
X6494785Y19298095D01*
X7244785Y18631428D02*
X7244785Y18869523D01*
X6494785Y18869523D01*
X7244785Y18202857D02*
X7244785Y18488571D01*
X7244785Y18345714D02*
X6494785Y18345714D01*
X6601928Y18393333D01*
X6673357Y18440952D01*
X6709071Y18488571D01*
X7209071Y4606238D02*
X7244785Y4534809D01*
X7244785Y4415761D01*
X7209071Y4368142D01*
X7173357Y4344333D01*
X7101928Y4320523D01*
X7030500Y4320523D01*
X6959071Y4344333D01*
X6923357Y4368142D01*
X6887642Y4415761D01*
X6851928Y4511000D01*
X6816214Y4558619D01*
X6780500Y4582428D01*
X6709071Y4606238D01*
X6637642Y4606238D01*
X6566214Y4582428D01*
X6530500Y4558619D01*
X6494785Y4511000D01*
X6494785Y4391952D01*
X6530500Y4320523D01*
X7173357Y3820523D02*
X7209071Y3844333D01*
X7244785Y3915761D01*
X7244785Y3963380D01*
X7209071Y4034809D01*
X7137642Y4082428D01*
X7066214Y4106238D01*
X6923357Y4130047D01*
X6816214Y4130047D01*
X6673357Y4106238D01*
X6601928Y4082428D01*
X6530500Y4034809D01*
X6494785Y3963380D01*
X6494785Y3915761D01*
X6530500Y3844333D01*
X6566214Y3820523D01*
X7244785Y3368142D02*
X7244785Y3606238D01*
X6494785Y3606238D01*
X9717857Y19607619D02*
X9753571Y19631428D01*
X9789285Y19702857D01*
X9789285Y19750476D01*
X9753571Y19821904D01*
X9682142Y19869523D01*
X9610714Y19893333D01*
X9467857Y19917142D01*
X9360714Y19917142D01*
X9217857Y19893333D01*
X9146428Y19869523D01*
X9075000Y19821904D01*
X9039285Y19750476D01*
X9039285Y19702857D01*
X9075000Y19631428D01*
X9110714Y19607619D01*
X9039285Y19298095D02*
X9039285Y19202857D01*
X9075000Y19155238D01*
X9146428Y19107619D01*
X9289285Y19083809D01*
X9539285Y19083809D01*
X9682142Y19107619D01*
X9753571Y19155238D01*
X9789285Y19202857D01*
X9789285Y19298095D01*
X9753571Y19345714D01*
X9682142Y19393333D01*
X9539285Y19417142D01*
X9289285Y19417142D01*
X9146428Y19393333D01*
X9075000Y19345714D01*
X9039285Y19298095D01*
X9789285Y18631428D02*
X9789285Y18869523D01*
X9039285Y18869523D01*
X9110714Y18488571D02*
X9075000Y18464761D01*
X9039285Y18417142D01*
X9039285Y18298095D01*
X9075000Y18250476D01*
X9110714Y18226666D01*
X9182142Y18202857D01*
X9253571Y18202857D01*
X9360714Y18226666D01*
X9789285Y18512380D01*
X9789285Y18202857D01*
X9721285Y4390952D02*
X9364142Y4557619D01*
X9721285Y4676666D02*
X8971285Y4676666D01*
X8971285Y4486190D01*
X9007000Y4438571D01*
X9042714Y4414761D01*
X9114142Y4390952D01*
X9221285Y4390952D01*
X9292714Y4414761D01*
X9328428Y4438571D01*
X9364142Y4486190D01*
X9364142Y4676666D01*
X8971285Y4081428D02*
X8971285Y3986190D01*
X9007000Y3938571D01*
X9078428Y3890952D01*
X9221285Y3867142D01*
X9471285Y3867142D01*
X9614142Y3890952D01*
X9685571Y3938571D01*
X9721285Y3986190D01*
X9721285Y4081428D01*
X9685571Y4129047D01*
X9614142Y4176666D01*
X9471285Y4200476D01*
X9221285Y4200476D01*
X9078428Y4176666D01*
X9007000Y4129047D01*
X8971285Y4081428D01*
X8971285Y3700476D02*
X9721285Y3581428D01*
X9185571Y3486190D01*
X9721285Y3390952D01*
X8971285Y3271904D01*
X8971285Y2986190D02*
X8971285Y2938571D01*
X9007000Y2890952D01*
X9042714Y2867142D01*
X9114142Y2843333D01*
X9257000Y2819523D01*
X9435571Y2819523D01*
X9578428Y2843333D01*
X9649857Y2867142D01*
X9685571Y2890952D01*
X9721285Y2938571D01*
X9721285Y2986190D01*
X9685571Y3033809D01*
X9649857Y3057619D01*
X9578428Y3081428D01*
X9435571Y3105238D01*
X9257000Y3105238D01*
X9114142Y3081428D01*
X9042714Y3057619D01*
X9007000Y3033809D01*
X8971285Y2986190D01*
X12217857Y19607619D02*
X12253571Y19631428D01*
X12289285Y19702857D01*
X12289285Y19750476D01*
X12253571Y19821904D01*
X12182142Y19869523D01*
X12110714Y19893333D01*
X11967857Y19917142D01*
X11860714Y19917142D01*
X11717857Y19893333D01*
X11646428Y19869523D01*
X11575000Y19821904D01*
X11539285Y19750476D01*
X11539285Y19702857D01*
X11575000Y19631428D01*
X11610714Y19607619D01*
X11539285Y19298095D02*
X11539285Y19202857D01*
X11575000Y19155238D01*
X11646428Y19107619D01*
X11789285Y19083809D01*
X12039285Y19083809D01*
X12182142Y19107619D01*
X12253571Y19155238D01*
X12289285Y19202857D01*
X12289285Y19298095D01*
X12253571Y19345714D01*
X12182142Y19393333D01*
X12039285Y19417142D01*
X11789285Y19417142D01*
X11646428Y19393333D01*
X11575000Y19345714D01*
X11539285Y19298095D01*
X12289285Y18631428D02*
X12289285Y18869523D01*
X11539285Y18869523D01*
X11539285Y18512380D02*
X11539285Y18202857D01*
X11825000Y18369523D01*
X11825000Y18298095D01*
X11860714Y18250476D01*
X11896428Y18226666D01*
X11967857Y18202857D01*
X12146428Y18202857D01*
X12217857Y18226666D01*
X12253571Y18250476D01*
X12289285Y18298095D01*
X12289285Y18440952D01*
X12253571Y18488571D01*
X12217857Y18512380D01*
X1450500Y4391952D02*
X1414785Y4439571D01*
X1414785Y4511000D01*
X1450500Y4582428D01*
X1521928Y4630047D01*
X1593357Y4653857D01*
X1736214Y4677666D01*
X1843357Y4677666D01*
X1986214Y4653857D01*
X2057642Y4630047D01*
X2129071Y4582428D01*
X2164785Y4511000D01*
X2164785Y4463380D01*
X2129071Y4391952D01*
X2093357Y4368142D01*
X1843357Y4368142D01*
X1843357Y4463380D01*
X2164785Y4153857D02*
X1414785Y4153857D01*
X2164785Y3868142D01*
X1414785Y3868142D01*
X2164785Y3630047D02*
X1414785Y3630047D01*
X1414785Y3511000D01*
X1450500Y3439571D01*
X1521928Y3391952D01*
X1593357Y3368142D01*
X1736214Y3344333D01*
X1843357Y3344333D01*
X1986214Y3368142D01*
X2057642Y3391952D01*
X2129071Y3439571D01*
X2164785Y3511000D01*
X2164785Y3630047D01*
X1414785Y19854166D02*
X2164785Y19687500D01*
X1414785Y19520833D01*
X2093357Y19068452D02*
X2129071Y19092261D01*
X2164785Y19163690D01*
X2164785Y19211309D01*
X2129071Y19282738D01*
X2057642Y19330357D01*
X1986214Y19354166D01*
X1843357Y19377976D01*
X1736214Y19377976D01*
X1593357Y19354166D01*
X1521928Y19330357D01*
X1450500Y19282738D01*
X1414785Y19211309D01*
X1414785Y19163690D01*
X1450500Y19092261D01*
X1486214Y19068452D01*
X2093357Y18568452D02*
X2129071Y18592261D01*
X2164785Y18663690D01*
X2164785Y18711309D01*
X2129071Y18782738D01*
X2057642Y18830357D01*
X1986214Y18854166D01*
X1843357Y18877976D01*
X1736214Y18877976D01*
X1593357Y18854166D01*
X1521928Y18830357D01*
X1450500Y18782738D01*
X1414785Y18711309D01*
X1414785Y18663690D01*
X1450500Y18592261D01*
X1486214Y18568452D01*
X-1089500Y4391952D02*
X-1125214Y4439571D01*
X-1125214Y4511000D01*
X-1089500Y4582428D01*
X-1018071Y4630047D01*
X-946642Y4653857D01*
X-803785Y4677666D01*
X-696642Y4677666D01*
X-553785Y4653857D01*
X-482357Y4630047D01*
X-410928Y4582428D01*
X-375214Y4511000D01*
X-375214Y4463380D01*
X-410928Y4391952D01*
X-446642Y4368142D01*
X-696642Y4368142D01*
X-696642Y4463380D01*
X-375214Y4153857D02*
X-1125214Y4153857D01*
X-375214Y3868142D01*
X-1125214Y3868142D01*
X-375214Y3630047D02*
X-1125214Y3630047D01*
X-1125214Y3511000D01*
X-1089500Y3439571D01*
X-1018071Y3391952D01*
X-946642Y3368142D01*
X-803785Y3344333D01*
X-696642Y3344333D01*
X-553785Y3368142D01*
X-482357Y3391952D01*
X-410928Y3439571D01*
X-375214Y3511000D01*
X-375214Y3630047D01*
X-375214Y19524809D02*
X-732357Y19691476D01*
X-375214Y19810523D02*
X-1125214Y19810523D01*
X-1125214Y19620047D01*
X-1089500Y19572428D01*
X-1053785Y19548619D01*
X-982357Y19524809D01*
X-875214Y19524809D01*
X-803785Y19548619D01*
X-768071Y19572428D01*
X-732357Y19620047D01*
X-732357Y19810523D01*
X-410928Y19334333D02*
X-375214Y19262904D01*
X-375214Y19143857D01*
X-410928Y19096238D01*
X-446642Y19072428D01*
X-518071Y19048619D01*
X-589500Y19048619D01*
X-660928Y19072428D01*
X-696642Y19096238D01*
X-732357Y19143857D01*
X-768071Y19239095D01*
X-803785Y19286714D01*
X-839500Y19310523D01*
X-910928Y19334333D01*
X-982357Y19334333D01*
X-1053785Y19310523D01*
X-1089500Y19286714D01*
X-1125214Y19239095D01*
X-1125214Y19120047D01*
X-1089500Y19048619D01*
X-1125214Y18905761D02*
X-1125214Y18620047D01*
X-375214Y18762904D02*
X-1125214Y18762904D01*
X-2810714Y4610000D02*
X-3560714Y4610000D01*
X-3560714Y4490952D01*
X-3525000Y4419523D01*
X-3453571Y4371904D01*
X-3382142Y4348095D01*
X-3239285Y4324285D01*
X-3132142Y4324285D01*
X-2989285Y4348095D01*
X-2917857Y4371904D01*
X-2846428Y4419523D01*
X-2810714Y4490952D01*
X-2810714Y4610000D01*
X-3025000Y4133809D02*
X-3025000Y3895714D01*
X-2810714Y4181428D02*
X-3560714Y4014761D01*
X-2810714Y3848095D01*
X-3560714Y3752857D02*
X-3560714Y3467142D01*
X-2810714Y3610000D02*
X-3560714Y3610000D01*
X-3025000Y3324285D02*
X-3025000Y3086190D01*
X-2810714Y3371904D02*
X-3560714Y3205238D01*
X-2810714Y3038571D01*
X-3693000Y19568452D02*
X-3728714Y19616071D01*
X-3728714Y19687500D01*
X-3693000Y19758928D01*
X-3621571Y19806547D01*
X-3550142Y19830357D01*
X-3407285Y19854166D01*
X-3300142Y19854166D01*
X-3157285Y19830357D01*
X-3085857Y19806547D01*
X-3014428Y19758928D01*
X-2978714Y19687500D01*
X-2978714Y19639880D01*
X-3014428Y19568452D01*
X-3050142Y19544642D01*
X-3300142Y19544642D01*
X-3300142Y19639880D01*
X-2978714Y19330357D02*
X-3728714Y19330357D01*
X-2978714Y19044642D01*
X-3728714Y19044642D01*
X-2978714Y18806547D02*
X-3728714Y18806547D01*
X-3728714Y18687500D01*
X-3693000Y18616071D01*
X-3621571Y18568452D01*
X-3550142Y18544642D01*
X-3407285Y18520833D01*
X-3300142Y18520833D01*
X-3157285Y18544642D01*
X-3085857Y18568452D01*
X-3014428Y18616071D01*
X-2978714Y18687500D01*
X-2978714Y18806547D01*
X-5455214Y4332428D02*
X-5455214Y4570523D01*
X-6205214Y4570523D01*
X-5848071Y4165761D02*
X-5848071Y3999095D01*
X-5455214Y3927666D02*
X-5455214Y4165761D01*
X-6205214Y4165761D01*
X-6205214Y3927666D01*
X-5455214Y3713380D02*
X-6205214Y3713380D01*
X-6205214Y3594333D01*
X-6169500Y3522904D01*
X-6098071Y3475285D01*
X-6026642Y3451476D01*
X-5883785Y3427666D01*
X-5776642Y3427666D01*
X-5633785Y3451476D01*
X-5562357Y3475285D01*
X-5490928Y3522904D01*
X-5455214Y3594333D01*
X-5455214Y3713380D01*
X-5455214Y19596238D02*
X-5812357Y19762904D01*
X-5455214Y19881952D02*
X-6205214Y19881952D01*
X-6205214Y19691476D01*
X-6169500Y19643857D01*
X-6133785Y19620047D01*
X-6062357Y19596238D01*
X-5955214Y19596238D01*
X-5883785Y19620047D01*
X-5848071Y19643857D01*
X-5812357Y19691476D01*
X-5812357Y19881952D01*
X-5669500Y19405761D02*
X-5669500Y19167666D01*
X-5455214Y19453380D02*
X-6205214Y19286714D01*
X-5455214Y19120047D01*
X-6205214Y19001000D02*
X-5455214Y18881952D01*
X-5990928Y18786714D01*
X-5455214Y18691476D01*
X-6205214Y18572428D01*
D12*
X36016404Y18794119D02*
X35444976Y18794119D01*
X35730690Y17794119D02*
X35730690Y18794119D01*
X34540214Y17794119D02*
X34873547Y18270309D01*
X35111642Y17794119D02*
X35111642Y18794119D01*
X34730690Y18794119D01*
X34635452Y18746500D01*
X34587833Y18698880D01*
X34540214Y18603642D01*
X34540214Y18460785D01*
X34587833Y18365547D01*
X34635452Y18317928D01*
X34730690Y18270309D01*
X35111642Y18270309D01*
X33540214Y17794119D02*
X33873547Y18270309D01*
X34111642Y17794119D02*
X34111642Y18794119D01*
X33730690Y18794119D01*
X33635452Y18746500D01*
X33587833Y18698880D01*
X33540214Y18603642D01*
X33540214Y18460785D01*
X33587833Y18365547D01*
X33635452Y18317928D01*
X33730690Y18270309D01*
X34111642Y18270309D01*
X33159261Y17841738D02*
X33016404Y17794119D01*
X32778309Y17794119D01*
X32683071Y17841738D01*
X32635452Y17889357D01*
X32587833Y17984595D01*
X32587833Y18079833D01*
X32635452Y18175071D01*
X32683071Y18222690D01*
X32778309Y18270309D01*
X32968785Y18317928D01*
X33064023Y18365547D01*
X33111642Y18413166D01*
X33159261Y18508404D01*
X33159261Y18603642D01*
X33111642Y18698880D01*
X33064023Y18746500D01*
X32968785Y18794119D01*
X32730690Y18794119D01*
X32587833Y18746500D01*
M02*
