999
"DXF R12 Output" (www.mydxf.blogspot.com)
 0 
SECTION
 2 
HEADER
 9 
$ACADVER
 1 
AC1009
 9 
$EXTMIN
 10 
 0 
 20 
 0 
 9 
$EXTMAX
 10 
 8.5 
 20 
 11 
 0 
ENDSEC
 0 
SECTION
 2 
ENTITIES
0
LINE
8
Layer 1
10
149.940000
20
175.579000
11
149.682508
21
174.956242
0
LINE
8
Layer 1
10
149.682508
20
174.956242
11
149.060314
21
174.698185
0
LINE
8
Layer 1
10
149.060314
20
174.698185
11
148.438120
21
174.956242
0
LINE
8
Layer 1
10
148.438120
20
174.956242
11
148.180628
21
175.579000
0
LINE
8
Layer 1
10
148.180628
20
175.579000
11
148.438120
21
176.200771
0
LINE
8
Layer 1
10
148.438120
20
176.200771
11
149.060314
21
176.458686
0
LINE
8
Layer 1
10
149.060314
20
176.458686
11
149.682508
21
176.200771
0
LINE
8
Layer 1
10
149.682508
20
176.200771
11
149.940000
21
175.579000
0
LINE
8
Layer 1
10
149.940000
20
175.579000
11
149.940000
21
175.579000
0
LINE
8
Layer 1
10
104.149000
20
175.762000
11
103.890943
21
175.140336
0
LINE
8
Layer 1
10
103.890943
20
175.140336
11
103.268185
21
174.882314
0
LINE
8
Layer 1
10
103.268185
20
174.882314
11
102.646414
21
175.140336
0
LINE
8
Layer 1
10
102.646414
20
175.140336
11
102.388499
21
175.762000
0
LINE
8
Layer 1
10
102.388499
20
175.762000
11
102.646414
21
176.384758
0
LINE
8
Layer 1
10
102.646414
20
176.384758
11
103.268185
21
176.642815
0
LINE
8
Layer 1
10
103.268185
20
176.642815
11
103.890943
21
176.384758
0
LINE
8
Layer 1
10
103.890943
20
176.384758
11
104.149000
21
175.762000
0
LINE
8
Layer 1
10
104.149000
20
175.762000
11
104.149000
21
175.762000
0
LINE
8
Layer 1
10
166.070000
20
209.336000
11
166.070000
21
130.897000
0
LINE
8
Layer 1
10
86.908900
20
209.336000
11
166.070000
21
209.336000
0
LINE
8
Layer 1
10
86.908900
20
142.594000
11
86.908900
21
209.336000
0
LINE
8
Layer 1
10
109.765000
20
130.897000
11
86.908900
21
142.594000
0
LINE
8
Layer 1
10
166.070000
20
130.897000
11
109.765000
21
130.897000
0
LINE
8
Layer 1
10
164.156000
20
135.050000
11
163.898508
21
134.427665
0
LINE
8
Layer 1
10
163.898508
20
134.427665
11
163.276314
21
134.170032
0
LINE
8
Layer 1
10
163.276314
20
134.170032
11
162.654120
21
134.427666
0
LINE
8
Layer 1
10
162.654120
20
134.427666
11
162.396628
21
135.050000
0
LINE
8
Layer 1
10
162.396628
20
135.050000
11
162.654120
21
135.672088
0
LINE
8
Layer 1
10
162.654120
20
135.672088
11
163.276314
21
135.929686
0
LINE
8
Layer 1
10
163.276314
20
135.929686
11
163.898508
21
135.672088
0
LINE
8
Layer 1
10
163.898508
20
135.672088
11
164.156000
21
135.050000
0
LINE
8
Layer 1
10
164.156000
20
135.050000
11
164.156000
21
135.050000
0
LINE
8
Layer 1
10
109.268000
20
135.050000
11
109.010402
21
134.427665
0
LINE
8
Layer 1
10
109.010402
20
134.427665
11
108.388314
21
134.170032
0
LINE
8
Layer 1
10
108.388314
20
134.170032
11
107.766120
21
134.427666
0
LINE
8
Layer 1
10
107.766120
20
134.427666
11
107.508628
21
135.050000
0
LINE
8
Layer 1
10
107.508628
20
135.050000
11
107.766120
21
135.672088
0
LINE
8
Layer 1
10
107.766120
20
135.672088
11
108.388314
21
135.929686
0
LINE
8
Layer 1
10
108.388314
20
135.929686
11
109.010402
21
135.672088
0
LINE
8
Layer 1
10
109.010402
20
135.672088
11
109.268000
21
135.050000
0
LINE
8
Layer 1
10
109.268000
20
135.050000
11
109.268000
21
135.050000
0
LINE
8
Layer 1
10
25.522500
20
134.874000
11
25.264443
21
134.251912
0
LINE
8
Layer 1
10
25.264443
20
134.251912
11
24.642532
21
133.994314
0
LINE
8
Layer 1
10
24.642532
20
133.994314
11
24.019880
21
134.251912
0
LINE
8
Layer 1
10
24.019880
20
134.251912
11
23.761717
21
134.874000
0
LINE
8
Layer 1
10
23.761717
20
134.874000
11
24.019880
21
135.496335
0
LINE
8
Layer 1
10
24.019880
20
135.496335
11
24.642532
21
135.753968
0
LINE
8
Layer 1
10
24.642532
20
135.753968
11
25.264443
21
135.496334
0
LINE
8
Layer 1
10
25.264443
20
135.496334
11
25.522500
21
134.874000
0
LINE
8
Layer 1
10
25.522500
20
134.874000
11
25.522500
21
134.874000
0
LINE
8
Layer 1
10
80.410100
20
134.874000
11
80.152502
21
134.251912
0
LINE
8
Layer 1
10
80.152502
20
134.251912
11
79.530414
21
133.994314
0
LINE
8
Layer 1
10
79.530414
20
133.994314
11
78.907656
21
134.251912
0
LINE
8
Layer 1
10
78.907656
20
134.251912
11
78.649599
21
134.874000
0
LINE
8
Layer 1
10
78.649599
20
134.874000
11
78.907656
21
135.496335
0
LINE
8
Layer 1
10
78.907656
20
135.496335
11
79.530414
21
135.753968
0
LINE
8
Layer 1
10
79.530414
20
135.753968
11
80.152502
21
135.496334
0
LINE
8
Layer 1
10
80.152502
20
135.496334
11
80.410100
21
134.874000
0
LINE
8
Layer 1
10
80.410100
20
134.874000
11
80.410100
21
134.874000
0
LINE
8
Layer 1
10
74.714900
20
145.480000
11
63.515500
21
145.480000
0
LINE
8
Layer 1
10
63.283800
20
191.200000
11
52.083200
21
191.200000
0
LINE
8
Layer 1
10
49.634700
20
192.810000
11
82.322700
21
192.810000
0
LINE
8
Layer 1
10
17.563800
20
156.912000
11
6.363260
21
156.912000
0
LINE
8
Layer 1
10
67.323200
20
160.728000
11
67.323200
21
149.528000
0
LINE
8
Layer 1
10
78.523800
20
160.728000
11
67.323200
21
160.728000
0
LINE
8
Layer 1
10
21.603200
20
160.737000
11
21.603200
21
149.536000
0
LINE
8
Layer 1
10
67.323200
20
149.528000
11
78.523800
21
149.528000
0
LINE
8
Layer 1
10
55.659500
20
134.280000
11
55.659500
21
145.480000
0
LINE
8
Layer 1
10
63.283800
20
149.528000
11
63.283800
21
160.728000
0
LINE
8
Layer 1
10
63.283800
20
160.728000
11
52.083200
21
160.728000
0
LINE
8
Layer 1
10
48.043800
20
164.536000
11
36.843200
21
164.536000
0
LINE
8
Layer 1
10
36.843200
20
164.536000
11
36.843200
21
153.336000
0
LINE
8
Layer 1
10
52.083200
20
160.728000
11
52.083200
21
149.528000
0
LINE
8
Layer 1
10
32.803800
20
149.536000
11
32.803800
21
160.737000
0
LINE
8
Layer 1
10
52.083200
20
149.528000
11
63.283800
21
149.528000
0
LINE
8
Layer 1
10
78.523800
20
149.528000
11
78.523800
21
160.728000
0
LINE
8
Layer 1
10
36.843200
20
179.768000
11
36.843200
21
168.567000
0
LINE
8
Layer 1
10
52.083200
20
175.960000
11
52.083200
21
164.760000
0
LINE
8
Layer 1
10
32.803800
20
164.768000
11
32.803800
21
175.968000
0
LINE
8
Layer 1
10
52.083200
20
164.760000
11
63.283800
21
164.760000
0
LINE
8
Layer 1
10
78.523800
20
164.760000
11
78.523800
21
175.960000
0
LINE
8
Layer 1
10
17.563800
20
172.144000
11
6.363260
21
172.144000
0
LINE
8
Layer 1
10
67.323200
20
175.960000
11
67.323200
21
164.760000
0
LINE
8
Layer 1
10
78.523800
20
175.960000
11
67.323200
21
175.960000
0
LINE
8
Layer 1
10
21.603200
20
175.968000
11
21.603200
21
164.768000
0
LINE
8
Layer 1
10
67.323200
20
164.760000
11
78.523800
21
164.760000
0
LINE
8
Layer 1
10
82.322700
20
192.810000
11
82.322700
21
130.720000
0
LINE
8
Layer 1
10
3.162860
20
142.416000
11
3.162860
21
192.815000
0
LINE
8
Layer 1
10
26.018300
20
130.720000
11
3.162860
21
142.416000
0
LINE
8
Layer 1
10
82.322700
20
130.720000
11
26.018300
21
130.720000
0
LINE
8
Layer 1
10
21.603200
20
191.208000
11
21.603200
21
180.008000
0
LINE
8
Layer 1
10
29.218700
20
145.480000
11
29.218700
21
134.280000
0
LINE
8
Layer 1
10
29.218700
20
134.280000
11
40.419600
21
134.280000
0
LINE
8
Layer 1
10
40.419600
20
145.480000
11
29.218700
21
145.480000
0
LINE
8
Layer 1
10
40.419600
20
134.280000
11
40.419600
21
145.480000
0
LINE
8
Layer 1
10
35.252400
20
196.610000
11
49.634700
21
196.610000
0
LINE
8
Layer 1
10
44.458700
20
145.480000
11
44.458700
21
134.280000
0
LINE
8
Layer 1
10
44.458700
20
134.280000
11
55.659500
21
134.280000
0
LINE
8
Layer 1
10
55.659500
20
145.480000
11
44.458700
21
145.480000
0
LINE
8
Layer 1
10
36.843200
20
153.336000
11
48.043800
21
153.336000
0
LINE
8
Layer 1
10
17.563800
20
187.384000
11
6.363260
21
187.384000
0
LINE
8
Layer 1
10
48.043800
20
168.567000
11
48.043800
21
179.768000
0
LINE
8
Layer 1
10
36.843200
20
168.567000
11
48.043800
21
168.567000
0
LINE
8
Layer 1
10
21.603200
20
164.768000
11
32.803800
21
164.768000
0
LINE
8
Layer 1
10
32.803800
20
175.968000
11
21.603200
21
175.968000
0
LINE
8
Layer 1
10
17.563800
20
160.944000
11
17.563800
21
172.144000
0
LINE
8
Layer 1
10
6.363260
20
172.144000
11
6.363260
21
160.944000
0
LINE
8
Layer 1
10
6.363260
20
160.944000
11
17.563800
21
160.944000
0
LINE
8
Layer 1
10
63.283800
20
164.760000
11
63.283800
21
175.960000
0
LINE
8
Layer 1
10
63.283800
20
175.960000
11
52.083200
21
175.960000
0
LINE
8
Layer 1
10
48.043800
20
153.336000
11
48.043800
21
164.536000
0
LINE
8
Layer 1
10
67.323200
20
191.200000
11
67.323200
21
180.000000
0
LINE
8
Layer 1
10
78.523800
20
191.200000
11
67.323200
21
191.200000
0
LINE
8
Layer 1
10
78.523800
20
180.000000
11
78.523800
21
191.200000
0
LINE
8
Layer 1
10
67.323200
20
180.000000
11
78.523800
21
180.000000
0
LINE
8
Layer 1
10
48.043800
20
179.768000
11
36.843200
21
179.768000
0
LINE
8
Layer 1
10
63.283800
20
180.000000
11
63.283800
21
191.200000
0
LINE
8
Layer 1
10
48.043800
20
183.807000
11
48.043800
21
195.008000
0
LINE
8
Layer 1
10
36.843200
20
183.807000
11
48.043800
21
183.807000
0
LINE
8
Layer 1
10
48.043800
20
195.008000
11
36.843200
21
195.008000
0
LINE
8
Layer 1
10
36.843200
20
195.008000
11
36.843200
21
183.807000
0
LINE
8
Layer 1
10
52.083200
20
191.200000
11
52.083200
21
180.000000
0
LINE
8
Layer 1
10
32.803800
20
180.008000
11
32.803800
21
191.208000
0
LINE
8
Layer 1
10
52.083200
20
180.000000
11
63.283800
21
180.000000
0
LINE
8
Layer 1
10
21.603200
20
180.008000
11
32.803800
21
180.008000
0
LINE
8
Layer 1
10
32.803800
20
191.208000
11
21.603200
21
191.208000
0
LINE
8
Layer 1
10
63.515500
20
145.480000
11
63.515500
21
134.280000
0
LINE
8
Layer 1
10
74.714900
20
134.280000
11
74.714900
21
145.480000
0
LINE
8
Layer 1
10
66.194300
20
175.401000
11
65.936137
21
174.778806
0
LINE
8
Layer 1
10
65.936137
20
174.778806
11
65.313485
21
174.521314
0
LINE
8
Layer 1
10
65.313485
20
174.521314
11
64.691714
21
174.778806
0
LINE
8
Layer 1
10
64.691714
20
174.778806
11
64.433799
21
175.401000
0
LINE
8
Layer 1
10
64.433799
20
175.401000
11
64.691714
21
176.023194
0
LINE
8
Layer 1
10
64.691714
20
176.023194
11
65.313485
21
176.280686
0
LINE
8
Layer 1
10
65.313485
20
176.280686
11
65.936137
21
176.023194
0
LINE
8
Layer 1
10
65.936137
20
176.023194
11
66.194300
21
175.401000
0
LINE
8
Layer 1
10
66.194300
20
175.401000
11
66.194300
21
175.401000
0
LINE
8
Layer 1
10
35.252400
20
192.815000
11
3.162860
21
192.815000
0
LINE
8
Layer 1
10
63.515500
20
134.280000
11
74.714900
21
134.280000
0
LINE
8
Layer 1
10
20.401500
20
175.585000
11
20.144008
21
174.962912
0
LINE
8
Layer 1
10
20.144008
20
174.962912
11
19.521814
21
174.705314
0
LINE
8
Layer 1
10
19.521814
20
174.705314
11
18.899620
21
174.962912
0
LINE
8
Layer 1
10
18.899620
20
174.962912
11
18.642128
21
175.585000
0
LINE
8
Layer 1
10
18.642128
20
175.585000
11
18.899620
21
176.207335
0
LINE
8
Layer 1
10
18.899620
20
176.207335
11
19.521814
21
176.464968
0
LINE
8
Layer 1
10
19.521814
20
176.464968
11
20.144008
21
176.207335
0
LINE
8
Layer 1
10
20.144008
20
176.207335
11
20.401500
21
175.585000
0
LINE
8
Layer 1
10
20.401500
20
175.585000
11
20.401500
21
175.585000
0
LINE
8
Layer 1
10
17.563800
20
176.184000
11
17.563800
21
187.384000
0
LINE
8
Layer 1
10
49.634700
20
196.610000
11
49.634700
21
192.810000
0
LINE
8
Layer 1
10
6.363260
20
187.384000
11
6.363260
21
176.184000
0
LINE
8
Layer 1
10
35.252400
20
192.815000
11
35.252400
21
196.610000
0
LINE
8
Layer 1
10
21.603200
20
149.536000
11
32.803800
21
149.536000
0
LINE
8
Layer 1
10
32.803800
20
160.737000
11
21.603200
21
160.737000
0
LINE
8
Layer 1
10
17.563800
20
145.712000
11
17.563800
21
156.912000
0
LINE
8
Layer 1
10
6.363260
20
156.912000
11
6.363260
21
145.712000
0
LINE
8
Layer 1
10
6.363260
20
145.712000
11
17.563800
21
145.712000
0
LINE
8
Layer 1
10
6.363260
20
176.184000
11
17.563800
21
176.184000
0
LINE
8
Layer 1
10
149.940000
20
175.579000
11
149.682508
21
174.956242
0
LINE
8
Layer 1
10
149.682508
20
174.956242
11
149.060314
21
174.698185
0
LINE
8
Layer 1
10
149.060314
20
174.698185
11
148.438120
21
174.956242
0
LINE
8
Layer 1
10
148.438120
20
174.956242
11
148.180628
21
175.579000
0
LINE
8
Layer 1
10
148.180628
20
175.579000
11
148.438120
21
176.200771
0
LINE
8
Layer 1
10
148.438120
20
176.200771
11
149.060314
21
176.458686
0
LINE
8
Layer 1
10
149.060314
20
176.458686
11
149.682508
21
176.200771
0
LINE
8
Layer 1
10
149.682508
20
176.200771
11
149.940000
21
175.579000
0
LINE
8
Layer 1
10
149.940000
20
175.579000
11
149.940000
21
175.579000
0
LINE
8
Layer 1
10
104.149000
20
175.762000
11
103.890943
21
175.140336
0
LINE
8
Layer 1
10
103.890943
20
175.140336
11
103.268185
21
174.882314
0
LINE
8
Layer 1
10
103.268185
20
174.882314
11
102.646414
21
175.140336
0
LINE
8
Layer 1
10
102.646414
20
175.140336
11
102.388499
21
175.762000
0
LINE
8
Layer 1
10
102.388499
20
175.762000
11
102.646414
21
176.384758
0
LINE
8
Layer 1
10
102.646414
20
176.384758
11
103.268185
21
176.642815
0
LINE
8
Layer 1
10
103.268185
20
176.642815
11
103.890943
21
176.384758
0
LINE
8
Layer 1
10
103.890943
20
176.384758
11
104.149000
21
175.762000
0
LINE
8
Layer 1
10
104.149000
20
175.762000
11
104.149000
21
175.762000
0
LINE
8
Layer 1
10
166.070000
20
209.336000
11
166.070000
21
130.897000
0
LINE
8
Layer 1
10
86.908900
20
209.336000
11
166.070000
21
209.336000
0
LINE
8
Layer 1
10
86.908900
20
142.594000
11
86.908900
21
209.336000
0
LINE
8
Layer 1
10
109.765000
20
130.897000
11
86.908900
21
142.594000
0
LINE
8
Layer 1
10
166.070000
20
130.897000
11
109.765000
21
130.897000
0
LINE
8
Layer 1
10
164.156000
20
135.050000
11
163.898508
21
134.427665
0
LINE
8
Layer 1
10
163.898508
20
134.427665
11
163.276314
21
134.170032
0
LINE
8
Layer 1
10
163.276314
20
134.170032
11
162.654120
21
134.427666
0
LINE
8
Layer 1
10
162.654120
20
134.427666
11
162.396628
21
135.050000
0
LINE
8
Layer 1
10
162.396628
20
135.050000
11
162.654120
21
135.672088
0
LINE
8
Layer 1
10
162.654120
20
135.672088
11
163.276314
21
135.929686
0
LINE
8
Layer 1
10
163.276314
20
135.929686
11
163.898508
21
135.672088
0
LINE
8
Layer 1
10
163.898508
20
135.672088
11
164.156000
21
135.050000
0
LINE
8
Layer 1
10
164.156000
20
135.050000
11
164.156000
21
135.050000
0
LINE
8
Layer 1
10
109.268000
20
135.050000
11
109.010402
21
134.427665
0
LINE
8
Layer 1
10
109.010402
20
134.427665
11
108.388314
21
134.170032
0
LINE
8
Layer 1
10
108.388314
20
134.170032
11
107.766120
21
134.427666
0
LINE
8
Layer 1
10
107.766120
20
134.427666
11
107.508628
21
135.050000
0
LINE
8
Layer 1
10
107.508628
20
135.050000
11
107.766120
21
135.672088
0
LINE
8
Layer 1
10
107.766120
20
135.672088
11
108.388314
21
135.929686
0
LINE
8
Layer 1
10
108.388314
20
135.929686
11
109.010402
21
135.672088
0
LINE
8
Layer 1
10
109.010402
20
135.672088
11
109.268000
21
135.050000
0
LINE
8
Layer 1
10
109.268000
20
135.050000
11
109.268000
21
135.050000
0
LINE
8
Layer 1
10
25.522500
20
134.874000
11
25.264443
21
134.251912
0
LINE
8
Layer 1
10
25.264443
20
134.251912
11
24.642532
21
133.994314
0
LINE
8
Layer 1
10
24.642532
20
133.994314
11
24.019880
21
134.251912
0
LINE
8
Layer 1
10
24.019880
20
134.251912
11
23.761717
21
134.874000
0
LINE
8
Layer 1
10
23.761717
20
134.874000
11
24.019880
21
135.496335
0
LINE
8
Layer 1
10
24.019880
20
135.496335
11
24.642532
21
135.753968
0
LINE
8
Layer 1
10
24.642532
20
135.753968
11
25.264443
21
135.496334
0
LINE
8
Layer 1
10
25.264443
20
135.496334
11
25.522500
21
134.874000
0
LINE
8
Layer 1
10
25.522500
20
134.874000
11
25.522500
21
134.874000
0
LINE
8
Layer 1
10
80.410100
20
134.874000
11
80.152502
21
134.251912
0
LINE
8
Layer 1
10
80.152502
20
134.251912
11
79.530414
21
133.994314
0
LINE
8
Layer 1
10
79.530414
20
133.994314
11
78.907656
21
134.251912
0
LINE
8
Layer 1
10
78.907656
20
134.251912
11
78.649599
21
134.874000
0
LINE
8
Layer 1
10
78.649599
20
134.874000
11
78.907656
21
135.496335
0
LINE
8
Layer 1
10
78.907656
20
135.496335
11
79.530414
21
135.753968
0
LINE
8
Layer 1
10
79.530414
20
135.753968
11
80.152502
21
135.496334
0
LINE
8
Layer 1
10
80.152502
20
135.496334
11
80.410100
21
134.874000
0
LINE
8
Layer 1
10
80.410100
20
134.874000
11
80.410100
21
134.874000
0
LINE
8
Layer 1
10
74.714900
20
145.480000
11
63.515500
21
145.480000
0
LINE
8
Layer 1
10
63.283800
20
191.200000
11
52.083200
21
191.200000
0
LINE
8
Layer 1
10
49.634700
20
192.810000
11
82.322700
21
192.810000
0
LINE
8
Layer 1
10
17.563800
20
156.912000
11
6.363260
21
156.912000
0
LINE
8
Layer 1
10
67.323200
20
160.728000
11
67.323200
21
149.528000
0
LINE
8
Layer 1
10
78.523800
20
160.728000
11
67.323200
21
160.728000
0
LINE
8
Layer 1
10
21.603200
20
160.737000
11
21.603200
21
149.536000
0
LINE
8
Layer 1
10
67.323200
20
149.528000
11
78.523800
21
149.528000
0
LINE
8
Layer 1
10
55.659500
20
134.280000
11
55.659500
21
145.480000
0
LINE
8
Layer 1
10
63.283800
20
149.528000
11
63.283800
21
160.728000
0
LINE
8
Layer 1
10
63.283800
20
160.728000
11
52.083200
21
160.728000
0
LINE
8
Layer 1
10
48.043800
20
164.536000
11
36.843200
21
164.536000
0
LINE
8
Layer 1
10
36.843200
20
164.536000
11
36.843200
21
153.336000
0
LINE
8
Layer 1
10
52.083200
20
160.728000
11
52.083200
21
149.528000
0
LINE
8
Layer 1
10
32.803800
20
149.536000
11
32.803800
21
160.737000
0
LINE
8
Layer 1
10
52.083200
20
149.528000
11
63.283800
21
149.528000
0
LINE
8
Layer 1
10
78.523800
20
149.528000
11
78.523800
21
160.728000
0
LINE
8
Layer 1
10
36.843200
20
179.768000
11
36.843200
21
168.567000
0
LINE
8
Layer 1
10
52.083200
20
175.960000
11
52.083200
21
164.760000
0
LINE
8
Layer 1
10
32.803800
20
164.768000
11
32.803800
21
175.968000
0
LINE
8
Layer 1
10
52.083200
20
164.760000
11
63.283800
21
164.760000
0
LINE
8
Layer 1
10
78.523800
20
164.760000
11
78.523800
21
175.960000
0
LINE
8
Layer 1
10
17.563800
20
172.144000
11
6.363260
21
172.144000
0
LINE
8
Layer 1
10
67.323200
20
175.960000
11
67.323200
21
164.760000
0
LINE
8
Layer 1
10
78.523800
20
175.960000
11
67.323200
21
175.960000
0
LINE
8
Layer 1
10
21.603200
20
175.968000
11
21.603200
21
164.768000
0
LINE
8
Layer 1
10
67.323200
20
164.760000
11
78.523800
21
164.760000
0
LINE
8
Layer 1
10
82.322700
20
192.810000
11
82.322700
21
130.720000
0
LINE
8
Layer 1
10
3.162860
20
142.416000
11
3.162860
21
192.815000
0
LINE
8
Layer 1
10
26.018300
20
130.720000
11
3.162860
21
142.416000
0
LINE
8
Layer 1
10
82.322700
20
130.720000
11
26.018300
21
130.720000
0
LINE
8
Layer 1
10
21.603200
20
191.208000
11
21.603200
21
180.008000
0
LINE
8
Layer 1
10
29.218700
20
145.480000
11
29.218700
21
134.280000
0
LINE
8
Layer 1
10
29.218700
20
134.280000
11
40.419600
21
134.280000
0
LINE
8
Layer 1
10
40.419600
20
145.480000
11
29.218700
21
145.480000
0
LINE
8
Layer 1
10
40.419600
20
134.280000
11
40.419600
21
145.480000
0
LINE
8
Layer 1
10
35.252400
20
196.610000
11
49.634700
21
196.610000
0
LINE
8
Layer 1
10
44.458700
20
145.480000
11
44.458700
21
134.280000
0
LINE
8
Layer 1
10
44.458700
20
134.280000
11
55.659500
21
134.280000
0
LINE
8
Layer 1
10
55.659500
20
145.480000
11
44.458700
21
145.480000
0
LINE
8
Layer 1
10
36.843200
20
153.336000
11
48.043800
21
153.336000
0
LINE
8
Layer 1
10
17.563800
20
187.384000
11
6.363260
21
187.384000
0
LINE
8
Layer 1
10
48.043800
20
168.567000
11
48.043800
21
179.768000
0
LINE
8
Layer 1
10
36.843200
20
168.567000
11
48.043800
21
168.567000
0
LINE
8
Layer 1
10
21.603200
20
164.768000
11
32.803800
21
164.768000
0
LINE
8
Layer 1
10
32.803800
20
175.968000
11
21.603200
21
175.968000
0
LINE
8
Layer 1
10
17.563800
20
160.944000
11
17.563800
21
172.144000
0
LINE
8
Layer 1
10
6.363260
20
172.144000
11
6.363260
21
160.944000
0
LINE
8
Layer 1
10
6.363260
20
160.944000
11
17.563800
21
160.944000
0
LINE
8
Layer 1
10
63.283800
20
164.760000
11
63.283800
21
175.960000
0
LINE
8
Layer 1
10
63.283800
20
175.960000
11
52.083200
21
175.960000
0
LINE
8
Layer 1
10
48.043800
20
153.336000
11
48.043800
21
164.536000
0
LINE
8
Layer 1
10
67.323200
20
191.200000
11
67.323200
21
180.000000
0
LINE
8
Layer 1
10
78.523800
20
191.200000
11
67.323200
21
191.200000
0
LINE
8
Layer 1
10
78.523800
20
180.000000
11
78.523800
21
191.200000
0
LINE
8
Layer 1
10
67.323200
20
180.000000
11
78.523800
21
180.000000
0
LINE
8
Layer 1
10
48.043800
20
179.768000
11
36.843200
21
179.768000
0
LINE
8
Layer 1
10
63.283800
20
180.000000
11
63.283800
21
191.200000
0
LINE
8
Layer 1
10
48.043800
20
183.807000
11
48.043800
21
195.008000
0
LINE
8
Layer 1
10
36.843200
20
183.807000
11
48.043800
21
183.807000
0
LINE
8
Layer 1
10
48.043800
20
195.008000
11
36.843200
21
195.008000
0
LINE
8
Layer 1
10
36.843200
20
195.008000
11
36.843200
21
183.807000
0
LINE
8
Layer 1
10
52.083200
20
191.200000
11
52.083200
21
180.000000
0
LINE
8
Layer 1
10
32.803800
20
180.008000
11
32.803800
21
191.208000
0
LINE
8
Layer 1
10
52.083200
20
180.000000
11
63.283800
21
180.000000
0
LINE
8
Layer 1
10
21.603200
20
180.008000
11
32.803800
21
180.008000
0
LINE
8
Layer 1
10
32.803800
20
191.208000
11
21.603200
21
191.208000
0
LINE
8
Layer 1
10
63.515500
20
145.480000
11
63.515500
21
134.280000
0
LINE
8
Layer 1
10
74.714900
20
134.280000
11
74.714900
21
145.480000
0
LINE
8
Layer 1
10
66.194300
20
175.401000
11
65.936137
21
174.778806
0
LINE
8
Layer 1
10
65.936137
20
174.778806
11
65.313485
21
174.521314
0
LINE
8
Layer 1
10
65.313485
20
174.521314
11
64.691714
21
174.778806
0
LINE
8
Layer 1
10
64.691714
20
174.778806
11
64.433799
21
175.401000
0
LINE
8
Layer 1
10
64.433799
20
175.401000
11
64.691714
21
176.023194
0
LINE
8
Layer 1
10
64.691714
20
176.023194
11
65.313485
21
176.280686
0
LINE
8
Layer 1
10
65.313485
20
176.280686
11
65.936137
21
176.023194
0
LINE
8
Layer 1
10
65.936137
20
176.023194
11
66.194300
21
175.401000
0
LINE
8
Layer 1
10
66.194300
20
175.401000
11
66.194300
21
175.401000
0
LINE
8
Layer 1
10
35.252400
20
192.815000
11
3.162860
21
192.815000
0
LINE
8
Layer 1
10
63.515500
20
134.280000
11
74.714900
21
134.280000
0
LINE
8
Layer 1
10
20.401500
20
175.585000
11
20.144008
21
174.962912
0
LINE
8
Layer 1
10
20.144008
20
174.962912
11
19.521814
21
174.705314
0
LINE
8
Layer 1
10
19.521814
20
174.705314
11
18.899620
21
174.962912
0
LINE
8
Layer 1
10
18.899620
20
174.962912
11
18.642128
21
175.585000
0
LINE
8
Layer 1
10
18.642128
20
175.585000
11
18.899620
21
176.207335
0
LINE
8
Layer 1
10
18.899620
20
176.207335
11
19.521814
21
176.464968
0
LINE
8
Layer 1
10
19.521814
20
176.464968
11
20.144008
21
176.207335
0
LINE
8
Layer 1
10
20.144008
20
176.207335
11
20.401500
21
175.585000
0
LINE
8
Layer 1
10
20.401500
20
175.585000
11
20.401500
21
175.585000
0
LINE
8
Layer 1
10
17.563800
20
176.184000
11
17.563800
21
187.384000
0
LINE
8
Layer 1
10
49.634700
20
196.610000
11
49.634700
21
192.810000
0
LINE
8
Layer 1
10
6.363260
20
187.384000
11
6.363260
21
176.184000
0
LINE
8
Layer 1
10
35.252400
20
192.815000
11
35.252400
21
196.610000
0
LINE
8
Layer 1
10
21.603200
20
149.536000
11
32.803800
21
149.536000
0
LINE
8
Layer 1
10
32.803800
20
160.737000
11
21.603200
21
160.737000
0
LINE
8
Layer 1
10
17.563800
20
145.712000
11
17.563800
21
156.912000
0
LINE
8
Layer 1
10
6.363260
20
156.912000
11
6.363260
21
145.712000
0
LINE
8
Layer 1
10
6.363260
20
145.712000
11
17.563800
21
145.712000
0
LINE
8
Layer 1
10
6.363260
20
176.184000
11
17.563800
21
176.184000
0
LINE
8
Layer 1
10
416.156000
20
194.354000
11
416.156000
21
182.009000
0
LINE
8
Layer 1
10
416.156000
20
182.009000
11
404.956000
21
182.009000
0
LINE
8
Layer 1
10
373.013000
20
194.354000
11
416.156000
21
194.354000
0
LINE
8
Layer 1
10
404.956000
20
182.009000
11
404.956000
21
178.201000
0
LINE
8
Layer 1
10
373.013000
20
178.201000
11
373.013000
21
194.354000
0
LINE
8
Layer 1
10
404.956000
20
178.201000
11
373.013000
21
178.201000
0
LINE
8
Layer 1
10
375.546000
20
138.709000
11
343.050000
21
138.709000
0
LINE
8
Layer 1
10
328.330000
20
138.709000
11
296.385000
21
138.709000
0
LINE
8
Layer 1
10
375.546000
20
154.859000
11
375.546000
21
138.709000
0
LINE
8
Layer 1
10
296.385000
20
154.859000
11
375.546000
21
154.859000
0
LINE
8
Layer 1
10
296.385000
20
138.709000
11
296.385000
21
154.859000
0
LINE
8
Layer 1
10
343.050000
20
142.517000
11
328.330000
21
142.517000
0
LINE
8
Layer 1
10
328.330000
20
142.517000
11
328.330000
21
138.709000
0
LINE
8
Layer 1
10
343.050000
20
138.709000
11
343.050000
21
142.517000
0
LINE
8
Layer 1
10
338.916000
20
184.537000
11
349.612000
21
184.537000
0
LINE
8
Layer 1
10
349.612000
20
194.602000
11
338.916000
21
194.602000
0
LINE
8
Layer 1
10
338.916000
20
194.602000
11
338.916000
21
184.537000
0
LINE
8
Layer 1
10
349.612000
20
184.537000
11
349.612000
21
194.602000
0
LINE
8
Layer 1
10
335.315000
20
185.490000
11
320.595000
21
185.490000
0
LINE
8
Layer 1
10
288.652000
20
197.835000
11
367.811000
21
197.835000
0
LINE
8
Layer 1
10
320.595000
20
185.490000
11
320.595000
21
181.682000
0
LINE
8
Layer 1
10
335.315000
20
181.682000
11
335.315000
21
185.490000
0
LINE
8
Layer 1
10
367.811000
20
181.682000
11
335.315000
21
181.682000
0
LINE
8
Layer 1
10
288.652000
20
181.682000
11
288.652000
21
197.835000
0
LINE
8
Layer 1
10
320.595000
20
181.682000
11
288.652000
21
181.682000
0
LINE
8
Layer 1
10
367.811000
20
197.835000
11
367.811000
21
181.682000
0
LINE
8
Layer 1
10
375.546000
20
138.709000
11
343.050000
21
138.709000
0
LINE
8
Layer 1
10
328.330000
20
138.709000
11
296.385000
21
138.709000
0
LINE
8
Layer 1
10
375.546000
20
154.859000
11
375.546000
21
138.709000
0
LINE
8
Layer 1
10
296.385000
20
154.859000
11
375.546000
21
154.859000
0
LINE
8
Layer 1
10
296.385000
20
138.709000
11
296.385000
21
154.859000
0
LINE
8
Layer 1
10
343.050000
20
142.517000
11
328.330000
21
142.517000
0
LINE
8
Layer 1
10
328.330000
20
142.517000
11
328.330000
21
138.709000
0
LINE
8
Layer 1
10
343.050000
20
138.709000
11
343.050000
21
142.517000
0
LINE
8
Layer 1
10
353.052000
20
162.819000
11
363.747000
21
162.819000
0
LINE
8
Layer 1
10
353.052000
20
172.884000
11
353.052000
21
162.819000
0
LINE
8
Layer 1
10
363.747000
20
172.884000
11
353.052000
21
172.884000
0
LINE
8
Layer 1
10
363.747000
20
162.819000
11
363.747000
21
172.884000
0
LINE
8
Layer 1
10
335.427000
20
163.772000
11
320.707000
21
163.772000
0
LINE
8
Layer 1
10
288.764000
20
176.117000
11
367.922000
21
176.117000
0
LINE
8
Layer 1
10
320.707000
20
163.772000
11
320.707000
21
159.964000
0
LINE
8
Layer 1
10
335.427000
20
159.964000
11
335.427000
21
163.772000
0
LINE
8
Layer 1
10
367.922000
20
159.964000
11
335.427000
21
159.964000
0
LINE
8
Layer 1
10
288.764000
20
159.964000
11
288.764000
21
176.117000
0
LINE
8
Layer 1
10
320.707000
20
159.964000
11
288.764000
21
159.964000
0
LINE
8
Layer 1
10
367.922000
20
176.117000
11
367.922000
21
159.964000
0
LINE
8
Layer 1
10
338.916000
20
143.886000
11
349.612000
21
143.886000
0
LINE
8
Layer 1
10
349.612000
20
153.950000
11
338.916000
21
153.950000
0
LINE
8
Layer 1
10
338.916000
20
153.950000
11
338.916000
21
143.886000
0
LINE
8
Layer 1
10
349.612000
20
143.886000
11
349.612000
21
153.950000
0
LINE
8
Layer 1
10
352.941000
20
143.886000
11
363.635000
21
143.886000
0
LINE
8
Layer 1
10
352.941000
20
153.950000
11
352.941000
21
143.886000
0
LINE
8
Layer 1
10
363.635000
20
153.950000
11
352.941000
21
153.950000
0
LINE
8
Layer 1
10
363.635000
20
143.886000
11
363.635000
21
153.950000
0
LINE
8
Layer 1
10
335.315000
20
144.839000
11
320.595000
21
144.839000
0
LINE
8
Layer 1
10
288.652000
20
157.183000
11
367.811000
21
157.183000
0
LINE
8
Layer 1
10
320.595000
20
144.839000
11
320.595000
21
141.031000
0
LINE
8
Layer 1
10
335.315000
20
141.031000
11
335.315000
21
144.839000
0
LINE
8
Layer 1
10
367.811000
20
141.031000
11
335.315000
21
141.031000
0
LINE
8
Layer 1
10
288.652000
20
141.031000
11
288.652000
21
157.183000
0
LINE
8
Layer 1
10
320.595000
20
141.031000
11
288.652000
21
141.031000
0
LINE
8
Layer 1
10
367.811000
20
157.183000
11
367.811000
21
141.031000
0
LINE
8
Layer 1
10
338.916000
20
184.537000
11
349.612000
21
184.537000
0
LINE
8
Layer 1
10
349.612000
20
194.602000
11
338.916000
21
194.602000
0
LINE
8
Layer 1
10
338.916000
20
194.602000
11
338.916000
21
184.537000
0
LINE
8
Layer 1
10
349.612000
20
184.537000
11
349.612000
21
194.602000
0
LINE
8
Layer 1
10
335.315000
20
185.490000
11
320.595000
21
185.490000
0
LINE
8
Layer 1
10
288.652000
20
197.835000
11
367.811000
21
197.835000
0
LINE
8
Layer 1
10
320.595000
20
185.490000
11
320.595000
21
181.682000
0
LINE
8
Layer 1
10
335.315000
20
181.682000
11
335.315000
21
185.490000
0
LINE
8
Layer 1
10
367.811000
20
181.682000
11
335.315000
21
181.682000
0
LINE
8
Layer 1
10
288.652000
20
181.682000
11
288.652000
21
197.835000
0
LINE
8
Layer 1
10
320.595000
20
181.682000
11
288.652000
21
181.682000
0
LINE
8
Layer 1
10
367.811000
20
197.835000
11
367.811000
21
181.682000
0
LINE
8
Layer 1
10
353.052000
20
162.819000
11
363.747000
21
162.819000
0
LINE
8
Layer 1
10
353.052000
20
172.884000
11
353.052000
21
162.819000
0
LINE
8
Layer 1
10
363.747000
20
172.884000
11
353.052000
21
172.884000
0
LINE
8
Layer 1
10
363.747000
20
162.819000
11
363.747000
21
172.884000
0
LINE
8
Layer 1
10
335.427000
20
163.772000
11
320.707000
21
163.772000
0
LINE
8
Layer 1
10
288.764000
20
176.117000
11
367.922000
21
176.117000
0
LINE
8
Layer 1
10
320.707000
20
163.772000
11
320.707000
21
159.964000
0
LINE
8
Layer 1
10
335.427000
20
159.964000
11
335.427000
21
163.772000
0
LINE
8
Layer 1
10
367.922000
20
159.964000
11
335.427000
21
159.964000
0
LINE
8
Layer 1
10
288.764000
20
159.964000
11
288.764000
21
176.117000
0
LINE
8
Layer 1
10
320.707000
20
159.964000
11
288.764000
21
159.964000
0
LINE
8
Layer 1
10
367.922000
20
176.117000
11
367.922000
21
159.964000
0
LINE
8
Layer 1
10
338.916000
20
143.886000
11
349.612000
21
143.886000
0
LINE
8
Layer 1
10
349.612000
20
153.950000
11
338.916000
21
153.950000
0
LINE
8
Layer 1
10
338.916000
20
153.950000
11
338.916000
21
143.886000
0
LINE
8
Layer 1
10
349.612000
20
143.886000
11
349.612000
21
153.950000
0
LINE
8
Layer 1
10
352.941000
20
143.886000
11
363.635000
21
143.886000
0
LINE
8
Layer 1
10
352.941000
20
153.950000
11
352.941000
21
143.886000
0
LINE
8
Layer 1
10
363.635000
20
153.950000
11
352.941000
21
153.950000
0
LINE
8
Layer 1
10
363.635000
20
143.886000
11
363.635000
21
153.950000
0
LINE
8
Layer 1
10
335.315000
20
144.839000
11
320.595000
21
144.839000
0
LINE
8
Layer 1
10
288.652000
20
157.183000
11
367.811000
21
157.183000
0
LINE
8
Layer 1
10
320.595000
20
144.839000
11
320.595000
21
141.031000
0
LINE
8
Layer 1
10
335.315000
20
141.031000
11
335.315000
21
144.839000
0
LINE
8
Layer 1
10
367.811000
20
141.031000
11
335.315000
21
141.031000
0
LINE
8
Layer 1
10
288.652000
20
141.031000
11
288.652000
21
157.183000
0
LINE
8
Layer 1
10
320.595000
20
141.031000
11
288.652000
21
141.031000
0
LINE
8
Layer 1
10
367.811000
20
157.183000
11
367.811000
21
141.031000
 0 
ENDSEC
 0 
EOF