999
"DXF R12 Output" (www.mydxf.blogspot.com)
 0 
SECTION
 2 
HEADER
 9 
$ACADVER
 1 
AC1009
 9 
$EXTMIN
 10 
 0 
 20 
 0 
 9 
$EXTMAX
 10 
 8.5 
 20 
 11 
 0 
ENDSEC
 0 
SECTION
 2 
ENTITIES
0
LINE
8
Layer 1
10
375.546000
20
-89.068900
11
343.050000
21
-89.068900
0
LINE
8
Layer 1
10
328.330000
20
-89.068900
11
296.385000
21
-89.068900
0
LINE
8
Layer 1
10
375.546000
20
-72.918600
11
375.546000
21
-89.068900
0
LINE
8
Layer 1
10
296.385000
20
-72.918600
11
375.546000
21
-72.918600
0
LINE
8
Layer 1
10
296.385000
20
-89.068900
11
296.385000
21
-72.918600
0
LINE
8
Layer 1
10
343.050000
20
-85.261000
11
328.330000
21
-85.261000
0
LINE
8
Layer 1
10
328.330000
20
-85.261000
11
328.330000
21
-89.068900
0
LINE
8
Layer 1
10
343.050000
20
-89.068900
11
343.050000
21
-85.261000
0
LINE
8
Layer 1
10
338.916000
20
-83.892100
11
349.612000
21
-83.892100
0
LINE
8
Layer 1
10
349.612000
20
-73.827600
11
338.916000
21
-73.827600
0
LINE
8
Layer 1
10
338.916000
20
-73.827600
11
338.916000
21
-83.892100
0
LINE
8
Layer 1
10
349.612000
20
-83.892100
11
349.612000
21
-73.827600
0
LINE
8
Layer 1
10
352.941000
20
-83.892100
11
363.635000
21
-83.892100
0
LINE
8
Layer 1
10
352.941000
20
-73.827600
11
352.941000
21
-83.892100
0
LINE
8
Layer 1
10
363.635000
20
-73.827600
11
352.941000
21
-73.827600
0
LINE
8
Layer 1
10
363.635000
20
-83.892100
11
363.635000
21
-73.827600
0
LINE
8
Layer 1
10
335.315000
20
-82.939100
11
320.595000
21
-82.939100
0
LINE
8
Layer 1
10
288.652000
20
-70.594700
11
367.811000
21
-70.594700
0
LINE
8
Layer 1
10
320.595000
20
-82.939100
11
320.595000
21
-86.747100
0
LINE
8
Layer 1
10
335.315000
20
-86.747100
11
335.315000
21
-82.939100
0
LINE
8
Layer 1
10
367.811000
20
-86.747100
11
335.315000
21
-86.747100
0
LINE
8
Layer 1
10
288.652000
20
-86.747100
11
288.652000
21
-70.594700
0
LINE
8
Layer 1
10
320.595000
20
-86.747100
11
288.652000
21
-86.747100
0
LINE
8
Layer 1
10
367.811000
20
-70.594700
11
367.811000
21
-86.747100
0
LINE
8
Layer 1
10
375.546000
20
-89.068900
11
343.050000
21
-89.068900
0
LINE
8
Layer 1
10
328.330000
20
-89.068900
11
296.385000
21
-89.068900
0
LINE
8
Layer 1
10
375.546000
20
-72.918600
11
375.546000
21
-89.068900
0
LINE
8
Layer 1
10
296.385000
20
-72.918600
11
375.546000
21
-72.918600
0
LINE
8
Layer 1
10
296.385000
20
-89.068900
11
296.385000
21
-72.918600
0
LINE
8
Layer 1
10
343.050000
20
-85.261000
11
328.330000
21
-85.261000
0
LINE
8
Layer 1
10
328.330000
20
-85.261000
11
328.330000
21
-89.068900
0
LINE
8
Layer 1
10
343.050000
20
-89.068900
11
343.050000
21
-85.261000
0
LINE
8
Layer 1
10
338.916000
20
-83.892100
11
349.612000
21
-83.892100
0
LINE
8
Layer 1
10
349.612000
20
-73.827600
11
338.916000
21
-73.827600
0
LINE
8
Layer 1
10
338.916000
20
-73.827600
11
338.916000
21
-83.892100
0
LINE
8
Layer 1
10
349.612000
20
-83.892100
11
349.612000
21
-73.827600
0
LINE
8
Layer 1
10
352.941000
20
-83.892100
11
363.635000
21
-83.892100
0
LINE
8
Layer 1
10
352.941000
20
-73.827600
11
352.941000
21
-83.892100
0
LINE
8
Layer 1
10
363.635000
20
-73.827600
11
352.941000
21
-73.827600
0
LINE
8
Layer 1
10
363.635000
20
-83.892100
11
363.635000
21
-73.827600
0
LINE
8
Layer 1
10
335.315000
20
-82.939100
11
320.595000
21
-82.939100
0
LINE
8
Layer 1
10
288.652000
20
-70.594700
11
367.811000
21
-70.594700
0
LINE
8
Layer 1
10
320.595000
20
-82.939100
11
320.595000
21
-86.747100
0
LINE
8
Layer 1
10
335.315000
20
-86.747100
11
335.315000
21
-82.939100
0
LINE
8
Layer 1
10
367.811000
20
-86.747100
11
335.315000
21
-86.747100
0
LINE
8
Layer 1
10
288.652000
20
-86.747100
11
288.652000
21
-70.594700
0
LINE
8
Layer 1
10
320.595000
20
-86.747100
11
288.652000
21
-86.747100
0
LINE
8
Layer 1
10
367.811000
20
-70.594700
11
367.811000
21
-86.747100
 0 
ENDSEC
 0 
EOF