G04 #@! TF.GenerationSoftware,KiCad,Pcbnew,(5.1.6-0-10_14)*
G04 #@! TF.CreationDate,2022-08-17T10:56:06+09:00*
G04 #@! TF.ProjectId,cool536trackballparts,636f6f6c-3533-4367-9472-61636b62616c,rev?*
G04 #@! TF.SameCoordinates,Original*
G04 #@! TF.FileFunction,Copper,L2,Bot*
G04 #@! TF.FilePolarity,Positive*
%FSLAX46Y46*%
G04 Gerber Fmt 4.6, Leading zero omitted, Abs format (unit mm)*
G04 Created by KiCad (PCBNEW (5.1.6-0-10_14)) date 2022-08-17 10:56:06*
%MOMM*%
%LPD*%
G01*
G04 APERTURE LIST*
G04 #@! TA.AperFunction,ComponentPad*
%ADD10C,1.397000*%
G04 #@! TD*
G04 #@! TA.AperFunction,ComponentPad*
%ADD11R,1.397000X1.397000*%
G04 #@! TD*
G04 #@! TA.AperFunction,ViaPad*
%ADD12C,0.800000*%
G04 #@! TD*
G04 #@! TA.AperFunction,Conductor*
%ADD13C,0.250000*%
G04 #@! TD*
G04 APERTURE END LIST*
D10*
X86830000Y-42520000D03*
X86830000Y-45060000D03*
X86830000Y-47600000D03*
X86830000Y-50140000D03*
D11*
X86830000Y-52680000D03*
D10*
X80060000Y-70040000D03*
X77520000Y-70040000D03*
X74980000Y-70040000D03*
X72440000Y-70040000D03*
X43360000Y-70040000D03*
X45900000Y-70040000D03*
X48440000Y-70040000D03*
X50980000Y-70040000D03*
D11*
X36590000Y-42520000D03*
D10*
X36590000Y-45060000D03*
X36590000Y-47600000D03*
X36590000Y-50140000D03*
X36590000Y-52680000D03*
D12*
X49630000Y-52720000D03*
X43180000Y-47620000D03*
X82340000Y-52490000D03*
X74990000Y-52530000D03*
D13*
X48440000Y-70040000D02*
X48440000Y-43430000D01*
X47530000Y-42520000D02*
X36590000Y-42520000D01*
X48440000Y-43430000D02*
X47530000Y-42520000D01*
X86830000Y-47600000D02*
X86810000Y-47620000D01*
X77960000Y-47620000D02*
X77520000Y-48060000D01*
X86810000Y-47620000D02*
X77960000Y-47620000D01*
X77520000Y-48060000D02*
X77520000Y-70040000D01*
X50980000Y-70040000D02*
X50980000Y-53520000D01*
X50180000Y-52720000D02*
X49630000Y-52720000D01*
X50980000Y-53520000D02*
X50180000Y-52720000D01*
X80060000Y-70040000D02*
X81524499Y-68575501D01*
X81524499Y-68575501D02*
X81524499Y-50995501D01*
X81524499Y-50995501D02*
X82380000Y-50140000D01*
X82380000Y-50140000D02*
X86830000Y-50140000D01*
X45900000Y-70040000D02*
X45900000Y-48040000D01*
X45480000Y-47620000D02*
X43180000Y-47620000D01*
X45900000Y-48040000D02*
X45480000Y-47620000D01*
X82340000Y-52490000D02*
X86640000Y-52490000D01*
X86640000Y-52490000D02*
X86830000Y-52680000D01*
X74980000Y-70040000D02*
X74980000Y-52540000D01*
X74980000Y-52540000D02*
X74990000Y-52530000D01*
X86790000Y-52720000D02*
X86830000Y-52680000D01*
X41893297Y-68573297D02*
X41893297Y-46533297D01*
X43360000Y-70040000D02*
X41893297Y-68573297D01*
X40420000Y-45060000D02*
X36590000Y-45060000D01*
X41893297Y-46533297D02*
X40420000Y-45060000D01*
X72440000Y-43620000D02*
X73540000Y-42520000D01*
X73540000Y-42520000D02*
X86830000Y-42520000D01*
X72440000Y-70040000D02*
X72440000Y-43620000D01*
M02*
