G04 #@! TF.GenerationSoftware,KiCad,Pcbnew,(5.1.6-0-10_14)*
G04 #@! TF.CreationDate,2022-08-17T10:56:06+09:00*
G04 #@! TF.ProjectId,cool536trackballparts,636f6f6c-3533-4367-9472-61636b62616c,rev?*
G04 #@! TF.SameCoordinates,Original*
G04 #@! TF.FileFunction,Soldermask,Top*
G04 #@! TF.FilePolarity,Negative*
%FSLAX46Y46*%
G04 Gerber Fmt 4.6, Leading zero omitted, Abs format (unit mm)*
G04 Created by KiCad (PCBNEW (5.1.6-0-10_14)) date 2022-08-17 10:56:06*
%MOMM*%
%LPD*%
G01*
G04 APERTURE LIST*
%ADD10C,0.100000*%
G04 APERTURE END LIST*
D10*
G36*
X62838383Y-61655489D02*
G01*
X62838386Y-61655490D01*
X62838385Y-61655490D01*
X62902258Y-61681946D01*
X62959748Y-61720360D01*
X63008640Y-61769252D01*
X63047054Y-61826742D01*
X63068624Y-61878818D01*
X63073511Y-61890617D01*
X63087000Y-61958430D01*
X63087000Y-62027570D01*
X63073511Y-62095383D01*
X63073510Y-62095385D01*
X63047054Y-62159258D01*
X63047052Y-62159261D01*
X63008639Y-62216749D01*
X62959749Y-62265639D01*
X62902261Y-62304052D01*
X62902260Y-62304053D01*
X62902259Y-62304053D01*
X62858892Y-62322016D01*
X62837282Y-62333567D01*
X62818340Y-62349112D01*
X62802794Y-62368054D01*
X62791243Y-62389664D01*
X62784130Y-62413113D01*
X62781728Y-62437499D01*
X62784130Y-62461886D01*
X62791243Y-62485335D01*
X62802794Y-62506945D01*
X62818339Y-62525887D01*
X62837281Y-62541433D01*
X62858893Y-62552984D01*
X62902261Y-62570948D01*
X62931200Y-62590285D01*
X62959748Y-62609360D01*
X63008640Y-62658252D01*
X63047054Y-62715742D01*
X63068624Y-62767818D01*
X63073511Y-62779617D01*
X63087000Y-62847430D01*
X63087000Y-62916570D01*
X63073511Y-62984383D01*
X63073510Y-62984385D01*
X63047054Y-63048258D01*
X63047052Y-63048261D01*
X63008639Y-63105749D01*
X62959749Y-63154639D01*
X62902261Y-63193052D01*
X62902260Y-63193053D01*
X62902259Y-63193053D01*
X62858892Y-63211016D01*
X62837282Y-63222567D01*
X62818340Y-63238112D01*
X62802794Y-63257054D01*
X62791243Y-63278664D01*
X62784130Y-63302113D01*
X62781728Y-63326499D01*
X62784130Y-63350886D01*
X62791243Y-63374335D01*
X62802794Y-63395945D01*
X62818339Y-63414887D01*
X62837281Y-63430433D01*
X62858893Y-63441984D01*
X62902261Y-63459948D01*
X62931200Y-63479285D01*
X62959748Y-63498360D01*
X63008640Y-63547252D01*
X63047054Y-63604742D01*
X63068624Y-63656818D01*
X63073511Y-63668617D01*
X63087000Y-63736430D01*
X63087000Y-63805570D01*
X63073511Y-63873383D01*
X63073510Y-63873385D01*
X63047054Y-63937258D01*
X63047052Y-63937261D01*
X63008639Y-63994749D01*
X62959749Y-64043639D01*
X62902261Y-64082052D01*
X62902260Y-64082053D01*
X62902259Y-64082053D01*
X62858892Y-64100016D01*
X62837282Y-64111567D01*
X62818340Y-64127112D01*
X62802794Y-64146054D01*
X62791243Y-64167664D01*
X62784130Y-64191113D01*
X62781728Y-64215499D01*
X62784130Y-64239886D01*
X62791243Y-64263335D01*
X62802794Y-64284945D01*
X62818339Y-64303887D01*
X62837281Y-64319433D01*
X62858893Y-64330984D01*
X62902261Y-64348948D01*
X62931200Y-64368285D01*
X62959748Y-64387360D01*
X63008640Y-64436252D01*
X63047054Y-64493742D01*
X63068624Y-64545818D01*
X63073511Y-64557617D01*
X63087000Y-64625430D01*
X63087000Y-64694570D01*
X63073511Y-64762383D01*
X63073510Y-64762385D01*
X63047054Y-64826258D01*
X63047052Y-64826261D01*
X63008639Y-64883749D01*
X62959749Y-64932639D01*
X62902261Y-64971052D01*
X62902260Y-64971053D01*
X62902259Y-64971053D01*
X62858892Y-64989016D01*
X62837282Y-65000567D01*
X62818340Y-65016112D01*
X62802794Y-65035054D01*
X62791243Y-65056664D01*
X62784130Y-65080113D01*
X62781728Y-65104499D01*
X62784130Y-65128886D01*
X62791243Y-65152335D01*
X62802794Y-65173945D01*
X62818339Y-65192887D01*
X62837281Y-65208433D01*
X62858893Y-65219984D01*
X62902261Y-65237948D01*
X62931200Y-65257285D01*
X62959748Y-65276360D01*
X63008640Y-65325252D01*
X63047054Y-65382742D01*
X63068624Y-65434818D01*
X63073511Y-65446617D01*
X63087000Y-65514430D01*
X63087000Y-65583570D01*
X63073511Y-65651383D01*
X63073510Y-65651385D01*
X63047054Y-65715258D01*
X63047052Y-65715261D01*
X63008639Y-65772749D01*
X62959749Y-65821639D01*
X62902261Y-65860052D01*
X62902260Y-65860053D01*
X62902259Y-65860053D01*
X62858892Y-65878016D01*
X62837282Y-65889567D01*
X62818340Y-65905112D01*
X62802794Y-65924054D01*
X62791243Y-65945664D01*
X62784130Y-65969113D01*
X62781728Y-65993499D01*
X62784130Y-66017886D01*
X62791243Y-66041335D01*
X62802794Y-66062945D01*
X62818339Y-66081887D01*
X62837281Y-66097433D01*
X62858893Y-66108984D01*
X62902261Y-66126948D01*
X62931200Y-66146285D01*
X62959748Y-66165360D01*
X63008640Y-66214252D01*
X63047054Y-66271742D01*
X63068624Y-66323818D01*
X63073511Y-66335617D01*
X63087000Y-66403430D01*
X63087000Y-66472570D01*
X63073511Y-66540383D01*
X63073510Y-66540385D01*
X63047054Y-66604258D01*
X63047052Y-66604261D01*
X63008639Y-66661749D01*
X62959749Y-66710639D01*
X62902261Y-66749052D01*
X62902260Y-66749053D01*
X62902259Y-66749053D01*
X62858892Y-66767016D01*
X62837282Y-66778567D01*
X62818340Y-66794112D01*
X62802794Y-66813054D01*
X62791243Y-66834664D01*
X62784130Y-66858113D01*
X62781728Y-66882499D01*
X62784130Y-66906886D01*
X62791243Y-66930335D01*
X62802794Y-66951945D01*
X62818339Y-66970887D01*
X62837281Y-66986433D01*
X62858893Y-66997984D01*
X62902261Y-67015948D01*
X62931200Y-67035285D01*
X62959748Y-67054360D01*
X63008640Y-67103252D01*
X63047054Y-67160742D01*
X63068624Y-67212818D01*
X63073511Y-67224617D01*
X63087000Y-67292430D01*
X63087000Y-67361570D01*
X63073511Y-67429383D01*
X63073510Y-67429385D01*
X63047054Y-67493258D01*
X63008640Y-67550748D01*
X62959748Y-67599640D01*
X62902258Y-67638054D01*
X62850182Y-67659624D01*
X62838383Y-67664511D01*
X62770570Y-67678000D01*
X62701430Y-67678000D01*
X62633617Y-67664511D01*
X62621818Y-67659624D01*
X62569742Y-67638054D01*
X62512252Y-67599640D01*
X62463360Y-67550748D01*
X62424946Y-67493258D01*
X62398490Y-67429385D01*
X62398489Y-67429383D01*
X62385000Y-67361570D01*
X62385000Y-67292430D01*
X62398489Y-67224617D01*
X62403376Y-67212818D01*
X62424946Y-67160742D01*
X62463360Y-67103252D01*
X62512252Y-67054360D01*
X62540800Y-67035285D01*
X62569739Y-67015948D01*
X62613107Y-66997984D01*
X62634718Y-66986433D01*
X62653660Y-66970888D01*
X62669206Y-66951946D01*
X62680757Y-66930336D01*
X62687870Y-66906887D01*
X62690272Y-66882501D01*
X62687870Y-66858114D01*
X62680757Y-66834665D01*
X62669206Y-66813055D01*
X62653661Y-66794113D01*
X62634719Y-66778567D01*
X62613108Y-66767016D01*
X62569741Y-66749053D01*
X62569740Y-66749053D01*
X62569739Y-66749052D01*
X62512251Y-66710639D01*
X62463361Y-66661749D01*
X62424948Y-66604261D01*
X62424946Y-66604258D01*
X62398490Y-66540385D01*
X62398489Y-66540383D01*
X62385000Y-66472570D01*
X62385000Y-66403430D01*
X62398489Y-66335617D01*
X62403376Y-66323818D01*
X62424946Y-66271742D01*
X62463360Y-66214252D01*
X62512252Y-66165360D01*
X62540800Y-66146285D01*
X62569739Y-66126948D01*
X62613107Y-66108984D01*
X62634718Y-66097433D01*
X62653660Y-66081888D01*
X62669206Y-66062946D01*
X62680757Y-66041336D01*
X62687870Y-66017887D01*
X62690272Y-65993501D01*
X62687870Y-65969114D01*
X62680757Y-65945665D01*
X62669206Y-65924055D01*
X62653661Y-65905113D01*
X62634719Y-65889567D01*
X62613108Y-65878016D01*
X62569741Y-65860053D01*
X62569740Y-65860053D01*
X62569739Y-65860052D01*
X62512251Y-65821639D01*
X62463361Y-65772749D01*
X62424948Y-65715261D01*
X62424946Y-65715258D01*
X62398490Y-65651385D01*
X62398489Y-65651383D01*
X62385000Y-65583570D01*
X62385000Y-65514430D01*
X62398489Y-65446617D01*
X62403376Y-65434818D01*
X62424946Y-65382742D01*
X62463360Y-65325252D01*
X62512252Y-65276360D01*
X62540800Y-65257285D01*
X62569739Y-65237948D01*
X62613107Y-65219984D01*
X62634718Y-65208433D01*
X62653660Y-65192888D01*
X62669206Y-65173946D01*
X62680757Y-65152336D01*
X62687870Y-65128887D01*
X62690272Y-65104501D01*
X62687870Y-65080114D01*
X62680757Y-65056665D01*
X62669206Y-65035055D01*
X62653661Y-65016113D01*
X62634719Y-65000567D01*
X62613108Y-64989016D01*
X62569741Y-64971053D01*
X62569740Y-64971053D01*
X62569739Y-64971052D01*
X62512251Y-64932639D01*
X62463361Y-64883749D01*
X62424948Y-64826261D01*
X62424946Y-64826258D01*
X62398490Y-64762385D01*
X62398489Y-64762383D01*
X62385000Y-64694570D01*
X62385000Y-64625430D01*
X62398489Y-64557617D01*
X62403376Y-64545818D01*
X62424946Y-64493742D01*
X62463360Y-64436252D01*
X62512252Y-64387360D01*
X62540800Y-64368285D01*
X62569739Y-64348948D01*
X62613107Y-64330984D01*
X62634718Y-64319433D01*
X62653660Y-64303888D01*
X62669206Y-64284946D01*
X62680757Y-64263336D01*
X62687870Y-64239887D01*
X62690272Y-64215501D01*
X62687870Y-64191114D01*
X62680757Y-64167665D01*
X62669206Y-64146055D01*
X62653661Y-64127113D01*
X62634719Y-64111567D01*
X62613108Y-64100016D01*
X62569741Y-64082053D01*
X62569740Y-64082053D01*
X62569739Y-64082052D01*
X62512251Y-64043639D01*
X62463361Y-63994749D01*
X62424948Y-63937261D01*
X62424946Y-63937258D01*
X62398490Y-63873385D01*
X62398489Y-63873383D01*
X62385000Y-63805570D01*
X62385000Y-63736430D01*
X62398489Y-63668617D01*
X62403376Y-63656818D01*
X62424946Y-63604742D01*
X62463360Y-63547252D01*
X62512252Y-63498360D01*
X62540800Y-63479285D01*
X62569739Y-63459948D01*
X62613107Y-63441984D01*
X62634718Y-63430433D01*
X62653660Y-63414888D01*
X62669206Y-63395946D01*
X62680757Y-63374336D01*
X62687870Y-63350887D01*
X62690272Y-63326501D01*
X62687870Y-63302114D01*
X62680757Y-63278665D01*
X62669206Y-63257055D01*
X62653661Y-63238113D01*
X62634719Y-63222567D01*
X62613108Y-63211016D01*
X62569741Y-63193053D01*
X62569740Y-63193053D01*
X62569739Y-63193052D01*
X62512251Y-63154639D01*
X62463361Y-63105749D01*
X62424948Y-63048261D01*
X62424946Y-63048258D01*
X62398490Y-62984385D01*
X62398489Y-62984383D01*
X62385000Y-62916570D01*
X62385000Y-62847430D01*
X62398489Y-62779617D01*
X62403376Y-62767818D01*
X62424946Y-62715742D01*
X62463360Y-62658252D01*
X62512252Y-62609360D01*
X62540800Y-62590285D01*
X62569739Y-62570948D01*
X62613107Y-62552984D01*
X62634718Y-62541433D01*
X62653660Y-62525888D01*
X62669206Y-62506946D01*
X62680757Y-62485336D01*
X62687870Y-62461887D01*
X62690272Y-62437501D01*
X62687870Y-62413114D01*
X62680757Y-62389665D01*
X62669206Y-62368055D01*
X62653661Y-62349113D01*
X62634719Y-62333567D01*
X62613108Y-62322016D01*
X62569741Y-62304053D01*
X62569740Y-62304053D01*
X62569739Y-62304052D01*
X62512251Y-62265639D01*
X62463361Y-62216749D01*
X62424948Y-62159261D01*
X62424946Y-62159258D01*
X62398490Y-62095385D01*
X62398489Y-62095383D01*
X62385000Y-62027570D01*
X62385000Y-61958430D01*
X62398489Y-61890617D01*
X62403376Y-61878818D01*
X62424946Y-61826742D01*
X62463360Y-61769252D01*
X62512252Y-61720360D01*
X62569742Y-61681946D01*
X62633615Y-61655490D01*
X62633614Y-61655490D01*
X62633617Y-61655489D01*
X62701430Y-61642000D01*
X62770570Y-61642000D01*
X62838383Y-61655489D01*
G37*
G36*
X60806383Y-61655489D02*
G01*
X60806386Y-61655490D01*
X60806385Y-61655490D01*
X60870258Y-61681946D01*
X60927748Y-61720360D01*
X60976640Y-61769252D01*
X61015054Y-61826742D01*
X61036624Y-61878818D01*
X61041511Y-61890617D01*
X61055000Y-61958430D01*
X61055000Y-62027570D01*
X61041511Y-62095383D01*
X61041510Y-62095385D01*
X61015054Y-62159258D01*
X61015052Y-62159261D01*
X60976639Y-62216749D01*
X60927749Y-62265639D01*
X60870261Y-62304052D01*
X60870260Y-62304053D01*
X60870259Y-62304053D01*
X60826892Y-62322016D01*
X60805282Y-62333567D01*
X60786340Y-62349112D01*
X60770794Y-62368054D01*
X60759243Y-62389664D01*
X60752130Y-62413113D01*
X60749728Y-62437499D01*
X60752130Y-62461886D01*
X60759243Y-62485335D01*
X60770794Y-62506945D01*
X60786339Y-62525887D01*
X60805281Y-62541433D01*
X60826893Y-62552984D01*
X60870261Y-62570948D01*
X60899200Y-62590285D01*
X60927748Y-62609360D01*
X60976640Y-62658252D01*
X61015054Y-62715742D01*
X61036624Y-62767818D01*
X61041511Y-62779617D01*
X61055000Y-62847430D01*
X61055000Y-62916570D01*
X61041511Y-62984383D01*
X61041510Y-62984385D01*
X61015054Y-63048258D01*
X61015052Y-63048261D01*
X60976639Y-63105749D01*
X60927749Y-63154639D01*
X60870261Y-63193052D01*
X60870260Y-63193053D01*
X60870259Y-63193053D01*
X60826892Y-63211016D01*
X60805282Y-63222567D01*
X60786340Y-63238112D01*
X60770794Y-63257054D01*
X60759243Y-63278664D01*
X60752130Y-63302113D01*
X60749728Y-63326499D01*
X60752130Y-63350886D01*
X60759243Y-63374335D01*
X60770794Y-63395945D01*
X60786339Y-63414887D01*
X60805281Y-63430433D01*
X60826893Y-63441984D01*
X60870261Y-63459948D01*
X60899200Y-63479285D01*
X60927748Y-63498360D01*
X60976640Y-63547252D01*
X61015054Y-63604742D01*
X61036624Y-63656818D01*
X61041511Y-63668617D01*
X61055000Y-63736430D01*
X61055000Y-63805570D01*
X61041511Y-63873383D01*
X61041510Y-63873385D01*
X61015054Y-63937258D01*
X61015052Y-63937261D01*
X60976639Y-63994749D01*
X60927749Y-64043639D01*
X60870261Y-64082052D01*
X60870260Y-64082053D01*
X60870259Y-64082053D01*
X60826892Y-64100016D01*
X60805282Y-64111567D01*
X60786340Y-64127112D01*
X60770794Y-64146054D01*
X60759243Y-64167664D01*
X60752130Y-64191113D01*
X60749728Y-64215499D01*
X60752130Y-64239886D01*
X60759243Y-64263335D01*
X60770794Y-64284945D01*
X60786339Y-64303887D01*
X60805281Y-64319433D01*
X60826893Y-64330984D01*
X60870261Y-64348948D01*
X60899200Y-64368285D01*
X60927748Y-64387360D01*
X60976640Y-64436252D01*
X61015054Y-64493742D01*
X61036624Y-64545818D01*
X61041511Y-64557617D01*
X61055000Y-64625430D01*
X61055000Y-64694570D01*
X61041511Y-64762383D01*
X61041510Y-64762385D01*
X61015054Y-64826258D01*
X61015052Y-64826261D01*
X60976639Y-64883749D01*
X60927749Y-64932639D01*
X60870261Y-64971052D01*
X60870260Y-64971053D01*
X60870259Y-64971053D01*
X60826892Y-64989016D01*
X60805282Y-65000567D01*
X60786340Y-65016112D01*
X60770794Y-65035054D01*
X60759243Y-65056664D01*
X60752130Y-65080113D01*
X60749728Y-65104499D01*
X60752130Y-65128886D01*
X60759243Y-65152335D01*
X60770794Y-65173945D01*
X60786339Y-65192887D01*
X60805281Y-65208433D01*
X60826893Y-65219984D01*
X60870261Y-65237948D01*
X60899200Y-65257285D01*
X60927748Y-65276360D01*
X60976640Y-65325252D01*
X61015054Y-65382742D01*
X61036624Y-65434818D01*
X61041511Y-65446617D01*
X61055000Y-65514430D01*
X61055000Y-65583570D01*
X61041511Y-65651383D01*
X61041510Y-65651385D01*
X61015054Y-65715258D01*
X61015052Y-65715261D01*
X60976639Y-65772749D01*
X60927749Y-65821639D01*
X60870261Y-65860052D01*
X60870260Y-65860053D01*
X60870259Y-65860053D01*
X60826892Y-65878016D01*
X60805282Y-65889567D01*
X60786340Y-65905112D01*
X60770794Y-65924054D01*
X60759243Y-65945664D01*
X60752130Y-65969113D01*
X60749728Y-65993499D01*
X60752130Y-66017886D01*
X60759243Y-66041335D01*
X60770794Y-66062945D01*
X60786339Y-66081887D01*
X60805281Y-66097433D01*
X60826893Y-66108984D01*
X60870261Y-66126948D01*
X60899200Y-66146285D01*
X60927748Y-66165360D01*
X60976640Y-66214252D01*
X61015054Y-66271742D01*
X61036624Y-66323818D01*
X61041511Y-66335617D01*
X61055000Y-66403430D01*
X61055000Y-66472570D01*
X61041511Y-66540383D01*
X61041510Y-66540385D01*
X61015054Y-66604258D01*
X61015052Y-66604261D01*
X60976639Y-66661749D01*
X60927749Y-66710639D01*
X60870261Y-66749052D01*
X60870260Y-66749053D01*
X60870259Y-66749053D01*
X60826892Y-66767016D01*
X60805282Y-66778567D01*
X60786340Y-66794112D01*
X60770794Y-66813054D01*
X60759243Y-66834664D01*
X60752130Y-66858113D01*
X60749728Y-66882499D01*
X60752130Y-66906886D01*
X60759243Y-66930335D01*
X60770794Y-66951945D01*
X60786339Y-66970887D01*
X60805281Y-66986433D01*
X60826893Y-66997984D01*
X60870261Y-67015948D01*
X60899200Y-67035285D01*
X60927748Y-67054360D01*
X60976640Y-67103252D01*
X61015054Y-67160742D01*
X61036624Y-67212818D01*
X61041511Y-67224617D01*
X61055000Y-67292430D01*
X61055000Y-67361570D01*
X61041511Y-67429383D01*
X61041510Y-67429385D01*
X61015054Y-67493258D01*
X60976640Y-67550748D01*
X60927748Y-67599640D01*
X60870258Y-67638054D01*
X60818182Y-67659624D01*
X60806383Y-67664511D01*
X60738570Y-67678000D01*
X60669430Y-67678000D01*
X60601617Y-67664511D01*
X60589818Y-67659624D01*
X60537742Y-67638054D01*
X60480252Y-67599640D01*
X60431360Y-67550748D01*
X60392946Y-67493258D01*
X60366490Y-67429385D01*
X60366489Y-67429383D01*
X60353000Y-67361570D01*
X60353000Y-67292430D01*
X60366489Y-67224617D01*
X60371376Y-67212818D01*
X60392946Y-67160742D01*
X60431360Y-67103252D01*
X60480252Y-67054360D01*
X60508800Y-67035285D01*
X60537739Y-67015948D01*
X60581107Y-66997984D01*
X60602718Y-66986433D01*
X60621660Y-66970888D01*
X60637206Y-66951946D01*
X60648757Y-66930336D01*
X60655870Y-66906887D01*
X60658272Y-66882501D01*
X60655870Y-66858114D01*
X60648757Y-66834665D01*
X60637206Y-66813055D01*
X60621661Y-66794113D01*
X60602719Y-66778567D01*
X60581108Y-66767016D01*
X60537741Y-66749053D01*
X60537740Y-66749053D01*
X60537739Y-66749052D01*
X60480251Y-66710639D01*
X60431361Y-66661749D01*
X60392948Y-66604261D01*
X60392946Y-66604258D01*
X60366490Y-66540385D01*
X60366489Y-66540383D01*
X60353000Y-66472570D01*
X60353000Y-66403430D01*
X60366489Y-66335617D01*
X60371376Y-66323818D01*
X60392946Y-66271742D01*
X60431360Y-66214252D01*
X60480252Y-66165360D01*
X60508800Y-66146285D01*
X60537739Y-66126948D01*
X60581107Y-66108984D01*
X60602718Y-66097433D01*
X60621660Y-66081888D01*
X60637206Y-66062946D01*
X60648757Y-66041336D01*
X60655870Y-66017887D01*
X60658272Y-65993501D01*
X60655870Y-65969114D01*
X60648757Y-65945665D01*
X60637206Y-65924055D01*
X60621661Y-65905113D01*
X60602719Y-65889567D01*
X60581108Y-65878016D01*
X60537741Y-65860053D01*
X60537740Y-65860053D01*
X60537739Y-65860052D01*
X60480251Y-65821639D01*
X60431361Y-65772749D01*
X60392948Y-65715261D01*
X60392946Y-65715258D01*
X60366490Y-65651385D01*
X60366489Y-65651383D01*
X60353000Y-65583570D01*
X60353000Y-65514430D01*
X60366489Y-65446617D01*
X60371376Y-65434818D01*
X60392946Y-65382742D01*
X60431360Y-65325252D01*
X60480252Y-65276360D01*
X60508800Y-65257285D01*
X60537739Y-65237948D01*
X60581107Y-65219984D01*
X60602718Y-65208433D01*
X60621660Y-65192888D01*
X60637206Y-65173946D01*
X60648757Y-65152336D01*
X60655870Y-65128887D01*
X60658272Y-65104501D01*
X60655870Y-65080114D01*
X60648757Y-65056665D01*
X60637206Y-65035055D01*
X60621661Y-65016113D01*
X60602719Y-65000567D01*
X60581108Y-64989016D01*
X60537741Y-64971053D01*
X60537740Y-64971053D01*
X60537739Y-64971052D01*
X60480251Y-64932639D01*
X60431361Y-64883749D01*
X60392948Y-64826261D01*
X60392946Y-64826258D01*
X60366490Y-64762385D01*
X60366489Y-64762383D01*
X60353000Y-64694570D01*
X60353000Y-64625430D01*
X60366489Y-64557617D01*
X60371376Y-64545818D01*
X60392946Y-64493742D01*
X60431360Y-64436252D01*
X60480252Y-64387360D01*
X60508800Y-64368285D01*
X60537739Y-64348948D01*
X60581107Y-64330984D01*
X60602718Y-64319433D01*
X60621660Y-64303888D01*
X60637206Y-64284946D01*
X60648757Y-64263336D01*
X60655870Y-64239887D01*
X60658272Y-64215501D01*
X60655870Y-64191114D01*
X60648757Y-64167665D01*
X60637206Y-64146055D01*
X60621661Y-64127113D01*
X60602719Y-64111567D01*
X60581108Y-64100016D01*
X60537741Y-64082053D01*
X60537740Y-64082053D01*
X60537739Y-64082052D01*
X60480251Y-64043639D01*
X60431361Y-63994749D01*
X60392948Y-63937261D01*
X60392946Y-63937258D01*
X60366490Y-63873385D01*
X60366489Y-63873383D01*
X60353000Y-63805570D01*
X60353000Y-63736430D01*
X60366489Y-63668617D01*
X60371376Y-63656818D01*
X60392946Y-63604742D01*
X60431360Y-63547252D01*
X60480252Y-63498360D01*
X60508800Y-63479285D01*
X60537739Y-63459948D01*
X60581107Y-63441984D01*
X60602718Y-63430433D01*
X60621660Y-63414888D01*
X60637206Y-63395946D01*
X60648757Y-63374336D01*
X60655870Y-63350887D01*
X60658272Y-63326501D01*
X60655870Y-63302114D01*
X60648757Y-63278665D01*
X60637206Y-63257055D01*
X60621661Y-63238113D01*
X60602719Y-63222567D01*
X60581108Y-63211016D01*
X60537741Y-63193053D01*
X60537740Y-63193053D01*
X60537739Y-63193052D01*
X60480251Y-63154639D01*
X60431361Y-63105749D01*
X60392948Y-63048261D01*
X60392946Y-63048258D01*
X60366490Y-62984385D01*
X60366489Y-62984383D01*
X60353000Y-62916570D01*
X60353000Y-62847430D01*
X60366489Y-62779617D01*
X60371376Y-62767818D01*
X60392946Y-62715742D01*
X60431360Y-62658252D01*
X60480252Y-62609360D01*
X60508800Y-62590285D01*
X60537739Y-62570948D01*
X60581107Y-62552984D01*
X60602718Y-62541433D01*
X60621660Y-62525888D01*
X60637206Y-62506946D01*
X60648757Y-62485336D01*
X60655870Y-62461887D01*
X60658272Y-62437501D01*
X60655870Y-62413114D01*
X60648757Y-62389665D01*
X60637206Y-62368055D01*
X60621661Y-62349113D01*
X60602719Y-62333567D01*
X60581108Y-62322016D01*
X60537741Y-62304053D01*
X60537740Y-62304053D01*
X60537739Y-62304052D01*
X60480251Y-62265639D01*
X60431361Y-62216749D01*
X60392948Y-62159261D01*
X60392946Y-62159258D01*
X60366490Y-62095385D01*
X60366489Y-62095383D01*
X60353000Y-62027570D01*
X60353000Y-61958430D01*
X60366489Y-61890617D01*
X60371376Y-61878818D01*
X60392946Y-61826742D01*
X60431360Y-61769252D01*
X60480252Y-61720360D01*
X60537742Y-61681946D01*
X60601615Y-61655490D01*
X60601614Y-61655490D01*
X60601617Y-61655489D01*
X60669430Y-61642000D01*
X60738570Y-61642000D01*
X60806383Y-61655489D01*
G37*
G36*
X60796383Y-28725489D02*
G01*
X60796386Y-28725490D01*
X60796385Y-28725490D01*
X60860258Y-28751946D01*
X60917748Y-28790360D01*
X60966640Y-28839252D01*
X61005054Y-28896742D01*
X61026624Y-28948818D01*
X61031511Y-28960617D01*
X61045000Y-29028430D01*
X61045000Y-29097570D01*
X61031511Y-29165383D01*
X61031510Y-29165385D01*
X61005054Y-29229258D01*
X61005052Y-29229261D01*
X60966639Y-29286749D01*
X60917749Y-29335639D01*
X60860261Y-29374052D01*
X60860260Y-29374053D01*
X60860259Y-29374053D01*
X60816892Y-29392016D01*
X60795282Y-29403567D01*
X60776340Y-29419112D01*
X60760794Y-29438054D01*
X60749243Y-29459664D01*
X60742130Y-29483113D01*
X60739728Y-29507499D01*
X60742130Y-29531886D01*
X60749243Y-29555335D01*
X60760794Y-29576945D01*
X60776339Y-29595887D01*
X60795281Y-29611433D01*
X60816893Y-29622984D01*
X60860261Y-29640948D01*
X60889200Y-29660285D01*
X60917748Y-29679360D01*
X60966640Y-29728252D01*
X61005054Y-29785742D01*
X61026624Y-29837818D01*
X61031511Y-29849617D01*
X61045000Y-29917430D01*
X61045000Y-29986570D01*
X61031511Y-30054383D01*
X61031510Y-30054385D01*
X61005054Y-30118258D01*
X61005052Y-30118261D01*
X60966639Y-30175749D01*
X60917749Y-30224639D01*
X60860261Y-30263052D01*
X60860260Y-30263053D01*
X60860259Y-30263053D01*
X60816892Y-30281016D01*
X60795282Y-30292567D01*
X60776340Y-30308112D01*
X60760794Y-30327054D01*
X60749243Y-30348664D01*
X60742130Y-30372113D01*
X60739728Y-30396499D01*
X60742130Y-30420886D01*
X60749243Y-30444335D01*
X60760794Y-30465945D01*
X60776339Y-30484887D01*
X60795281Y-30500433D01*
X60816893Y-30511984D01*
X60860261Y-30529948D01*
X60889200Y-30549285D01*
X60917748Y-30568360D01*
X60966640Y-30617252D01*
X61005054Y-30674742D01*
X61026624Y-30726818D01*
X61031511Y-30738617D01*
X61045000Y-30806430D01*
X61045000Y-30875570D01*
X61031511Y-30943383D01*
X61031510Y-30943385D01*
X61005054Y-31007258D01*
X61005052Y-31007261D01*
X60966639Y-31064749D01*
X60917749Y-31113639D01*
X60860261Y-31152052D01*
X60860260Y-31152053D01*
X60860259Y-31152053D01*
X60816892Y-31170016D01*
X60795282Y-31181567D01*
X60776340Y-31197112D01*
X60760794Y-31216054D01*
X60749243Y-31237664D01*
X60742130Y-31261113D01*
X60739728Y-31285499D01*
X60742130Y-31309886D01*
X60749243Y-31333335D01*
X60760794Y-31354945D01*
X60776339Y-31373887D01*
X60795281Y-31389433D01*
X60816893Y-31400984D01*
X60860261Y-31418948D01*
X60889200Y-31438285D01*
X60917748Y-31457360D01*
X60966640Y-31506252D01*
X61005054Y-31563742D01*
X61026624Y-31615818D01*
X61031511Y-31627617D01*
X61045000Y-31695430D01*
X61045000Y-31764570D01*
X61031511Y-31832383D01*
X61031510Y-31832385D01*
X61005054Y-31896258D01*
X61005052Y-31896261D01*
X60966639Y-31953749D01*
X60917749Y-32002639D01*
X60860261Y-32041052D01*
X60860260Y-32041053D01*
X60860259Y-32041053D01*
X60816892Y-32059016D01*
X60795282Y-32070567D01*
X60776340Y-32086112D01*
X60760794Y-32105054D01*
X60749243Y-32126664D01*
X60742130Y-32150113D01*
X60739728Y-32174499D01*
X60742130Y-32198886D01*
X60749243Y-32222335D01*
X60760794Y-32243945D01*
X60776339Y-32262887D01*
X60795281Y-32278433D01*
X60816893Y-32289984D01*
X60860261Y-32307948D01*
X60889200Y-32327285D01*
X60917748Y-32346360D01*
X60966640Y-32395252D01*
X61005054Y-32452742D01*
X61026624Y-32504818D01*
X61031511Y-32516617D01*
X61045000Y-32584430D01*
X61045000Y-32653570D01*
X61031511Y-32721383D01*
X61031510Y-32721385D01*
X61005054Y-32785258D01*
X61005052Y-32785261D01*
X60966639Y-32842749D01*
X60917749Y-32891639D01*
X60860261Y-32930052D01*
X60860260Y-32930053D01*
X60860259Y-32930053D01*
X60816892Y-32948016D01*
X60795282Y-32959567D01*
X60776340Y-32975112D01*
X60760794Y-32994054D01*
X60749243Y-33015664D01*
X60742130Y-33039113D01*
X60739728Y-33063499D01*
X60742130Y-33087886D01*
X60749243Y-33111335D01*
X60760794Y-33132945D01*
X60776339Y-33151887D01*
X60795281Y-33167433D01*
X60816893Y-33178984D01*
X60860261Y-33196948D01*
X60889200Y-33216285D01*
X60917748Y-33235360D01*
X60966640Y-33284252D01*
X61005054Y-33341742D01*
X61026624Y-33393818D01*
X61031511Y-33405617D01*
X61045000Y-33473430D01*
X61045000Y-33542570D01*
X61031511Y-33610383D01*
X61031510Y-33610385D01*
X61005054Y-33674258D01*
X61005052Y-33674261D01*
X60966639Y-33731749D01*
X60917749Y-33780639D01*
X60860261Y-33819052D01*
X60860260Y-33819053D01*
X60860259Y-33819053D01*
X60816892Y-33837016D01*
X60795282Y-33848567D01*
X60776340Y-33864112D01*
X60760794Y-33883054D01*
X60749243Y-33904664D01*
X60742130Y-33928113D01*
X60739728Y-33952499D01*
X60742130Y-33976886D01*
X60749243Y-34000335D01*
X60760794Y-34021945D01*
X60776339Y-34040887D01*
X60795281Y-34056433D01*
X60816893Y-34067984D01*
X60860261Y-34085948D01*
X60889200Y-34105285D01*
X60917748Y-34124360D01*
X60966640Y-34173252D01*
X61005054Y-34230742D01*
X61026624Y-34282818D01*
X61031511Y-34294617D01*
X61045000Y-34362430D01*
X61045000Y-34431570D01*
X61031511Y-34499383D01*
X61031510Y-34499385D01*
X61005054Y-34563258D01*
X60966640Y-34620748D01*
X60917748Y-34669640D01*
X60860258Y-34708054D01*
X60808182Y-34729624D01*
X60796383Y-34734511D01*
X60728570Y-34748000D01*
X60659430Y-34748000D01*
X60591617Y-34734511D01*
X60579818Y-34729624D01*
X60527742Y-34708054D01*
X60470252Y-34669640D01*
X60421360Y-34620748D01*
X60382946Y-34563258D01*
X60356490Y-34499385D01*
X60356489Y-34499383D01*
X60343000Y-34431570D01*
X60343000Y-34362430D01*
X60356489Y-34294617D01*
X60361376Y-34282818D01*
X60382946Y-34230742D01*
X60421360Y-34173252D01*
X60470252Y-34124360D01*
X60498800Y-34105285D01*
X60527739Y-34085948D01*
X60571107Y-34067984D01*
X60592718Y-34056433D01*
X60611660Y-34040888D01*
X60627206Y-34021946D01*
X60638757Y-34000336D01*
X60645870Y-33976887D01*
X60648272Y-33952501D01*
X60645870Y-33928114D01*
X60638757Y-33904665D01*
X60627206Y-33883055D01*
X60611661Y-33864113D01*
X60592719Y-33848567D01*
X60571108Y-33837016D01*
X60527741Y-33819053D01*
X60527740Y-33819053D01*
X60527739Y-33819052D01*
X60470251Y-33780639D01*
X60421361Y-33731749D01*
X60382948Y-33674261D01*
X60382946Y-33674258D01*
X60356490Y-33610385D01*
X60356489Y-33610383D01*
X60343000Y-33542570D01*
X60343000Y-33473430D01*
X60356489Y-33405617D01*
X60361376Y-33393818D01*
X60382946Y-33341742D01*
X60421360Y-33284252D01*
X60470252Y-33235360D01*
X60498800Y-33216285D01*
X60527739Y-33196948D01*
X60571107Y-33178984D01*
X60592718Y-33167433D01*
X60611660Y-33151888D01*
X60627206Y-33132946D01*
X60638757Y-33111336D01*
X60645870Y-33087887D01*
X60648272Y-33063501D01*
X60645870Y-33039114D01*
X60638757Y-33015665D01*
X60627206Y-32994055D01*
X60611661Y-32975113D01*
X60592719Y-32959567D01*
X60571108Y-32948016D01*
X60527741Y-32930053D01*
X60527740Y-32930053D01*
X60527739Y-32930052D01*
X60470251Y-32891639D01*
X60421361Y-32842749D01*
X60382948Y-32785261D01*
X60382946Y-32785258D01*
X60356490Y-32721385D01*
X60356489Y-32721383D01*
X60343000Y-32653570D01*
X60343000Y-32584430D01*
X60356489Y-32516617D01*
X60361376Y-32504818D01*
X60382946Y-32452742D01*
X60421360Y-32395252D01*
X60470252Y-32346360D01*
X60498800Y-32327285D01*
X60527739Y-32307948D01*
X60571107Y-32289984D01*
X60592718Y-32278433D01*
X60611660Y-32262888D01*
X60627206Y-32243946D01*
X60638757Y-32222336D01*
X60645870Y-32198887D01*
X60648272Y-32174501D01*
X60645870Y-32150114D01*
X60638757Y-32126665D01*
X60627206Y-32105055D01*
X60611661Y-32086113D01*
X60592719Y-32070567D01*
X60571108Y-32059016D01*
X60527741Y-32041053D01*
X60527740Y-32041053D01*
X60527739Y-32041052D01*
X60470251Y-32002639D01*
X60421361Y-31953749D01*
X60382948Y-31896261D01*
X60382946Y-31896258D01*
X60356490Y-31832385D01*
X60356489Y-31832383D01*
X60343000Y-31764570D01*
X60343000Y-31695430D01*
X60356489Y-31627617D01*
X60361376Y-31615818D01*
X60382946Y-31563742D01*
X60421360Y-31506252D01*
X60470252Y-31457360D01*
X60498800Y-31438285D01*
X60527739Y-31418948D01*
X60571107Y-31400984D01*
X60592718Y-31389433D01*
X60611660Y-31373888D01*
X60627206Y-31354946D01*
X60638757Y-31333336D01*
X60645870Y-31309887D01*
X60648272Y-31285501D01*
X60645870Y-31261114D01*
X60638757Y-31237665D01*
X60627206Y-31216055D01*
X60611661Y-31197113D01*
X60592719Y-31181567D01*
X60571108Y-31170016D01*
X60527741Y-31152053D01*
X60527740Y-31152053D01*
X60527739Y-31152052D01*
X60470251Y-31113639D01*
X60421361Y-31064749D01*
X60382948Y-31007261D01*
X60382946Y-31007258D01*
X60356490Y-30943385D01*
X60356489Y-30943383D01*
X60343000Y-30875570D01*
X60343000Y-30806430D01*
X60356489Y-30738617D01*
X60361376Y-30726818D01*
X60382946Y-30674742D01*
X60421360Y-30617252D01*
X60470252Y-30568360D01*
X60498800Y-30549285D01*
X60527739Y-30529948D01*
X60571107Y-30511984D01*
X60592718Y-30500433D01*
X60611660Y-30484888D01*
X60627206Y-30465946D01*
X60638757Y-30444336D01*
X60645870Y-30420887D01*
X60648272Y-30396501D01*
X60645870Y-30372114D01*
X60638757Y-30348665D01*
X60627206Y-30327055D01*
X60611661Y-30308113D01*
X60592719Y-30292567D01*
X60571108Y-30281016D01*
X60527741Y-30263053D01*
X60527740Y-30263053D01*
X60527739Y-30263052D01*
X60470251Y-30224639D01*
X60421361Y-30175749D01*
X60382948Y-30118261D01*
X60382946Y-30118258D01*
X60356490Y-30054385D01*
X60356489Y-30054383D01*
X60343000Y-29986570D01*
X60343000Y-29917430D01*
X60356489Y-29849617D01*
X60361376Y-29837818D01*
X60382946Y-29785742D01*
X60421360Y-29728252D01*
X60470252Y-29679360D01*
X60498800Y-29660285D01*
X60527739Y-29640948D01*
X60571107Y-29622984D01*
X60592718Y-29611433D01*
X60611660Y-29595888D01*
X60627206Y-29576946D01*
X60638757Y-29555336D01*
X60645870Y-29531887D01*
X60648272Y-29507501D01*
X60645870Y-29483114D01*
X60638757Y-29459665D01*
X60627206Y-29438055D01*
X60611661Y-29419113D01*
X60592719Y-29403567D01*
X60571108Y-29392016D01*
X60527741Y-29374053D01*
X60527740Y-29374053D01*
X60527739Y-29374052D01*
X60470251Y-29335639D01*
X60421361Y-29286749D01*
X60382948Y-29229261D01*
X60382946Y-29229258D01*
X60356490Y-29165385D01*
X60356489Y-29165383D01*
X60343000Y-29097570D01*
X60343000Y-29028430D01*
X60356489Y-28960617D01*
X60361376Y-28948818D01*
X60382946Y-28896742D01*
X60421360Y-28839252D01*
X60470252Y-28790360D01*
X60527742Y-28751946D01*
X60591615Y-28725490D01*
X60591614Y-28725490D01*
X60591617Y-28725489D01*
X60659430Y-28712000D01*
X60728570Y-28712000D01*
X60796383Y-28725489D01*
G37*
G36*
X62828383Y-28725489D02*
G01*
X62828386Y-28725490D01*
X62828385Y-28725490D01*
X62892258Y-28751946D01*
X62949748Y-28790360D01*
X62998640Y-28839252D01*
X63037054Y-28896742D01*
X63058624Y-28948818D01*
X63063511Y-28960617D01*
X63077000Y-29028430D01*
X63077000Y-29097570D01*
X63063511Y-29165383D01*
X63063510Y-29165385D01*
X63037054Y-29229258D01*
X63037052Y-29229261D01*
X62998639Y-29286749D01*
X62949749Y-29335639D01*
X62892261Y-29374052D01*
X62892260Y-29374053D01*
X62892259Y-29374053D01*
X62848892Y-29392016D01*
X62827282Y-29403567D01*
X62808340Y-29419112D01*
X62792794Y-29438054D01*
X62781243Y-29459664D01*
X62774130Y-29483113D01*
X62771728Y-29507499D01*
X62774130Y-29531886D01*
X62781243Y-29555335D01*
X62792794Y-29576945D01*
X62808339Y-29595887D01*
X62827281Y-29611433D01*
X62848893Y-29622984D01*
X62892261Y-29640948D01*
X62921200Y-29660285D01*
X62949748Y-29679360D01*
X62998640Y-29728252D01*
X63037054Y-29785742D01*
X63058624Y-29837818D01*
X63063511Y-29849617D01*
X63077000Y-29917430D01*
X63077000Y-29986570D01*
X63063511Y-30054383D01*
X63063510Y-30054385D01*
X63037054Y-30118258D01*
X63037052Y-30118261D01*
X62998639Y-30175749D01*
X62949749Y-30224639D01*
X62892261Y-30263052D01*
X62892260Y-30263053D01*
X62892259Y-30263053D01*
X62848892Y-30281016D01*
X62827282Y-30292567D01*
X62808340Y-30308112D01*
X62792794Y-30327054D01*
X62781243Y-30348664D01*
X62774130Y-30372113D01*
X62771728Y-30396499D01*
X62774130Y-30420886D01*
X62781243Y-30444335D01*
X62792794Y-30465945D01*
X62808339Y-30484887D01*
X62827281Y-30500433D01*
X62848893Y-30511984D01*
X62892261Y-30529948D01*
X62921200Y-30549285D01*
X62949748Y-30568360D01*
X62998640Y-30617252D01*
X63037054Y-30674742D01*
X63058624Y-30726818D01*
X63063511Y-30738617D01*
X63077000Y-30806430D01*
X63077000Y-30875570D01*
X63063511Y-30943383D01*
X63063510Y-30943385D01*
X63037054Y-31007258D01*
X63037052Y-31007261D01*
X62998639Y-31064749D01*
X62949749Y-31113639D01*
X62892261Y-31152052D01*
X62892260Y-31152053D01*
X62892259Y-31152053D01*
X62848892Y-31170016D01*
X62827282Y-31181567D01*
X62808340Y-31197112D01*
X62792794Y-31216054D01*
X62781243Y-31237664D01*
X62774130Y-31261113D01*
X62771728Y-31285499D01*
X62774130Y-31309886D01*
X62781243Y-31333335D01*
X62792794Y-31354945D01*
X62808339Y-31373887D01*
X62827281Y-31389433D01*
X62848893Y-31400984D01*
X62892261Y-31418948D01*
X62921200Y-31438285D01*
X62949748Y-31457360D01*
X62998640Y-31506252D01*
X63037054Y-31563742D01*
X63058624Y-31615818D01*
X63063511Y-31627617D01*
X63077000Y-31695430D01*
X63077000Y-31764570D01*
X63063511Y-31832383D01*
X63063510Y-31832385D01*
X63037054Y-31896258D01*
X63037052Y-31896261D01*
X62998639Y-31953749D01*
X62949749Y-32002639D01*
X62892261Y-32041052D01*
X62892260Y-32041053D01*
X62892259Y-32041053D01*
X62848892Y-32059016D01*
X62827282Y-32070567D01*
X62808340Y-32086112D01*
X62792794Y-32105054D01*
X62781243Y-32126664D01*
X62774130Y-32150113D01*
X62771728Y-32174499D01*
X62774130Y-32198886D01*
X62781243Y-32222335D01*
X62792794Y-32243945D01*
X62808339Y-32262887D01*
X62827281Y-32278433D01*
X62848893Y-32289984D01*
X62892261Y-32307948D01*
X62921200Y-32327285D01*
X62949748Y-32346360D01*
X62998640Y-32395252D01*
X63037054Y-32452742D01*
X63058624Y-32504818D01*
X63063511Y-32516617D01*
X63077000Y-32584430D01*
X63077000Y-32653570D01*
X63063511Y-32721383D01*
X63063510Y-32721385D01*
X63037054Y-32785258D01*
X63037052Y-32785261D01*
X62998639Y-32842749D01*
X62949749Y-32891639D01*
X62892261Y-32930052D01*
X62892260Y-32930053D01*
X62892259Y-32930053D01*
X62848892Y-32948016D01*
X62827282Y-32959567D01*
X62808340Y-32975112D01*
X62792794Y-32994054D01*
X62781243Y-33015664D01*
X62774130Y-33039113D01*
X62771728Y-33063499D01*
X62774130Y-33087886D01*
X62781243Y-33111335D01*
X62792794Y-33132945D01*
X62808339Y-33151887D01*
X62827281Y-33167433D01*
X62848893Y-33178984D01*
X62892261Y-33196948D01*
X62921200Y-33216285D01*
X62949748Y-33235360D01*
X62998640Y-33284252D01*
X63037054Y-33341742D01*
X63058624Y-33393818D01*
X63063511Y-33405617D01*
X63077000Y-33473430D01*
X63077000Y-33542570D01*
X63063511Y-33610383D01*
X63063510Y-33610385D01*
X63037054Y-33674258D01*
X63037052Y-33674261D01*
X62998639Y-33731749D01*
X62949749Y-33780639D01*
X62892261Y-33819052D01*
X62892260Y-33819053D01*
X62892259Y-33819053D01*
X62848892Y-33837016D01*
X62827282Y-33848567D01*
X62808340Y-33864112D01*
X62792794Y-33883054D01*
X62781243Y-33904664D01*
X62774130Y-33928113D01*
X62771728Y-33952499D01*
X62774130Y-33976886D01*
X62781243Y-34000335D01*
X62792794Y-34021945D01*
X62808339Y-34040887D01*
X62827281Y-34056433D01*
X62848893Y-34067984D01*
X62892261Y-34085948D01*
X62921200Y-34105285D01*
X62949748Y-34124360D01*
X62998640Y-34173252D01*
X63037054Y-34230742D01*
X63058624Y-34282818D01*
X63063511Y-34294617D01*
X63077000Y-34362430D01*
X63077000Y-34431570D01*
X63063511Y-34499383D01*
X63063510Y-34499385D01*
X63037054Y-34563258D01*
X62998640Y-34620748D01*
X62949748Y-34669640D01*
X62892258Y-34708054D01*
X62840182Y-34729624D01*
X62828383Y-34734511D01*
X62760570Y-34748000D01*
X62691430Y-34748000D01*
X62623617Y-34734511D01*
X62611818Y-34729624D01*
X62559742Y-34708054D01*
X62502252Y-34669640D01*
X62453360Y-34620748D01*
X62414946Y-34563258D01*
X62388490Y-34499385D01*
X62388489Y-34499383D01*
X62375000Y-34431570D01*
X62375000Y-34362430D01*
X62388489Y-34294617D01*
X62393376Y-34282818D01*
X62414946Y-34230742D01*
X62453360Y-34173252D01*
X62502252Y-34124360D01*
X62530800Y-34105285D01*
X62559739Y-34085948D01*
X62603107Y-34067984D01*
X62624718Y-34056433D01*
X62643660Y-34040888D01*
X62659206Y-34021946D01*
X62670757Y-34000336D01*
X62677870Y-33976887D01*
X62680272Y-33952501D01*
X62677870Y-33928114D01*
X62670757Y-33904665D01*
X62659206Y-33883055D01*
X62643661Y-33864113D01*
X62624719Y-33848567D01*
X62603108Y-33837016D01*
X62559741Y-33819053D01*
X62559740Y-33819053D01*
X62559739Y-33819052D01*
X62502251Y-33780639D01*
X62453361Y-33731749D01*
X62414948Y-33674261D01*
X62414946Y-33674258D01*
X62388490Y-33610385D01*
X62388489Y-33610383D01*
X62375000Y-33542570D01*
X62375000Y-33473430D01*
X62388489Y-33405617D01*
X62393376Y-33393818D01*
X62414946Y-33341742D01*
X62453360Y-33284252D01*
X62502252Y-33235360D01*
X62530800Y-33216285D01*
X62559739Y-33196948D01*
X62603107Y-33178984D01*
X62624718Y-33167433D01*
X62643660Y-33151888D01*
X62659206Y-33132946D01*
X62670757Y-33111336D01*
X62677870Y-33087887D01*
X62680272Y-33063501D01*
X62677870Y-33039114D01*
X62670757Y-33015665D01*
X62659206Y-32994055D01*
X62643661Y-32975113D01*
X62624719Y-32959567D01*
X62603108Y-32948016D01*
X62559741Y-32930053D01*
X62559740Y-32930053D01*
X62559739Y-32930052D01*
X62502251Y-32891639D01*
X62453361Y-32842749D01*
X62414948Y-32785261D01*
X62414946Y-32785258D01*
X62388490Y-32721385D01*
X62388489Y-32721383D01*
X62375000Y-32653570D01*
X62375000Y-32584430D01*
X62388489Y-32516617D01*
X62393376Y-32504818D01*
X62414946Y-32452742D01*
X62453360Y-32395252D01*
X62502252Y-32346360D01*
X62530800Y-32327285D01*
X62559739Y-32307948D01*
X62603107Y-32289984D01*
X62624718Y-32278433D01*
X62643660Y-32262888D01*
X62659206Y-32243946D01*
X62670757Y-32222336D01*
X62677870Y-32198887D01*
X62680272Y-32174501D01*
X62677870Y-32150114D01*
X62670757Y-32126665D01*
X62659206Y-32105055D01*
X62643661Y-32086113D01*
X62624719Y-32070567D01*
X62603108Y-32059016D01*
X62559741Y-32041053D01*
X62559740Y-32041053D01*
X62559739Y-32041052D01*
X62502251Y-32002639D01*
X62453361Y-31953749D01*
X62414948Y-31896261D01*
X62414946Y-31896258D01*
X62388490Y-31832385D01*
X62388489Y-31832383D01*
X62375000Y-31764570D01*
X62375000Y-31695430D01*
X62388489Y-31627617D01*
X62393376Y-31615818D01*
X62414946Y-31563742D01*
X62453360Y-31506252D01*
X62502252Y-31457360D01*
X62530800Y-31438285D01*
X62559739Y-31418948D01*
X62603107Y-31400984D01*
X62624718Y-31389433D01*
X62643660Y-31373888D01*
X62659206Y-31354946D01*
X62670757Y-31333336D01*
X62677870Y-31309887D01*
X62680272Y-31285501D01*
X62677870Y-31261114D01*
X62670757Y-31237665D01*
X62659206Y-31216055D01*
X62643661Y-31197113D01*
X62624719Y-31181567D01*
X62603108Y-31170016D01*
X62559741Y-31152053D01*
X62559740Y-31152053D01*
X62559739Y-31152052D01*
X62502251Y-31113639D01*
X62453361Y-31064749D01*
X62414948Y-31007261D01*
X62414946Y-31007258D01*
X62388490Y-30943385D01*
X62388489Y-30943383D01*
X62375000Y-30875570D01*
X62375000Y-30806430D01*
X62388489Y-30738617D01*
X62393376Y-30726818D01*
X62414946Y-30674742D01*
X62453360Y-30617252D01*
X62502252Y-30568360D01*
X62530800Y-30549285D01*
X62559739Y-30529948D01*
X62603107Y-30511984D01*
X62624718Y-30500433D01*
X62643660Y-30484888D01*
X62659206Y-30465946D01*
X62670757Y-30444336D01*
X62677870Y-30420887D01*
X62680272Y-30396501D01*
X62677870Y-30372114D01*
X62670757Y-30348665D01*
X62659206Y-30327055D01*
X62643661Y-30308113D01*
X62624719Y-30292567D01*
X62603108Y-30281016D01*
X62559741Y-30263053D01*
X62559740Y-30263053D01*
X62559739Y-30263052D01*
X62502251Y-30224639D01*
X62453361Y-30175749D01*
X62414948Y-30118261D01*
X62414946Y-30118258D01*
X62388490Y-30054385D01*
X62388489Y-30054383D01*
X62375000Y-29986570D01*
X62375000Y-29917430D01*
X62388489Y-29849617D01*
X62393376Y-29837818D01*
X62414946Y-29785742D01*
X62453360Y-29728252D01*
X62502252Y-29679360D01*
X62530800Y-29660285D01*
X62559739Y-29640948D01*
X62603107Y-29622984D01*
X62624718Y-29611433D01*
X62643660Y-29595888D01*
X62659206Y-29576946D01*
X62670757Y-29555336D01*
X62677870Y-29531887D01*
X62680272Y-29507501D01*
X62677870Y-29483114D01*
X62670757Y-29459665D01*
X62659206Y-29438055D01*
X62643661Y-29419113D01*
X62624719Y-29403567D01*
X62603108Y-29392016D01*
X62559741Y-29374053D01*
X62559740Y-29374053D01*
X62559739Y-29374052D01*
X62502251Y-29335639D01*
X62453361Y-29286749D01*
X62414948Y-29229261D01*
X62414946Y-29229258D01*
X62388490Y-29165385D01*
X62388489Y-29165383D01*
X62375000Y-29097570D01*
X62375000Y-29028430D01*
X62388489Y-28960617D01*
X62393376Y-28948818D01*
X62414946Y-28896742D01*
X62453360Y-28839252D01*
X62502252Y-28790360D01*
X62559742Y-28751946D01*
X62623615Y-28725490D01*
X62623614Y-28725490D01*
X62623617Y-28725489D01*
X62691430Y-28712000D01*
X62760570Y-28712000D01*
X62828383Y-28725489D01*
G37*
M02*
