G04 #@! TF.GenerationSoftware,KiCad,Pcbnew,(5.1.6-0-10_14)*
G04 #@! TF.CreationDate,2022-08-20T09:16:16+09:00*
G04 #@! TF.ProjectId,cool536,636f6f6c-3533-4362-9e6b-696361645f70,rev?*
G04 #@! TF.SameCoordinates,Original*
G04 #@! TF.FileFunction,Profile,NP*
%FSLAX46Y46*%
G04 Gerber Fmt 4.6, Leading zero omitted, Abs format (unit mm)*
G04 Created by KiCad (PCBNEW (5.1.6-0-10_14)) date 2022-08-20 09:16:16*
%MOMM*%
%LPD*%
G01*
G04 APERTURE LIST*
G04 #@! TA.AperFunction,Profile*
%ADD10C,0.150000*%
G04 #@! TD*
G04 APERTURE END LIST*
D10*
X105340000Y-268590000D02*
X119340000Y-268590000D01*
X51450000Y-216960000D02*
G75*
G03*
X51450000Y-216960000I-1100000J0D01*
G01*
X47900000Y-216210000D02*
X47900000Y-202210000D01*
X87990000Y-190680000D02*
X87990000Y-195430000D01*
X72000000Y-192680000D02*
X72000000Y-206680000D01*
X91050000Y-197440000D02*
X91050000Y-211440000D01*
X66950000Y-211430000D02*
X66950000Y-197430000D01*
X91050000Y-211440000D02*
X105050000Y-211440000D01*
X52950000Y-211430000D02*
X66950000Y-211430000D01*
X66950000Y-197430000D02*
X52950000Y-197430000D01*
X105340000Y-254590000D02*
X105340000Y-268590000D01*
X119340000Y-268590000D02*
X119340000Y-254590000D01*
X108690000Y-217190000D02*
G75*
G03*
X108690000Y-217190000I-1100000J0D01*
G01*
X70010000Y-195420000D02*
X29900000Y-195420000D01*
X126460000Y-267850000D02*
G75*
G03*
X126460000Y-267850000I-1100000J0D01*
G01*
X119340000Y-254590000D02*
X105340000Y-254590000D01*
X105050000Y-197440000D02*
X91050000Y-197440000D01*
X87990000Y-195430000D02*
X128850000Y-195430000D01*
X47900000Y-240300000D02*
X33900000Y-240300000D01*
X110100000Y-235530000D02*
X110100000Y-249530000D01*
X124100000Y-235530000D02*
X110100000Y-235530000D01*
X52950000Y-235520000D02*
X52950000Y-249520000D01*
X110100000Y-249530000D02*
X124100000Y-249530000D01*
X95520000Y-268590000D02*
X95520000Y-254590000D01*
X105050000Y-249530000D02*
X105050000Y-235530000D01*
X105050000Y-235530000D02*
X91050000Y-235530000D01*
X86000000Y-230770000D02*
X72000000Y-230770000D01*
X72000000Y-230770000D02*
X72000000Y-244770000D01*
X91050000Y-235530000D02*
X91050000Y-249530000D01*
X57850000Y-267850000D02*
G75*
G03*
X57850000Y-267850000I-1100000J0D01*
G01*
X66950000Y-249520000D02*
X66950000Y-235520000D01*
X91050000Y-249530000D02*
X105050000Y-249530000D01*
X124100000Y-249530000D02*
X124100000Y-235530000D01*
X72000000Y-211730000D02*
X72000000Y-225730000D01*
X91050000Y-216490000D02*
X91050000Y-230490000D01*
X66950000Y-230480000D02*
X66950000Y-216480000D01*
X91050000Y-230490000D02*
X105050000Y-230490000D01*
X124100000Y-230490000D02*
X124100000Y-216490000D01*
X47900000Y-221260000D02*
X33900000Y-221260000D01*
X110100000Y-216490000D02*
X110100000Y-230490000D01*
X124100000Y-216490000D02*
X110100000Y-216490000D01*
X52950000Y-216480000D02*
X52950000Y-230480000D01*
X110100000Y-230490000D02*
X124100000Y-230490000D01*
X128850000Y-195430000D02*
X128850000Y-273040000D01*
X29900000Y-258420000D02*
X29900000Y-195420000D01*
X58470000Y-273040000D02*
X29900000Y-258420000D01*
X128850000Y-273040000D02*
X58470000Y-273040000D01*
X52950000Y-197430000D02*
X52950000Y-211430000D01*
X62470000Y-254590000D02*
X62470000Y-268590000D01*
X62470000Y-268590000D02*
X76470000Y-268590000D01*
X76470000Y-254590000D02*
X62470000Y-254590000D01*
X76470000Y-268590000D02*
X76470000Y-254590000D01*
X70010000Y-190680000D02*
X87990000Y-190680000D01*
X81520000Y-254590000D02*
X81520000Y-268590000D01*
X81520000Y-268590000D02*
X95520000Y-268590000D01*
X95520000Y-254590000D02*
X81520000Y-254590000D01*
X72000000Y-244770000D02*
X86000000Y-244770000D01*
X47900000Y-202210000D02*
X33900000Y-202210000D01*
X86000000Y-225730000D02*
X86000000Y-211730000D01*
X72000000Y-225730000D02*
X86000000Y-225730000D01*
X52950000Y-230480000D02*
X66950000Y-230480000D01*
X66950000Y-216480000D02*
X52950000Y-216480000D01*
X47900000Y-235260000D02*
X47900000Y-221260000D01*
X33900000Y-221260000D02*
X33900000Y-235260000D01*
X33900000Y-235260000D02*
X47900000Y-235260000D01*
X105050000Y-230490000D02*
X105050000Y-216490000D01*
X105050000Y-216490000D02*
X91050000Y-216490000D01*
X86000000Y-244770000D02*
X86000000Y-230770000D01*
X110100000Y-197440000D02*
X110100000Y-211440000D01*
X124100000Y-197440000D02*
X110100000Y-197440000D01*
X124100000Y-211440000D02*
X124100000Y-197440000D01*
X110100000Y-211440000D02*
X124100000Y-211440000D01*
X86000000Y-211730000D02*
X72000000Y-211730000D01*
X105050000Y-211440000D02*
X105050000Y-197440000D01*
X86000000Y-206680000D02*
X86000000Y-192680000D01*
X72000000Y-206680000D02*
X86000000Y-206680000D01*
X86000000Y-192680000D02*
X72000000Y-192680000D01*
X33900000Y-202210000D02*
X33900000Y-216210000D01*
X70010000Y-195420000D02*
X70010000Y-190680000D01*
X52950000Y-249520000D02*
X66950000Y-249520000D01*
X66950000Y-235520000D02*
X52950000Y-235520000D01*
X47900000Y-254300000D02*
X47900000Y-240300000D01*
X33900000Y-240300000D02*
X33900000Y-254300000D01*
X33900000Y-254300000D02*
X47900000Y-254300000D01*
X33900000Y-216210000D02*
X47900000Y-216210000D01*
M02*
