M48
; DRILL file {KiCad (5.1.6-0-10_14)} date Saturday, October 29, 2022 at 02:19:24 PM
; FORMAT={-:-/ absolute / metric / decimal}
; #@! TF.CreationDate,2022-10-29T14:19:24+09:00
; #@! TF.GenerationSoftware,Kicad,Pcbnew,(5.1.6-0-10_14)
; #@! TF.FileFunction,NonPlated,1,2,NPTH
FMAT,2
METRIC
T1C1.200
T2C1.700
T3C1.900
T4C3.000
T5C4.000
%
G90
G05
T1
X87.6Y-35.57
X87.6Y-42.57
X89.35Y-35.57
X89.35Y-42.57
T2
X120.67Y-63.532
X130.83Y-63.532
X82.57Y-58.77
X92.73Y-58.77
X44.47Y-106.395
X54.63Y-106.395
X63.52Y-63.532
X73.68Y-63.532
X101.62Y-101.632
X111.78Y-101.632
X73.045Y-120.682
X83.205Y-120.682
X92.095Y-120.682
X102.255Y-120.682
X101.62Y-82.582
X111.78Y-82.582
X101.62Y-63.532
X111.78Y-63.532
X63.52Y-101.632
X73.68Y-101.632
X115.908Y-120.682
X126.068Y-120.682
X82.57Y-77.82
X92.73Y-77.82
X82.57Y-96.87
X92.73Y-96.87
X120.67Y-82.582
X130.83Y-82.582
X44.47Y-87.345
X54.63Y-87.345
X120.67Y-101.632
X130.83Y-101.632
X44.47Y-68.295
X54.63Y-68.295
X63.52Y-82.582
X73.68Y-82.582
T3
X101.2Y-101.632
X112.2Y-101.632
X72.625Y-120.682
X83.625Y-120.682
X91.675Y-120.682
X102.675Y-120.682
X101.2Y-82.582
X112.2Y-82.582
X101.2Y-63.532
X112.2Y-63.532
X63.1Y-101.632
X74.1Y-101.632
X115.488Y-120.682
X126.488Y-120.682
X82.15Y-77.82
X93.15Y-77.82
X82.15Y-96.87
X93.15Y-96.87
X120.25Y-82.582
X131.25Y-82.582
X44.05Y-87.345
X55.05Y-87.345
X120.25Y-101.632
X131.25Y-101.632
X44.05Y-68.295
X55.05Y-68.295
X63.1Y-82.582
X74.1Y-82.582
X120.25Y-63.532
X131.25Y-63.532
X82.15Y-58.77
X93.15Y-58.77
X44.05Y-106.395
X55.05Y-106.395
X63.1Y-63.532
X74.1Y-63.532
T4
X101.7Y-105.332
X102.89Y-99.093
X104.16Y-96.552
X106.7Y-107.532
X109.24Y-96.552
X110.51Y-99.093
X111.7Y-105.332
X73.125Y-124.382
X74.315Y-118.142
X75.585Y-115.602
X78.125Y-126.582
X80.665Y-115.602
X81.935Y-118.142
X83.125Y-124.382
X92.175Y-124.382
X93.365Y-118.142
X94.635Y-115.602
X97.175Y-126.582
X99.715Y-115.602
X100.985Y-118.142
X102.175Y-124.382
X101.7Y-86.282
X102.89Y-80.042
X104.16Y-77.502
X106.7Y-88.483
X109.24Y-77.502
X110.51Y-80.042
X111.7Y-86.282
X101.7Y-67.232
X102.89Y-60.992
X104.16Y-58.452
X106.7Y-69.432
X109.24Y-58.452
X110.51Y-60.992
X111.7Y-67.232
X63.6Y-105.332
X64.79Y-99.093
X66.06Y-96.552
X68.6Y-107.532
X71.14Y-96.552
X72.41Y-99.093
X73.6Y-105.332
X115.988Y-124.382
X117.178Y-118.142
X118.448Y-115.602
X120.988Y-126.582
X123.528Y-115.602
X124.798Y-118.142
X125.988Y-124.382
X82.65Y-81.52
X83.84Y-75.28
X85.11Y-72.74
X87.65Y-83.72
X90.19Y-72.74
X91.46Y-75.28
X92.65Y-81.52
X82.65Y-100.57
X83.84Y-94.33
X85.11Y-91.79
X87.65Y-102.77
X90.19Y-91.79
X91.46Y-94.33
X92.65Y-100.57
X120.75Y-86.282
X121.94Y-80.042
X123.21Y-77.502
X125.75Y-88.483
X128.29Y-77.502
X129.56Y-80.042
X130.75Y-86.282
X44.55Y-91.045
X45.74Y-84.805
X47.01Y-82.265
X49.55Y-93.245
X52.09Y-82.265
X53.36Y-84.805
X54.55Y-91.045
X120.75Y-105.332
X121.94Y-99.093
X123.21Y-96.552
X125.75Y-107.532
X128.29Y-96.552
X129.56Y-99.093
X130.75Y-105.332
X44.55Y-71.995
X45.74Y-65.755
X47.01Y-63.215
X49.55Y-74.195
X52.09Y-63.215
X53.36Y-65.755
X54.55Y-71.995
X63.6Y-86.282
X64.79Y-80.042
X66.06Y-77.502
X68.6Y-88.483
X71.14Y-77.502
X72.41Y-80.042
X73.6Y-86.282
X120.75Y-67.232
X121.94Y-60.992
X123.21Y-58.452
X125.75Y-69.432
X128.29Y-58.452
X129.56Y-60.992
X130.75Y-67.232
X82.65Y-62.47
X83.84Y-56.23
X85.11Y-53.69
X87.65Y-64.67
X90.19Y-53.69
X91.46Y-56.23
X92.65Y-62.47
X44.55Y-110.095
X45.74Y-103.855
X47.01Y-101.315
X49.55Y-112.295
X52.09Y-101.315
X53.36Y-103.855
X54.55Y-110.095
X63.6Y-67.232
X64.79Y-60.992
X66.06Y-58.452
X68.6Y-69.432
X71.14Y-58.452
X72.41Y-60.992
X73.6Y-67.232
T5
X106.7Y-101.632
X78.125Y-120.682
X97.175Y-120.682
X106.7Y-82.582
X106.7Y-63.532
X68.6Y-101.632
X120.988Y-120.682
X87.65Y-77.82
X87.65Y-96.87
X125.75Y-82.582
X49.55Y-87.345
X125.75Y-101.632
X49.55Y-68.295
X68.6Y-82.582
X125.75Y-63.532
X87.65Y-58.77
X49.55Y-106.395
X68.6Y-63.532
T0
M30
