G04 #@! TF.GenerationSoftware,KiCad,Pcbnew,(5.1.6-0-10_14)*
G04 #@! TF.CreationDate,2023-01-09T17:08:50+09:00*
G04 #@! TF.ProjectId,cool536v130,636f6f6c-3533-4367-9631-33302e6b6963,rev?*
G04 #@! TF.SameCoordinates,Original*
G04 #@! TF.FileFunction,Copper,L2,Bot*
G04 #@! TF.FilePolarity,Positive*
%FSLAX46Y46*%
G04 Gerber Fmt 4.6, Leading zero omitted, Abs format (unit mm)*
G04 Created by KiCad (PCBNEW (5.1.6-0-10_14)) date 2023-01-09 17:08:50*
%MOMM*%
%LPD*%
G01*
G04 APERTURE LIST*
G04 #@! TA.AperFunction,SMDPad,CuDef*
%ADD10R,2.000000X2.000000*%
G04 #@! TD*
G04 #@! TA.AperFunction,SMDPad,CuDef*
%ADD11R,1.900000X2.000000*%
G04 #@! TD*
G04 #@! TA.AperFunction,ComponentPad*
%ADD12C,2.000000*%
G04 #@! TD*
G04 #@! TA.AperFunction,SMDPad,CuDef*
%ADD13R,1.300000X0.950000*%
G04 #@! TD*
G04 #@! TA.AperFunction,ComponentPad*
%ADD14C,1.397000*%
G04 #@! TD*
G04 #@! TA.AperFunction,ComponentPad*
%ADD15R,1.397000X1.397000*%
G04 #@! TD*
G04 #@! TA.AperFunction,ComponentPad*
%ADD16O,1.700000X2.500000*%
G04 #@! TD*
G04 #@! TA.AperFunction,ComponentPad*
%ADD17C,1.524000*%
G04 #@! TD*
G04 #@! TA.AperFunction,ComponentPad*
%ADD18R,1.500000X1.500000*%
G04 #@! TD*
G04 #@! TA.AperFunction,ComponentPad*
%ADD19C,2.800000*%
G04 #@! TD*
G04 #@! TA.AperFunction,SMDPad,CuDef*
%ADD20R,1.524000X1.524000*%
G04 #@! TD*
G04 #@! TA.AperFunction,ComponentPad*
%ADD21O,1.397000X1.778000*%
G04 #@! TD*
G04 #@! TA.AperFunction,ViaPad*
%ADD22C,0.800000*%
G04 #@! TD*
G04 #@! TA.AperFunction,Conductor*
%ADD23C,0.250000*%
G04 #@! TD*
G04 APERTURE END LIST*
D10*
X93250000Y-91790000D03*
X80750000Y-94330000D03*
D11*
X90450000Y-102770000D03*
D10*
X79550000Y-100570000D03*
X41450000Y-91045000D03*
D11*
X52350000Y-93245000D03*
D10*
X42650000Y-84805000D03*
X55150000Y-82265000D03*
X89075000Y-124382500D03*
D11*
X99975000Y-126582500D03*
D10*
X90275000Y-118142500D03*
X102775000Y-115602500D03*
D12*
X75460000Y-36040000D03*
X75460000Y-42540000D03*
D10*
X74200000Y-77502500D03*
X61700000Y-80042500D03*
D11*
X71400000Y-88482500D03*
D10*
X60500000Y-86282500D03*
D13*
X70375000Y-73532499D03*
D14*
X72410000Y-73532499D03*
D15*
X64790000Y-73532499D03*
D13*
X66825000Y-73532499D03*
X122763000Y-130682500D03*
D14*
X124798000Y-130682500D03*
D15*
X117178000Y-130682500D03*
D13*
X119213000Y-130682500D03*
D14*
X111830000Y-55420000D03*
D15*
X104210000Y-55420000D03*
D13*
X106245000Y-55420000D03*
X109795000Y-55420000D03*
X127525000Y-73532499D03*
D14*
X129560000Y-73532499D03*
D15*
X121940000Y-73532499D03*
D13*
X123975000Y-73532499D03*
D16*
X87250000Y-45870000D03*
X91450000Y-44370000D03*
X91450000Y-40370000D03*
X91450000Y-37370000D03*
X85500000Y-40370000D03*
X85500000Y-37370000D03*
X89700000Y-45870000D03*
X85500000Y-44370000D03*
D10*
X60500000Y-105332500D03*
D11*
X71400000Y-107532500D03*
D10*
X61700000Y-99092500D03*
X74200000Y-96552500D03*
X112300000Y-96552500D03*
X99800000Y-99092500D03*
D11*
X109500000Y-107532500D03*
D10*
X98600000Y-105332500D03*
D14*
X95330000Y-44820000D03*
X95330000Y-42280000D03*
X95330000Y-39740000D03*
X95330000Y-37200000D03*
D17*
X43692000Y-37360000D03*
X46232000Y-37360000D03*
X48772000Y-37360000D03*
X51312000Y-37360000D03*
X53852000Y-37360000D03*
X56392000Y-37360000D03*
X58932000Y-37360000D03*
X61472000Y-37360000D03*
X64012000Y-37360000D03*
X66552000Y-37360000D03*
X69092000Y-37360000D03*
X71632000Y-37360000D03*
X71632000Y-52600000D03*
X69092000Y-52600000D03*
X66552000Y-52600000D03*
X64012000Y-52600000D03*
X61472000Y-52600000D03*
X58932000Y-52600000D03*
X56392000Y-52600000D03*
X53852000Y-52600000D03*
X51312000Y-52600000D03*
X48772000Y-52600000D03*
X46232000Y-52600000D03*
X43692000Y-52600000D03*
X42422000Y-36053600D03*
X44962000Y-36053600D03*
X47502000Y-36053600D03*
X50042000Y-36053600D03*
X52582000Y-36053600D03*
X55122000Y-36053600D03*
X57662000Y-36053600D03*
X60202000Y-36053600D03*
X62742000Y-36053600D03*
X65282000Y-36053600D03*
X67822000Y-36053600D03*
X70362000Y-36053600D03*
X70362000Y-51273600D03*
X67822000Y-51273600D03*
X65282000Y-51273600D03*
X62742000Y-51273600D03*
X60202000Y-51273600D03*
X57662000Y-51273600D03*
X55122000Y-51273600D03*
X52582000Y-51273600D03*
X50042000Y-51273600D03*
X47502000Y-51273600D03*
X44962000Y-51273600D03*
X42422000Y-51273600D03*
D13*
X51325000Y-78295000D03*
D14*
X53360000Y-78295000D03*
D15*
X45740000Y-78295000D03*
D13*
X47775000Y-78295000D03*
D10*
X126588000Y-115602500D03*
X114088000Y-118142500D03*
D11*
X123788000Y-126582500D03*
D10*
X112888000Y-124382500D03*
X131350000Y-58452499D03*
X118850000Y-60992499D03*
D11*
X128550000Y-69432499D03*
D10*
X117650000Y-67232499D03*
D18*
X100560000Y-41910000D03*
D12*
X100560000Y-44410000D03*
X100560000Y-46910000D03*
D19*
X108060000Y-38810000D03*
X108060000Y-50010000D03*
D12*
X115060000Y-41910000D03*
X115060000Y-46910000D03*
D10*
X98600000Y-67232499D03*
D11*
X109500000Y-69432499D03*
D10*
X99800000Y-60992499D03*
X112300000Y-58452499D03*
X41450000Y-71995000D03*
D11*
X52350000Y-74195000D03*
D10*
X42650000Y-65755000D03*
X55150000Y-63215000D03*
D13*
X98950000Y-130682500D03*
D14*
X100985000Y-130682500D03*
D15*
X93365000Y-130682500D03*
D13*
X95400000Y-130682500D03*
D10*
X112300000Y-77502500D03*
X99800000Y-80042500D03*
D11*
X109500000Y-88482500D03*
D10*
X98600000Y-86282500D03*
D13*
X89425000Y-87820000D03*
D14*
X91460000Y-87820000D03*
D15*
X83840000Y-87820000D03*
D13*
X85875000Y-87820000D03*
X79900000Y-130682500D03*
D14*
X81935000Y-130682500D03*
D15*
X74315000Y-130682500D03*
D13*
X76350000Y-130682500D03*
D10*
X60500000Y-67232499D03*
D11*
X71400000Y-69432499D03*
D10*
X61700000Y-60992499D03*
X74200000Y-58452499D03*
X55150000Y-101315000D03*
X42650000Y-103855000D03*
D11*
X52350000Y-112295000D03*
D10*
X41450000Y-110095000D03*
D13*
X127525000Y-111632500D03*
D14*
X129560000Y-111632500D03*
D15*
X121940000Y-111632500D03*
D13*
X123975000Y-111632500D03*
D10*
X93250000Y-72740000D03*
X80750000Y-75280000D03*
D11*
X90450000Y-83720000D03*
D10*
X79550000Y-81520000D03*
D13*
X108475000Y-111632500D03*
D14*
X110510000Y-111632500D03*
D15*
X102890000Y-111632500D03*
D13*
X104925000Y-111632500D03*
D18*
X118090000Y-41910000D03*
D12*
X118090000Y-44410000D03*
X118090000Y-46910000D03*
D19*
X125590000Y-38810000D03*
X125590000Y-50010000D03*
D12*
X132590000Y-41910000D03*
X132590000Y-46910000D03*
D10*
X131350000Y-77502500D03*
X118850000Y-80042500D03*
D11*
X128550000Y-88482500D03*
D10*
X117650000Y-86282500D03*
D13*
X70375000Y-92582500D03*
D14*
X72410000Y-92582500D03*
D15*
X64790000Y-92582500D03*
D13*
X66825000Y-92582500D03*
D10*
X70025000Y-124382500D03*
D11*
X80925000Y-126582500D03*
D10*
X71225000Y-118142500D03*
X83725000Y-115602500D03*
X131350000Y-96552500D03*
X118850000Y-99092500D03*
D11*
X128550000Y-107532500D03*
D10*
X117650000Y-105332500D03*
D13*
X51325000Y-116395000D03*
D14*
X53360000Y-116395000D03*
D15*
X45740000Y-116395000D03*
D13*
X47775000Y-116395000D03*
D20*
X50300000Y-46680000D03*
X50300000Y-44140000D03*
X50300000Y-41600000D03*
D13*
X89425000Y-68770000D03*
D14*
X91460000Y-68770000D03*
D15*
X83840000Y-68770000D03*
D13*
X85875000Y-68770000D03*
X108475000Y-73532499D03*
D14*
X110510000Y-73532499D03*
D15*
X102890000Y-73532499D03*
D13*
X104925000Y-73532499D03*
X51325000Y-97345000D03*
D14*
X53360000Y-97345000D03*
D15*
X45740000Y-97345000D03*
D13*
X47775000Y-97345000D03*
X70375000Y-111632500D03*
D14*
X72410000Y-111632500D03*
D15*
X64790000Y-111632500D03*
D13*
X66825000Y-111632500D03*
X89425000Y-106870000D03*
D14*
X91460000Y-106870000D03*
D15*
X83840000Y-106870000D03*
D13*
X85875000Y-106870000D03*
D10*
X79550000Y-62470000D03*
D11*
X90450000Y-64670000D03*
D10*
X80750000Y-56230000D03*
X93250000Y-53690000D03*
D13*
X108475000Y-92582500D03*
D14*
X110510000Y-92582500D03*
D15*
X102890000Y-92582500D03*
D13*
X104925000Y-92582500D03*
X127525000Y-92582500D03*
D14*
X129560000Y-92582500D03*
D15*
X121940000Y-92582500D03*
D13*
X123975000Y-92582500D03*
D14*
X130870000Y-55400000D03*
D15*
X123250000Y-55400000D03*
D13*
X125285000Y-55400000D03*
X128835000Y-55400000D03*
D21*
X121436000Y-37340000D03*
X118896000Y-37340000D03*
X116356000Y-37340000D03*
X113816000Y-37340000D03*
X118896000Y-49786000D03*
X116356000Y-49786000D03*
X113816000Y-49786000D03*
X121436000Y-49786000D03*
D22*
X52350001Y-70169999D03*
X71387498Y-65407498D03*
X90475001Y-60644999D03*
X109240000Y-67020000D03*
X128577498Y-65407498D03*
X52309999Y-89219999D03*
X71400000Y-84650000D03*
X90474999Y-79694999D03*
X109425000Y-84695000D03*
X128550000Y-84490000D03*
X52101999Y-109841999D03*
X70995749Y-105235749D03*
X89515000Y-99815000D03*
X109467499Y-103507499D03*
X128527499Y-103507499D03*
X80917499Y-122557499D03*
X99987501Y-121957501D03*
X123767499Y-122557499D03*
X73450000Y-53534990D03*
X78643501Y-88843501D03*
X78500000Y-67200000D03*
X60970000Y-71460000D03*
X59525000Y-116395000D03*
X95667158Y-49202842D03*
X65700102Y-43535359D03*
X51940000Y-46730000D03*
X53700000Y-44970000D03*
X47520000Y-41600000D03*
X107110000Y-44380000D03*
X65745552Y-41536497D03*
X48600000Y-44170000D03*
X101340000Y-51830000D03*
X96803511Y-48976489D03*
X72770000Y-44780000D03*
X91280000Y-47094980D03*
X64520000Y-44020000D03*
X56490000Y-43990000D03*
X59590000Y-45800000D03*
X65835858Y-45054142D03*
X55300000Y-56060000D03*
X54470000Y-43266990D03*
X41940000Y-101330000D03*
X41390000Y-93730000D03*
X41700000Y-74880000D03*
X41900000Y-82150000D03*
X42000000Y-63210000D03*
X41730000Y-113190000D03*
X65697833Y-42535360D03*
X65630000Y-46540000D03*
X60990000Y-45695000D03*
X62380000Y-45695000D03*
X64520000Y-46500000D03*
X60490000Y-69080000D03*
X62780000Y-75530000D03*
X60950000Y-58380000D03*
X57710000Y-55885010D03*
X60510000Y-108180000D03*
X60980000Y-96430000D03*
X68910000Y-42780000D03*
X60510000Y-89360000D03*
X65280000Y-56100000D03*
X79810000Y-91790000D03*
X70220000Y-127080000D03*
X79550000Y-84250000D03*
X70450000Y-115660000D03*
X79700000Y-103740000D03*
X80070000Y-53740000D03*
X79910000Y-72670000D03*
X79610000Y-65240000D03*
X117750000Y-70210000D03*
X67790000Y-55960000D03*
X117620000Y-89120000D03*
X113070000Y-115480000D03*
X117670000Y-108450000D03*
X118262499Y-58452499D03*
X117960000Y-96450000D03*
X112830000Y-127280000D03*
X120140000Y-75100000D03*
X89050000Y-127360000D03*
X98900000Y-58420000D03*
X98590000Y-69330000D03*
X98640000Y-108520000D03*
X98952500Y-77502500D03*
X98710000Y-89200000D03*
X93905000Y-48815000D03*
X89470000Y-115510000D03*
X99100000Y-96470000D03*
D23*
X52350000Y-74195000D02*
X49665000Y-76880000D01*
X47155000Y-76880000D02*
X45740000Y-78295000D01*
X49665000Y-76880000D02*
X47155000Y-76880000D01*
X45740000Y-78295000D02*
X47775000Y-78295000D01*
X52350001Y-72944999D02*
X52350001Y-70169999D01*
X55051002Y-74195000D02*
X56375001Y-72871001D01*
X56375001Y-72871001D02*
X56375001Y-64440001D01*
X52350000Y-74195000D02*
X52350001Y-72944999D01*
X52350000Y-74195000D02*
X55051002Y-74195000D01*
X56375001Y-64440001D02*
X55150000Y-63215000D01*
X64790000Y-73532499D02*
X67337501Y-73532499D01*
X71400000Y-65420000D02*
X71387498Y-65407498D01*
X71400000Y-69432499D02*
X68862499Y-71970000D01*
X74200000Y-58452499D02*
X75425001Y-59677500D01*
X71400000Y-69432499D02*
X71400000Y-65420000D01*
X75425001Y-59677500D02*
X75425001Y-68108500D01*
X75425001Y-68108500D02*
X74101002Y-69432499D01*
X74101002Y-69432499D02*
X71400000Y-69432499D01*
X68862499Y-71970000D02*
X66352499Y-71970000D01*
X66352499Y-71970000D02*
X64790000Y-73532499D01*
X87760000Y-67360000D02*
X85250000Y-67360000D01*
X90450000Y-60670000D02*
X90475001Y-60644999D01*
X93151002Y-64670000D02*
X90450000Y-64670000D01*
X93250000Y-53690000D02*
X94475001Y-54915001D01*
X83840000Y-68770000D02*
X85875000Y-68770000D01*
X94475001Y-54915001D02*
X94475001Y-63346001D01*
X90450000Y-64670000D02*
X87760000Y-67360000D01*
X94475001Y-63346001D02*
X93151002Y-64670000D01*
X90450000Y-64670000D02*
X90450000Y-60670000D01*
X85250000Y-67360000D02*
X83840000Y-68770000D01*
X109500000Y-69432499D02*
X109500000Y-67280000D01*
X106942499Y-71990000D02*
X104432499Y-71990000D01*
X112300000Y-58452499D02*
X113525001Y-59677500D01*
X112201002Y-69432499D02*
X109500000Y-69432499D01*
X104432499Y-71990000D02*
X102890000Y-73532499D01*
X109500000Y-69432499D02*
X106942499Y-71990000D01*
X109500000Y-67280000D02*
X109240000Y-67020000D01*
X113525001Y-68108500D02*
X112201002Y-69432499D01*
X102890000Y-73532499D02*
X104925000Y-73532499D01*
X113525001Y-59677500D02*
X113525001Y-68108500D01*
X125972499Y-72010000D02*
X123462499Y-72010000D01*
X131350000Y-58452499D02*
X132575001Y-59677500D01*
X131251002Y-69432499D02*
X128550000Y-69432499D01*
X132575001Y-59677500D02*
X132575001Y-68108500D01*
X121940000Y-73532499D02*
X123975000Y-73532499D01*
X132575001Y-68108500D02*
X131251002Y-69432499D01*
X123462499Y-72010000D02*
X121940000Y-73532499D01*
X128550000Y-69432499D02*
X125972499Y-72010000D01*
X128550000Y-65434996D02*
X128577498Y-65407498D01*
X128550000Y-69432499D02*
X128550000Y-65434996D01*
X49775000Y-95820000D02*
X47265000Y-95820000D01*
X55051002Y-93245000D02*
X52350000Y-93245000D01*
X56375001Y-91921001D02*
X55051002Y-93245000D01*
X52350000Y-89260000D02*
X52309999Y-89219999D01*
X45740000Y-97345000D02*
X47775000Y-97345000D01*
X47265000Y-95820000D02*
X45740000Y-97345000D01*
X55150000Y-82265000D02*
X56375001Y-83490001D01*
X52350000Y-93245000D02*
X52350000Y-89260000D01*
X52350000Y-93245000D02*
X49775000Y-95820000D01*
X56375001Y-83490001D02*
X56375001Y-91921001D01*
X74101002Y-88482500D02*
X71400000Y-88482500D01*
X74200000Y-79131498D02*
X75425001Y-80356499D01*
X75425001Y-80356499D02*
X75425001Y-87158501D01*
X75425001Y-87158501D02*
X74101002Y-88482500D01*
X71400000Y-88482500D02*
X68902500Y-90980000D01*
X68902500Y-90980000D02*
X66392500Y-90980000D01*
X66392500Y-90980000D02*
X64790000Y-92582500D01*
X74200000Y-77502500D02*
X74200000Y-79131498D01*
X64790000Y-92582500D02*
X66825000Y-92582500D01*
X71400000Y-88482500D02*
X71400000Y-84650000D01*
X90450000Y-83720000D02*
X90450000Y-79719998D01*
X90450000Y-79719998D02*
X90474999Y-79694999D01*
X93250000Y-72740000D02*
X94425001Y-73915001D01*
X94425001Y-73915001D02*
X94425001Y-78704999D01*
X94475001Y-78754999D02*
X94475001Y-82396001D01*
X94425001Y-78704999D02*
X94475001Y-78754999D01*
X94475001Y-82396001D02*
X93151002Y-83720000D01*
X93151002Y-83720000D02*
X90450000Y-83720000D01*
X90450000Y-83720000D02*
X87780000Y-86390000D01*
X83840000Y-87820000D02*
X85875000Y-87820000D01*
X85270000Y-86390000D02*
X83840000Y-87820000D01*
X87780000Y-86390000D02*
X85270000Y-86390000D01*
X102890000Y-92582500D02*
X104925000Y-92582500D01*
X109500000Y-88482500D02*
X106842500Y-91140000D01*
X109500000Y-88482500D02*
X109500000Y-84770000D01*
X104332500Y-91140000D02*
X102890000Y-92582500D01*
X113525001Y-87158501D02*
X112201002Y-88482500D01*
X112300000Y-77502500D02*
X113525001Y-78727501D01*
X113525001Y-78727501D02*
X113525001Y-87158501D01*
X112201002Y-88482500D02*
X109500000Y-88482500D01*
X109500000Y-84770000D02*
X109425000Y-84695000D01*
X106842500Y-91140000D02*
X104332500Y-91140000D01*
X123332500Y-91190000D02*
X121940000Y-92582500D01*
X128550000Y-88482500D02*
X128550000Y-84490000D01*
X125842500Y-91190000D02*
X123332500Y-91190000D01*
X132575001Y-78727501D02*
X132575001Y-87158501D01*
X131251002Y-88482500D02*
X128550000Y-88482500D01*
X131350000Y-77502500D02*
X132575001Y-78727501D01*
X132575001Y-87158501D02*
X131251002Y-88482500D01*
X128550000Y-88482500D02*
X125842500Y-91190000D01*
X121940000Y-92582500D02*
X123975000Y-92582500D01*
X55051002Y-112295000D02*
X52350000Y-112295000D01*
X52350000Y-112295000D02*
X49595000Y-115050000D01*
X56375001Y-110971001D02*
X55051002Y-112295000D01*
X45740000Y-116395000D02*
X47775000Y-116395000D01*
X49595000Y-115050000D02*
X47085000Y-115050000D01*
X56375001Y-102540001D02*
X56375001Y-110971001D01*
X52350000Y-112295000D02*
X52350000Y-110090000D01*
X52350000Y-110090000D02*
X52101999Y-109841999D01*
X55150000Y-101315000D02*
X56375001Y-102540001D01*
X47085000Y-115050000D02*
X45740000Y-116395000D01*
X75425001Y-98015001D02*
X75425001Y-106208501D01*
X74200000Y-96552500D02*
X74200000Y-96790000D01*
X75425001Y-106208501D02*
X74101002Y-107532500D01*
X64790000Y-111632500D02*
X66825000Y-111632500D01*
X74200000Y-96790000D02*
X75425001Y-98015001D01*
X74101002Y-107532500D02*
X71400000Y-107532500D01*
X71400000Y-107532500D02*
X68642500Y-110290000D01*
X68642500Y-110290000D02*
X66132500Y-110290000D01*
X66132500Y-110290000D02*
X64790000Y-111632500D01*
X71400000Y-105640000D02*
X70995749Y-105235749D01*
X71400000Y-107532500D02*
X71400000Y-105640000D01*
X93151002Y-102770000D02*
X90450000Y-102770000D01*
X93250000Y-91790000D02*
X94475001Y-93015001D01*
X90450000Y-100750000D02*
X89515000Y-99815000D01*
X90450000Y-102770000D02*
X90450000Y-100750000D01*
X94475001Y-93015001D02*
X94475001Y-101446001D01*
X85450000Y-105260000D02*
X83840000Y-106870000D01*
X90450000Y-102770000D02*
X87960000Y-105260000D01*
X83840000Y-106870000D02*
X85875000Y-106870000D01*
X87960000Y-105260000D02*
X85450000Y-105260000D01*
X94475001Y-101446001D02*
X93151002Y-102770000D01*
X109500000Y-107532500D02*
X109500000Y-103540000D01*
X109500000Y-103540000D02*
X109467499Y-103507499D01*
X102890000Y-111632500D02*
X104925000Y-111632500D01*
X109500000Y-107532500D02*
X106972500Y-110060000D01*
X112201002Y-107532500D02*
X109500000Y-107532500D01*
X112300000Y-96552500D02*
X113525001Y-97777501D01*
X113525001Y-106208501D02*
X112201002Y-107532500D01*
X113525001Y-97777501D02*
X113525001Y-106208501D01*
X104462500Y-110060000D02*
X102890000Y-111632500D01*
X106972500Y-110060000D02*
X104462500Y-110060000D01*
X128550000Y-107532500D02*
X128550000Y-103530000D01*
X128550000Y-103530000D02*
X128527499Y-103507499D01*
X128550000Y-107532500D02*
X126042500Y-110040000D01*
X121940000Y-111632500D02*
X123975000Y-111632500D01*
X123532500Y-110040000D02*
X121940000Y-111632500D01*
X132575001Y-97777501D02*
X132575001Y-106208501D01*
X132575001Y-106208501D02*
X131251002Y-107532500D01*
X126042500Y-110040000D02*
X123532500Y-110040000D01*
X131350000Y-96552500D02*
X132575001Y-97777501D01*
X131251002Y-107532500D02*
X128550000Y-107532500D01*
X80925000Y-126582500D02*
X80925000Y-122565000D01*
X80925000Y-122565000D02*
X80917499Y-122557499D01*
X80925000Y-126582500D02*
X78547500Y-128960000D01*
X78547500Y-128960000D02*
X76037500Y-128960000D01*
X83725000Y-115602500D02*
X84950001Y-116827501D01*
X83626002Y-126582500D02*
X80925000Y-126582500D01*
X84950001Y-125258501D02*
X83626002Y-126582500D01*
X84950001Y-116827501D02*
X84950001Y-125258501D01*
X74315000Y-130682500D02*
X76350000Y-130682500D01*
X76037500Y-128960000D02*
X74315000Y-130682500D01*
X99975000Y-121970002D02*
X99987501Y-121957501D01*
X99975000Y-126582500D02*
X99975000Y-121970002D01*
X94907500Y-129140000D02*
X93365000Y-130682500D01*
X99975000Y-126582500D02*
X97417500Y-129140000D01*
X97417500Y-129140000D02*
X94907500Y-129140000D01*
X102676002Y-126582500D02*
X99975000Y-126582500D01*
X104000001Y-116827501D02*
X104000001Y-125258501D01*
X104000001Y-125258501D02*
X102676002Y-126582500D01*
X102775000Y-115602500D02*
X104000001Y-116827501D01*
X93365000Y-130682500D02*
X95400000Y-130682500D01*
X123788000Y-126582500D02*
X121510500Y-128860000D01*
X127813001Y-116827501D02*
X127813001Y-125258501D01*
X127813001Y-125258501D02*
X126489002Y-126582500D01*
X126588000Y-115602500D02*
X127813001Y-116827501D01*
X126489002Y-126582500D02*
X123788000Y-126582500D01*
X123788000Y-122578000D02*
X123767499Y-122557499D01*
X123788000Y-126582500D02*
X123788000Y-122578000D01*
X121510500Y-128860000D02*
X119000500Y-128860000D01*
X119000500Y-128860000D02*
X117178000Y-130682500D01*
X117178000Y-130682500D02*
X119213000Y-130682500D01*
X106245000Y-55420000D02*
X104210000Y-55420000D01*
X125285000Y-55400000D02*
X123250000Y-55400000D01*
X75460000Y-42540000D02*
X74670000Y-42540000D01*
X48772000Y-35714838D02*
X48772000Y-37360000D01*
X49520239Y-34966599D02*
X48772000Y-35714838D01*
X60847031Y-39797031D02*
X51209030Y-39797030D01*
X66761920Y-41527560D02*
X65931409Y-40697049D01*
X53963829Y-50186599D02*
X56663889Y-47486539D01*
X47502000Y-51273600D02*
X48589001Y-50186599D01*
X48589001Y-50186599D02*
X53963829Y-50186599D01*
X66761920Y-46718080D02*
X66761920Y-41527560D01*
X56663889Y-47486539D02*
X65993461Y-47486539D01*
X61747049Y-40697049D02*
X60847031Y-39797031D01*
X65931409Y-40697049D02*
X61747049Y-40697049D01*
X51209030Y-39797030D02*
X48772000Y-37360000D01*
X65993461Y-47486539D02*
X66761920Y-46718080D01*
X72836599Y-34966599D02*
X49520239Y-34966599D01*
X73660000Y-41530000D02*
X73660000Y-35790000D01*
X73660000Y-35790000D02*
X72836599Y-34966599D01*
X74670000Y-42540000D02*
X73660000Y-41530000D01*
X89425000Y-68770000D02*
X91460000Y-68770000D01*
X108475000Y-73532499D02*
X110510000Y-73532499D01*
X70375000Y-73532499D02*
X72410000Y-73532499D01*
X127525000Y-73532499D02*
X129560000Y-73532499D01*
X73425010Y-53510000D02*
X73450000Y-53534990D01*
X72542000Y-53510000D02*
X73425010Y-53510000D01*
X51325000Y-78295000D02*
X53360000Y-78295000D01*
X71632000Y-52600000D02*
X72542000Y-53510000D01*
X51325000Y-97345000D02*
X53360000Y-97345000D01*
X78500000Y-78850000D02*
X77860000Y-79490000D01*
X77860000Y-79490000D02*
X77860000Y-84450000D01*
X127525000Y-92582500D02*
X129560000Y-92582500D01*
X70375000Y-92582500D02*
X72410000Y-92582500D01*
X108475000Y-92582500D02*
X110510000Y-92582500D01*
X89425000Y-87820000D02*
X91460000Y-87820000D01*
X78500000Y-67200000D02*
X78500000Y-78850000D01*
X77860000Y-84450000D02*
X78643501Y-85233501D01*
X78643501Y-85233501D02*
X78643501Y-88843501D01*
X70281970Y-48558030D02*
X70281970Y-39371970D01*
X68047001Y-49736589D02*
X68773600Y-49009990D01*
X70281970Y-39371970D02*
X69990009Y-39080009D01*
X68773600Y-49009990D02*
X69830010Y-49009990D01*
X69990009Y-39080009D02*
X67635598Y-39080008D01*
X67635598Y-39080008D02*
X67002591Y-38447001D01*
X64279011Y-49736589D02*
X68047001Y-49736589D01*
X67002591Y-38447001D02*
X65099001Y-38447001D01*
X62742000Y-51273600D02*
X64279011Y-49736589D01*
X65099001Y-38447001D02*
X64012000Y-37360000D01*
X69830010Y-49009990D02*
X70281970Y-48558030D01*
X59174999Y-89621999D02*
X59860000Y-88936998D01*
X108475000Y-111632500D02*
X110510000Y-111632500D01*
X59860000Y-88936998D02*
X59860000Y-88227502D01*
X59860000Y-88227502D02*
X59174999Y-87542501D01*
X59174999Y-116044999D02*
X59174999Y-89621999D01*
X59525000Y-116395000D02*
X59174999Y-116044999D01*
X59174999Y-87542501D02*
X59174999Y-80634999D01*
X59174999Y-80634999D02*
X56050000Y-77510000D01*
X59080000Y-71460000D02*
X60970000Y-71460000D01*
X56050000Y-77510000D02*
X56050000Y-74490000D01*
X56050000Y-74490000D02*
X59080000Y-71460000D01*
X89425000Y-106870000D02*
X91460000Y-106870000D01*
X51325000Y-116395000D02*
X53360000Y-116395000D01*
X70375000Y-111632500D02*
X72410000Y-111632500D01*
X127525000Y-111632500D02*
X129560000Y-111632500D01*
X60202000Y-51273600D02*
X60202000Y-52938762D01*
X77192210Y-51761380D02*
X79066388Y-51761380D01*
X74693600Y-54259990D02*
X77192210Y-51761380D01*
X61523228Y-54259990D02*
X74693600Y-54259990D01*
X60202000Y-52938762D02*
X61523228Y-54259990D01*
X98950000Y-130682500D02*
X100985000Y-130682500D01*
X95078620Y-49791380D02*
X95667158Y-49202842D01*
X82672210Y-49791380D02*
X95078620Y-49791380D01*
X81873590Y-50590000D02*
X82672210Y-49791380D01*
X80237768Y-50590000D02*
X81873590Y-50590000D01*
X79066388Y-51761380D02*
X80237768Y-50590000D01*
X69831960Y-47988040D02*
X69831960Y-40181960D01*
X67069180Y-39150000D02*
X66930000Y-39150000D01*
X68587200Y-48559980D02*
X69260020Y-48559980D01*
X69831960Y-40181960D02*
X69180018Y-39530018D01*
X111830000Y-55420000D02*
X109795000Y-55420000D01*
X67860601Y-49286579D02*
X68587200Y-48559980D01*
X63009011Y-38897011D02*
X61472000Y-37360000D01*
X60202000Y-51273600D02*
X62189021Y-49286579D01*
X122763000Y-130682500D02*
X124798000Y-130682500D01*
X69260020Y-48559980D02*
X69831960Y-47988040D01*
X130870000Y-55400000D02*
X128835000Y-55400000D01*
X67449197Y-39530017D02*
X67069180Y-39150000D01*
X69180018Y-39530018D02*
X67449197Y-39530017D01*
X79900000Y-130682500D02*
X81935000Y-130682500D01*
X66677011Y-38897011D02*
X63009011Y-38897011D01*
X62189021Y-49286579D02*
X67860601Y-49286579D01*
X66930000Y-39150000D02*
X66677011Y-38897011D01*
X85575010Y-44294990D02*
X85500000Y-44370000D01*
X92923501Y-45843501D02*
X91450000Y-44370000D01*
X95821281Y-45843501D02*
X92923501Y-45843501D01*
X53700000Y-44970000D02*
X53839992Y-44970000D01*
X53839992Y-44970000D02*
X56373475Y-42436517D01*
X50970000Y-41600000D02*
X51940000Y-42570000D01*
X64035575Y-42436517D02*
X65134417Y-43535359D01*
X56373475Y-42436517D02*
X64035575Y-42436517D01*
X51940000Y-42570000D02*
X51940000Y-46730000D01*
X65134417Y-43535359D02*
X65700102Y-43535359D01*
X50300000Y-41600000D02*
X50970000Y-41600000D01*
X96353501Y-43303501D02*
X96353501Y-45311281D01*
X96353501Y-45311281D02*
X95821281Y-45843501D01*
X95330000Y-42280000D02*
X96353501Y-43303501D01*
X118896000Y-37340000D02*
X118896000Y-38226000D01*
X118896000Y-38226000D02*
X120850000Y-40180000D01*
X120850000Y-47832000D02*
X118896000Y-49786000D01*
X120850000Y-40180000D02*
X120850000Y-47832000D01*
X94306499Y-36708719D02*
X94306499Y-41256499D01*
X94889228Y-36125990D02*
X94306499Y-36708719D01*
X94306499Y-41256499D02*
X95330000Y-42280000D01*
X117681990Y-36125990D02*
X94889228Y-36125990D01*
X118896000Y-37340000D02*
X117681990Y-36125990D01*
X91450000Y-40940000D02*
X95330000Y-44820000D01*
X75940000Y-36040000D02*
X75460000Y-36040000D01*
X80270000Y-40370000D02*
X75940000Y-36040000D01*
X91450000Y-40370000D02*
X91450000Y-40940000D01*
X73206590Y-34516590D02*
X74730000Y-36040000D01*
X85500000Y-40370000D02*
X80270000Y-40370000D01*
X74730000Y-36040000D02*
X75460000Y-36040000D01*
X44962000Y-50195970D02*
X44962000Y-51273600D01*
X47520000Y-44912000D02*
X47520000Y-41600000D01*
X47684999Y-53687001D02*
X48772000Y-52600000D01*
X48772000Y-52600000D02*
X51312000Y-52600000D01*
X50300000Y-46680000D02*
X50300000Y-48466579D01*
X47502000Y-36053600D02*
X49039010Y-34516590D01*
X46232000Y-37360000D02*
X46232000Y-37323600D01*
X49480000Y-49286579D02*
X45871391Y-49286579D01*
X44962000Y-52938762D02*
X45710239Y-53687001D01*
X45871391Y-49286579D02*
X44962000Y-50195970D01*
X50300000Y-46680000D02*
X49288000Y-46680000D01*
X73016590Y-34516590D02*
X73206590Y-34516590D01*
X44962000Y-51273600D02*
X44962000Y-52938762D01*
X46232000Y-37323600D02*
X47502000Y-36053600D01*
X49288000Y-46680000D02*
X47520000Y-44912000D01*
X45710239Y-53687001D02*
X47684999Y-53687001D01*
X50300000Y-48466579D02*
X49480000Y-49286579D01*
X49039010Y-34516590D02*
X73016590Y-34516590D01*
X100590000Y-44380000D02*
X100560000Y-44410000D01*
X107110000Y-44380000D02*
X100590000Y-44380000D01*
X49565590Y-38790000D02*
X52312087Y-41536497D01*
X46232000Y-52600000D02*
X46232000Y-50438000D01*
X44962000Y-38032000D02*
X44962000Y-36053600D01*
X52312087Y-41536497D02*
X55663503Y-41536497D01*
X45720000Y-38790000D02*
X49565590Y-38790000D01*
X55663503Y-41536497D02*
X54753503Y-41536497D01*
X45720000Y-38790000D02*
X44962000Y-38032000D01*
X65745552Y-41536497D02*
X55663503Y-41536497D01*
X52930000Y-48280000D02*
X52930000Y-43360000D01*
X52930000Y-43360000D02*
X54753503Y-41536497D01*
X51473411Y-49736589D02*
X52930000Y-48280000D01*
X46933411Y-49736589D02*
X51473411Y-49736589D01*
X46232000Y-50438000D02*
X46933411Y-49736589D01*
X50270000Y-44170000D02*
X50300000Y-44140000D01*
X48600000Y-44170000D02*
X50270000Y-44170000D01*
X42422000Y-37698762D02*
X44073238Y-39350000D01*
X42422000Y-36053600D02*
X42422000Y-37698762D01*
X44073238Y-39350000D02*
X47930000Y-39350000D01*
X48600000Y-40020000D02*
X48600000Y-44170000D01*
X47930000Y-39350000D02*
X48600000Y-40020000D01*
X80414198Y-51049980D02*
X82050020Y-51049980D01*
X77378610Y-52211390D02*
X79252788Y-52211390D01*
X95708610Y-50241390D02*
X96803511Y-49146489D01*
X56392000Y-50934838D02*
X56392000Y-52600000D01*
X82050020Y-51049980D02*
X82858610Y-50241390D01*
X67233441Y-48386559D02*
X58940279Y-48386559D01*
X67661940Y-41154760D02*
X67661940Y-47958060D01*
X56392000Y-52600000D02*
X56392000Y-53902000D01*
X55921619Y-38498381D02*
X55304999Y-37881761D01*
X55921619Y-38498381D02*
X56320249Y-38897011D01*
X96803511Y-41213511D02*
X95330000Y-39740000D01*
X67661940Y-47958060D02*
X67233441Y-48386559D01*
X55122000Y-37698762D02*
X55921619Y-38498381D01*
X79252788Y-52211390D02*
X80414198Y-51049980D01*
X74880000Y-54710000D02*
X77378610Y-52211390D01*
X82858610Y-50241390D02*
X95708610Y-50241390D01*
X56392000Y-53902000D02*
X57200000Y-54710000D01*
X57200000Y-54710000D02*
X74880000Y-54710000D01*
X62210620Y-39797030D02*
X66304211Y-39797031D01*
X66304211Y-39797031D02*
X67661940Y-41154760D01*
X58940279Y-48386559D02*
X56392000Y-50934838D01*
X56320249Y-38897011D02*
X61310601Y-38897011D01*
X61310601Y-38897011D02*
X62210620Y-39797030D01*
X55122000Y-36053600D02*
X55122000Y-37698762D01*
X117570010Y-48571990D02*
X119473600Y-48571990D01*
X116356000Y-49786000D02*
X117570010Y-48571990D01*
X119473600Y-48571990D02*
X120399990Y-47645600D01*
X120399990Y-47645600D02*
X120399990Y-40366400D01*
X120399990Y-40366400D02*
X119433590Y-39400000D01*
X118416000Y-39400000D02*
X116356000Y-37340000D01*
X119433590Y-39400000D02*
X118416000Y-39400000D01*
X116356000Y-49786000D02*
X114332000Y-51810000D01*
X101360000Y-51810000D02*
X101340000Y-51830000D01*
X114332000Y-51810000D02*
X101360000Y-51810000D01*
X96803511Y-48976489D02*
X96803511Y-41213511D01*
X96803511Y-49146489D02*
X96803511Y-48976489D01*
X53852000Y-52600000D02*
X53852000Y-54462000D01*
X79439188Y-52661400D02*
X80600598Y-51499990D01*
X62024219Y-40247039D02*
X61124201Y-39347021D01*
X54550010Y-55160010D02*
X75066400Y-55160010D01*
X80600598Y-51499990D02*
X82236420Y-51499990D01*
X67211930Y-41341160D02*
X66117810Y-40247040D01*
X67211930Y-47378070D02*
X67211930Y-41341160D01*
X52582000Y-37698762D02*
X52582000Y-36053600D01*
X54230259Y-39347021D02*
X52582000Y-37698762D01*
X53852000Y-50934838D02*
X56850289Y-47936549D01*
X53852000Y-52600000D02*
X53852000Y-50934838D01*
X53852000Y-54462000D02*
X54550010Y-55160010D01*
X97253521Y-39123521D02*
X95330000Y-37200000D01*
X82236420Y-51499990D02*
X83045010Y-50691400D01*
X66653451Y-47936549D02*
X67211930Y-47378070D01*
X66117810Y-40247040D02*
X62024219Y-40247039D01*
X56850289Y-47936549D02*
X66653451Y-47936549D01*
X77565010Y-52661400D02*
X79439188Y-52661400D01*
X61124201Y-39347021D02*
X54230259Y-39347021D01*
X75066400Y-55160010D02*
X77565010Y-52661400D01*
X113734999Y-49704999D02*
X113816000Y-49786000D01*
X113734999Y-37421001D02*
X113734999Y-49704999D01*
X113816000Y-37340000D02*
X113734999Y-37421001D01*
X113816000Y-49786000D02*
X112796000Y-49786000D01*
X112796000Y-49786000D02*
X111050000Y-48040000D01*
X101498600Y-50691400D02*
X103675000Y-48515000D01*
X95908600Y-50691400D02*
X101498600Y-50691400D01*
X104150000Y-48040000D02*
X103675000Y-48515000D01*
X83045010Y-50691400D02*
X95908600Y-50691400D01*
X103675000Y-48515000D02*
X103480000Y-48710000D01*
X95908600Y-50691400D02*
X96138600Y-50691400D01*
X99302041Y-48235001D02*
X97253520Y-46186480D01*
X101196001Y-48235001D02*
X99302041Y-48235001D01*
X101391002Y-48040000D02*
X101196001Y-48235001D01*
X104540000Y-48040000D02*
X101391002Y-48040000D01*
X97253520Y-46186480D02*
X97253521Y-39123521D01*
X111050000Y-48040000D02*
X104540000Y-48040000D01*
X104540000Y-48040000D02*
X104150000Y-48040000D01*
X56490000Y-43990000D02*
X56990000Y-43990000D01*
X78540000Y-44780000D02*
X81530000Y-47770000D01*
X91280000Y-47094980D02*
X90604980Y-47770000D01*
X72770000Y-44780000D02*
X78540000Y-44780000D01*
X64520000Y-44020000D02*
X57020000Y-44020000D01*
X90604980Y-47770000D02*
X81530000Y-47770000D01*
X56990000Y-43990000D02*
X57020000Y-44020000D01*
X60870010Y-44519990D02*
X59590000Y-45800000D01*
X63026402Y-44519990D02*
X60870010Y-44519990D01*
X65835858Y-45054142D02*
X64305858Y-45054142D01*
X63386412Y-44880000D02*
X63026402Y-44519990D01*
X64305858Y-45054142D02*
X64131716Y-44880000D01*
X64131716Y-44880000D02*
X63386412Y-44880000D01*
X41730000Y-110375000D02*
X41450000Y-110095000D01*
X41450000Y-93670000D02*
X41390000Y-93730000D01*
X55300000Y-58190000D02*
X55300000Y-56060000D01*
X65148980Y-41986507D02*
X55816507Y-41986507D01*
X55259519Y-42543495D02*
X55816507Y-41986507D01*
X42000000Y-60670000D02*
X43510000Y-59160000D01*
X41940000Y-101330000D02*
X41940000Y-94280000D01*
X55193495Y-42543495D02*
X54470000Y-43266990D01*
X41450000Y-91045000D02*
X41450000Y-93670000D01*
X41940000Y-94280000D02*
X41390000Y-93730000D01*
X65697833Y-42535360D02*
X65148980Y-41986507D01*
X41730000Y-113190000D02*
X41730000Y-110375000D01*
X42650000Y-82900000D02*
X41900000Y-82150000D01*
X54330000Y-59160000D02*
X55300000Y-58190000D01*
X55193495Y-42543495D02*
X55259519Y-42543495D01*
X42650000Y-84805000D02*
X42650000Y-82900000D01*
X41900000Y-82150000D02*
X41900000Y-75080000D01*
X41900000Y-75080000D02*
X41700000Y-74880000D01*
X42000000Y-63210000D02*
X42650000Y-63860000D01*
X42650000Y-89845000D02*
X41450000Y-91045000D01*
X42650000Y-63860000D02*
X42650000Y-65755000D01*
X43510000Y-59160000D02*
X54330000Y-59160000D01*
X41700000Y-72245000D02*
X41450000Y-71995000D01*
X42650000Y-108895000D02*
X41450000Y-110095000D01*
X41940000Y-101330000D02*
X42650000Y-102040000D01*
X42650000Y-102040000D02*
X42650000Y-103855000D01*
X42000000Y-63210000D02*
X42000000Y-60670000D01*
X42650000Y-65755000D02*
X42650000Y-70795000D01*
X42650000Y-84805000D02*
X42650000Y-89845000D01*
X41700000Y-74880000D02*
X41700000Y-72245000D01*
X42650000Y-70795000D02*
X41450000Y-71995000D01*
X42650000Y-103855000D02*
X42650000Y-108895000D01*
X62840001Y-44969999D02*
X61715001Y-44969999D01*
X65245001Y-46325001D02*
X65245001Y-46151999D01*
X63645001Y-45774999D02*
X62840001Y-44969999D01*
X64868001Y-45774999D02*
X63645001Y-45774999D01*
X65245001Y-46151999D02*
X64868001Y-45774999D01*
X65630000Y-46540000D02*
X65460000Y-46540000D01*
X61715001Y-44969999D02*
X60990000Y-45695000D01*
X65460000Y-46540000D02*
X65245001Y-46325001D01*
X64390000Y-46630000D02*
X64520000Y-46500000D01*
X63315000Y-46630000D02*
X64390000Y-46630000D01*
X62380000Y-45695000D02*
X63315000Y-46630000D01*
X61695001Y-77495001D02*
X61695001Y-77484999D01*
X61695001Y-70285001D02*
X61695001Y-74255001D01*
X60500000Y-69070000D02*
X60490000Y-69080000D01*
X61700000Y-85082500D02*
X60500000Y-86282500D01*
X61695001Y-74255001D02*
X61725001Y-74255001D01*
X62205000Y-76975000D02*
X62205000Y-74735000D01*
X61700000Y-78120000D02*
X61700000Y-80042500D01*
X61695001Y-77495001D02*
X61695001Y-78115001D01*
X61695001Y-78115001D02*
X61700000Y-78120000D01*
X62780000Y-75310000D02*
X62780000Y-75530000D01*
X62205000Y-74735000D02*
X62780000Y-75310000D01*
X61700000Y-80042500D02*
X61700000Y-85082500D01*
X61725001Y-74255001D02*
X62205000Y-74735000D01*
X60500000Y-67232499D02*
X60500000Y-69070000D01*
X61695001Y-77484999D02*
X62205000Y-76975000D01*
X60490000Y-69080000D02*
X61695001Y-70285001D01*
X60510000Y-89360000D02*
X60510000Y-95960000D01*
X61700000Y-60992499D02*
X61700000Y-66032499D01*
X57662000Y-51273600D02*
X60099031Y-48836569D01*
X61497001Y-38447001D02*
X60019001Y-38447001D01*
X60500000Y-105332500D02*
X60500000Y-108170000D01*
X62397021Y-39347021D02*
X61497001Y-38447001D01*
X68910000Y-42780000D02*
X68111950Y-43578050D01*
X60510000Y-89360000D02*
X60510000Y-86292500D01*
X61700000Y-66032499D02*
X60500000Y-67232499D01*
X61700000Y-60992499D02*
X61700000Y-59130000D01*
X60500000Y-108170000D02*
X60510000Y-108180000D01*
X60019001Y-38447001D02*
X58932000Y-37360000D01*
X60099031Y-48836569D02*
X67674201Y-48836569D01*
X60510000Y-86292500D02*
X60500000Y-86282500D01*
X68111950Y-48398820D02*
X68111950Y-43711950D01*
X60950000Y-56010000D02*
X60825010Y-55885010D01*
X60950000Y-58380000D02*
X60950000Y-56010000D01*
X61700000Y-99092500D02*
X61700000Y-104132500D01*
X68111950Y-43578050D02*
X68111950Y-43711950D01*
X60510000Y-95960000D02*
X60980000Y-96430000D01*
X67674201Y-48836569D02*
X68111950Y-48398820D01*
X68111950Y-41738050D02*
X68111950Y-40968360D01*
X68910000Y-42780000D02*
X68111950Y-41981950D01*
X60825010Y-55885010D02*
X57710000Y-55885010D01*
X61700000Y-99092500D02*
X61700000Y-97150000D01*
X68111950Y-41981950D02*
X68111950Y-41738050D01*
X61700000Y-104132500D02*
X60500000Y-105332500D01*
X61700000Y-97150000D02*
X60980000Y-96430000D01*
X66490611Y-39347021D02*
X62397021Y-39347021D01*
X68111950Y-40968360D02*
X66490611Y-39347021D01*
X61700000Y-59130000D02*
X60950000Y-58380000D01*
X42554999Y-51140601D02*
X42422000Y-51273600D01*
X65283002Y-56103002D02*
X65280000Y-56100000D01*
X79810000Y-84510000D02*
X79550000Y-84250000D01*
X79970000Y-72670000D02*
X79910000Y-72670000D01*
X80750000Y-61270000D02*
X79550000Y-62470000D01*
X79700000Y-106410000D02*
X79700000Y-103740000D01*
X80750000Y-94330000D02*
X80750000Y-99370000D01*
X80610000Y-92590000D02*
X80610000Y-94190000D01*
X71225000Y-123182500D02*
X70025000Y-124382500D01*
X68138001Y-56685001D02*
X67441999Y-56685001D01*
X70731980Y-39171980D02*
X70731980Y-49171610D01*
X79810000Y-91790000D02*
X79810000Y-84510000D01*
X66369001Y-50186599D02*
X65282000Y-51273600D01*
X70220000Y-127080000D02*
X70220000Y-124577500D01*
X67821999Y-38629999D02*
X70189999Y-38629999D01*
X79700000Y-100720000D02*
X79550000Y-100570000D01*
X75089220Y-56410010D02*
X68412992Y-56410010D01*
X80750000Y-54420000D02*
X80750000Y-56230000D01*
X71225000Y-116435000D02*
X70450000Y-115660000D01*
X66860000Y-56103002D02*
X65283002Y-56103002D01*
X80750000Y-99370000D02*
X79550000Y-100570000D01*
X80070000Y-53740000D02*
X77759230Y-53740000D01*
X68412992Y-56410010D02*
X68138001Y-56685001D01*
X79910000Y-65540000D02*
X79610000Y-65240000D01*
X66552000Y-37360000D02*
X67821999Y-38629999D01*
X79550000Y-81520000D02*
X79550000Y-84250000D01*
X79700000Y-103740000D02*
X79700000Y-100720000D01*
X77759230Y-53740000D02*
X75089220Y-56410010D01*
X70443590Y-49460000D02*
X68960000Y-49460000D01*
X80750000Y-56230000D02*
X80750000Y-61270000D01*
X80610000Y-94190000D02*
X80750000Y-94330000D01*
X79910000Y-72670000D02*
X79910000Y-65540000D01*
X80750000Y-75280000D02*
X80750000Y-73450000D01*
X80070000Y-53740000D02*
X80750000Y-54420000D01*
X70450000Y-115660000D02*
X79700000Y-106410000D01*
X71225000Y-118142500D02*
X71225000Y-116435000D01*
X79810000Y-91790000D02*
X80610000Y-92590000D01*
X70731980Y-49171610D02*
X70443590Y-49460000D01*
X70189999Y-38629999D02*
X70731980Y-39171980D01*
X68960000Y-49460000D02*
X68233401Y-50186599D01*
X67441999Y-56685001D02*
X66860000Y-56103002D01*
X70220000Y-124577500D02*
X70025000Y-124382500D01*
X80750000Y-73450000D02*
X79970000Y-72670000D01*
X68233401Y-50186599D02*
X66369001Y-50186599D01*
X71225000Y-118142500D02*
X71225000Y-123182500D01*
X79610000Y-65240000D02*
X79610000Y-62530000D01*
X80750000Y-80320000D02*
X79550000Y-81520000D01*
X80750000Y-75280000D02*
X80750000Y-80320000D01*
X79610000Y-62530000D02*
X79550000Y-62470000D01*
X79625588Y-53111410D02*
X80786998Y-51950000D01*
X80786998Y-51950000D02*
X82422820Y-51950000D01*
X118262499Y-58452499D02*
X118740000Y-58930000D01*
X117650000Y-86282500D02*
X117650000Y-89090000D01*
X70600000Y-49940000D02*
X71181990Y-49358010D01*
X117750000Y-67332499D02*
X117650000Y-67232499D01*
X69155600Y-49940000D02*
X70600000Y-49940000D01*
X118850000Y-80042500D02*
X118850000Y-84480000D01*
X77751410Y-53111410D02*
X79625588Y-53111410D01*
X71181990Y-38791990D02*
X70569990Y-38179990D01*
X71181990Y-49358010D02*
X71181990Y-38791990D01*
X83231410Y-51141410D02*
X95351410Y-51141410D01*
X82422820Y-51950000D02*
X83231410Y-51141410D01*
X74902820Y-55960000D02*
X77751410Y-53111410D01*
X69911990Y-38179990D02*
X69092000Y-37360000D01*
X117650000Y-89090000D02*
X117620000Y-89120000D01*
X70569990Y-38179990D02*
X69911990Y-38179990D01*
X117750000Y-70210000D02*
X117750000Y-67332499D01*
X67822000Y-51273600D02*
X69155600Y-49940000D01*
X117960000Y-96450000D02*
X117960000Y-89460000D01*
X117670000Y-105352500D02*
X117650000Y-105332500D01*
X118740000Y-60882499D02*
X118850000Y-60992499D01*
X95351410Y-51141410D02*
X97665001Y-53455001D01*
X117245001Y-53455001D02*
X118262499Y-54472499D01*
X117670000Y-108450000D02*
X117670000Y-105352500D01*
X113070000Y-115480000D02*
X113070000Y-113050000D01*
X117960000Y-96450000D02*
X118850000Y-97340000D01*
X118262499Y-54472499D02*
X118262499Y-58452499D01*
X113070000Y-113050000D02*
X117670000Y-108450000D01*
X118100000Y-70560000D02*
X117750000Y-70210000D01*
X118830000Y-85102500D02*
X117650000Y-86282500D01*
X112830000Y-127280000D02*
X112830000Y-124440500D01*
X114088000Y-116498000D02*
X113070000Y-115480000D01*
X118850000Y-97340000D02*
X118850000Y-99092500D01*
X114088000Y-118142500D02*
X114088000Y-123182500D01*
X118740000Y-58930000D02*
X118740000Y-60882499D01*
X118850000Y-60992499D02*
X118850000Y-66032499D01*
X97665001Y-53455001D02*
X117245001Y-53455001D01*
X118850000Y-99092500D02*
X118850000Y-104132500D01*
X114088000Y-118142500D02*
X114088000Y-116498000D01*
X118830000Y-84500000D02*
X118830000Y-85102500D01*
X112830000Y-124440500D02*
X112888000Y-124382500D01*
X118850000Y-104132500D02*
X117650000Y-105332500D01*
X118850000Y-66032499D02*
X117650000Y-67232499D01*
X67790000Y-55960000D02*
X74902820Y-55960000D01*
X118850000Y-84480000D02*
X118830000Y-84500000D01*
X117960000Y-89460000D02*
X117620000Y-89120000D01*
X114088000Y-123182500D02*
X112888000Y-124382500D01*
X118100000Y-72750000D02*
X118100000Y-70560000D01*
X118850000Y-77940000D02*
X118960000Y-77940000D01*
X118850000Y-80042500D02*
X118850000Y-77940000D01*
X118100000Y-73060000D02*
X118100000Y-72750000D01*
X120140000Y-75100000D02*
X118100000Y-73060000D01*
X118960000Y-77940000D02*
X119585000Y-77315000D01*
X119585000Y-75655000D02*
X120140000Y-75100000D01*
X119585000Y-77315000D02*
X119585000Y-75655000D01*
X89075000Y-127335000D02*
X89050000Y-127360000D01*
X89470000Y-115510000D02*
X91650000Y-115510000D01*
X98600000Y-69320000D02*
X98590000Y-69330000D01*
X99800000Y-85082500D02*
X98600000Y-86282500D01*
X90275000Y-123182500D02*
X89075000Y-124382500D01*
X89075000Y-124382500D02*
X89075000Y-127335000D01*
X99800000Y-80042500D02*
X99800000Y-85082500D01*
X98600000Y-67232499D02*
X98600000Y-69320000D01*
X91650000Y-115510000D02*
X98640000Y-108520000D01*
X90275000Y-118142500D02*
X90275000Y-123182500D01*
X98600000Y-105332500D02*
X98600000Y-108480000D01*
X99720000Y-79962500D02*
X99800000Y-80042500D01*
X99800000Y-60992499D02*
X99800000Y-59320000D01*
X71632000Y-50003600D02*
X70362000Y-51273600D01*
X99720000Y-78270000D02*
X99720000Y-79962500D01*
X99800000Y-59320000D02*
X98900000Y-58420000D01*
X99800000Y-99092500D02*
X99800000Y-104132500D01*
X99800000Y-104132500D02*
X98600000Y-105332500D01*
X98952500Y-77502500D02*
X99720000Y-78270000D01*
X98600000Y-108480000D02*
X98640000Y-108520000D01*
X81330000Y-49330000D02*
X81890000Y-49330000D01*
X71632000Y-37360000D02*
X71632000Y-45412000D01*
X98952500Y-69692500D02*
X98590000Y-69330000D01*
X86730000Y-49330000D02*
X86741370Y-49341370D01*
X89470000Y-115510000D02*
X90275000Y-116315000D01*
X98952500Y-77502500D02*
X98952500Y-69692500D01*
X71632000Y-47682000D02*
X71632000Y-50003600D01*
X71632000Y-45412000D02*
X71632000Y-47682000D01*
X80040000Y-48040000D02*
X81330000Y-49330000D01*
X99100000Y-96470000D02*
X99100000Y-89590000D01*
X71725001Y-45505001D02*
X71632000Y-45412000D01*
X99800000Y-99092500D02*
X99800000Y-97170000D01*
X99800000Y-66032499D02*
X98600000Y-67232499D01*
X90275000Y-116315000D02*
X90275000Y-118142500D01*
X99800000Y-60992499D02*
X99800000Y-66032499D01*
X99800000Y-97170000D02*
X99100000Y-96470000D01*
X99100000Y-89590000D02*
X98710000Y-89200000D01*
X98710000Y-89200000D02*
X98710000Y-86392500D01*
X93378630Y-49341370D02*
X93905000Y-48815000D01*
X79682000Y-47682000D02*
X80040000Y-48040000D01*
X98710000Y-86392500D02*
X98600000Y-86282500D01*
X80040000Y-48040000D02*
X80040000Y-47960000D01*
X80040000Y-47960000D02*
X77585001Y-45505001D01*
X77585001Y-45505001D02*
X71725001Y-45505001D01*
X81890000Y-49330000D02*
X86730000Y-49330000D01*
X86741370Y-49341370D02*
X93378630Y-49341370D01*
X87250000Y-45870000D02*
X89700000Y-45870000D01*
M02*
