999
"DXF R12 Output" (www.mydxf.blogspot.com)
 0 
SECTION
 2 
HEADER
 9 
$ACADVER
 1 
AC1009
 9 
$EXTMIN
 10 
 0 
 20 
 0 
 9 
$EXTMAX
 10 
 8.5 
 20 
 11 
 0 
ENDSEC
 0 
SECTION
 2 
ENTITIES
0
LINE
8
Layer 1
10
25.522500
20
-92.904100
11
25.264443
21
-93.526188
0
LINE
8
Layer 1
10
25.264443
20
-93.526188
11
24.642532
21
-93.783786
0
LINE
8
Layer 1
10
24.642532
20
-93.783786
11
24.019880
21
-93.526188
0
LINE
8
Layer 1
10
24.019880
20
-93.526188
11
23.761717
21
-92.904100
0
LINE
8
Layer 1
10
23.761717
20
-92.904100
11
24.019880
21
-92.281765
0
LINE
8
Layer 1
10
24.019880
20
-92.281765
11
24.642532
21
-92.024132
0
LINE
8
Layer 1
10
24.642532
20
-92.024132
11
25.264443
21
-92.281766
0
LINE
8
Layer 1
10
25.264443
20
-92.281766
11
25.522500
21
-92.904100
0
LINE
8
Layer 1
10
25.522500
20
-92.904100
11
25.522500
21
-92.904100
0
LINE
8
Layer 1
10
80.410100
20
-92.904100
11
80.152502
21
-93.526188
0
LINE
8
Layer 1
10
80.152502
20
-93.526188
11
79.530414
21
-93.783786
0
LINE
8
Layer 1
10
79.530414
20
-93.783786
11
78.907656
21
-93.526188
0
LINE
8
Layer 1
10
78.907656
20
-93.526188
11
78.649599
21
-92.904100
0
LINE
8
Layer 1
10
78.649599
20
-92.904100
11
78.907656
21
-92.281765
0
LINE
8
Layer 1
10
78.907656
20
-92.281765
11
79.530414
21
-92.024132
0
LINE
8
Layer 1
10
79.530414
20
-92.024132
11
80.152502
21
-92.281766
0
LINE
8
Layer 1
10
80.152502
20
-92.281766
11
80.410100
21
-92.904100
0
LINE
8
Layer 1
10
80.410100
20
-92.904100
11
80.410100
21
-92.904100
0
LINE
8
Layer 1
10
74.714900
20
-82.297300
11
63.515500
21
-82.297300
0
LINE
8
Layer 1
10
63.283800
20
-36.577400
11
52.083200
21
-36.577400
0
LINE
8
Layer 1
10
49.634700
20
-34.967900
11
82.322700
21
-34.967900
0
LINE
8
Layer 1
10
17.563800
20
-70.865400
11
6.363260
21
-70.865400
0
LINE
8
Layer 1
10
67.323200
20
-67.049700
11
67.323200
21
-78.249400
0
LINE
8
Layer 1
10
78.523800
20
-67.049700
11
67.323200
21
-67.049700
0
LINE
8
Layer 1
10
21.603200
20
-67.041000
11
21.603200
21
-78.241500
0
LINE
8
Layer 1
10
67.323200
20
-78.249400
11
78.523800
21
-78.249400
0
LINE
8
Layer 1
10
55.659500
20
-93.498200
11
55.659500
21
-82.297300
0
LINE
8
Layer 1
10
63.283800
20
-78.249400
11
63.283800
21
-67.049700
0
LINE
8
Layer 1
10
63.283800
20
-67.049700
11
52.083200
21
-67.049700
0
LINE
8
Layer 1
10
48.043800
20
-63.242000
11
36.843200
21
-63.242000
0
LINE
8
Layer 1
10
36.843200
20
-63.242000
11
36.843200
21
-74.441700
0
LINE
8
Layer 1
10
52.083200
20
-67.049700
11
52.083200
21
-78.249400
0
LINE
8
Layer 1
10
32.803800
20
-78.241500
11
32.803800
21
-67.041000
0
LINE
8
Layer 1
10
52.083200
20
-78.249400
11
63.283800
21
-78.249400
0
LINE
8
Layer 1
10
78.523800
20
-78.249400
11
78.523800
21
-67.049700
0
LINE
8
Layer 1
10
36.843200
20
-48.009600
11
36.843200
21
-59.210500
0
LINE
8
Layer 1
10
52.083200
20
-51.817400
11
52.083200
21
-63.018200
0
LINE
8
Layer 1
10
32.803800
20
-63.009400
11
32.803800
21
-51.809800
0
LINE
8
Layer 1
10
52.083200
20
-63.018200
11
63.283800
21
-63.018200
0
LINE
8
Layer 1
10
78.523800
20
-63.018200
11
78.523800
21
-51.817400
0
LINE
8
Layer 1
10
17.563800
20
-55.634100
11
6.363260
21
-55.634100
0
LINE
8
Layer 1
10
67.323200
20
-51.817400
11
67.323200
21
-63.018200
0
LINE
8
Layer 1
10
78.523800
20
-51.817400
11
67.323200
21
-51.817400
0
LINE
8
Layer 1
10
21.603200
20
-51.809800
11
21.603200
21
-63.009400
0
LINE
8
Layer 1
10
67.323200
20
-63.018200
11
78.523800
21
-63.018200
0
LINE
8
Layer 1
10
82.322700
20
-34.967900
11
82.322700
21
-97.057800
0
LINE
8
Layer 1
10
3.162860
20
-85.362300
11
3.162860
21
-34.962500
0
LINE
8
Layer 1
10
26.018300
20
-97.057800
11
3.162860
21
-85.362300
0
LINE
8
Layer 1
10
82.322700
20
-97.057800
11
26.018300
21
-97.057800
0
LINE
8
Layer 1
10
21.603200
20
-36.569800
11
21.603200
21
-47.769500
0
LINE
8
Layer 1
10
29.218700
20
-82.297300
11
29.218700
21
-93.498200
0
LINE
8
Layer 1
10
29.218700
20
-93.498200
11
40.419600
21
-93.498200
0
LINE
8
Layer 1
10
40.419600
20
-82.297300
11
29.218700
21
-82.297300
0
LINE
8
Layer 1
10
40.419600
20
-93.498200
11
40.419600
21
-82.297300
0
LINE
8
Layer 1
10
35.252400
20
-31.168000
11
49.634700
21
-31.168000
0
LINE
8
Layer 1
10
44.458700
20
-82.297300
11
44.458700
21
-93.498200
0
LINE
8
Layer 1
10
44.458700
20
-93.498200
11
55.659500
21
-93.498200
0
LINE
8
Layer 1
10
55.659500
20
-82.297300
11
44.458700
21
-82.297300
0
LINE
8
Layer 1
10
36.843200
20
-74.441700
11
48.043800
21
-74.441700
0
LINE
8
Layer 1
10
17.563800
20
-40.394200
11
6.363260
21
-40.394200
0
LINE
8
Layer 1
10
48.043800
20
-59.210500
11
48.043800
21
-48.009600
0
LINE
8
Layer 1
10
36.843200
20
-59.210500
11
48.043800
21
-59.210500
0
LINE
8
Layer 1
10
21.603200
20
-63.009400
11
32.803800
21
-63.009400
0
LINE
8
Layer 1
10
32.803800
20
-51.809800
11
21.603200
21
-51.809800
0
LINE
8
Layer 1
10
17.563800
20
-66.833600
11
17.563800
21
-55.634100
0
LINE
8
Layer 1
10
6.363260
20
-55.634100
11
6.363260
21
-66.833600
0
LINE
8
Layer 1
10
6.363260
20
-66.833600
11
17.563800
21
-66.833600
0
LINE
8
Layer 1
10
63.283800
20
-63.018200
11
63.283800
21
-51.817400
0
LINE
8
Layer 1
10
63.283800
20
-51.817400
11
52.083200
21
-51.817400
0
LINE
8
Layer 1
10
48.043800
20
-74.441700
11
48.043800
21
-63.242000
0
LINE
8
Layer 1
10
67.323200
20
-36.577400
11
67.323200
21
-47.778200
0
LINE
8
Layer 1
10
78.523800
20
-36.577400
11
67.323200
21
-36.577400
0
LINE
8
Layer 1
10
78.523800
20
-47.778200
11
78.523800
21
-36.577400
0
LINE
8
Layer 1
10
67.323200
20
-47.778200
11
78.523800
21
-47.778200
0
LINE
8
Layer 1
10
48.043800
20
-48.009600
11
36.843200
21
-48.009600
0
LINE
8
Layer 1
10
63.283800
20
-47.778200
11
63.283800
21
-36.577400
0
LINE
8
Layer 1
10
48.043800
20
-43.970500
11
48.043800
21
-32.769600
0
LINE
8
Layer 1
10
36.843200
20
-43.970500
11
48.043800
21
-43.970500
0
LINE
8
Layer 1
10
48.043800
20
-32.769600
11
36.843200
21
-32.769600
0
LINE
8
Layer 1
10
36.843200
20
-32.769600
11
36.843200
21
-43.970500
0
LINE
8
Layer 1
10
52.083200
20
-36.577400
11
52.083200
21
-47.778200
0
LINE
8
Layer 1
10
32.803800
20
-47.769500
11
32.803800
21
-36.569800
0
LINE
8
Layer 1
10
52.083200
20
-47.778200
11
63.283800
21
-47.778200
0
LINE
8
Layer 1
10
21.603200
20
-47.769500
11
32.803800
21
-47.769500
0
LINE
8
Layer 1
10
32.803800
20
-36.569800
11
21.603200
21
-36.569800
0
LINE
8
Layer 1
10
63.515500
20
-82.297300
11
63.515500
21
-93.498200
0
LINE
8
Layer 1
10
74.714900
20
-93.498200
11
74.714900
21
-82.297300
0
LINE
8
Layer 1
10
66.194300
20
-52.376500
11
65.936137
21
-52.998694
0
LINE
8
Layer 1
10
65.936137
20
-52.998694
11
65.313485
21
-53.256186
0
LINE
8
Layer 1
10
65.313485
20
-53.256186
11
64.691714
21
-52.998694
0
LINE
8
Layer 1
10
64.691714
20
-52.998694
11
64.433799
21
-52.376500
0
LINE
8
Layer 1
10
64.433799
20
-52.376500
11
64.691714
21
-51.754306
0
LINE
8
Layer 1
10
64.691714
20
-51.754306
11
65.313485
21
-51.496814
0
LINE
8
Layer 1
10
65.313485
20
-51.496814
11
65.936137
21
-51.754306
0
LINE
8
Layer 1
10
65.936137
20
-51.754306
11
66.194300
21
-52.376500
0
LINE
8
Layer 1
10
66.194300
20
-52.376500
11
66.194300
21
-52.376500
0
LINE
8
Layer 1
10
35.252400
20
-34.962500
11
3.162860
21
-34.962500
0
LINE
8
Layer 1
10
63.515500
20
-93.498200
11
74.714900
21
-93.498200
0
LINE
8
Layer 1
10
20.401500
20
-52.192400
11
20.144008
21
-52.814488
0
LINE
8
Layer 1
10
20.144008
20
-52.814488
11
19.521814
21
-53.072086
0
LINE
8
Layer 1
10
19.521814
20
-53.072086
11
18.899620
21
-52.814488
0
LINE
8
Layer 1
10
18.899620
20
-52.814488
11
18.642128
21
-52.192400
0
LINE
8
Layer 1
10
18.642128
20
-52.192400
11
18.899620
21
-51.570065
0
LINE
8
Layer 1
10
18.899620
20
-51.570065
11
19.521814
21
-51.312432
0
LINE
8
Layer 1
10
19.521814
20
-51.312432
11
20.144008
21
-51.570065
0
LINE
8
Layer 1
10
20.144008
20
-51.570065
11
20.401500
21
-52.192400
0
LINE
8
Layer 1
10
20.401500
20
-52.192400
11
20.401500
21
-52.192400
0
LINE
8
Layer 1
10
17.563800
20
-51.593600
11
17.563800
21
-40.394200
0
LINE
8
Layer 1
10
49.634700
20
-31.168000
11
49.634700
21
-34.967900
0
LINE
8
Layer 1
10
6.363260
20
-40.394200
11
6.363260
21
-51.593600
0
LINE
8
Layer 1
10
35.252400
20
-34.962500
11
35.252400
21
-31.168000
0
LINE
8
Layer 1
10
21.603200
20
-78.241500
11
32.803800
21
-78.241500
0
LINE
8
Layer 1
10
32.803800
20
-67.041000
11
21.603200
21
-67.041000
0
LINE
8
Layer 1
10
17.563800
20
-82.065900
11
17.563800
21
-70.865400
0
LINE
8
Layer 1
10
6.363260
20
-70.865400
11
6.363260
21
-82.065900
0
LINE
8
Layer 1
10
6.363260
20
-82.065900
11
17.563800
21
-82.065900
0
LINE
8
Layer 1
10
6.363260
20
-51.593600
11
17.563800
21
-51.593600
 0 
ENDSEC
 0 
EOF