G04 #@! TF.GenerationSoftware,KiCad,Pcbnew,(5.1.6-0-10_14)*
G04 #@! TF.CreationDate,2022-08-19T19:12:35+09:00*
G04 #@! TF.ProjectId,cool536xiao,636f6f6c-3533-4367-9869-616f2e6b6963,rev?*
G04 #@! TF.SameCoordinates,Original*
G04 #@! TF.FileFunction,Copper,L2,Bot*
G04 #@! TF.FilePolarity,Positive*
%FSLAX46Y46*%
G04 Gerber Fmt 4.6, Leading zero omitted, Abs format (unit mm)*
G04 Created by KiCad (PCBNEW (5.1.6-0-10_14)) date 2022-08-19 19:12:35*
%MOMM*%
%LPD*%
G01*
G04 APERTURE LIST*
G04 #@! TA.AperFunction,SMDPad,CuDef*
%ADD10O,2.000000X4.000000*%
G04 #@! TD*
G04 #@! TA.AperFunction,SMDPad,CuDef*
%ADD11R,2.000000X2.000000*%
G04 #@! TD*
G04 #@! TA.AperFunction,SMDPad,CuDef*
%ADD12R,1.900000X2.000000*%
G04 #@! TD*
G04 #@! TA.AperFunction,ComponentPad*
%ADD13C,1.397000*%
G04 #@! TD*
G04 #@! TA.AperFunction,ComponentPad*
%ADD14R,1.397000X1.397000*%
G04 #@! TD*
G04 #@! TA.AperFunction,SMDPad,CuDef*
%ADD15R,1.300000X0.950000*%
G04 #@! TD*
G04 #@! TA.AperFunction,ComponentPad*
%ADD16R,1.500000X1.500000*%
G04 #@! TD*
G04 #@! TA.AperFunction,ComponentPad*
%ADD17C,2.000000*%
G04 #@! TD*
G04 #@! TA.AperFunction,ComponentPad*
%ADD18C,2.800000*%
G04 #@! TD*
G04 #@! TA.AperFunction,ComponentPad*
%ADD19O,1.700000X2.500000*%
G04 #@! TD*
G04 #@! TA.AperFunction,SMDPad,CuDef*
%ADD20R,1.524000X1.524000*%
G04 #@! TD*
G04 #@! TA.AperFunction,ViaPad*
%ADD21C,0.800000*%
G04 #@! TD*
G04 #@! TA.AperFunction,Conductor*
%ADD22C,0.250000*%
G04 #@! TD*
G04 APERTURE END LIST*
D10*
X43470000Y-36540000D03*
X43470000Y-52780000D03*
X46010000Y-36540000D03*
X46010000Y-52780000D03*
X48550000Y-36540000D03*
X51090000Y-36540000D03*
X53630000Y-36540000D03*
X56170000Y-36540000D03*
X58710000Y-36540000D03*
X58710000Y-52780000D03*
X56170000Y-52780000D03*
X53630000Y-52780000D03*
X51090000Y-52780000D03*
X48550000Y-52780000D03*
D11*
X79550000Y-62470000D03*
D12*
X90450000Y-64670000D03*
D11*
X80750000Y-56230000D03*
X93250000Y-53690000D03*
D13*
X111830000Y-55420000D03*
D14*
X104210000Y-55420000D03*
D15*
X106245000Y-55420000D03*
X109795000Y-55420000D03*
D13*
X130870000Y-55400000D03*
D14*
X123250000Y-55400000D03*
D15*
X125285000Y-55400000D03*
X128835000Y-55400000D03*
D16*
X118090000Y-41910000D03*
D17*
X118090000Y-44410000D03*
X118090000Y-46910000D03*
D18*
X125590000Y-38810000D03*
X125590000Y-50010000D03*
D17*
X132590000Y-41910000D03*
X132590000Y-46910000D03*
D16*
X100560000Y-41910000D03*
D17*
X100560000Y-44410000D03*
X100560000Y-46910000D03*
D18*
X108060000Y-38810000D03*
X108060000Y-50010000D03*
D17*
X115060000Y-41910000D03*
X115060000Y-46910000D03*
D19*
X87250000Y-45870000D03*
X91450000Y-44370000D03*
X91450000Y-40370000D03*
X91450000Y-37370000D03*
X85500000Y-40370000D03*
X85500000Y-37370000D03*
X89700000Y-45870000D03*
X85500000Y-44370000D03*
D11*
X93250000Y-91790000D03*
X80750000Y-94330000D03*
D12*
X90450000Y-102770000D03*
D11*
X79550000Y-100570000D03*
X41450000Y-91045000D03*
D12*
X52350000Y-93245000D03*
D11*
X42650000Y-84805000D03*
X55150000Y-82265000D03*
X74200000Y-77502500D03*
X61700000Y-80042500D03*
D12*
X71400000Y-88482500D03*
D11*
X60500000Y-86282500D03*
D15*
X70375000Y-73532499D03*
D13*
X72410000Y-73532499D03*
D14*
X64790000Y-73532499D03*
D15*
X66825000Y-73532499D03*
D11*
X112300000Y-77502500D03*
X99800000Y-80042500D03*
D12*
X109500000Y-88482500D03*
D11*
X98600000Y-86282500D03*
X89075000Y-124382500D03*
D12*
X99975000Y-126582500D03*
D11*
X90275000Y-118142500D03*
X102775000Y-115602500D03*
X70025000Y-124382500D03*
D12*
X80925000Y-126582500D03*
D11*
X71225000Y-118142500D03*
X83725000Y-115602500D03*
X131350000Y-96552500D03*
X118850000Y-99092500D03*
D12*
X128550000Y-107532500D03*
D11*
X117650000Y-105332500D03*
X131350000Y-58452499D03*
X118850000Y-60992499D03*
D12*
X128550000Y-69432499D03*
D11*
X117650000Y-67232499D03*
X60500000Y-105332500D03*
D12*
X71400000Y-107532500D03*
D11*
X61700000Y-99092500D03*
X74200000Y-96552500D03*
X112300000Y-96552500D03*
X99800000Y-99092500D03*
D12*
X109500000Y-107532500D03*
D11*
X98600000Y-105332500D03*
X131350000Y-77502500D03*
X118850000Y-80042500D03*
D12*
X128550000Y-88482500D03*
D11*
X117650000Y-86282500D03*
X55150000Y-101315000D03*
X42650000Y-103855000D03*
D12*
X52350000Y-112295000D03*
D11*
X41450000Y-110095000D03*
X93250000Y-72740000D03*
X80750000Y-75280000D03*
D12*
X90450000Y-83720000D03*
D11*
X79550000Y-81520000D03*
D15*
X108475000Y-92582500D03*
D13*
X110510000Y-92582500D03*
D14*
X102890000Y-92582500D03*
D15*
X104925000Y-92582500D03*
X127525000Y-92582500D03*
D13*
X129560000Y-92582500D03*
D14*
X121940000Y-92582500D03*
D15*
X123975000Y-92582500D03*
X98950000Y-130682500D03*
D13*
X100985000Y-130682500D03*
D14*
X93365000Y-130682500D03*
D15*
X95400000Y-130682500D03*
X122763000Y-130682500D03*
D13*
X124798000Y-130682500D03*
D14*
X117178000Y-130682500D03*
D15*
X119213000Y-130682500D03*
X89425000Y-68770000D03*
D13*
X91460000Y-68770000D03*
D14*
X83840000Y-68770000D03*
D15*
X85875000Y-68770000D03*
X108475000Y-73532499D03*
D13*
X110510000Y-73532499D03*
D14*
X102890000Y-73532499D03*
D15*
X104925000Y-73532499D03*
X127525000Y-73532499D03*
D13*
X129560000Y-73532499D03*
D14*
X121940000Y-73532499D03*
D15*
X123975000Y-73532499D03*
X89425000Y-87820000D03*
D13*
X91460000Y-87820000D03*
D14*
X83840000Y-87820000D03*
D15*
X85875000Y-87820000D03*
X70375000Y-92582500D03*
D13*
X72410000Y-92582500D03*
D14*
X64790000Y-92582500D03*
D15*
X66825000Y-92582500D03*
X70375000Y-111632500D03*
D13*
X72410000Y-111632500D03*
D14*
X64790000Y-111632500D03*
D15*
X66825000Y-111632500D03*
X89425000Y-106870000D03*
D13*
X91460000Y-106870000D03*
D14*
X83840000Y-106870000D03*
D15*
X85875000Y-106870000D03*
X108475000Y-111632500D03*
D13*
X110510000Y-111632500D03*
D14*
X102890000Y-111632500D03*
D15*
X104925000Y-111632500D03*
X127525000Y-111632500D03*
D13*
X129560000Y-111632500D03*
D14*
X121940000Y-111632500D03*
D15*
X123975000Y-111632500D03*
X79900000Y-130682500D03*
D13*
X81935000Y-130682500D03*
D14*
X74315000Y-130682500D03*
D15*
X76350000Y-130682500D03*
D11*
X126588000Y-115602500D03*
X114088000Y-118142500D03*
D12*
X123788000Y-126582500D03*
D11*
X112888000Y-124382500D03*
X60500000Y-67232499D03*
D12*
X71400000Y-69432499D03*
D11*
X61700000Y-60992499D03*
X74200000Y-58452499D03*
X98600000Y-67232499D03*
D12*
X109500000Y-69432499D03*
D11*
X99800000Y-60992499D03*
X112300000Y-58452499D03*
X41450000Y-71995000D03*
D12*
X52350000Y-74195000D03*
D11*
X42650000Y-65755000D03*
X55150000Y-63215000D03*
D15*
X51415000Y-78070000D03*
X47865000Y-78070000D03*
D14*
X45830000Y-78070000D03*
D13*
X53450000Y-78070000D03*
X53590000Y-97140000D03*
D14*
X45970000Y-97140000D03*
D15*
X48005000Y-97140000D03*
X51555000Y-97140000D03*
X51655000Y-116550000D03*
X48105000Y-116550000D03*
D14*
X46070000Y-116550000D03*
D13*
X53690000Y-116550000D03*
D20*
X63910000Y-40920000D03*
X63910000Y-43460000D03*
X63910000Y-46000000D03*
D21*
X47640000Y-76170000D03*
X56411917Y-67554941D03*
X66496249Y-71826249D03*
X75532525Y-62940572D03*
X85250000Y-67360000D03*
X94475001Y-59714999D03*
X104432499Y-71990000D03*
X113525001Y-64704999D03*
X123740000Y-72010000D03*
X132575001Y-64465001D03*
X47540000Y-95570000D03*
X56385741Y-86558677D03*
X66532500Y-90840000D03*
X75578350Y-82116680D03*
X85270000Y-86390000D03*
X94475001Y-78904999D03*
X104671250Y-90801250D03*
X113525001Y-83945001D03*
X124365000Y-90445000D03*
X132575001Y-83445001D03*
X48200000Y-114420000D03*
X56381326Y-105601228D03*
X67002500Y-109420000D03*
X75425001Y-102595001D03*
X85450000Y-105260000D03*
X94475001Y-97804999D03*
X104462500Y-110060000D03*
X113525001Y-102725001D03*
X123490000Y-110040000D03*
X132575001Y-102614999D03*
X76037500Y-128960000D03*
X84950001Y-121830001D03*
X94907500Y-129140000D03*
X104000001Y-121609999D03*
X127813001Y-121663001D03*
X118970250Y-128890250D03*
X43500000Y-46000000D03*
X53200000Y-45990000D03*
X66130000Y-46000000D03*
X46070000Y-40920000D03*
X59540000Y-46370000D03*
X63990000Y-38750000D03*
X63960000Y-36360000D03*
X57488002Y-43488000D03*
X62390000Y-42140000D03*
X44230000Y-47640000D03*
X45190000Y-49360000D03*
X42140000Y-101440000D03*
X41990000Y-82260000D03*
X40890000Y-61060000D03*
X47410000Y-39930000D03*
X47410000Y-44660000D03*
X47350000Y-49210000D03*
X70190000Y-39430000D03*
X70190000Y-47870000D03*
X70190000Y-52710000D03*
X61020000Y-96550000D03*
X42250000Y-63190000D03*
X70720000Y-115580000D03*
X61110000Y-58460000D03*
X62910000Y-75530000D03*
X60570000Y-69680000D03*
X61020000Y-39744990D03*
X61050000Y-46340000D03*
X89740000Y-115560000D03*
X99070000Y-96580000D03*
X99250000Y-77520000D03*
X98940000Y-58490000D03*
X98590000Y-107880000D03*
X98650000Y-88730000D03*
X98660000Y-69490000D03*
X98840000Y-55410000D03*
X95300000Y-45560000D03*
X59840000Y-54960000D03*
X80020000Y-91960000D03*
X79890000Y-72730000D03*
X80020000Y-53710000D03*
X95830000Y-59760000D03*
X79580000Y-103880000D03*
X79650000Y-84200000D03*
X79610000Y-65120000D03*
X113390000Y-115650000D03*
X118170000Y-96580000D03*
X116640000Y-79910000D03*
X118262499Y-58452499D03*
X117740000Y-88760000D03*
X117710000Y-69170000D03*
X117710000Y-107540000D03*
X96190000Y-46490000D03*
X118300000Y-54350000D03*
X82808590Y-44581410D03*
D22*
X56375001Y-72871001D02*
X55051002Y-74195000D01*
X56375001Y-64440001D02*
X56375001Y-72871001D01*
X55051002Y-74195000D02*
X52350000Y-74195000D01*
X55150000Y-63215000D02*
X56375001Y-64440001D01*
X47865000Y-78070000D02*
X45830000Y-78070000D01*
X45830000Y-78070000D02*
X45830000Y-77980000D01*
X45830000Y-77980000D02*
X47640000Y-76170000D01*
X50375000Y-76170000D02*
X52350000Y-74195000D01*
X47640000Y-76170000D02*
X50375000Y-76170000D01*
X75425001Y-68108500D02*
X74101002Y-69432499D01*
X75425001Y-59677500D02*
X75425001Y-68108500D01*
X74101002Y-69432499D02*
X71400000Y-69432499D01*
X74200000Y-58452499D02*
X75425001Y-59677500D01*
X66825000Y-73532499D02*
X64790000Y-73532499D01*
X71400000Y-69432499D02*
X69092499Y-71740000D01*
X69092499Y-71740000D02*
X66582499Y-71740000D01*
X66496249Y-71826249D02*
X64790000Y-73532499D01*
X66582499Y-71740000D02*
X66496249Y-71826249D01*
X94475001Y-63346001D02*
X93151002Y-64670000D01*
X93151002Y-64670000D02*
X90450000Y-64670000D01*
X85250000Y-67360000D02*
X83840000Y-68770000D01*
X90450000Y-64670000D02*
X87760000Y-67360000D01*
X83840000Y-68770000D02*
X85875000Y-68770000D01*
X93250000Y-53690000D02*
X94475001Y-54915001D01*
X87760000Y-67360000D02*
X85250000Y-67360000D01*
X94475001Y-59714999D02*
X94475001Y-63346001D01*
X94475001Y-54915001D02*
X94475001Y-59714999D01*
X104432499Y-71990000D02*
X102890000Y-73532499D01*
X102890000Y-73532499D02*
X104925000Y-73532499D01*
X106942499Y-71990000D02*
X104432499Y-71990000D01*
X109500000Y-69432499D02*
X106942499Y-71990000D01*
X113525001Y-68108500D02*
X112201002Y-69432499D01*
X112201002Y-69432499D02*
X109500000Y-69432499D01*
X112300000Y-58452499D02*
X113525001Y-59677500D01*
X113525001Y-64704999D02*
X113525001Y-68108500D01*
X113525001Y-59677500D02*
X113525001Y-64704999D01*
X128550000Y-69432499D02*
X125972499Y-72010000D01*
X131251002Y-69432499D02*
X128550000Y-69432499D01*
X132575001Y-68108500D02*
X131251002Y-69432499D01*
X131350000Y-58452499D02*
X132575001Y-59677500D01*
X123975000Y-73532499D02*
X121940000Y-73532499D01*
X125972499Y-72010000D02*
X123740000Y-72010000D01*
X122217501Y-73532499D02*
X121940000Y-73532499D01*
X123740000Y-72010000D02*
X122217501Y-73532499D01*
X132575001Y-64465001D02*
X132575001Y-68108500D01*
X132575001Y-59677500D02*
X132575001Y-64465001D01*
X55051002Y-93245000D02*
X52350000Y-93245000D01*
X56375001Y-91921001D02*
X55051002Y-93245000D01*
X55150000Y-82265000D02*
X56375001Y-83490001D01*
X45970000Y-97140000D02*
X48005000Y-97140000D01*
X52350000Y-93245000D02*
X50145000Y-95450000D01*
X50145000Y-95450000D02*
X47660000Y-95450000D01*
X47540000Y-95570000D02*
X45970000Y-97140000D01*
X47660000Y-95450000D02*
X47540000Y-95570000D01*
X56385741Y-86558677D02*
X56385741Y-86555739D01*
X56385741Y-86555739D02*
X56375001Y-86544999D01*
X56375001Y-86544999D02*
X56375001Y-91921001D01*
X56375001Y-83490001D02*
X56375001Y-86544999D01*
X74101002Y-88482500D02*
X71400000Y-88482500D01*
X75425001Y-87158501D02*
X74101002Y-88482500D01*
X74200000Y-77502500D02*
X75425001Y-78727501D01*
X66825000Y-92582500D02*
X64790000Y-92582500D01*
X71400000Y-88482500D02*
X69042500Y-90840000D01*
X66532500Y-90840000D02*
X64790000Y-92582500D01*
X69042500Y-90840000D02*
X66532500Y-90840000D01*
X75578350Y-82231650D02*
X75425001Y-82384999D01*
X75578350Y-82116680D02*
X75578350Y-82231650D01*
X75425001Y-82384999D02*
X75425001Y-87158501D01*
X75425001Y-78727501D02*
X75425001Y-82384999D01*
X85270000Y-86390000D02*
X83840000Y-87820000D01*
X87780000Y-86390000D02*
X85270000Y-86390000D01*
X93250000Y-72740000D02*
X94425001Y-73915001D01*
X94425001Y-73915001D02*
X94425001Y-78704999D01*
X94425001Y-78704999D02*
X94475001Y-78754999D01*
X94475001Y-82396001D02*
X93151002Y-83720000D01*
X93151002Y-83720000D02*
X90450000Y-83720000D01*
X90450000Y-83720000D02*
X87780000Y-86390000D01*
X83840000Y-87820000D02*
X85875000Y-87820000D01*
X94475001Y-78904999D02*
X94475001Y-82396001D01*
X94475001Y-78754999D02*
X94475001Y-78904999D01*
X113525001Y-87158501D02*
X112201002Y-88482500D01*
X112201002Y-88482500D02*
X109500000Y-88482500D01*
X112300000Y-77502500D02*
X113525001Y-78727501D01*
X104925000Y-92582500D02*
X102890000Y-92582500D01*
X109500000Y-88482500D02*
X107332500Y-90650000D01*
X107332500Y-90650000D02*
X104822500Y-90650000D01*
X104671250Y-90801250D02*
X102890000Y-92582500D01*
X104822500Y-90650000D02*
X104671250Y-90801250D01*
X113525001Y-83945001D02*
X113525001Y-87158501D01*
X113525001Y-78727501D02*
X113525001Y-83945001D01*
X131251002Y-88482500D02*
X128550000Y-88482500D01*
X132575001Y-87158501D02*
X131251002Y-88482500D01*
X131350000Y-77502500D02*
X132575001Y-78727501D01*
X126724999Y-90307501D02*
X124502499Y-90307501D01*
X128550000Y-88482500D02*
X126724999Y-90307501D01*
X122227500Y-92582500D02*
X121940000Y-92582500D01*
X121940000Y-92582500D02*
X123975000Y-92582500D01*
X124365000Y-90445000D02*
X122227500Y-92582500D01*
X124502499Y-90307501D02*
X124365000Y-90445000D01*
X132575001Y-83445001D02*
X132575001Y-87158501D01*
X132575001Y-78727501D02*
X132575001Y-83445001D01*
X56375001Y-110971001D02*
X55051002Y-112295000D01*
X55051002Y-112295000D02*
X52350000Y-112295000D01*
X55150000Y-101315000D02*
X56375001Y-102540001D01*
X52350000Y-112295000D02*
X50225000Y-114420000D01*
X48200000Y-114420000D02*
X46070000Y-116550000D01*
X50225000Y-114420000D02*
X48200000Y-114420000D01*
X46070000Y-116550000D02*
X48105000Y-116550000D01*
X56381326Y-105601228D02*
X56381326Y-105668676D01*
X56381326Y-105668676D02*
X56375001Y-105675001D01*
X56375001Y-105675001D02*
X56375001Y-110971001D01*
X56375001Y-102540001D02*
X56375001Y-105675001D01*
X74101002Y-107532500D02*
X71400000Y-107532500D01*
X75425001Y-106208501D02*
X74101002Y-107532500D01*
X74200000Y-96552500D02*
X75425001Y-97777501D01*
X66825000Y-111632500D02*
X64790000Y-111632500D01*
X71400000Y-107532500D02*
X69512500Y-109420000D01*
X67002500Y-109420000D02*
X64790000Y-111632500D01*
X69512500Y-109420000D02*
X67002500Y-109420000D01*
X75425001Y-102595001D02*
X75425001Y-106208501D01*
X75425001Y-97777501D02*
X75425001Y-102595001D01*
X83840000Y-106870000D02*
X85875000Y-106870000D01*
X87960000Y-105260000D02*
X85450000Y-105260000D01*
X94475001Y-101446001D02*
X93151002Y-102770000D01*
X93151002Y-102770000D02*
X90450000Y-102770000D01*
X85450000Y-105260000D02*
X83840000Y-106870000D01*
X90450000Y-102770000D02*
X87960000Y-105260000D01*
X93250000Y-91790000D02*
X94475001Y-93015001D01*
X94475001Y-97804999D02*
X94475001Y-101446001D01*
X94475001Y-93015001D02*
X94475001Y-97804999D01*
X102890000Y-111632500D02*
X104925000Y-111632500D01*
X109500000Y-107532500D02*
X106972500Y-110060000D01*
X112201002Y-107532500D02*
X109500000Y-107532500D01*
X112300000Y-96552500D02*
X113525001Y-97777501D01*
X113525001Y-106208501D02*
X112201002Y-107532500D01*
X104462500Y-110060000D02*
X102890000Y-111632500D01*
X106972500Y-110060000D02*
X104462500Y-110060000D01*
X113525001Y-102725001D02*
X113525001Y-106208501D01*
X113525001Y-97777501D02*
X113525001Y-102725001D01*
X128550000Y-107532500D02*
X126042500Y-110040000D01*
X131251002Y-107532500D02*
X128550000Y-107532500D01*
X132575001Y-106208501D02*
X131251002Y-107532500D01*
X132575001Y-102614999D02*
X132575001Y-106208501D01*
X132525001Y-102564999D02*
X132575001Y-102614999D01*
X132525001Y-97727501D02*
X132525001Y-102564999D01*
X131350000Y-96552500D02*
X132525001Y-97727501D01*
X121940000Y-111632500D02*
X123975000Y-111632500D01*
X121940000Y-111632500D02*
X121940000Y-111590000D01*
X123490000Y-110040000D02*
X126042500Y-110040000D01*
X121940000Y-111590000D02*
X123490000Y-110040000D01*
X76037500Y-128960000D02*
X74315000Y-130682500D01*
X74315000Y-130682500D02*
X76350000Y-130682500D01*
X78547500Y-128960000D02*
X76037500Y-128960000D01*
X80925000Y-126582500D02*
X78547500Y-128960000D01*
X83626002Y-126582500D02*
X80925000Y-126582500D01*
X84950001Y-125258501D02*
X83626002Y-126582500D01*
X83725000Y-115602500D02*
X84950001Y-116827501D01*
X84950001Y-121830001D02*
X84950001Y-125258501D01*
X84950001Y-116827501D02*
X84950001Y-121830001D01*
X93365000Y-130682500D02*
X95400000Y-130682500D01*
X94907500Y-129140000D02*
X93365000Y-130682500D01*
X99975000Y-126582500D02*
X97417500Y-129140000D01*
X102676002Y-126582500D02*
X99975000Y-126582500D01*
X104000001Y-125258501D02*
X102676002Y-126582500D01*
X102775000Y-115602500D02*
X104000001Y-116827501D01*
X97417500Y-129140000D02*
X94907500Y-129140000D01*
X104000001Y-121609999D02*
X104000001Y-125258501D01*
X104000001Y-116827501D02*
X104000001Y-121609999D01*
X121510500Y-128860000D02*
X119000500Y-128860000D01*
X117178000Y-130682500D02*
X119213000Y-130682500D01*
X123788000Y-126582500D02*
X121510500Y-128860000D01*
X127813001Y-125258501D02*
X126489002Y-126582500D01*
X126489002Y-126582500D02*
X123788000Y-126582500D01*
X126588000Y-115602500D02*
X127813001Y-116827501D01*
X127813001Y-121663001D02*
X127813001Y-125258501D01*
X127813001Y-116827501D02*
X127813001Y-121663001D01*
X118970250Y-128890250D02*
X117178000Y-130682500D01*
X119000500Y-128860000D02*
X118970250Y-128890250D01*
X106245000Y-55420000D02*
X104210000Y-55420000D01*
X104210000Y-55420000D02*
X104210000Y-55060000D01*
X125285000Y-55400000D02*
X123250000Y-55400000D01*
X126280000Y-52410000D02*
X123290000Y-55400000D01*
X123290000Y-55400000D02*
X123250000Y-55400000D01*
X128660000Y-52410000D02*
X126280000Y-52410000D01*
X132590000Y-48480000D02*
X128660000Y-52410000D01*
X132590000Y-46910000D02*
X132590000Y-48480000D01*
X87250000Y-45870000D02*
X89700000Y-45870000D01*
X83870000Y-46000000D02*
X85500000Y-44370000D01*
X43470000Y-52280000D02*
X43470000Y-47240000D01*
X43500000Y-47210000D02*
X43500000Y-46000000D01*
X43470000Y-47240000D02*
X43500000Y-47210000D01*
X66130000Y-46000000D02*
X83870000Y-46000000D01*
X63910000Y-46000000D02*
X66130000Y-46000000D01*
X63010010Y-45100010D02*
X63910000Y-46000000D01*
X54089990Y-45100010D02*
X63010010Y-45100010D01*
X53200000Y-45990000D02*
X54089990Y-45100010D01*
X85575010Y-44294990D02*
X91374990Y-44294990D01*
X91374990Y-44294990D02*
X91450000Y-44370000D01*
X85500000Y-44370000D02*
X85575010Y-44294990D01*
X118090000Y-44410000D02*
X100560000Y-44410000D01*
X84950000Y-40920000D02*
X85500000Y-40370000D01*
X63910000Y-40920000D02*
X84950000Y-40920000D01*
X91450000Y-40370000D02*
X93110000Y-40370000D01*
X97150000Y-44410000D02*
X100560000Y-44410000D01*
X93110000Y-40370000D02*
X97150000Y-44410000D01*
X63910000Y-40920000D02*
X47280000Y-40920000D01*
X47280000Y-40920000D02*
X46070000Y-40920000D01*
X46070000Y-52220000D02*
X46010000Y-52280000D01*
X46070000Y-40920000D02*
X46070000Y-52220000D01*
X85500000Y-40370000D02*
X91450000Y-40370000D01*
X58710000Y-47200000D02*
X59540000Y-46370000D01*
X58710000Y-52280000D02*
X58710000Y-47200000D01*
X63990000Y-36390000D02*
X63960000Y-36360000D01*
X63990000Y-38750000D02*
X63990000Y-36390000D01*
X85500000Y-37370000D02*
X91450000Y-37370000D01*
X51090000Y-52280000D02*
X51090000Y-44200000D01*
X51802000Y-43488000D02*
X57488002Y-43488000D01*
X51090000Y-44200000D02*
X51802000Y-43488000D01*
X57488002Y-43488000D02*
X58199992Y-44199990D01*
X63170010Y-44199990D02*
X63910000Y-43460000D01*
X62380010Y-44199990D02*
X62380010Y-42149990D01*
X62380010Y-42149990D02*
X62390000Y-42140000D01*
X58199992Y-44199990D02*
X62380010Y-44199990D01*
X62380010Y-44199990D02*
X63170010Y-44199990D01*
X43470000Y-37040000D02*
X44225001Y-37795001D01*
X44230000Y-37800000D02*
X44230000Y-47640000D01*
X43470000Y-37040000D02*
X44230000Y-37800000D01*
X46010000Y-37040000D02*
X45344999Y-37705001D01*
X45190000Y-49360000D02*
X45190000Y-47199998D01*
X45190000Y-47199998D02*
X45344999Y-47044999D01*
X45344999Y-47044999D02*
X45344999Y-47055001D01*
X45344999Y-37705001D02*
X45344999Y-47044999D01*
X42650000Y-89845000D02*
X41450000Y-91045000D01*
X42650000Y-84805000D02*
X42650000Y-89845000D01*
X42650000Y-108895000D02*
X41450000Y-110095000D01*
X42650000Y-103855000D02*
X42650000Y-108895000D01*
X51415000Y-78070000D02*
X53450000Y-78070000D01*
X70375000Y-73532499D02*
X72410000Y-73532499D01*
X89425000Y-68770000D02*
X91460000Y-68770000D01*
X127525000Y-73532499D02*
X129560000Y-73532499D01*
X108475000Y-73532499D02*
X110510000Y-73532499D01*
X42650000Y-101950000D02*
X42140000Y-101440000D01*
X42650000Y-103855000D02*
X42650000Y-101950000D01*
X42650000Y-82920000D02*
X42650000Y-84805000D01*
X41990000Y-82260000D02*
X42650000Y-82920000D01*
X53450000Y-78070000D02*
X53450000Y-76432412D01*
X53450000Y-76432412D02*
X56692412Y-73190000D01*
X63831499Y-74556000D02*
X71386499Y-74556000D01*
X71386499Y-74556000D02*
X72410000Y-73532499D01*
X62465499Y-73190000D02*
X63831499Y-74556000D01*
X56692412Y-73190000D02*
X62465499Y-73190000D01*
X89315001Y-70914999D02*
X91460000Y-68770000D01*
X75027500Y-70914999D02*
X89315001Y-70914999D01*
X72410000Y-73532499D02*
X75027500Y-70914999D01*
X109486499Y-74556000D02*
X110510000Y-73532499D01*
X101931499Y-74556000D02*
X109486499Y-74556000D01*
X96145499Y-68770000D02*
X101931499Y-74556000D01*
X91460000Y-68770000D02*
X96145499Y-68770000D01*
X128536499Y-74556000D02*
X129560000Y-73532499D01*
X119056000Y-74556000D02*
X128536499Y-74556000D01*
X118032499Y-73532499D02*
X119056000Y-74556000D01*
X110510000Y-73532499D02*
X118032499Y-73532499D01*
X42140000Y-91735000D02*
X41450000Y-91045000D01*
X42140000Y-101440000D02*
X42140000Y-91735000D01*
X42921163Y-35340850D02*
X40890000Y-37372013D01*
X40890000Y-37372013D02*
X40890000Y-61060000D01*
X51930850Y-35340850D02*
X42921163Y-35340850D01*
X53630000Y-37040000D02*
X51930850Y-35340850D01*
X48550000Y-38790000D02*
X47410000Y-39930000D01*
X48550000Y-37040000D02*
X48550000Y-38790000D01*
X47350000Y-44720000D02*
X47410000Y-44660000D01*
X47350000Y-49210000D02*
X47350000Y-44720000D01*
X70190000Y-52780000D02*
X70190000Y-52710000D01*
X70190000Y-47870000D02*
X70190000Y-52710000D01*
X69920000Y-39700000D02*
X70190000Y-39430000D01*
X62510000Y-39700000D02*
X69920000Y-39700000D01*
X54590000Y-39900000D02*
X55159990Y-40469990D01*
X61740010Y-40469990D02*
X62510000Y-39700000D01*
X53950000Y-39900000D02*
X54590000Y-39900000D01*
X55159990Y-40469990D02*
X61740010Y-40469990D01*
X51090000Y-37040000D02*
X53950000Y-39900000D01*
X42650000Y-70795000D02*
X41450000Y-71995000D01*
X42650000Y-65755000D02*
X42650000Y-70795000D01*
X61700000Y-104132500D02*
X60500000Y-105332500D01*
X61700000Y-99092500D02*
X61700000Y-104132500D01*
X51555000Y-97140000D02*
X53590000Y-97140000D01*
X70375000Y-92582500D02*
X72410000Y-92582500D01*
X89425000Y-87820000D02*
X91460000Y-87820000D01*
X127525000Y-92582500D02*
X129560000Y-92582500D01*
X108475000Y-92582500D02*
X110510000Y-92582500D01*
X61700000Y-97230000D02*
X61700000Y-99092500D01*
X61020000Y-96550000D02*
X61700000Y-97230000D01*
X42650000Y-63590000D02*
X42650000Y-65755000D01*
X42250000Y-63190000D02*
X42650000Y-63590000D01*
X111533501Y-93606001D02*
X110510000Y-92582500D01*
X128536499Y-93606001D02*
X111533501Y-93606001D01*
X129560000Y-92582500D02*
X128536499Y-93606001D01*
X91865002Y-87820000D02*
X91460000Y-87820000D01*
X97651003Y-93606001D02*
X91865002Y-87820000D01*
X109486499Y-93606001D02*
X97651003Y-93606001D01*
X110510000Y-92582500D02*
X109486499Y-93606001D01*
X90436499Y-88843501D02*
X76148999Y-88843501D01*
X76148999Y-88843501D02*
X72410000Y-92582500D01*
X91460000Y-87820000D02*
X90436499Y-88843501D01*
X62842501Y-94727499D02*
X61020000Y-96550000D01*
X70265001Y-94727499D02*
X62842501Y-94727499D01*
X72410000Y-92582500D02*
X70265001Y-94727499D01*
X54180000Y-96550000D02*
X53590000Y-97140000D01*
X61020000Y-96550000D02*
X54180000Y-96550000D01*
X41450000Y-75672002D02*
X41450000Y-71995000D01*
X56825011Y-81355009D02*
X54563503Y-79093501D01*
X54563503Y-79093501D02*
X44871499Y-79093501D01*
X56825011Y-85192513D02*
X56825011Y-81355009D01*
X44871499Y-79093501D02*
X41450000Y-75672002D01*
X61020000Y-89387502D02*
X56825011Y-85192513D01*
X61020000Y-96550000D02*
X61020000Y-89387502D01*
X41684315Y-63190000D02*
X42250000Y-63190000D01*
X56170000Y-37040000D02*
X54020840Y-34890840D01*
X40164999Y-61670684D02*
X41684315Y-63190000D01*
X42734762Y-34890841D02*
X40164999Y-37460604D01*
X54020840Y-34890840D02*
X42734762Y-34890841D01*
X40164999Y-37460604D02*
X40164999Y-61670684D01*
X108475000Y-111632500D02*
X110510000Y-111632500D01*
X89425000Y-106870000D02*
X91460000Y-106870000D01*
X127525000Y-111632500D02*
X129560000Y-111632500D01*
X61700000Y-85082500D02*
X60500000Y-86282500D01*
X61700000Y-80042500D02*
X61700000Y-85082500D01*
X61700000Y-66032499D02*
X60500000Y-67232499D01*
X61700000Y-60992499D02*
X61700000Y-66032499D01*
X71225000Y-123182500D02*
X70025000Y-124382500D01*
X71225000Y-118142500D02*
X71225000Y-123182500D01*
X51655000Y-116550000D02*
X53690000Y-116550000D01*
X70375000Y-111632500D02*
X72410000Y-111632500D01*
X71225000Y-116085000D02*
X71225000Y-118142500D01*
X70720000Y-115580000D02*
X71225000Y-116085000D01*
X61700000Y-80042500D02*
X61700000Y-78100000D01*
X61700000Y-59050000D02*
X61110000Y-58460000D01*
X61700000Y-60992499D02*
X61700000Y-59050000D01*
X111533501Y-112656001D02*
X110510000Y-111632500D01*
X128536499Y-112656001D02*
X111533501Y-112656001D01*
X129560000Y-111632500D02*
X128536499Y-112656001D01*
X97246001Y-112656001D02*
X91460000Y-106870000D01*
X109486499Y-112656001D02*
X97246001Y-112656001D01*
X110510000Y-111632500D02*
X109486499Y-112656001D01*
X86697500Y-111632500D02*
X72410000Y-111632500D01*
X91460000Y-106870000D02*
X86697500Y-111632500D01*
X72410000Y-113890000D02*
X70720000Y-115580000D01*
X72410000Y-111632500D02*
X72410000Y-113890000D01*
X54660000Y-115580000D02*
X53690000Y-116550000D01*
X70720000Y-115580000D02*
X54660000Y-115580000D01*
X61700000Y-78100000D02*
X61700000Y-76740000D01*
X61700000Y-76740000D02*
X62910000Y-75530000D01*
X60570000Y-67302499D02*
X60500000Y-67232499D01*
X60570000Y-69680000D02*
X60570000Y-67302499D01*
X58710000Y-37040000D02*
X58710000Y-38400000D01*
X60054990Y-39744990D02*
X61020000Y-39744990D01*
X58710000Y-38400000D02*
X60054990Y-39744990D01*
X61050000Y-58400000D02*
X61110000Y-58460000D01*
X61050000Y-46340000D02*
X61050000Y-58400000D01*
X99800000Y-85082500D02*
X98600000Y-86282500D01*
X99800000Y-80042500D02*
X99800000Y-85082500D01*
X99800000Y-104132500D02*
X98600000Y-105332500D01*
X99800000Y-99092500D02*
X99800000Y-104132500D01*
X99800000Y-66032499D02*
X98600000Y-67232499D01*
X99800000Y-60992499D02*
X99800000Y-66032499D01*
X90275000Y-123182500D02*
X89075000Y-124382500D01*
X90275000Y-118142500D02*
X90275000Y-123182500D01*
X90275000Y-116095000D02*
X89740000Y-115560000D01*
X90275000Y-118142500D02*
X90275000Y-116095000D01*
X99800000Y-97310000D02*
X99800000Y-99092500D01*
X99070000Y-96580000D02*
X99800000Y-97310000D01*
X99800000Y-78070000D02*
X99250000Y-77520000D01*
X99800000Y-80042500D02*
X99800000Y-78070000D01*
X99800000Y-59350000D02*
X98940000Y-58490000D01*
X99800000Y-60992499D02*
X99800000Y-59350000D01*
X98590000Y-105342500D02*
X98600000Y-105332500D01*
X98590000Y-107880000D02*
X98590000Y-105342500D01*
X98650000Y-86332500D02*
X98600000Y-86282500D01*
X98650000Y-88730000D02*
X98650000Y-86332500D01*
X98660000Y-67292499D02*
X98600000Y-67232499D01*
X98660000Y-69490000D02*
X98660000Y-67292499D01*
X95350000Y-47060000D02*
X98840000Y-50550000D01*
X98840000Y-50550000D02*
X98840000Y-55410000D01*
X95350000Y-45610000D02*
X95300000Y-45560000D01*
X95350000Y-47060000D02*
X95350000Y-45610000D01*
X58850000Y-54960000D02*
X59840000Y-54960000D01*
X56170000Y-52280000D02*
X58850000Y-54960000D01*
X98950000Y-130682500D02*
X100985000Y-130682500D01*
X79900000Y-130682500D02*
X81935000Y-130682500D01*
X111830000Y-55420000D02*
X109795000Y-55420000D01*
X80750000Y-61270000D02*
X79550000Y-62470000D01*
X80750000Y-56230000D02*
X80750000Y-61270000D01*
X80750000Y-80320000D02*
X79550000Y-81520000D01*
X80750000Y-75280000D02*
X80750000Y-80320000D01*
X80750000Y-99370000D02*
X79550000Y-100570000D01*
X80750000Y-94330000D02*
X80750000Y-99370000D01*
X122763000Y-130682500D02*
X124798000Y-130682500D01*
X128835000Y-55400000D02*
X130870000Y-55400000D01*
X80750000Y-92690000D02*
X80020000Y-91960000D01*
X80750000Y-94330000D02*
X80750000Y-92690000D01*
X80750000Y-73590000D02*
X80750000Y-75280000D01*
X79890000Y-72730000D02*
X80750000Y-73590000D01*
X80750000Y-54440000D02*
X80750000Y-56230000D01*
X80020000Y-53710000D02*
X80750000Y-54440000D01*
X99961499Y-131706001D02*
X100985000Y-130682500D01*
X82958501Y-131706001D02*
X99961499Y-131706001D01*
X81935000Y-130682500D02*
X82958501Y-131706001D01*
X123774499Y-131706001D02*
X124798000Y-130682500D01*
X102008501Y-131706001D02*
X123774499Y-131706001D01*
X100985000Y-130682500D02*
X102008501Y-131706001D01*
X129846499Y-56423501D02*
X112833501Y-56423501D01*
X112833501Y-56423501D02*
X111830000Y-55420000D01*
X130870000Y-55400000D02*
X129846499Y-56423501D01*
X111830000Y-55420000D02*
X110670000Y-56580000D01*
X110670000Y-56580000D02*
X97590000Y-56580000D01*
X95830000Y-58340000D02*
X95830000Y-59760000D01*
X97590000Y-56580000D02*
X95830000Y-58340000D01*
X79580000Y-100600000D02*
X79550000Y-100570000D01*
X79580000Y-103880000D02*
X79580000Y-100600000D01*
X79650000Y-81620000D02*
X79550000Y-81520000D01*
X79650000Y-84200000D02*
X79650000Y-81620000D01*
X79610000Y-62530000D02*
X79550000Y-62470000D01*
X79610000Y-65120000D02*
X79610000Y-62530000D01*
X114088000Y-123182500D02*
X112888000Y-124382500D01*
X114088000Y-118142500D02*
X114088000Y-123182500D01*
X118850000Y-104132500D02*
X117650000Y-105332500D01*
X118850000Y-99092500D02*
X118850000Y-104132500D01*
X118850000Y-85082500D02*
X117650000Y-86282500D01*
X118850000Y-80042500D02*
X118850000Y-85082500D01*
X118850000Y-66032499D02*
X117650000Y-67232499D01*
X118850000Y-60992499D02*
X118850000Y-66032499D01*
X114088000Y-116348000D02*
X114088000Y-118142500D01*
X113390000Y-115650000D02*
X114088000Y-116348000D01*
X118850000Y-97260000D02*
X118170000Y-96580000D01*
X118850000Y-99092500D02*
X118850000Y-97260000D01*
X118717500Y-79910000D02*
X118850000Y-80042500D01*
X116640000Y-79910000D02*
X118717500Y-79910000D01*
X118850000Y-59040000D02*
X118262499Y-58452499D01*
X118850000Y-60992499D02*
X118850000Y-59040000D01*
X117740000Y-86372500D02*
X117650000Y-86282500D01*
X117740000Y-88760000D02*
X117740000Y-86372500D01*
X117710000Y-67292499D02*
X117650000Y-67232499D01*
X117710000Y-69170000D02*
X117710000Y-67292499D01*
X117710000Y-105392500D02*
X117650000Y-105332500D01*
X117710000Y-107540000D02*
X117710000Y-105392500D01*
X96190000Y-46490000D02*
X103070000Y-53370000D01*
X103070000Y-53370000D02*
X104220000Y-53370000D01*
X117320000Y-53370000D02*
X118300000Y-54350000D01*
X104220000Y-53370000D02*
X117320000Y-53370000D01*
X82740000Y-44650000D02*
X82808590Y-44581410D01*
X53466998Y-44650000D02*
X82740000Y-44650000D01*
X52474999Y-45641999D02*
X53466998Y-44650000D01*
X53630000Y-52280000D02*
X52474999Y-51124999D01*
X52474999Y-51124999D02*
X52474999Y-45641999D01*
M02*
