M48
; DRILL file {KiCad (5.1.6-0-10_14)} date Friday, August 19, 2022 at 07:12:38 PM
; FORMAT={-:-/ absolute / metric / decimal}
; #@! TF.CreationDate,2022-08-19T19:12:38+09:00
; #@! TF.GenerationSoftware,Kicad,Pcbnew,(5.1.6-0-10_14)
; #@! TF.FileFunction,Plated,1,2,PTH
FMAT,2
METRIC
T1C0.400
T2C0.813
T3C1.000
T4C2.200
%
G90
G05
T1
X40.89Y-61.06
X41.99Y-82.26
X42.14Y-101.44
X42.25Y-63.19
X43.5Y-46.0
X44.23Y-47.64
X45.19Y-49.36
X46.07Y-40.92
X47.35Y-49.21
X47.41Y-39.93
X47.41Y-44.66
X47.54Y-95.57
X47.64Y-76.17
X48.2Y-114.42
X53.2Y-45.99
X56.381Y-105.601
X56.386Y-86.559
X56.412Y-67.555
X57.488Y-43.488
X59.54Y-46.37
X59.84Y-54.96
X60.57Y-69.68
X61.02Y-39.745
X61.02Y-96.55
X61.05Y-46.34
X61.11Y-58.46
X62.39Y-42.14
X62.91Y-75.53
X63.96Y-36.36
X63.99Y-38.75
X66.13Y-46.0
X66.496Y-71.826
X66.532Y-90.84
X67.002Y-109.42
X70.19Y-39.43
X70.19Y-47.87
X70.19Y-52.71
X70.72Y-115.58
X75.425Y-102.595
X75.533Y-62.941
X75.578Y-82.117
X76.037Y-128.96
X79.58Y-103.88
X79.61Y-65.12
X79.65Y-84.2
X79.89Y-72.73
X80.02Y-53.71
X80.02Y-91.96
X82.809Y-44.581
X84.95Y-121.83
X85.25Y-67.36
X85.27Y-86.39
X85.45Y-105.26
X89.74Y-115.56
X94.475Y-59.715
X94.475Y-78.905
X94.475Y-97.805
X94.907Y-129.14
X95.3Y-45.56
X95.83Y-59.76
X96.19Y-46.49
X98.59Y-107.88
X98.65Y-88.73
X98.66Y-69.49
X98.84Y-55.41
X98.94Y-58.49
X99.07Y-96.58
X99.25Y-77.52
X104.0Y-121.61
X104.432Y-71.99
X104.462Y-110.06
X104.671Y-90.801
X113.39Y-115.65
X113.525Y-64.705
X113.525Y-83.945
X113.525Y-102.725
X116.64Y-79.91
X117.71Y-69.17
X117.71Y-107.54
X117.74Y-88.76
X118.17Y-96.58
X118.262Y-58.452
X118.3Y-54.35
X118.97Y-128.89
X123.49Y-110.04
X123.74Y-72.01
X124.365Y-90.445
X127.813Y-121.663
X132.575Y-64.465
X132.575Y-83.445
X132.575Y-102.615
T2
X83.84Y-87.82
X91.46Y-87.82
X45.83Y-78.07
X53.45Y-78.07
X123.25Y-55.4
X130.87Y-55.4
X121.94Y-73.532
X129.56Y-73.532
X121.94Y-92.582
X129.56Y-92.582
X74.315Y-130.683
X81.935Y-130.683
X64.79Y-111.632
X72.41Y-111.632
X83.84Y-106.87
X91.46Y-106.87
X121.94Y-111.632
X129.56Y-111.632
X102.89Y-92.582
X110.51Y-92.582
X46.07Y-116.55
X53.69Y-116.55
X117.178Y-130.683
X124.798Y-130.683
X102.89Y-73.532
X110.51Y-73.532
X102.89Y-111.632
X110.51Y-111.632
X83.84Y-68.77
X91.46Y-68.77
X104.21Y-55.42
X111.83Y-55.42
X93.365Y-130.683
X100.985Y-130.683
X64.79Y-92.582
X72.41Y-92.582
X64.79Y-73.532
X72.41Y-73.532
X45.97Y-97.14
X53.59Y-97.14
T3
X118.09Y-41.91
X118.09Y-44.41
X118.09Y-46.91
X132.59Y-41.91
X132.59Y-46.91
X100.56Y-41.91
X100.56Y-44.41
X100.56Y-46.91
X115.06Y-41.91
X115.06Y-46.91
T4
X108.06Y-38.81
X108.06Y-50.01
X125.59Y-38.81
X125.59Y-50.01
T3
G00X85.5Y-37.12
M15
G01X85.5Y-37.62
M16
G05
G00X85.5Y-40.12
M15
G01X85.5Y-40.62
M16
G05
G00X85.5Y-44.12
M15
G01X85.5Y-44.62
M16
G05
G00X87.25Y-45.62
M15
G01X87.25Y-46.12
M16
G05
G00X89.7Y-45.62
M15
G01X89.7Y-46.12
M16
G05
G00X91.45Y-37.12
M15
G01X91.45Y-37.62
M16
G05
G00X91.45Y-40.12
M15
G01X91.45Y-40.62
M16
G05
G00X91.45Y-44.12
M15
G01X91.45Y-44.62
M16
G05
T0
M30
