G04 #@! TF.GenerationSoftware,KiCad,Pcbnew,(5.1.6-0-10_14)*
G04 #@! TF.CreationDate,2022-08-19T19:12:35+09:00*
G04 #@! TF.ProjectId,cool536xiao,636f6f6c-3533-4367-9869-616f2e6b6963,rev?*
G04 #@! TF.SameCoordinates,Original*
G04 #@! TF.FileFunction,Legend,Bot*
G04 #@! TF.FilePolarity,Positive*
%FSLAX46Y46*%
G04 Gerber Fmt 4.6, Leading zero omitted, Abs format (unit mm)*
G04 Created by KiCad (PCBNEW (5.1.6-0-10_14)) date 2022-08-19 19:12:35*
%MOMM*%
%LPD*%
G01*
G04 APERTURE LIST*
%ADD10C,0.500000*%
%ADD11C,0.150000*%
%ADD12C,0.120000*%
G04 APERTURE END LIST*
D10*
X67381428Y-120394285D02*
X67667142Y-120537142D01*
X68238571Y-120537142D01*
X68524285Y-120394285D01*
X68667142Y-120251428D01*
X68810000Y-119965714D01*
X68810000Y-119108571D01*
X68667142Y-118822857D01*
X68524285Y-118680000D01*
X68238571Y-118537142D01*
X67667142Y-118537142D01*
X67381428Y-118680000D01*
X65667142Y-120537142D02*
X65952857Y-120394285D01*
X66095714Y-120251428D01*
X66238571Y-119965714D01*
X66238571Y-119108571D01*
X66095714Y-118822857D01*
X65952857Y-118680000D01*
X65667142Y-118537142D01*
X65238571Y-118537142D01*
X64952857Y-118680000D01*
X64810000Y-118822857D01*
X64667142Y-119108571D01*
X64667142Y-119965714D01*
X64810000Y-120251428D01*
X64952857Y-120394285D01*
X65238571Y-120537142D01*
X65667142Y-120537142D01*
X62952857Y-120537142D02*
X63238571Y-120394285D01*
X63381428Y-120251428D01*
X63524285Y-119965714D01*
X63524285Y-119108571D01*
X63381428Y-118822857D01*
X63238571Y-118680000D01*
X62952857Y-118537142D01*
X62524285Y-118537142D01*
X62238571Y-118680000D01*
X62095714Y-118822857D01*
X61952857Y-119108571D01*
X61952857Y-119965714D01*
X62095714Y-120251428D01*
X62238571Y-120394285D01*
X62524285Y-120537142D01*
X62952857Y-120537142D01*
X60238571Y-120537142D02*
X60524285Y-120394285D01*
X60667142Y-120108571D01*
X60667142Y-117537142D01*
X57667142Y-117537142D02*
X59095714Y-117537142D01*
X59238571Y-118965714D01*
X59095714Y-118822857D01*
X58810000Y-118680000D01*
X58095714Y-118680000D01*
X57810000Y-118822857D01*
X57667142Y-118965714D01*
X57524285Y-119251428D01*
X57524285Y-119965714D01*
X57667142Y-120251428D01*
X57810000Y-120394285D01*
X58095714Y-120537142D01*
X58810000Y-120537142D01*
X59095714Y-120394285D01*
X59238571Y-120251428D01*
X56524285Y-117537142D02*
X54667142Y-117537142D01*
X55667142Y-118680000D01*
X55238571Y-118680000D01*
X54952857Y-118822857D01*
X54810000Y-118965714D01*
X54667142Y-119251428D01*
X54667142Y-119965714D01*
X54810000Y-120251428D01*
X54952857Y-120394285D01*
X55238571Y-120537142D01*
X56095714Y-120537142D01*
X56381428Y-120394285D01*
X56524285Y-120251428D01*
X52095714Y-117537142D02*
X52667142Y-117537142D01*
X52952857Y-117680000D01*
X53095714Y-117822857D01*
X53381428Y-118251428D01*
X53524285Y-118822857D01*
X53524285Y-119965714D01*
X53381428Y-120251428D01*
X53238571Y-120394285D01*
X52952857Y-120537142D01*
X52381428Y-120537142D01*
X52095714Y-120394285D01*
X51952857Y-120251428D01*
X51810000Y-119965714D01*
X51810000Y-119251428D01*
X51952857Y-118965714D01*
X52095714Y-118822857D01*
X52381428Y-118680000D01*
X52952857Y-118680000D01*
X53238571Y-118822857D01*
X53381428Y-118965714D01*
X53524285Y-119251428D01*
X64524285Y-125537142D02*
X62952857Y-123537142D01*
X64524285Y-123537142D02*
X62952857Y-125537142D01*
X61810000Y-125537142D02*
X61810000Y-123537142D01*
X61810000Y-122537142D02*
X61952857Y-122680000D01*
X61810000Y-122822857D01*
X61667142Y-122680000D01*
X61810000Y-122537142D01*
X61810000Y-122822857D01*
X59095714Y-125537142D02*
X59095714Y-123965714D01*
X59238571Y-123680000D01*
X59524285Y-123537142D01*
X60095714Y-123537142D01*
X60381428Y-123680000D01*
X59095714Y-125394285D02*
X59381428Y-125537142D01*
X60095714Y-125537142D01*
X60381428Y-125394285D01*
X60524285Y-125108571D01*
X60524285Y-124822857D01*
X60381428Y-124537142D01*
X60095714Y-124394285D01*
X59381428Y-124394285D01*
X59095714Y-124251428D01*
X57238571Y-125537142D02*
X57524285Y-125394285D01*
X57667142Y-125251428D01*
X57810000Y-124965714D01*
X57810000Y-124108571D01*
X57667142Y-123822857D01*
X57524285Y-123680000D01*
X57238571Y-123537142D01*
X56810000Y-123537142D01*
X56524285Y-123680000D01*
X56381428Y-123822857D01*
X56238571Y-124108571D01*
X56238571Y-124965714D01*
X56381428Y-125251428D01*
X56524285Y-125394285D01*
X56810000Y-125537142D01*
X57238571Y-125537142D01*
D11*
X41880000Y-53660000D02*
X60680000Y-53660000D01*
X60680000Y-53660000D02*
X60680000Y-35660000D01*
X60680000Y-35660000D02*
X41880000Y-35660000D01*
X40590000Y-49010000D02*
X38710000Y-49010000D01*
X40590000Y-40350000D02*
X38710000Y-40350000D01*
X38710000Y-40350000D02*
X38710000Y-49010000D01*
X41880000Y-35660000D02*
X40600400Y-35660000D01*
X40600400Y-35660000D02*
X40600400Y-53550000D01*
X41880000Y-53660000D02*
X40600400Y-53660000D01*
X40600400Y-53660000D02*
X40600400Y-53550000D01*
X85370000Y-66270000D02*
X85370000Y-66970000D01*
X80375000Y-60170000D02*
X80350000Y-64770000D01*
X89950000Y-62370000D02*
X89950000Y-66970000D01*
X84150000Y-64795000D02*
X80375000Y-64795000D01*
X85075000Y-60145000D02*
X80375000Y-60145000D01*
X89925000Y-62345000D02*
X87375000Y-62345000D01*
X89925000Y-66995000D02*
X85375000Y-66995000D01*
X92450000Y-55920000D02*
X87400000Y-55966000D01*
X92450000Y-55874000D02*
X92450000Y-51966000D01*
X92450000Y-51966000D02*
X83825000Y-51966000D01*
X81550000Y-53920000D02*
X81550000Y-57865000D01*
X81550000Y-57874000D02*
X85160000Y-57874000D01*
X85370000Y-66220000D02*
G75*
G03*
X84150000Y-64800000I-1320000J100000D01*
G01*
X85080000Y-60170000D02*
G75*
G03*
X87450000Y-62340000I2270000J100000D01*
G01*
X85165000Y-57850000D02*
G75*
G02*
X87425000Y-55970000I2070000J-190000D01*
G01*
X81561000Y-53850000D02*
G75*
G02*
X83825000Y-51966000I2074000J-190000D01*
G01*
X110720000Y-56170000D02*
X110720000Y-54670000D01*
X105320000Y-56170000D02*
X110720000Y-56170000D01*
X105320000Y-54670000D02*
X105320000Y-56170000D01*
X110720000Y-54670000D02*
X105320000Y-54670000D01*
X107520000Y-54920000D02*
X107520000Y-55920000D01*
X108520000Y-55920000D02*
X107620000Y-55420000D01*
X108520000Y-54920000D02*
X108520000Y-55920000D01*
X107620000Y-55420000D02*
X108520000Y-54920000D01*
X129760000Y-56150000D02*
X129760000Y-54650000D01*
X124360000Y-56150000D02*
X129760000Y-56150000D01*
X124360000Y-54650000D02*
X124360000Y-56150000D01*
X129760000Y-54650000D02*
X124360000Y-54650000D01*
X126560000Y-54900000D02*
X126560000Y-55900000D01*
X127560000Y-55900000D02*
X126660000Y-55400000D01*
X127560000Y-54900000D02*
X127560000Y-55900000D01*
X126660000Y-55400000D02*
X127560000Y-54900000D01*
D12*
X118890000Y-50710000D02*
X118890000Y-47910000D01*
X123790000Y-50710000D02*
X118890000Y-50710000D01*
X132290000Y-50710000D02*
X127390000Y-50710000D01*
X132290000Y-48110000D02*
X132290000Y-50710000D01*
X132290000Y-43110000D02*
X132290000Y-45710000D01*
X132290000Y-38110000D02*
X132290000Y-40710000D01*
X127390000Y-38110000D02*
X132290000Y-38110000D01*
X123690000Y-38110000D02*
X118890000Y-38110000D01*
X118890000Y-38110000D02*
X118890000Y-40610000D01*
X128590000Y-44410000D02*
G75*
G03*
X128590000Y-44410000I-3000000J0D01*
G01*
X114760000Y-43110000D02*
X114760000Y-45710000D01*
X114760000Y-50710000D02*
X109860000Y-50710000D01*
X114760000Y-48110000D02*
X114760000Y-50710000D01*
X114760000Y-38110000D02*
X114760000Y-40710000D01*
X109860000Y-38110000D02*
X114760000Y-38110000D01*
X106160000Y-38110000D02*
X101360000Y-38110000D01*
X101360000Y-38110000D02*
X101360000Y-40610000D01*
X111060000Y-44410000D02*
G75*
G03*
X111060000Y-44410000I-3000000J0D01*
G01*
X106260000Y-50710000D02*
X101360000Y-50710000D01*
X101360000Y-50710000D02*
X101360000Y-47910000D01*
D11*
X84600000Y-34070000D02*
X90600000Y-34070000D01*
X90600000Y-34070000D02*
X90600000Y-46070000D01*
X90600000Y-46070000D02*
X84600000Y-46070000D01*
X84600000Y-46070000D02*
X84600000Y-34070000D01*
X81550000Y-95974000D02*
X85160000Y-95974000D01*
X81550000Y-92020000D02*
X81550000Y-95965000D01*
X92450000Y-90066000D02*
X83825000Y-90066000D01*
X92450000Y-93974000D02*
X92450000Y-90066000D01*
X92450000Y-94020000D02*
X87400000Y-94066000D01*
X89925000Y-105095000D02*
X85375000Y-105095000D01*
X89925000Y-100445000D02*
X87375000Y-100445000D01*
X85075000Y-98245000D02*
X80375000Y-98245000D01*
X84150000Y-102895000D02*
X80375000Y-102895000D01*
X89950000Y-100470000D02*
X89950000Y-105070000D01*
X80375000Y-98270000D02*
X80350000Y-102870000D01*
X85370000Y-104370000D02*
X85370000Y-105070000D01*
X81561000Y-91950000D02*
G75*
G02*
X83825000Y-90066000I2074000J-190000D01*
G01*
X85165000Y-95950000D02*
G75*
G02*
X87425000Y-94070000I2070000J-190000D01*
G01*
X85080000Y-98270000D02*
G75*
G03*
X87450000Y-100440000I2270000J100000D01*
G01*
X85370000Y-104320000D02*
G75*
G03*
X84150000Y-102900000I-1320000J100000D01*
G01*
X47270000Y-94845000D02*
X47270000Y-95545000D01*
X42275000Y-88745000D02*
X42250000Y-93345000D01*
X51850000Y-90945000D02*
X51850000Y-95545000D01*
X46050000Y-93370000D02*
X42275000Y-93370000D01*
X46975000Y-88720000D02*
X42275000Y-88720000D01*
X51825000Y-90920000D02*
X49275000Y-90920000D01*
X51825000Y-95570000D02*
X47275000Y-95570000D01*
X54350000Y-84495000D02*
X49300000Y-84541000D01*
X54350000Y-84449000D02*
X54350000Y-80541000D01*
X54350000Y-80541000D02*
X45725000Y-80541000D01*
X43450000Y-82495000D02*
X43450000Y-86440000D01*
X43450000Y-86449000D02*
X47060000Y-86449000D01*
X47270000Y-94795000D02*
G75*
G03*
X46050000Y-93375000I-1320000J100000D01*
G01*
X46980000Y-88745000D02*
G75*
G03*
X49350000Y-90915000I2270000J100000D01*
G01*
X47065000Y-86425000D02*
G75*
G02*
X49325000Y-84545000I2070000J-190000D01*
G01*
X43461000Y-82425000D02*
G75*
G02*
X45725000Y-80541000I2074000J-190000D01*
G01*
X62500000Y-81686500D02*
X66110000Y-81686500D01*
X62500000Y-77732500D02*
X62500000Y-81677500D01*
X73400000Y-75778500D02*
X64775000Y-75778500D01*
X73400000Y-79686500D02*
X73400000Y-75778500D01*
X73400000Y-79732500D02*
X68350000Y-79778500D01*
X70875000Y-90807500D02*
X66325000Y-90807500D01*
X70875000Y-86157500D02*
X68325000Y-86157500D01*
X66025000Y-83957500D02*
X61325000Y-83957500D01*
X65100000Y-88607500D02*
X61325000Y-88607500D01*
X70900000Y-86182500D02*
X70900000Y-90782500D01*
X61325000Y-83982500D02*
X61300000Y-88582500D01*
X66320000Y-90082500D02*
X66320000Y-90782500D01*
X62511000Y-77662500D02*
G75*
G02*
X64775000Y-75778500I2074000J-190000D01*
G01*
X66115000Y-81662500D02*
G75*
G02*
X68375000Y-79782500I2070000J-190000D01*
G01*
X66030000Y-83982500D02*
G75*
G03*
X68400000Y-86152500I2270000J100000D01*
G01*
X66320000Y-90032500D02*
G75*
G03*
X65100000Y-88612500I-1320000J100000D01*
G01*
X71300000Y-72782499D02*
X71300000Y-74282499D01*
X65900000Y-72782499D02*
X71300000Y-72782499D01*
X65900000Y-74282499D02*
X65900000Y-72782499D01*
X71300000Y-74282499D02*
X65900000Y-74282499D01*
X68100000Y-74032499D02*
X68100000Y-73032499D01*
X69100000Y-73032499D02*
X68200000Y-73532499D01*
X69100000Y-74032499D02*
X69100000Y-73032499D01*
X68200000Y-73532499D02*
X69100000Y-74032499D01*
X100600000Y-81686500D02*
X104210000Y-81686500D01*
X100600000Y-77732500D02*
X100600000Y-81677500D01*
X111500000Y-75778500D02*
X102875000Y-75778500D01*
X111500000Y-79686500D02*
X111500000Y-75778500D01*
X111500000Y-79732500D02*
X106450000Y-79778500D01*
X108975000Y-90807500D02*
X104425000Y-90807500D01*
X108975000Y-86157500D02*
X106425000Y-86157500D01*
X104125000Y-83957500D02*
X99425000Y-83957500D01*
X103200000Y-88607500D02*
X99425000Y-88607500D01*
X109000000Y-86182500D02*
X109000000Y-90782500D01*
X99425000Y-83982500D02*
X99400000Y-88582500D01*
X104420000Y-90082500D02*
X104420000Y-90782500D01*
X100611000Y-77662500D02*
G75*
G02*
X102875000Y-75778500I2074000J-190000D01*
G01*
X104215000Y-81662500D02*
G75*
G02*
X106475000Y-79782500I2070000J-190000D01*
G01*
X104130000Y-83982500D02*
G75*
G03*
X106500000Y-86152500I2270000J100000D01*
G01*
X104420000Y-90032500D02*
G75*
G03*
X103200000Y-88612500I-1320000J100000D01*
G01*
X94895000Y-128182500D02*
X94895000Y-128882500D01*
X89900000Y-122082500D02*
X89875000Y-126682500D01*
X99475000Y-124282500D02*
X99475000Y-128882500D01*
X93675000Y-126707500D02*
X89900000Y-126707500D01*
X94600000Y-122057500D02*
X89900000Y-122057500D01*
X99450000Y-124257500D02*
X96900000Y-124257500D01*
X99450000Y-128907500D02*
X94900000Y-128907500D01*
X101975000Y-117832500D02*
X96925000Y-117878500D01*
X101975000Y-117786500D02*
X101975000Y-113878500D01*
X101975000Y-113878500D02*
X93350000Y-113878500D01*
X91075000Y-115832500D02*
X91075000Y-119777500D01*
X91075000Y-119786500D02*
X94685000Y-119786500D01*
X94895000Y-128132500D02*
G75*
G03*
X93675000Y-126712500I-1320000J100000D01*
G01*
X94605000Y-122082500D02*
G75*
G03*
X96975000Y-124252500I2270000J100000D01*
G01*
X94690000Y-119762500D02*
G75*
G02*
X96950000Y-117882500I2070000J-190000D01*
G01*
X91086000Y-115762500D02*
G75*
G02*
X93350000Y-113878500I2074000J-190000D01*
G01*
X75845000Y-128182500D02*
X75845000Y-128882500D01*
X70850000Y-122082500D02*
X70825000Y-126682500D01*
X80425000Y-124282500D02*
X80425000Y-128882500D01*
X74625000Y-126707500D02*
X70850000Y-126707500D01*
X75550000Y-122057500D02*
X70850000Y-122057500D01*
X80400000Y-124257500D02*
X77850000Y-124257500D01*
X80400000Y-128907500D02*
X75850000Y-128907500D01*
X82925000Y-117832500D02*
X77875000Y-117878500D01*
X82925000Y-117786500D02*
X82925000Y-113878500D01*
X82925000Y-113878500D02*
X74300000Y-113878500D01*
X72025000Y-115832500D02*
X72025000Y-119777500D01*
X72025000Y-119786500D02*
X75635000Y-119786500D01*
X75845000Y-128132500D02*
G75*
G03*
X74625000Y-126712500I-1320000J100000D01*
G01*
X75555000Y-122082500D02*
G75*
G03*
X77925000Y-124252500I2270000J100000D01*
G01*
X75640000Y-119762500D02*
G75*
G02*
X77900000Y-117882500I2070000J-190000D01*
G01*
X72036000Y-115762500D02*
G75*
G02*
X74300000Y-113878500I2074000J-190000D01*
G01*
X119650000Y-100736500D02*
X123260000Y-100736500D01*
X119650000Y-96782500D02*
X119650000Y-100727500D01*
X130550000Y-94828500D02*
X121925000Y-94828500D01*
X130550000Y-98736500D02*
X130550000Y-94828500D01*
X130550000Y-98782500D02*
X125500000Y-98828500D01*
X128025000Y-109857500D02*
X123475000Y-109857500D01*
X128025000Y-105207500D02*
X125475000Y-105207500D01*
X123175000Y-103007500D02*
X118475000Y-103007500D01*
X122250000Y-107657500D02*
X118475000Y-107657500D01*
X128050000Y-105232500D02*
X128050000Y-109832500D01*
X118475000Y-103032500D02*
X118450000Y-107632500D01*
X123470000Y-109132500D02*
X123470000Y-109832500D01*
X119661000Y-96712500D02*
G75*
G02*
X121925000Y-94828500I2074000J-190000D01*
G01*
X123265000Y-100712500D02*
G75*
G02*
X125525000Y-98832500I2070000J-190000D01*
G01*
X123180000Y-103032500D02*
G75*
G03*
X125550000Y-105202500I2270000J100000D01*
G01*
X123470000Y-109082500D02*
G75*
G03*
X122250000Y-107662500I-1320000J100000D01*
G01*
X119650000Y-62636499D02*
X123260000Y-62636499D01*
X119650000Y-58682499D02*
X119650000Y-62627499D01*
X130550000Y-56728499D02*
X121925000Y-56728499D01*
X130550000Y-60636499D02*
X130550000Y-56728499D01*
X130550000Y-60682499D02*
X125500000Y-60728499D01*
X128025000Y-71757499D02*
X123475000Y-71757499D01*
X128025000Y-67107499D02*
X125475000Y-67107499D01*
X123175000Y-64907499D02*
X118475000Y-64907499D01*
X122250000Y-69557499D02*
X118475000Y-69557499D01*
X128050000Y-67132499D02*
X128050000Y-71732499D01*
X118475000Y-64932499D02*
X118450000Y-69532499D01*
X123470000Y-71032499D02*
X123470000Y-71732499D01*
X119661000Y-58612499D02*
G75*
G02*
X121925000Y-56728499I2074000J-190000D01*
G01*
X123265000Y-62612499D02*
G75*
G02*
X125525000Y-60732499I2070000J-190000D01*
G01*
X123180000Y-64932499D02*
G75*
G03*
X125550000Y-67102499I2270000J100000D01*
G01*
X123470000Y-70982499D02*
G75*
G03*
X122250000Y-69562499I-1320000J100000D01*
G01*
X66320000Y-109132500D02*
X66320000Y-109832500D01*
X61325000Y-103032500D02*
X61300000Y-107632500D01*
X70900000Y-105232500D02*
X70900000Y-109832500D01*
X65100000Y-107657500D02*
X61325000Y-107657500D01*
X66025000Y-103007500D02*
X61325000Y-103007500D01*
X70875000Y-105207500D02*
X68325000Y-105207500D01*
X70875000Y-109857500D02*
X66325000Y-109857500D01*
X73400000Y-98782500D02*
X68350000Y-98828500D01*
X73400000Y-98736500D02*
X73400000Y-94828500D01*
X73400000Y-94828500D02*
X64775000Y-94828500D01*
X62500000Y-96782500D02*
X62500000Y-100727500D01*
X62500000Y-100736500D02*
X66110000Y-100736500D01*
X66320000Y-109082500D02*
G75*
G03*
X65100000Y-107662500I-1320000J100000D01*
G01*
X66030000Y-103032500D02*
G75*
G03*
X68400000Y-105202500I2270000J100000D01*
G01*
X66115000Y-100712500D02*
G75*
G02*
X68375000Y-98832500I2070000J-190000D01*
G01*
X62511000Y-96712500D02*
G75*
G02*
X64775000Y-94828500I2074000J-190000D01*
G01*
X100600000Y-100736500D02*
X104210000Y-100736500D01*
X100600000Y-96782500D02*
X100600000Y-100727500D01*
X111500000Y-94828500D02*
X102875000Y-94828500D01*
X111500000Y-98736500D02*
X111500000Y-94828500D01*
X111500000Y-98782500D02*
X106450000Y-98828500D01*
X108975000Y-109857500D02*
X104425000Y-109857500D01*
X108975000Y-105207500D02*
X106425000Y-105207500D01*
X104125000Y-103007500D02*
X99425000Y-103007500D01*
X103200000Y-107657500D02*
X99425000Y-107657500D01*
X109000000Y-105232500D02*
X109000000Y-109832500D01*
X99425000Y-103032500D02*
X99400000Y-107632500D01*
X104420000Y-109132500D02*
X104420000Y-109832500D01*
X100611000Y-96712500D02*
G75*
G02*
X102875000Y-94828500I2074000J-190000D01*
G01*
X104215000Y-100712500D02*
G75*
G02*
X106475000Y-98832500I2070000J-190000D01*
G01*
X104130000Y-103032500D02*
G75*
G03*
X106500000Y-105202500I2270000J100000D01*
G01*
X104420000Y-109082500D02*
G75*
G03*
X103200000Y-107662500I-1320000J100000D01*
G01*
X119650000Y-81686500D02*
X123260000Y-81686500D01*
X119650000Y-77732500D02*
X119650000Y-81677500D01*
X130550000Y-75778500D02*
X121925000Y-75778500D01*
X130550000Y-79686500D02*
X130550000Y-75778500D01*
X130550000Y-79732500D02*
X125500000Y-79778500D01*
X128025000Y-90807500D02*
X123475000Y-90807500D01*
X128025000Y-86157500D02*
X125475000Y-86157500D01*
X123175000Y-83957500D02*
X118475000Y-83957500D01*
X122250000Y-88607500D02*
X118475000Y-88607500D01*
X128050000Y-86182500D02*
X128050000Y-90782500D01*
X118475000Y-83982500D02*
X118450000Y-88582500D01*
X123470000Y-90082500D02*
X123470000Y-90782500D01*
X119661000Y-77662500D02*
G75*
G02*
X121925000Y-75778500I2074000J-190000D01*
G01*
X123265000Y-81662500D02*
G75*
G02*
X125525000Y-79782500I2070000J-190000D01*
G01*
X123180000Y-83982500D02*
G75*
G03*
X125550000Y-86152500I2270000J100000D01*
G01*
X123470000Y-90032500D02*
G75*
G03*
X122250000Y-88612500I-1320000J100000D01*
G01*
X43450000Y-105499000D02*
X47060000Y-105499000D01*
X43450000Y-101545000D02*
X43450000Y-105490000D01*
X54350000Y-99591000D02*
X45725000Y-99591000D01*
X54350000Y-103499000D02*
X54350000Y-99591000D01*
X54350000Y-103545000D02*
X49300000Y-103591000D01*
X51825000Y-114620000D02*
X47275000Y-114620000D01*
X51825000Y-109970000D02*
X49275000Y-109970000D01*
X46975000Y-107770000D02*
X42275000Y-107770000D01*
X46050000Y-112420000D02*
X42275000Y-112420000D01*
X51850000Y-109995000D02*
X51850000Y-114595000D01*
X42275000Y-107795000D02*
X42250000Y-112395000D01*
X47270000Y-113895000D02*
X47270000Y-114595000D01*
X43461000Y-101475000D02*
G75*
G02*
X45725000Y-99591000I2074000J-190000D01*
G01*
X47065000Y-105475000D02*
G75*
G02*
X49325000Y-103595000I2070000J-190000D01*
G01*
X46980000Y-107795000D02*
G75*
G03*
X49350000Y-109965000I2270000J100000D01*
G01*
X47270000Y-113845000D02*
G75*
G03*
X46050000Y-112425000I-1320000J100000D01*
G01*
X81550000Y-76924000D02*
X85160000Y-76924000D01*
X81550000Y-72970000D02*
X81550000Y-76915000D01*
X92450000Y-71016000D02*
X83825000Y-71016000D01*
X92450000Y-74924000D02*
X92450000Y-71016000D01*
X92450000Y-74970000D02*
X87400000Y-75016000D01*
X89925000Y-86045000D02*
X85375000Y-86045000D01*
X89925000Y-81395000D02*
X87375000Y-81395000D01*
X85075000Y-79195000D02*
X80375000Y-79195000D01*
X84150000Y-83845000D02*
X80375000Y-83845000D01*
X89950000Y-81420000D02*
X89950000Y-86020000D01*
X80375000Y-79220000D02*
X80350000Y-83820000D01*
X85370000Y-85320000D02*
X85370000Y-86020000D01*
X81561000Y-72900000D02*
G75*
G02*
X83825000Y-71016000I2074000J-190000D01*
G01*
X85165000Y-76900000D02*
G75*
G02*
X87425000Y-75020000I2070000J-190000D01*
G01*
X85080000Y-79220000D02*
G75*
G03*
X87450000Y-81390000I2270000J100000D01*
G01*
X85370000Y-85270000D02*
G75*
G03*
X84150000Y-83850000I-1320000J100000D01*
G01*
X109400000Y-91832500D02*
X109400000Y-93332500D01*
X104000000Y-91832500D02*
X109400000Y-91832500D01*
X104000000Y-93332500D02*
X104000000Y-91832500D01*
X109400000Y-93332500D02*
X104000000Y-93332500D01*
X106200000Y-93082500D02*
X106200000Y-92082500D01*
X107200000Y-92082500D02*
X106300000Y-92582500D01*
X107200000Y-93082500D02*
X107200000Y-92082500D01*
X106300000Y-92582500D02*
X107200000Y-93082500D01*
X128450000Y-91832500D02*
X128450000Y-93332500D01*
X123050000Y-91832500D02*
X128450000Y-91832500D01*
X123050000Y-93332500D02*
X123050000Y-91832500D01*
X128450000Y-93332500D02*
X123050000Y-93332500D01*
X125250000Y-93082500D02*
X125250000Y-92082500D01*
X126250000Y-92082500D02*
X125350000Y-92582500D01*
X126250000Y-93082500D02*
X126250000Y-92082500D01*
X125350000Y-92582500D02*
X126250000Y-93082500D01*
X99875000Y-129932500D02*
X99875000Y-131432500D01*
X94475000Y-129932500D02*
X99875000Y-129932500D01*
X94475000Y-131432500D02*
X94475000Y-129932500D01*
X99875000Y-131432500D02*
X94475000Y-131432500D01*
X96675000Y-131182500D02*
X96675000Y-130182500D01*
X97675000Y-130182500D02*
X96775000Y-130682500D01*
X97675000Y-131182500D02*
X97675000Y-130182500D01*
X96775000Y-130682500D02*
X97675000Y-131182500D01*
X123688000Y-129932500D02*
X123688000Y-131432500D01*
X118288000Y-129932500D02*
X123688000Y-129932500D01*
X118288000Y-131432500D02*
X118288000Y-129932500D01*
X123688000Y-131432500D02*
X118288000Y-131432500D01*
X120488000Y-131182500D02*
X120488000Y-130182500D01*
X121488000Y-130182500D02*
X120588000Y-130682500D01*
X121488000Y-131182500D02*
X121488000Y-130182500D01*
X120588000Y-130682500D02*
X121488000Y-131182500D01*
X90350000Y-68020000D02*
X90350000Y-69520000D01*
X84950000Y-68020000D02*
X90350000Y-68020000D01*
X84950000Y-69520000D02*
X84950000Y-68020000D01*
X90350000Y-69520000D02*
X84950000Y-69520000D01*
X87150000Y-69270000D02*
X87150000Y-68270000D01*
X88150000Y-68270000D02*
X87250000Y-68770000D01*
X88150000Y-69270000D02*
X88150000Y-68270000D01*
X87250000Y-68770000D02*
X88150000Y-69270000D01*
X109400000Y-72782499D02*
X109400000Y-74282499D01*
X104000000Y-72782499D02*
X109400000Y-72782499D01*
X104000000Y-74282499D02*
X104000000Y-72782499D01*
X109400000Y-74282499D02*
X104000000Y-74282499D01*
X106200000Y-74032499D02*
X106200000Y-73032499D01*
X107200000Y-73032499D02*
X106300000Y-73532499D01*
X107200000Y-74032499D02*
X107200000Y-73032499D01*
X106300000Y-73532499D02*
X107200000Y-74032499D01*
X128450000Y-72782499D02*
X128450000Y-74282499D01*
X123050000Y-72782499D02*
X128450000Y-72782499D01*
X123050000Y-74282499D02*
X123050000Y-72782499D01*
X128450000Y-74282499D02*
X123050000Y-74282499D01*
X125250000Y-74032499D02*
X125250000Y-73032499D01*
X126250000Y-73032499D02*
X125350000Y-73532499D01*
X126250000Y-74032499D02*
X126250000Y-73032499D01*
X125350000Y-73532499D02*
X126250000Y-74032499D01*
X90350000Y-87070000D02*
X90350000Y-88570000D01*
X84950000Y-87070000D02*
X90350000Y-87070000D01*
X84950000Y-88570000D02*
X84950000Y-87070000D01*
X90350000Y-88570000D02*
X84950000Y-88570000D01*
X87150000Y-88320000D02*
X87150000Y-87320000D01*
X88150000Y-87320000D02*
X87250000Y-87820000D01*
X88150000Y-88320000D02*
X88150000Y-87320000D01*
X87250000Y-87820000D02*
X88150000Y-88320000D01*
X71300000Y-91832500D02*
X71300000Y-93332500D01*
X65900000Y-91832500D02*
X71300000Y-91832500D01*
X65900000Y-93332500D02*
X65900000Y-91832500D01*
X71300000Y-93332500D02*
X65900000Y-93332500D01*
X68100000Y-93082500D02*
X68100000Y-92082500D01*
X69100000Y-92082500D02*
X68200000Y-92582500D01*
X69100000Y-93082500D02*
X69100000Y-92082500D01*
X68200000Y-92582500D02*
X69100000Y-93082500D01*
X71300000Y-110882500D02*
X71300000Y-112382500D01*
X65900000Y-110882500D02*
X71300000Y-110882500D01*
X65900000Y-112382500D02*
X65900000Y-110882500D01*
X71300000Y-112382500D02*
X65900000Y-112382500D01*
X68100000Y-112132500D02*
X68100000Y-111132500D01*
X69100000Y-111132500D02*
X68200000Y-111632500D01*
X69100000Y-112132500D02*
X69100000Y-111132500D01*
X68200000Y-111632500D02*
X69100000Y-112132500D01*
X90350000Y-106120000D02*
X90350000Y-107620000D01*
X84950000Y-106120000D02*
X90350000Y-106120000D01*
X84950000Y-107620000D02*
X84950000Y-106120000D01*
X90350000Y-107620000D02*
X84950000Y-107620000D01*
X87150000Y-107370000D02*
X87150000Y-106370000D01*
X88150000Y-106370000D02*
X87250000Y-106870000D01*
X88150000Y-107370000D02*
X88150000Y-106370000D01*
X87250000Y-106870000D02*
X88150000Y-107370000D01*
X109400000Y-110882500D02*
X109400000Y-112382500D01*
X104000000Y-110882500D02*
X109400000Y-110882500D01*
X104000000Y-112382500D02*
X104000000Y-110882500D01*
X109400000Y-112382500D02*
X104000000Y-112382500D01*
X106200000Y-112132500D02*
X106200000Y-111132500D01*
X107200000Y-111132500D02*
X106300000Y-111632500D01*
X107200000Y-112132500D02*
X107200000Y-111132500D01*
X106300000Y-111632500D02*
X107200000Y-112132500D01*
X128450000Y-110882500D02*
X128450000Y-112382500D01*
X123050000Y-110882500D02*
X128450000Y-110882500D01*
X123050000Y-112382500D02*
X123050000Y-110882500D01*
X128450000Y-112382500D02*
X123050000Y-112382500D01*
X125250000Y-112132500D02*
X125250000Y-111132500D01*
X126250000Y-111132500D02*
X125350000Y-111632500D01*
X126250000Y-112132500D02*
X126250000Y-111132500D01*
X125350000Y-111632500D02*
X126250000Y-112132500D01*
X80825000Y-129932500D02*
X80825000Y-131432500D01*
X75425000Y-129932500D02*
X80825000Y-129932500D01*
X75425000Y-131432500D02*
X75425000Y-129932500D01*
X80825000Y-131432500D02*
X75425000Y-131432500D01*
X77625000Y-131182500D02*
X77625000Y-130182500D01*
X78625000Y-130182500D02*
X77725000Y-130682500D01*
X78625000Y-131182500D02*
X78625000Y-130182500D01*
X77725000Y-130682500D02*
X78625000Y-131182500D01*
X114888000Y-119786500D02*
X118498000Y-119786500D01*
X114888000Y-115832500D02*
X114888000Y-119777500D01*
X125788000Y-113878500D02*
X117163000Y-113878500D01*
X125788000Y-117786500D02*
X125788000Y-113878500D01*
X125788000Y-117832500D02*
X120738000Y-117878500D01*
X123263000Y-128907500D02*
X118713000Y-128907500D01*
X123263000Y-124257500D02*
X120713000Y-124257500D01*
X118413000Y-122057500D02*
X113713000Y-122057500D01*
X117488000Y-126707500D02*
X113713000Y-126707500D01*
X123288000Y-124282500D02*
X123288000Y-128882500D01*
X113713000Y-122082500D02*
X113688000Y-126682500D01*
X118708000Y-128182500D02*
X118708000Y-128882500D01*
X114899000Y-115762500D02*
G75*
G02*
X117163000Y-113878500I2074000J-190000D01*
G01*
X118503000Y-119762500D02*
G75*
G02*
X120763000Y-117882500I2070000J-190000D01*
G01*
X118418000Y-122082500D02*
G75*
G03*
X120788000Y-124252500I2270000J100000D01*
G01*
X118708000Y-128132500D02*
G75*
G03*
X117488000Y-126712500I-1320000J100000D01*
G01*
X66320000Y-71032499D02*
X66320000Y-71732499D01*
X61325000Y-64932499D02*
X61300000Y-69532499D01*
X70900000Y-67132499D02*
X70900000Y-71732499D01*
X65100000Y-69557499D02*
X61325000Y-69557499D01*
X66025000Y-64907499D02*
X61325000Y-64907499D01*
X70875000Y-67107499D02*
X68325000Y-67107499D01*
X70875000Y-71757499D02*
X66325000Y-71757499D01*
X73400000Y-60682499D02*
X68350000Y-60728499D01*
X73400000Y-60636499D02*
X73400000Y-56728499D01*
X73400000Y-56728499D02*
X64775000Y-56728499D01*
X62500000Y-58682499D02*
X62500000Y-62627499D01*
X62500000Y-62636499D02*
X66110000Y-62636499D01*
X66320000Y-70982499D02*
G75*
G03*
X65100000Y-69562499I-1320000J100000D01*
G01*
X66030000Y-64932499D02*
G75*
G03*
X68400000Y-67102499I2270000J100000D01*
G01*
X66115000Y-62612499D02*
G75*
G02*
X68375000Y-60732499I2070000J-190000D01*
G01*
X62511000Y-58612499D02*
G75*
G02*
X64775000Y-56728499I2074000J-190000D01*
G01*
X104420000Y-71032499D02*
X104420000Y-71732499D01*
X99425000Y-64932499D02*
X99400000Y-69532499D01*
X109000000Y-67132499D02*
X109000000Y-71732499D01*
X103200000Y-69557499D02*
X99425000Y-69557499D01*
X104125000Y-64907499D02*
X99425000Y-64907499D01*
X108975000Y-67107499D02*
X106425000Y-67107499D01*
X108975000Y-71757499D02*
X104425000Y-71757499D01*
X111500000Y-60682499D02*
X106450000Y-60728499D01*
X111500000Y-60636499D02*
X111500000Y-56728499D01*
X111500000Y-56728499D02*
X102875000Y-56728499D01*
X100600000Y-58682499D02*
X100600000Y-62627499D01*
X100600000Y-62636499D02*
X104210000Y-62636499D01*
X104420000Y-70982499D02*
G75*
G03*
X103200000Y-69562499I-1320000J100000D01*
G01*
X104130000Y-64932499D02*
G75*
G03*
X106500000Y-67102499I2270000J100000D01*
G01*
X104215000Y-62612499D02*
G75*
G02*
X106475000Y-60732499I2070000J-190000D01*
G01*
X100611000Y-58612499D02*
G75*
G02*
X102875000Y-56728499I2074000J-190000D01*
G01*
X47270000Y-75795000D02*
X47270000Y-76495000D01*
X42275000Y-69695000D02*
X42250000Y-74295000D01*
X51850000Y-71895000D02*
X51850000Y-76495000D01*
X46050000Y-74320000D02*
X42275000Y-74320000D01*
X46975000Y-69670000D02*
X42275000Y-69670000D01*
X51825000Y-71870000D02*
X49275000Y-71870000D01*
X51825000Y-76520000D02*
X47275000Y-76520000D01*
X54350000Y-65445000D02*
X49300000Y-65491000D01*
X54350000Y-65399000D02*
X54350000Y-61491000D01*
X54350000Y-61491000D02*
X45725000Y-61491000D01*
X43450000Y-63445000D02*
X43450000Y-67390000D01*
X43450000Y-67399000D02*
X47060000Y-67399000D01*
X47270000Y-75745000D02*
G75*
G03*
X46050000Y-74325000I-1320000J100000D01*
G01*
X46980000Y-69695000D02*
G75*
G03*
X49350000Y-71865000I2270000J100000D01*
G01*
X47065000Y-67375000D02*
G75*
G02*
X49325000Y-65495000I2070000J-190000D01*
G01*
X43461000Y-63375000D02*
G75*
G02*
X45725000Y-61491000I2074000J-190000D01*
G01*
X49240000Y-78070000D02*
X50140000Y-77570000D01*
X50140000Y-77570000D02*
X50140000Y-78570000D01*
X50140000Y-78570000D02*
X49240000Y-78070000D01*
X49140000Y-77570000D02*
X49140000Y-78570000D01*
X52340000Y-77320000D02*
X46940000Y-77320000D01*
X46940000Y-77320000D02*
X46940000Y-78820000D01*
X46940000Y-78820000D02*
X52340000Y-78820000D01*
X52340000Y-78820000D02*
X52340000Y-77320000D01*
X52480000Y-97890000D02*
X52480000Y-96390000D01*
X47080000Y-97890000D02*
X52480000Y-97890000D01*
X47080000Y-96390000D02*
X47080000Y-97890000D01*
X52480000Y-96390000D02*
X47080000Y-96390000D01*
X49280000Y-96640000D02*
X49280000Y-97640000D01*
X50280000Y-97640000D02*
X49380000Y-97140000D01*
X50280000Y-96640000D02*
X50280000Y-97640000D01*
X49380000Y-97140000D02*
X50280000Y-96640000D01*
X49480000Y-116550000D02*
X50380000Y-116050000D01*
X50380000Y-116050000D02*
X50380000Y-117050000D01*
X50380000Y-117050000D02*
X49480000Y-116550000D01*
X49380000Y-116050000D02*
X49380000Y-117050000D01*
X52580000Y-115800000D02*
X47180000Y-115800000D01*
X47180000Y-115800000D02*
X47180000Y-117300000D01*
X47180000Y-117300000D02*
X52580000Y-117300000D01*
X52580000Y-117300000D02*
X52580000Y-115800000D01*
X47192380Y-43948095D02*
X48001904Y-43948095D01*
X48097142Y-43995714D01*
X48144761Y-44043333D01*
X48192380Y-44138571D01*
X48192380Y-44329047D01*
X48144761Y-44424285D01*
X48097142Y-44471904D01*
X48001904Y-44519523D01*
X47192380Y-44519523D01*
X48192380Y-45519523D02*
X48192380Y-44948095D01*
X48192380Y-45233809D02*
X47192380Y-45233809D01*
X47335238Y-45138571D01*
X47430476Y-45043333D01*
X47478095Y-44948095D01*
X42952380Y-54809523D02*
X42952380Y-54333333D01*
X43428571Y-54285714D01*
X43380952Y-54333333D01*
X43333333Y-54428571D01*
X43333333Y-54666666D01*
X43380952Y-54761904D01*
X43428571Y-54809523D01*
X43523809Y-54857142D01*
X43761904Y-54857142D01*
X43857142Y-54809523D01*
X43904761Y-54761904D01*
X43952380Y-54666666D01*
X43952380Y-54428571D01*
X43904761Y-54333333D01*
X43857142Y-54285714D01*
X42952380Y-55142857D02*
X43952380Y-55476190D01*
X42952380Y-55809523D01*
X45400000Y-54678095D02*
X45352380Y-54582857D01*
X45352380Y-54440000D01*
X45400000Y-54297142D01*
X45495238Y-54201904D01*
X45590476Y-54154285D01*
X45780952Y-54106666D01*
X45923809Y-54106666D01*
X46114285Y-54154285D01*
X46209523Y-54201904D01*
X46304761Y-54297142D01*
X46352380Y-54440000D01*
X46352380Y-54535238D01*
X46304761Y-54678095D01*
X46257142Y-54725714D01*
X45923809Y-54725714D01*
X45923809Y-54535238D01*
X46352380Y-55154285D02*
X45352380Y-55154285D01*
X46352380Y-55725714D01*
X45352380Y-55725714D01*
X46352380Y-56201904D02*
X45352380Y-56201904D01*
X45352380Y-56440000D01*
X45400000Y-56582857D01*
X45495238Y-56678095D01*
X45590476Y-56725714D01*
X45780952Y-56773333D01*
X45923809Y-56773333D01*
X46114285Y-56725714D01*
X46209523Y-56678095D01*
X46304761Y-56582857D01*
X46352380Y-56440000D01*
X46352380Y-56201904D01*
X48042380Y-54241904D02*
X48042380Y-54860952D01*
X48423333Y-54527619D01*
X48423333Y-54670476D01*
X48470952Y-54765714D01*
X48518571Y-54813333D01*
X48613809Y-54860952D01*
X48851904Y-54860952D01*
X48947142Y-54813333D01*
X48994761Y-54765714D01*
X49042380Y-54670476D01*
X49042380Y-54384761D01*
X48994761Y-54289523D01*
X48947142Y-54241904D01*
X48042380Y-55146666D02*
X49042380Y-55480000D01*
X48042380Y-55813333D01*
X48042380Y-56051428D02*
X48042380Y-56670476D01*
X48423333Y-56337142D01*
X48423333Y-56480000D01*
X48470952Y-56575238D01*
X48518571Y-56622857D01*
X48613809Y-56670476D01*
X48851904Y-56670476D01*
X48947142Y-56622857D01*
X48994761Y-56575238D01*
X49042380Y-56480000D01*
X49042380Y-56194285D01*
X48994761Y-56099047D01*
X48947142Y-56051428D01*
X50650000Y-54599523D02*
X50602380Y-54504285D01*
X50602380Y-54361428D01*
X50650000Y-54218571D01*
X50745238Y-54123333D01*
X50840476Y-54075714D01*
X51030952Y-54028095D01*
X51173809Y-54028095D01*
X51364285Y-54075714D01*
X51459523Y-54123333D01*
X51554761Y-54218571D01*
X51602380Y-54361428D01*
X51602380Y-54456666D01*
X51554761Y-54599523D01*
X51507142Y-54647142D01*
X51173809Y-54647142D01*
X51173809Y-54456666D01*
X51602380Y-55075714D02*
X50602380Y-55075714D01*
X50602380Y-55456666D01*
X50650000Y-55551904D01*
X50697619Y-55599523D01*
X50792857Y-55647142D01*
X50935714Y-55647142D01*
X51030952Y-55599523D01*
X51078571Y-55551904D01*
X51126190Y-55456666D01*
X51126190Y-55075714D01*
X51602380Y-56599523D02*
X51602380Y-56028095D01*
X51602380Y-56313809D02*
X50602380Y-56313809D01*
X50745238Y-56218571D01*
X50840476Y-56123333D01*
X50888095Y-56028095D01*
X50602380Y-57218571D02*
X50602380Y-57313809D01*
X50650000Y-57409047D01*
X50697619Y-57456666D01*
X50792857Y-57504285D01*
X50983333Y-57551904D01*
X51221428Y-57551904D01*
X51411904Y-57504285D01*
X51507142Y-57456666D01*
X51554761Y-57409047D01*
X51602380Y-57313809D01*
X51602380Y-57218571D01*
X51554761Y-57123333D01*
X51507142Y-57075714D01*
X51411904Y-57028095D01*
X51221428Y-56980476D01*
X50983333Y-56980476D01*
X50792857Y-57028095D01*
X50697619Y-57075714D01*
X50650000Y-57123333D01*
X50602380Y-57218571D01*
X53170000Y-54555714D02*
X53122380Y-54460476D01*
X53122380Y-54317619D01*
X53170000Y-54174761D01*
X53265238Y-54079523D01*
X53360476Y-54031904D01*
X53550952Y-53984285D01*
X53693809Y-53984285D01*
X53884285Y-54031904D01*
X53979523Y-54079523D01*
X54074761Y-54174761D01*
X54122380Y-54317619D01*
X54122380Y-54412857D01*
X54074761Y-54555714D01*
X54027142Y-54603333D01*
X53693809Y-54603333D01*
X53693809Y-54412857D01*
X54122380Y-55031904D02*
X53122380Y-55031904D01*
X53122380Y-55412857D01*
X53170000Y-55508095D01*
X53217619Y-55555714D01*
X53312857Y-55603333D01*
X53455714Y-55603333D01*
X53550952Y-55555714D01*
X53598571Y-55508095D01*
X53646190Y-55412857D01*
X53646190Y-55031904D01*
X54122380Y-56079523D02*
X54122380Y-56270000D01*
X54074761Y-56365238D01*
X54027142Y-56412857D01*
X53884285Y-56508095D01*
X53693809Y-56555714D01*
X53312857Y-56555714D01*
X53217619Y-56508095D01*
X53170000Y-56460476D01*
X53122380Y-56365238D01*
X53122380Y-56174761D01*
X53170000Y-56079523D01*
X53217619Y-56031904D01*
X53312857Y-55984285D01*
X53550952Y-55984285D01*
X53646190Y-56031904D01*
X53693809Y-56079523D01*
X53741428Y-56174761D01*
X53741428Y-56365238D01*
X53693809Y-56460476D01*
X53646190Y-56508095D01*
X53550952Y-56555714D01*
X55740000Y-54605714D02*
X55692380Y-54510476D01*
X55692380Y-54367619D01*
X55740000Y-54224761D01*
X55835238Y-54129523D01*
X55930476Y-54081904D01*
X56120952Y-54034285D01*
X56263809Y-54034285D01*
X56454285Y-54081904D01*
X56549523Y-54129523D01*
X56644761Y-54224761D01*
X56692380Y-54367619D01*
X56692380Y-54462857D01*
X56644761Y-54605714D01*
X56597142Y-54653333D01*
X56263809Y-54653333D01*
X56263809Y-54462857D01*
X56692380Y-55081904D02*
X55692380Y-55081904D01*
X55692380Y-55462857D01*
X55740000Y-55558095D01*
X55787619Y-55605714D01*
X55882857Y-55653333D01*
X56025714Y-55653333D01*
X56120952Y-55605714D01*
X56168571Y-55558095D01*
X56216190Y-55462857D01*
X56216190Y-55081904D01*
X56120952Y-56224761D02*
X56073333Y-56129523D01*
X56025714Y-56081904D01*
X55930476Y-56034285D01*
X55882857Y-56034285D01*
X55787619Y-56081904D01*
X55740000Y-56129523D01*
X55692380Y-56224761D01*
X55692380Y-56415238D01*
X55740000Y-56510476D01*
X55787619Y-56558095D01*
X55882857Y-56605714D01*
X55930476Y-56605714D01*
X56025714Y-56558095D01*
X56073333Y-56510476D01*
X56120952Y-56415238D01*
X56120952Y-56224761D01*
X56168571Y-56129523D01*
X56216190Y-56081904D01*
X56311428Y-56034285D01*
X56501904Y-56034285D01*
X56597142Y-56081904D01*
X56644761Y-56129523D01*
X56692380Y-56224761D01*
X56692380Y-56415238D01*
X56644761Y-56510476D01*
X56597142Y-56558095D01*
X56501904Y-56605714D01*
X56311428Y-56605714D01*
X56216190Y-56558095D01*
X56168571Y-56510476D01*
X56120952Y-56415238D01*
X58260000Y-54765714D02*
X58212380Y-54670476D01*
X58212380Y-54527619D01*
X58260000Y-54384761D01*
X58355238Y-54289523D01*
X58450476Y-54241904D01*
X58640952Y-54194285D01*
X58783809Y-54194285D01*
X58974285Y-54241904D01*
X59069523Y-54289523D01*
X59164761Y-54384761D01*
X59212380Y-54527619D01*
X59212380Y-54622857D01*
X59164761Y-54765714D01*
X59117142Y-54813333D01*
X58783809Y-54813333D01*
X58783809Y-54622857D01*
X59212380Y-55241904D02*
X58212380Y-55241904D01*
X58212380Y-55622857D01*
X58260000Y-55718095D01*
X58307619Y-55765714D01*
X58402857Y-55813333D01*
X58545714Y-55813333D01*
X58640952Y-55765714D01*
X58688571Y-55718095D01*
X58736190Y-55622857D01*
X58736190Y-55241904D01*
X58212380Y-56146666D02*
X58212380Y-56813333D01*
X59212380Y-56384761D01*
X58230000Y-39445714D02*
X58182380Y-39350476D01*
X58182380Y-39207619D01*
X58230000Y-39064761D01*
X58325238Y-38969523D01*
X58420476Y-38921904D01*
X58610952Y-38874285D01*
X58753809Y-38874285D01*
X58944285Y-38921904D01*
X59039523Y-38969523D01*
X59134761Y-39064761D01*
X59182380Y-39207619D01*
X59182380Y-39302857D01*
X59134761Y-39445714D01*
X59087142Y-39493333D01*
X58753809Y-39493333D01*
X58753809Y-39302857D01*
X59182380Y-39921904D02*
X58182380Y-39921904D01*
X58182380Y-40302857D01*
X58230000Y-40398095D01*
X58277619Y-40445714D01*
X58372857Y-40493333D01*
X58515714Y-40493333D01*
X58610952Y-40445714D01*
X58658571Y-40398095D01*
X58706190Y-40302857D01*
X58706190Y-39921904D01*
X58182380Y-41350476D02*
X58182380Y-41160000D01*
X58230000Y-41064761D01*
X58277619Y-41017142D01*
X58420476Y-40921904D01*
X58610952Y-40874285D01*
X58991904Y-40874285D01*
X59087142Y-40921904D01*
X59134761Y-40969523D01*
X59182380Y-41064761D01*
X59182380Y-41255238D01*
X59134761Y-41350476D01*
X59087142Y-41398095D01*
X58991904Y-41445714D01*
X58753809Y-41445714D01*
X58658571Y-41398095D01*
X58610952Y-41350476D01*
X58563333Y-41255238D01*
X58563333Y-41064761D01*
X58610952Y-40969523D01*
X58658571Y-40921904D01*
X58753809Y-40874285D01*
X55690000Y-39445714D02*
X55642380Y-39350476D01*
X55642380Y-39207619D01*
X55690000Y-39064761D01*
X55785238Y-38969523D01*
X55880476Y-38921904D01*
X56070952Y-38874285D01*
X56213809Y-38874285D01*
X56404285Y-38921904D01*
X56499523Y-38969523D01*
X56594761Y-39064761D01*
X56642380Y-39207619D01*
X56642380Y-39302857D01*
X56594761Y-39445714D01*
X56547142Y-39493333D01*
X56213809Y-39493333D01*
X56213809Y-39302857D01*
X56642380Y-39921904D02*
X55642380Y-39921904D01*
X55642380Y-40302857D01*
X55690000Y-40398095D01*
X55737619Y-40445714D01*
X55832857Y-40493333D01*
X55975714Y-40493333D01*
X56070952Y-40445714D01*
X56118571Y-40398095D01*
X56166190Y-40302857D01*
X56166190Y-39921904D01*
X55642380Y-41398095D02*
X55642380Y-40921904D01*
X56118571Y-40874285D01*
X56070952Y-40921904D01*
X56023333Y-41017142D01*
X56023333Y-41255238D01*
X56070952Y-41350476D01*
X56118571Y-41398095D01*
X56213809Y-41445714D01*
X56451904Y-41445714D01*
X56547142Y-41398095D01*
X56594761Y-41350476D01*
X56642380Y-41255238D01*
X56642380Y-41017142D01*
X56594761Y-40921904D01*
X56547142Y-40874285D01*
X50610000Y-39445714D02*
X50562380Y-39350476D01*
X50562380Y-39207619D01*
X50610000Y-39064761D01*
X50705238Y-38969523D01*
X50800476Y-38921904D01*
X50990952Y-38874285D01*
X51133809Y-38874285D01*
X51324285Y-38921904D01*
X51419523Y-38969523D01*
X51514761Y-39064761D01*
X51562380Y-39207619D01*
X51562380Y-39302857D01*
X51514761Y-39445714D01*
X51467142Y-39493333D01*
X51133809Y-39493333D01*
X51133809Y-39302857D01*
X51562380Y-39921904D02*
X50562380Y-39921904D01*
X50562380Y-40302857D01*
X50610000Y-40398095D01*
X50657619Y-40445714D01*
X50752857Y-40493333D01*
X50895714Y-40493333D01*
X50990952Y-40445714D01*
X51038571Y-40398095D01*
X51086190Y-40302857D01*
X51086190Y-39921904D01*
X50562380Y-40826666D02*
X50562380Y-41445714D01*
X50943333Y-41112380D01*
X50943333Y-41255238D01*
X50990952Y-41350476D01*
X51038571Y-41398095D01*
X51133809Y-41445714D01*
X51371904Y-41445714D01*
X51467142Y-41398095D01*
X51514761Y-41350476D01*
X51562380Y-41255238D01*
X51562380Y-40969523D01*
X51514761Y-40874285D01*
X51467142Y-40826666D01*
X53150000Y-39445714D02*
X53102380Y-39350476D01*
X53102380Y-39207619D01*
X53150000Y-39064761D01*
X53245238Y-38969523D01*
X53340476Y-38921904D01*
X53530952Y-38874285D01*
X53673809Y-38874285D01*
X53864285Y-38921904D01*
X53959523Y-38969523D01*
X54054761Y-39064761D01*
X54102380Y-39207619D01*
X54102380Y-39302857D01*
X54054761Y-39445714D01*
X54007142Y-39493333D01*
X53673809Y-39493333D01*
X53673809Y-39302857D01*
X54102380Y-39921904D02*
X53102380Y-39921904D01*
X53102380Y-40302857D01*
X53150000Y-40398095D01*
X53197619Y-40445714D01*
X53292857Y-40493333D01*
X53435714Y-40493333D01*
X53530952Y-40445714D01*
X53578571Y-40398095D01*
X53626190Y-40302857D01*
X53626190Y-39921904D01*
X53435714Y-41350476D02*
X54102380Y-41350476D01*
X53054761Y-41112380D02*
X53769047Y-40874285D01*
X53769047Y-41493333D01*
X48010000Y-39445714D02*
X47962380Y-39350476D01*
X47962380Y-39207619D01*
X48010000Y-39064761D01*
X48105238Y-38969523D01*
X48200476Y-38921904D01*
X48390952Y-38874285D01*
X48533809Y-38874285D01*
X48724285Y-38921904D01*
X48819523Y-38969523D01*
X48914761Y-39064761D01*
X48962380Y-39207619D01*
X48962380Y-39302857D01*
X48914761Y-39445714D01*
X48867142Y-39493333D01*
X48533809Y-39493333D01*
X48533809Y-39302857D01*
X48962380Y-39921904D02*
X47962380Y-39921904D01*
X47962380Y-40302857D01*
X48010000Y-40398095D01*
X48057619Y-40445714D01*
X48152857Y-40493333D01*
X48295714Y-40493333D01*
X48390952Y-40445714D01*
X48438571Y-40398095D01*
X48486190Y-40302857D01*
X48486190Y-39921904D01*
X48057619Y-40874285D02*
X48010000Y-40921904D01*
X47962380Y-41017142D01*
X47962380Y-41255238D01*
X48010000Y-41350476D01*
X48057619Y-41398095D01*
X48152857Y-41445714D01*
X48248095Y-41445714D01*
X48390952Y-41398095D01*
X48962380Y-40826666D01*
X48962380Y-41445714D01*
X45410000Y-39615714D02*
X45362380Y-39520476D01*
X45362380Y-39377619D01*
X45410000Y-39234761D01*
X45505238Y-39139523D01*
X45600476Y-39091904D01*
X45790952Y-39044285D01*
X45933809Y-39044285D01*
X46124285Y-39091904D01*
X46219523Y-39139523D01*
X46314761Y-39234761D01*
X46362380Y-39377619D01*
X46362380Y-39472857D01*
X46314761Y-39615714D01*
X46267142Y-39663333D01*
X45933809Y-39663333D01*
X45933809Y-39472857D01*
X46362380Y-40091904D02*
X45362380Y-40091904D01*
X45362380Y-40472857D01*
X45410000Y-40568095D01*
X45457619Y-40615714D01*
X45552857Y-40663333D01*
X45695714Y-40663333D01*
X45790952Y-40615714D01*
X45838571Y-40568095D01*
X45886190Y-40472857D01*
X45886190Y-40091904D01*
X46362380Y-41615714D02*
X46362380Y-41044285D01*
X46362380Y-41330000D02*
X45362380Y-41330000D01*
X45505238Y-41234761D01*
X45600476Y-41139523D01*
X45648095Y-41044285D01*
X42850000Y-39655714D02*
X42802380Y-39560476D01*
X42802380Y-39417619D01*
X42850000Y-39274761D01*
X42945238Y-39179523D01*
X43040476Y-39131904D01*
X43230952Y-39084285D01*
X43373809Y-39084285D01*
X43564285Y-39131904D01*
X43659523Y-39179523D01*
X43754761Y-39274761D01*
X43802380Y-39417619D01*
X43802380Y-39512857D01*
X43754761Y-39655714D01*
X43707142Y-39703333D01*
X43373809Y-39703333D01*
X43373809Y-39512857D01*
X43802380Y-40131904D02*
X42802380Y-40131904D01*
X42802380Y-40512857D01*
X42850000Y-40608095D01*
X42897619Y-40655714D01*
X42992857Y-40703333D01*
X43135714Y-40703333D01*
X43230952Y-40655714D01*
X43278571Y-40608095D01*
X43326190Y-40512857D01*
X43326190Y-40131904D01*
X42802380Y-41322380D02*
X42802380Y-41417619D01*
X42850000Y-41512857D01*
X42897619Y-41560476D01*
X42992857Y-41608095D01*
X43183333Y-41655714D01*
X43421428Y-41655714D01*
X43611904Y-41608095D01*
X43707142Y-41560476D01*
X43754761Y-41512857D01*
X43802380Y-41417619D01*
X43802380Y-41322380D01*
X43754761Y-41227142D01*
X43707142Y-41179523D01*
X43611904Y-41131904D01*
X43421428Y-41084285D01*
X43183333Y-41084285D01*
X42992857Y-41131904D01*
X42897619Y-41179523D01*
X42850000Y-41227142D01*
X42802380Y-41322380D01*
X90286404Y-39935880D02*
X89714976Y-39935880D01*
X90000690Y-40935880D02*
X90000690Y-39935880D01*
X88810214Y-40935880D02*
X89143547Y-40459690D01*
X89381642Y-40935880D02*
X89381642Y-39935880D01*
X89000690Y-39935880D01*
X88905452Y-39983500D01*
X88857833Y-40031119D01*
X88810214Y-40126357D01*
X88810214Y-40269214D01*
X88857833Y-40364452D01*
X88905452Y-40412071D01*
X89000690Y-40459690D01*
X89381642Y-40459690D01*
X87810214Y-40935880D02*
X88143547Y-40459690D01*
X88381642Y-40935880D02*
X88381642Y-39935880D01*
X88000690Y-39935880D01*
X87905452Y-39983500D01*
X87857833Y-40031119D01*
X87810214Y-40126357D01*
X87810214Y-40269214D01*
X87857833Y-40364452D01*
X87905452Y-40412071D01*
X88000690Y-40459690D01*
X88381642Y-40459690D01*
X87429261Y-40888261D02*
X87286404Y-40935880D01*
X87048309Y-40935880D01*
X86953071Y-40888261D01*
X86905452Y-40840642D01*
X86857833Y-40745404D01*
X86857833Y-40650166D01*
X86905452Y-40554928D01*
X86953071Y-40507309D01*
X87048309Y-40459690D01*
X87238785Y-40412071D01*
X87334023Y-40364452D01*
X87381642Y-40316833D01*
X87429261Y-40221595D01*
X87429261Y-40126357D01*
X87381642Y-40031119D01*
X87334023Y-39983500D01*
X87238785Y-39935880D01*
X87000690Y-39935880D01*
X86857833Y-39983500D01*
X67471904Y-45570000D02*
X67567142Y-45522380D01*
X67710000Y-45522380D01*
X67852857Y-45570000D01*
X67948095Y-45665238D01*
X67995714Y-45760476D01*
X68043333Y-45950952D01*
X68043333Y-46093809D01*
X67995714Y-46284285D01*
X67948095Y-46379523D01*
X67852857Y-46474761D01*
X67710000Y-46522380D01*
X67614761Y-46522380D01*
X67471904Y-46474761D01*
X67424285Y-46427142D01*
X67424285Y-46093809D01*
X67614761Y-46093809D01*
X66995714Y-46522380D02*
X66995714Y-45522380D01*
X66424285Y-46522380D01*
X66424285Y-45522380D01*
X65948095Y-46522380D02*
X65948095Y-45522380D01*
X65710000Y-45522380D01*
X65567142Y-45570000D01*
X65471904Y-45665238D01*
X65424285Y-45760476D01*
X65376666Y-45950952D01*
X65376666Y-46093809D01*
X65424285Y-46284285D01*
X65471904Y-46379523D01*
X65567142Y-46474761D01*
X65710000Y-46522380D01*
X65948095Y-46522380D01*
X67262857Y-43932380D02*
X67739047Y-43932380D01*
X67739047Y-42932380D01*
X66929523Y-43408571D02*
X66596190Y-43408571D01*
X66453333Y-43932380D02*
X66929523Y-43932380D01*
X66929523Y-42932380D01*
X66453333Y-42932380D01*
X66024761Y-43932380D02*
X66024761Y-42932380D01*
X65786666Y-42932380D01*
X65643809Y-42980000D01*
X65548571Y-43075238D01*
X65500952Y-43170476D01*
X65453333Y-43360952D01*
X65453333Y-43503809D01*
X65500952Y-43694285D01*
X65548571Y-43789523D01*
X65643809Y-43884761D01*
X65786666Y-43932380D01*
X66024761Y-43932380D01*
X67993333Y-40472380D02*
X67660000Y-41472380D01*
X67326666Y-40472380D01*
X66421904Y-41377142D02*
X66469523Y-41424761D01*
X66612380Y-41472380D01*
X66707619Y-41472380D01*
X66850476Y-41424761D01*
X66945714Y-41329523D01*
X66993333Y-41234285D01*
X67040952Y-41043809D01*
X67040952Y-40900952D01*
X66993333Y-40710476D01*
X66945714Y-40615238D01*
X66850476Y-40520000D01*
X66707619Y-40472380D01*
X66612380Y-40472380D01*
X66469523Y-40520000D01*
X66421904Y-40567619D01*
X65421904Y-41377142D02*
X65469523Y-41424761D01*
X65612380Y-41472380D01*
X65707619Y-41472380D01*
X65850476Y-41424761D01*
X65945714Y-41329523D01*
X65993333Y-41234285D01*
X66040952Y-41043809D01*
X66040952Y-40900952D01*
X65993333Y-40710476D01*
X65945714Y-40615238D01*
X65850476Y-40520000D01*
X65707619Y-40472380D01*
X65612380Y-40472380D01*
X65469523Y-40520000D01*
X65421904Y-40567619D01*
M02*
