G04 #@! TF.GenerationSoftware,KiCad,Pcbnew,(5.1.6-0-10_14)*
G04 #@! TF.CreationDate,2022-12-26T18:07:59+09:00*
G04 #@! TF.ProjectId,cool536trackballparts,636f6f6c-3533-4367-9472-61636b62616c,rev?*
G04 #@! TF.SameCoordinates,Original*
G04 #@! TF.FileFunction,Soldermask,Bot*
G04 #@! TF.FilePolarity,Negative*
%FSLAX46Y46*%
G04 Gerber Fmt 4.6, Leading zero omitted, Abs format (unit mm)*
G04 Created by KiCad (PCBNEW (5.1.6-0-10_14)) date 2022-12-26 18:07:59*
%MOMM*%
%LPD*%
G01*
G04 APERTURE LIST*
%ADD10C,0.100000*%
G04 APERTURE END LIST*
D10*
G36*
X79184425Y-69114599D02*
G01*
X79308621Y-69139302D01*
X79445022Y-69195801D01*
X79567779Y-69277825D01*
X79672175Y-69382221D01*
X79754199Y-69504978D01*
X79810698Y-69641379D01*
X79839500Y-69786181D01*
X79839500Y-69933819D01*
X79810698Y-70078621D01*
X79754199Y-70215022D01*
X79672175Y-70337779D01*
X79567779Y-70442175D01*
X79445022Y-70524199D01*
X79308621Y-70580698D01*
X79184425Y-70605401D01*
X79163820Y-70609500D01*
X79016180Y-70609500D01*
X78995575Y-70605401D01*
X78871379Y-70580698D01*
X78734978Y-70524199D01*
X78612221Y-70442175D01*
X78507825Y-70337779D01*
X78425801Y-70215022D01*
X78369302Y-70078621D01*
X78340500Y-69933819D01*
X78340500Y-69786181D01*
X78369302Y-69641379D01*
X78425801Y-69504978D01*
X78507825Y-69382221D01*
X78612221Y-69277825D01*
X78734978Y-69195801D01*
X78871379Y-69139302D01*
X78995575Y-69114599D01*
X79016180Y-69110500D01*
X79163820Y-69110500D01*
X79184425Y-69114599D01*
G37*
G36*
X76644425Y-69114599D02*
G01*
X76768621Y-69139302D01*
X76905022Y-69195801D01*
X77027779Y-69277825D01*
X77132175Y-69382221D01*
X77214199Y-69504978D01*
X77270698Y-69641379D01*
X77299500Y-69786181D01*
X77299500Y-69933819D01*
X77270698Y-70078621D01*
X77214199Y-70215022D01*
X77132175Y-70337779D01*
X77027779Y-70442175D01*
X76905022Y-70524199D01*
X76768621Y-70580698D01*
X76644425Y-70605401D01*
X76623820Y-70609500D01*
X76476180Y-70609500D01*
X76455575Y-70605401D01*
X76331379Y-70580698D01*
X76194978Y-70524199D01*
X76072221Y-70442175D01*
X75967825Y-70337779D01*
X75885801Y-70215022D01*
X75829302Y-70078621D01*
X75800500Y-69933819D01*
X75800500Y-69786181D01*
X75829302Y-69641379D01*
X75885801Y-69504978D01*
X75967825Y-69382221D01*
X76072221Y-69277825D01*
X76194978Y-69195801D01*
X76331379Y-69139302D01*
X76455575Y-69114599D01*
X76476180Y-69110500D01*
X76623820Y-69110500D01*
X76644425Y-69114599D01*
G37*
G36*
X74104425Y-69114599D02*
G01*
X74228621Y-69139302D01*
X74365022Y-69195801D01*
X74487779Y-69277825D01*
X74592175Y-69382221D01*
X74674199Y-69504978D01*
X74730698Y-69641379D01*
X74759500Y-69786181D01*
X74759500Y-69933819D01*
X74730698Y-70078621D01*
X74674199Y-70215022D01*
X74592175Y-70337779D01*
X74487779Y-70442175D01*
X74365022Y-70524199D01*
X74228621Y-70580698D01*
X74104425Y-70605401D01*
X74083820Y-70609500D01*
X73936180Y-70609500D01*
X73915575Y-70605401D01*
X73791379Y-70580698D01*
X73654978Y-70524199D01*
X73532221Y-70442175D01*
X73427825Y-70337779D01*
X73345801Y-70215022D01*
X73289302Y-70078621D01*
X73260500Y-69933819D01*
X73260500Y-69786181D01*
X73289302Y-69641379D01*
X73345801Y-69504978D01*
X73427825Y-69382221D01*
X73532221Y-69277825D01*
X73654978Y-69195801D01*
X73791379Y-69139302D01*
X73915575Y-69114599D01*
X73936180Y-69110500D01*
X74083820Y-69110500D01*
X74104425Y-69114599D01*
G37*
G36*
X71564425Y-69114599D02*
G01*
X71688621Y-69139302D01*
X71825022Y-69195801D01*
X71947779Y-69277825D01*
X72052175Y-69382221D01*
X72134199Y-69504978D01*
X72190698Y-69641379D01*
X72219500Y-69786181D01*
X72219500Y-69933819D01*
X72190698Y-70078621D01*
X72134199Y-70215022D01*
X72052175Y-70337779D01*
X71947779Y-70442175D01*
X71825022Y-70524199D01*
X71688621Y-70580698D01*
X71564425Y-70605401D01*
X71543820Y-70609500D01*
X71396180Y-70609500D01*
X71375575Y-70605401D01*
X71251379Y-70580698D01*
X71114978Y-70524199D01*
X70992221Y-70442175D01*
X70887825Y-70337779D01*
X70805801Y-70215022D01*
X70749302Y-70078621D01*
X70720500Y-69933819D01*
X70720500Y-69786181D01*
X70749302Y-69641379D01*
X70805801Y-69504978D01*
X70887825Y-69382221D01*
X70992221Y-69277825D01*
X71114978Y-69195801D01*
X71251379Y-69139302D01*
X71375575Y-69114599D01*
X71396180Y-69110500D01*
X71543820Y-69110500D01*
X71564425Y-69114599D01*
G37*
G36*
X86609500Y-53249500D02*
G01*
X85110500Y-53249500D01*
X85110500Y-51750500D01*
X86609500Y-51750500D01*
X86609500Y-53249500D01*
G37*
G36*
X85954425Y-49214599D02*
G01*
X86078621Y-49239302D01*
X86215022Y-49295801D01*
X86337779Y-49377825D01*
X86442175Y-49482221D01*
X86524199Y-49604978D01*
X86580698Y-49741379D01*
X86609500Y-49886181D01*
X86609500Y-50033819D01*
X86580698Y-50178621D01*
X86524199Y-50315022D01*
X86442175Y-50437779D01*
X86337779Y-50542175D01*
X86215022Y-50624199D01*
X86078621Y-50680698D01*
X85954425Y-50705401D01*
X85933820Y-50709500D01*
X85786180Y-50709500D01*
X85765575Y-50705401D01*
X85641379Y-50680698D01*
X85504978Y-50624199D01*
X85382221Y-50542175D01*
X85277825Y-50437779D01*
X85195801Y-50315022D01*
X85139302Y-50178621D01*
X85110500Y-50033819D01*
X85110500Y-49886181D01*
X85139302Y-49741379D01*
X85195801Y-49604978D01*
X85277825Y-49482221D01*
X85382221Y-49377825D01*
X85504978Y-49295801D01*
X85641379Y-49239302D01*
X85765575Y-49214599D01*
X85786180Y-49210500D01*
X85933820Y-49210500D01*
X85954425Y-49214599D01*
G37*
G36*
X85954425Y-46674599D02*
G01*
X86078621Y-46699302D01*
X86215022Y-46755801D01*
X86337779Y-46837825D01*
X86442175Y-46942221D01*
X86524199Y-47064978D01*
X86580698Y-47201379D01*
X86609500Y-47346181D01*
X86609500Y-47493819D01*
X86580698Y-47638621D01*
X86524199Y-47775022D01*
X86442175Y-47897779D01*
X86337779Y-48002175D01*
X86215022Y-48084199D01*
X86078621Y-48140698D01*
X85954425Y-48165401D01*
X85933820Y-48169500D01*
X85786180Y-48169500D01*
X85765575Y-48165401D01*
X85641379Y-48140698D01*
X85504978Y-48084199D01*
X85382221Y-48002175D01*
X85277825Y-47897779D01*
X85195801Y-47775022D01*
X85139302Y-47638621D01*
X85110500Y-47493819D01*
X85110500Y-47346181D01*
X85139302Y-47201379D01*
X85195801Y-47064978D01*
X85277825Y-46942221D01*
X85382221Y-46837825D01*
X85504978Y-46755801D01*
X85641379Y-46699302D01*
X85765575Y-46674599D01*
X85786180Y-46670500D01*
X85933820Y-46670500D01*
X85954425Y-46674599D01*
G37*
G36*
X85954425Y-44134599D02*
G01*
X86078621Y-44159302D01*
X86215022Y-44215801D01*
X86337779Y-44297825D01*
X86442175Y-44402221D01*
X86524199Y-44524978D01*
X86580698Y-44661379D01*
X86609500Y-44806181D01*
X86609500Y-44953819D01*
X86580698Y-45098621D01*
X86524199Y-45235022D01*
X86442175Y-45357779D01*
X86337779Y-45462175D01*
X86215022Y-45544199D01*
X86078621Y-45600698D01*
X85954425Y-45625401D01*
X85933820Y-45629500D01*
X85786180Y-45629500D01*
X85765575Y-45625401D01*
X85641379Y-45600698D01*
X85504978Y-45544199D01*
X85382221Y-45462175D01*
X85277825Y-45357779D01*
X85195801Y-45235022D01*
X85139302Y-45098621D01*
X85110500Y-44953819D01*
X85110500Y-44806181D01*
X85139302Y-44661379D01*
X85195801Y-44524978D01*
X85277825Y-44402221D01*
X85382221Y-44297825D01*
X85504978Y-44215801D01*
X85641379Y-44159302D01*
X85765575Y-44134599D01*
X85786180Y-44130500D01*
X85933820Y-44130500D01*
X85954425Y-44134599D01*
G37*
G36*
X85954425Y-41594599D02*
G01*
X86078621Y-41619302D01*
X86215022Y-41675801D01*
X86337779Y-41757825D01*
X86442175Y-41862221D01*
X86524199Y-41984978D01*
X86580698Y-42121379D01*
X86609500Y-42266181D01*
X86609500Y-42413819D01*
X86580698Y-42558621D01*
X86524199Y-42695022D01*
X86442175Y-42817779D01*
X86337779Y-42922175D01*
X86215022Y-43004199D01*
X86078621Y-43060698D01*
X85954425Y-43085401D01*
X85933820Y-43089500D01*
X85786180Y-43089500D01*
X85765575Y-43085401D01*
X85641379Y-43060698D01*
X85504978Y-43004199D01*
X85382221Y-42922175D01*
X85277825Y-42817779D01*
X85195801Y-42695022D01*
X85139302Y-42558621D01*
X85110500Y-42413819D01*
X85110500Y-42266181D01*
X85139302Y-42121379D01*
X85195801Y-41984978D01*
X85277825Y-41862221D01*
X85382221Y-41757825D01*
X85504978Y-41675801D01*
X85641379Y-41619302D01*
X85765575Y-41594599D01*
X85786180Y-41590500D01*
X85933820Y-41590500D01*
X85954425Y-41594599D01*
G37*
M02*
