999
"DXF R12 Output" (www.mydxf.blogspot.com)
 0 
SECTION
 2 
HEADER
 9 
$ACADVER
 1 
AC1009
 9 
$EXTMIN
 10 
 0 
 20 
 0 
 9 
$EXTMAX
 10 
 8.5 
 20 
 11 
 0 
ENDSEC
 0 
SECTION
 2 
ENTITIES
0
LINE
8
Layer 1
10
149.940000
20
132.912000
11
149.682508
21
132.289242
0
LINE
8
Layer 1
10
149.682508
20
132.289242
11
149.060314
21
132.031185
0
LINE
8
Layer 1
10
149.060314
20
132.031185
11
148.438120
21
132.289242
0
LINE
8
Layer 1
10
148.438120
20
132.289242
11
148.180628
21
132.912000
0
LINE
8
Layer 1
10
148.180628
20
132.912000
11
148.438120
21
133.533771
0
LINE
8
Layer 1
10
148.438120
20
133.533771
11
149.060314
21
133.791686
0
LINE
8
Layer 1
10
149.060314
20
133.791686
11
149.682508
21
133.533771
0
LINE
8
Layer 1
10
149.682508
20
133.533771
11
149.940000
21
132.912000
0
LINE
8
Layer 1
10
149.940000
20
132.912000
11
149.940000
21
132.912000
0
LINE
8
Layer 1
10
104.149000
20
133.095000
11
103.890943
21
132.473336
0
LINE
8
Layer 1
10
103.890943
20
132.473336
11
103.268185
21
132.215314
0
LINE
8
Layer 1
10
103.268185
20
132.215314
11
102.646414
21
132.473336
0
LINE
8
Layer 1
10
102.646414
20
132.473336
11
102.388499
21
133.095000
0
LINE
8
Layer 1
10
102.388499
20
133.095000
11
102.646414
21
133.717758
0
LINE
8
Layer 1
10
102.646414
20
133.717758
11
103.268185
21
133.975815
0
LINE
8
Layer 1
10
103.268185
20
133.975815
11
103.890943
21
133.717758
0
LINE
8
Layer 1
10
103.890943
20
133.717758
11
104.149000
21
133.095000
0
LINE
8
Layer 1
10
104.149000
20
133.095000
11
104.149000
21
133.095000
0
LINE
8
Layer 1
10
166.070000
20
166.669000
11
166.070000
21
88.230500
0
LINE
8
Layer 1
10
86.908900
20
166.669000
11
166.070000
21
166.669000
0
LINE
8
Layer 1
10
86.908900
20
99.927200
11
86.908900
21
166.669000
0
LINE
8
Layer 1
10
109.765000
20
88.230500
11
86.908900
21
99.927200
0
LINE
8
Layer 1
10
166.070000
20
88.230500
11
109.765000
21
88.230500
0
LINE
8
Layer 1
10
164.156000
20
92.383400
11
163.898508
21
91.761065
0
LINE
8
Layer 1
10
163.898508
20
91.761065
11
163.276314
21
91.503432
0
LINE
8
Layer 1
10
163.276314
20
91.503432
11
162.654120
21
91.761066
0
LINE
8
Layer 1
10
162.654120
20
91.761066
11
162.396628
21
92.383400
0
LINE
8
Layer 1
10
162.396628
20
92.383400
11
162.654120
21
93.005488
0
LINE
8
Layer 1
10
162.654120
20
93.005488
11
163.276314
21
93.263086
0
LINE
8
Layer 1
10
163.276314
20
93.263086
11
163.898508
21
93.005488
0
LINE
8
Layer 1
10
163.898508
20
93.005488
11
164.156000
21
92.383400
0
LINE
8
Layer 1
10
164.156000
20
92.383400
11
164.156000
21
92.383400
0
LINE
8
Layer 1
10
109.268000
20
92.383400
11
109.010402
21
91.761065
0
LINE
8
Layer 1
10
109.010402
20
91.761065
11
108.388314
21
91.503432
0
LINE
8
Layer 1
10
108.388314
20
91.503432
11
107.766120
21
91.761066
0
LINE
8
Layer 1
10
107.766120
20
91.761066
11
107.508628
21
92.383400
0
LINE
8
Layer 1
10
107.508628
20
92.383400
11
107.766120
21
93.005488
0
LINE
8
Layer 1
10
107.766120
20
93.005488
11
108.388314
21
93.263086
0
LINE
8
Layer 1
10
108.388314
20
93.263086
11
109.010402
21
93.005488
0
LINE
8
Layer 1
10
109.010402
20
93.005488
11
109.268000
21
92.383400
0
LINE
8
Layer 1
10
109.268000
20
92.383400
11
109.268000
21
92.383400
0
LINE
8
Layer 1
10
25.522500
20
92.206700
11
25.264443
21
91.584612
0
LINE
8
Layer 1
10
25.264443
20
91.584612
11
24.642532
21
91.327014
0
LINE
8
Layer 1
10
24.642532
20
91.327014
11
24.019880
21
91.584612
0
LINE
8
Layer 1
10
24.019880
20
91.584612
11
23.761717
21
92.206700
0
LINE
8
Layer 1
10
23.761717
20
92.206700
11
24.019880
21
92.829035
0
LINE
8
Layer 1
10
24.019880
20
92.829035
11
24.642532
21
93.086668
0
LINE
8
Layer 1
10
24.642532
20
93.086668
11
25.264443
21
92.829035
0
LINE
8
Layer 1
10
25.264443
20
92.829035
11
25.522500
21
92.206700
0
LINE
8
Layer 1
10
25.522500
20
92.206700
11
25.522500
21
92.206700
0
LINE
8
Layer 1
10
80.410100
20
92.206700
11
80.152502
21
91.584612
0
LINE
8
Layer 1
10
80.152502
20
91.584612
11
79.530414
21
91.327014
0
LINE
8
Layer 1
10
79.530414
20
91.327014
11
78.907656
21
91.584612
0
LINE
8
Layer 1
10
78.907656
20
91.584612
11
78.649599
21
92.206700
0
LINE
8
Layer 1
10
78.649599
20
92.206700
11
78.907656
21
92.829035
0
LINE
8
Layer 1
10
78.907656
20
92.829035
11
79.530414
21
93.086668
0
LINE
8
Layer 1
10
79.530414
20
93.086668
11
80.152502
21
92.829035
0
LINE
8
Layer 1
10
80.152502
20
92.829035
11
80.410100
21
92.206700
0
LINE
8
Layer 1
10
80.410100
20
92.206700
11
80.410100
21
92.206700
0
LINE
8
Layer 1
10
74.714900
20
102.813000
11
63.515500
21
102.813000
0
LINE
8
Layer 1
10
63.283800
20
148.533000
11
52.083200
21
148.533000
0
LINE
8
Layer 1
10
49.634700
20
150.143000
11
82.322700
21
150.143000
0
LINE
8
Layer 1
10
17.563800
20
114.245000
11
6.363260
21
114.245000
0
LINE
8
Layer 1
10
67.323200
20
118.061000
11
67.323200
21
106.861000
0
LINE
8
Layer 1
10
78.523800
20
118.061000
11
67.323200
21
118.061000
0
LINE
8
Layer 1
10
21.603200
20
118.070000
11
21.603200
21
106.869000
0
LINE
8
Layer 1
10
67.323200
20
106.861000
11
78.523800
21
106.861000
0
LINE
8
Layer 1
10
55.659500
20
91.612600
11
55.659500
21
102.813000
0
LINE
8
Layer 1
10
63.283800
20
106.861000
11
63.283800
21
118.061000
0
LINE
8
Layer 1
10
63.283800
20
118.061000
11
52.083200
21
118.061000
0
LINE
8
Layer 1
10
48.043800
20
121.869000
11
36.843200
21
121.869000
0
LINE
8
Layer 1
10
36.843200
20
121.869000
11
36.843200
21
110.669000
0
LINE
8
Layer 1
10
52.083200
20
118.061000
11
52.083200
21
106.861000
0
LINE
8
Layer 1
10
32.803800
20
106.869000
11
32.803800
21
118.070000
0
LINE
8
Layer 1
10
52.083200
20
106.861000
11
63.283800
21
106.861000
0
LINE
8
Layer 1
10
78.523800
20
106.861000
11
78.523800
21
118.061000
0
LINE
8
Layer 1
10
36.843200
20
137.101000
11
36.843200
21
125.900000
0
LINE
8
Layer 1
10
52.083200
20
133.293000
11
52.083200
21
122.093000
0
LINE
8
Layer 1
10
32.803800
20
122.101000
11
32.803800
21
133.301000
0
LINE
8
Layer 1
10
52.083200
20
122.093000
11
63.283800
21
122.093000
0
LINE
8
Layer 1
10
78.523800
20
122.093000
11
78.523800
21
133.293000
0
LINE
8
Layer 1
10
17.563800
20
129.477000
11
6.363260
21
129.477000
0
LINE
8
Layer 1
10
67.323200
20
133.293000
11
67.323200
21
122.093000
0
LINE
8
Layer 1
10
78.523800
20
133.293000
11
67.323200
21
133.293000
0
LINE
8
Layer 1
10
21.603200
20
133.301000
11
21.603200
21
122.101000
0
LINE
8
Layer 1
10
67.323200
20
122.093000
11
78.523800
21
122.093000
0
LINE
8
Layer 1
10
82.322700
20
150.143000
11
82.322700
21
88.053000
0
LINE
8
Layer 1
10
3.162860
20
99.748500
11
3.162860
21
150.148000
0
LINE
8
Layer 1
10
26.018300
20
88.053000
11
3.162860
21
99.748500
0
LINE
8
Layer 1
10
82.322700
20
88.053000
11
26.018300
21
88.053000
0
LINE
8
Layer 1
10
21.603200
20
148.541000
11
21.603200
21
137.341000
0
LINE
8
Layer 1
10
29.218700
20
102.813000
11
29.218700
21
91.612600
0
LINE
8
Layer 1
10
29.218700
20
91.612600
11
40.419600
21
91.612600
0
LINE
8
Layer 1
10
40.419600
20
102.813000
11
29.218700
21
102.813000
0
LINE
8
Layer 1
10
40.419600
20
91.612600
11
40.419600
21
102.813000
0
LINE
8
Layer 1
10
35.252400
20
153.943000
11
49.634700
21
153.943000
0
LINE
8
Layer 1
10
44.458700
20
102.813000
11
44.458700
21
91.612600
0
LINE
8
Layer 1
10
44.458700
20
91.612600
11
55.659500
21
91.612600
0
LINE
8
Layer 1
10
55.659500
20
102.813000
11
44.458700
21
102.813000
0
LINE
8
Layer 1
10
36.843200
20
110.669000
11
48.043800
21
110.669000
0
LINE
8
Layer 1
10
17.563800
20
144.717000
11
6.363260
21
144.717000
0
LINE
8
Layer 1
10
48.043800
20
125.900000
11
48.043800
21
137.101000
0
LINE
8
Layer 1
10
36.843200
20
125.900000
11
48.043800
21
125.900000
0
LINE
8
Layer 1
10
21.603200
20
122.101000
11
32.803800
21
122.101000
0
LINE
8
Layer 1
10
32.803800
20
133.301000
11
21.603200
21
133.301000
0
LINE
8
Layer 1
10
17.563800
20
118.277000
11
17.563800
21
129.477000
0
LINE
8
Layer 1
10
6.363260
20
129.477000
11
6.363260
21
118.277000
0
LINE
8
Layer 1
10
6.363260
20
118.277000
11
17.563800
21
118.277000
0
LINE
8
Layer 1
10
63.283800
20
122.093000
11
63.283800
21
133.293000
0
LINE
8
Layer 1
10
63.283800
20
133.293000
11
52.083200
21
133.293000
0
LINE
8
Layer 1
10
48.043800
20
110.669000
11
48.043800
21
121.869000
0
LINE
8
Layer 1
10
67.323200
20
148.533000
11
67.323200
21
137.333000
0
LINE
8
Layer 1
10
78.523800
20
148.533000
11
67.323200
21
148.533000
0
LINE
8
Layer 1
10
78.523800
20
137.333000
11
78.523800
21
148.533000
0
LINE
8
Layer 1
10
67.323200
20
137.333000
11
78.523800
21
137.333000
0
LINE
8
Layer 1
10
48.043800
20
137.101000
11
36.843200
21
137.101000
0
LINE
8
Layer 1
10
63.283800
20
137.333000
11
63.283800
21
148.533000
0
LINE
8
Layer 1
10
48.043800
20
141.140000
11
48.043800
21
152.341000
0
LINE
8
Layer 1
10
36.843200
20
141.140000
11
48.043800
21
141.140000
0
LINE
8
Layer 1
10
48.043800
20
152.341000
11
36.843200
21
152.341000
0
LINE
8
Layer 1
10
36.843200
20
152.341000
11
36.843200
21
141.140000
0
LINE
8
Layer 1
10
52.083200
20
148.533000
11
52.083200
21
137.333000
0
LINE
8
Layer 1
10
32.803800
20
137.341000
11
32.803800
21
148.541000
0
LINE
8
Layer 1
10
52.083200
20
137.333000
11
63.283800
21
137.333000
0
LINE
8
Layer 1
10
21.603200
20
137.341000
11
32.803800
21
137.341000
0
LINE
8
Layer 1
10
32.803800
20
148.541000
11
21.603200
21
148.541000
0
LINE
8
Layer 1
10
63.515500
20
102.813000
11
63.515500
21
91.612600
0
LINE
8
Layer 1
10
74.714900
20
91.612600
11
74.714900
21
102.813000
0
LINE
8
Layer 1
10
66.194300
20
132.734000
11
65.936137
21
132.111806
0
LINE
8
Layer 1
10
65.936137
20
132.111806
11
65.313485
21
131.854314
0
LINE
8
Layer 1
10
65.313485
20
131.854314
11
64.691714
21
132.111806
0
LINE
8
Layer 1
10
64.691714
20
132.111806
11
64.433799
21
132.734000
0
LINE
8
Layer 1
10
64.433799
20
132.734000
11
64.691714
21
133.356194
0
LINE
8
Layer 1
10
64.691714
20
133.356194
11
65.313485
21
133.613686
0
LINE
8
Layer 1
10
65.313485
20
133.613686
11
65.936137
21
133.356194
0
LINE
8
Layer 1
10
65.936137
20
133.356194
11
66.194300
21
132.734000
0
LINE
8
Layer 1
10
66.194300
20
132.734000
11
66.194300
21
132.734000
0
LINE
8
Layer 1
10
35.252400
20
150.148000
11
3.162860
21
150.148000
0
LINE
8
Layer 1
10
63.515500
20
91.612600
11
74.714900
21
91.612600
0
LINE
8
Layer 1
10
20.401500
20
132.918000
11
20.144008
21
132.295912
0
LINE
8
Layer 1
10
20.144008
20
132.295912
11
19.521814
21
132.038314
0
LINE
8
Layer 1
10
19.521814
20
132.038314
11
18.899620
21
132.295912
0
LINE
8
Layer 1
10
18.899620
20
132.295912
11
18.642128
21
132.918000
0
LINE
8
Layer 1
10
18.642128
20
132.918000
11
18.899620
21
133.540335
0
LINE
8
Layer 1
10
18.899620
20
133.540335
11
19.521814
21
133.797968
0
LINE
8
Layer 1
10
19.521814
20
133.797968
11
20.144008
21
133.540335
0
LINE
8
Layer 1
10
20.144008
20
133.540335
11
20.401500
21
132.918000
0
LINE
8
Layer 1
10
20.401500
20
132.918000
11
20.401500
21
132.918000
0
LINE
8
Layer 1
10
17.563800
20
133.517000
11
17.563800
21
144.717000
0
LINE
8
Layer 1
10
49.634700
20
153.943000
11
49.634700
21
150.143000
0
LINE
8
Layer 1
10
6.363260
20
144.717000
11
6.363260
21
133.517000
0
LINE
8
Layer 1
10
35.252400
20
150.148000
11
35.252400
21
153.943000
0
LINE
8
Layer 1
10
21.603200
20
106.869000
11
32.803800
21
106.869000
0
LINE
8
Layer 1
10
32.803800
20
118.070000
11
21.603200
21
118.070000
0
LINE
8
Layer 1
10
17.563800
20
103.045000
11
17.563800
21
114.245000
0
LINE
8
Layer 1
10
6.363260
20
114.245000
11
6.363260
21
103.045000
0
LINE
8
Layer 1
10
6.363260
20
103.045000
11
17.563800
21
103.045000
0
LINE
8
Layer 1
10
6.363260
20
133.517000
11
17.563800
21
133.517000
0
LINE
8
Layer 1
10
82.130000
20
156.059000
11
49.634700
21
156.059000
0
LINE
8
Layer 1
10
34.915100
20
156.059000
11
2.969820
21
156.059000
0
LINE
8
Layer 1
10
82.130000
20
172.209000
11
82.130000
21
156.059000
0
LINE
8
Layer 1
10
2.969820
20
172.209000
11
82.130000
21
172.209000
0
LINE
8
Layer 1
10
2.969820
20
156.059000
11
2.969820
21
172.209000
0
LINE
8
Layer 1
10
32.849200
20
158.851000
11
32.591566
21
158.229230
0
LINE
8
Layer 1
10
32.591566
20
158.229230
11
31.969232
21
157.971314
0
LINE
8
Layer 1
10
31.969232
20
157.971314
11
31.347144
21
158.229230
0
LINE
8
Layer 1
10
31.347144
20
158.229230
11
31.089546
21
158.851000
0
LINE
8
Layer 1
10
31.089546
20
158.851000
11
31.347144
21
159.473758
0
LINE
8
Layer 1
10
31.347144
20
159.473758
11
31.969232
21
159.731815
0
LINE
8
Layer 1
10
31.969232
20
159.731815
11
32.591567
21
159.473758
0
LINE
8
Layer 1
10
32.591567
20
159.473758
11
32.849200
21
158.851000
0
LINE
8
Layer 1
10
32.849200
20
158.851000
11
32.849200
21
158.851000
0
LINE
8
Layer 1
10
49.634700
20
159.867000
11
34.915100
21
159.867000
0
LINE
8
Layer 1
10
34.915100
20
159.867000
11
34.915100
21
156.059000
0
LINE
8
Layer 1
10
49.634700
20
156.059000
11
49.634700
21
159.867000
0
LINE
8
Layer 1
10
80.961300
20
158.851000
11
80.703808
21
158.229230
0
LINE
8
Layer 1
10
80.703808
20
158.229230
11
80.081614
21
157.971314
0
LINE
8
Layer 1
10
80.081614
20
157.971314
11
79.459420
21
158.229230
0
LINE
8
Layer 1
10
79.459420
20
158.229230
11
79.201928
21
158.851000
0
LINE
8
Layer 1
10
79.201928
20
158.851000
11
79.459420
21
159.473758
0
LINE
8
Layer 1
10
79.459420
20
159.473758
11
80.081614
21
159.731815
0
LINE
8
Layer 1
10
80.081614
20
159.731815
11
80.703808
21
159.473758
0
LINE
8
Layer 1
10
80.703808
20
159.473758
11
80.961300
21
158.851000
0
LINE
8
Layer 1
10
80.961300
20
158.851000
11
80.961300
21
158.851000
0
LINE
8
Layer 1
10
45.745400
20
170.140000
11
45.487802
21
169.517242
0
LINE
8
Layer 1
10
45.487802
20
169.517242
11
44.865714
21
169.259185
0
LINE
8
Layer 1
10
44.865714
20
169.259185
11
44.243379
21
169.517242
0
LINE
8
Layer 1
10
44.243379
20
169.517242
11
43.985746
21
170.140000
0
LINE
8
Layer 1
10
43.985746
20
170.140000
11
44.243380
21
170.761770
0
LINE
8
Layer 1
10
44.243380
20
170.761770
11
44.865714
21
171.019686
0
LINE
8
Layer 1
10
44.865714
20
171.019686
11
45.487802
21
170.761770
0
LINE
8
Layer 1
10
45.487802
20
170.761770
11
45.745400
21
170.140000
0
LINE
8
Layer 1
10
45.745400
20
170.140000
11
45.745400
21
170.140000
0
LINE
8
Layer 1
10
80.961300
20
170.180000
11
80.703808
21
169.557806
0
LINE
8
Layer 1
10
80.703808
20
169.557806
11
80.081614
21
169.300314
0
LINE
8
Layer 1
10
80.081614
20
169.300314
11
79.459420
21
169.557806
0
LINE
8
Layer 1
10
79.459420
20
169.557806
11
79.201928
21
170.180000
0
LINE
8
Layer 1
10
79.201928
20
170.180000
11
79.459420
21
170.802088
0
LINE
8
Layer 1
10
79.459420
20
170.802088
11
80.081614
21
171.059686
0
LINE
8
Layer 1
10
80.081614
20
171.059686
11
80.703808
21
170.802088
0
LINE
8
Layer 1
10
80.703808
20
170.802088
11
80.961300
21
170.180000
0
LINE
8
Layer 1
10
80.961300
20
170.180000
11
80.961300
21
170.180000
0
LINE
8
Layer 1
10
131.698000
20
186.683000
11
131.698000
21
174.338000
0
LINE
8
Layer 1
10
131.698000
20
174.338000
11
118.977000
21
174.338000
0
LINE
8
Layer 1
10
87.034700
20
186.683000
11
131.698000
21
186.683000
0
LINE
8
Layer 1
10
118.977000
20
174.338000
11
118.977000
21
170.530000
0
LINE
8
Layer 1
10
87.034700
20
170.530000
11
87.034700
21
186.683000
0
LINE
8
Layer 1
10
118.977000
20
170.530000
11
87.034700
21
170.530000
0
LINE
8
Layer 1
10
129.809000
20
184.611000
11
129.551508
21
183.989336
0
LINE
8
Layer 1
10
129.551508
20
183.989336
11
128.929314
21
183.731314
0
LINE
8
Layer 1
10
128.929314
20
183.731314
11
128.307120
21
183.989336
0
LINE
8
Layer 1
10
128.307120
20
183.989336
11
128.049628
21
184.611000
0
LINE
8
Layer 1
10
128.049628
20
184.611000
11
128.307120
21
185.233899
0
LINE
8
Layer 1
10
128.307120
20
185.233899
11
128.929314
21
185.492097
0
LINE
8
Layer 1
10
128.929314
20
185.492097
11
129.551508
21
185.233899
0
LINE
8
Layer 1
10
129.551508
20
185.233899
11
129.809000
21
184.611000
0
LINE
8
Layer 1
10
129.809000
20
184.611000
11
129.809000
21
184.611000
0
LINE
8
Layer 1
10
116.913000
20
173.324000
11
116.655402
21
172.701912
0
LINE
8
Layer 1
10
116.655402
20
172.701912
11
116.033314
21
172.444314
0
LINE
8
Layer 1
10
116.033314
20
172.444314
11
115.410979
21
172.701912
0
LINE
8
Layer 1
10
115.410979
20
172.701912
11
115.153346
21
173.324000
0
LINE
8
Layer 1
10
115.153346
20
173.324000
11
115.410979
21
173.946758
0
LINE
8
Layer 1
10
115.410979
20
173.946758
11
116.033314
21
174.204815
0
LINE
8
Layer 1
10
116.033314
20
174.204815
11
116.655402
21
173.946758
0
LINE
8
Layer 1
10
116.655402
20
173.946758
11
116.913000
21
173.324000
0
LINE
8
Layer 1
10
116.913000
20
173.324000
11
116.913000
21
173.324000
0
LINE
8
Layer 1
10
53.320200
20
187.891000
11
53.320200
21
177.987000
0
LINE
8
Layer 1
10
63.856100
20
187.891000
11
53.320200
21
187.891000
0
LINE
8
Layer 1
10
63.856100
20
177.987000
11
63.856100
21
187.891000
0
LINE
8
Layer 1
10
53.320200
20
177.987000
11
63.856100
21
177.987000
0
LINE
8
Layer 1
10
77.873500
20
187.891000
11
67.337600
21
187.891000
0
LINE
8
Layer 1
10
67.337600
20
187.891000
11
67.337600
21
177.987000
0
LINE
8
Layer 1
10
77.873500
20
177.987000
11
77.873500
21
187.891000
0
LINE
8
Layer 1
10
67.337600
20
177.987000
11
77.873500
21
177.987000
0
LINE
8
Layer 1
10
49.632400
20
180.250000
11
34.912800
21
180.250000
0
LINE
8
Layer 1
10
2.969820
20
192.595000
11
82.130000
21
192.595000
0
LINE
8
Layer 1
10
34.912800
20
180.250000
11
34.912800
21
176.442000
0
LINE
8
Layer 1
10
49.632400
20
176.442000
11
49.632400
21
180.250000
0
LINE
8
Layer 1
10
82.130000
20
176.442000
11
49.632400
21
176.442000
0
LINE
8
Layer 1
10
2.969820
20
176.442000
11
2.969820
21
192.595000
0
LINE
8
Layer 1
10
34.912800
20
176.442000
11
2.969820
21
176.442000
0
LINE
8
Layer 1
10
32.848100
20
179.236000
11
32.590467
21
178.613101
0
LINE
8
Layer 1
10
32.590467
20
178.613101
11
31.968132
21
178.354903
0
LINE
8
Layer 1
10
31.968132
20
178.354903
11
31.346044
21
178.613101
0
LINE
8
Layer 1
10
31.346044
20
178.613101
11
31.088446
21
179.236000
0
LINE
8
Layer 1
10
31.088446
20
179.236000
11
31.346044
21
179.857664
0
LINE
8
Layer 1
10
31.346044
20
179.857664
11
31.968132
21
180.115686
0
LINE
8
Layer 1
10
31.968132
20
180.115686
11
32.590467
21
179.857664
0
LINE
8
Layer 1
10
32.590467
20
179.857664
11
32.848100
21
179.236000
0
LINE
8
Layer 1
10
32.848100
20
179.236000
11
32.848100
21
179.236000
0
LINE
8
Layer 1
10
80.960200
20
190.563000
11
80.702708
21
189.940912
0
LINE
8
Layer 1
10
80.702708
20
189.940912
11
80.080514
21
189.683314
0
LINE
8
Layer 1
10
80.080514
20
189.683314
11
79.457756
21
189.940912
0
LINE
8
Layer 1
10
79.457756
20
189.940912
11
79.199699
21
190.563000
0
LINE
8
Layer 1
10
79.199699
20
190.563000
11
79.457756
21
191.185335
0
LINE
8
Layer 1
10
79.457756
20
191.185335
11
80.080514
21
191.442968
0
LINE
8
Layer 1
10
80.080514
20
191.442968
11
80.702708
21
191.185334
0
LINE
8
Layer 1
10
80.702708
20
191.185334
11
80.960200
21
190.563000
0
LINE
8
Layer 1
10
80.960200
20
190.563000
11
80.960200
21
190.563000
0
LINE
8
Layer 1
10
45.744200
20
190.524000
11
45.486602
21
189.901665
0
LINE
8
Layer 1
10
45.486602
20
189.901665
11
44.864514
21
189.644032
0
LINE
8
Layer 1
10
44.864514
20
189.644032
11
44.241756
21
189.901666
0
LINE
8
Layer 1
10
44.241756
20
189.901666
11
43.983699
21
190.524000
0
LINE
8
Layer 1
10
43.983699
20
190.524000
11
44.241756
21
191.146088
0
LINE
8
Layer 1
10
44.241756
20
191.146088
11
44.864514
21
191.403686
0
LINE
8
Layer 1
10
44.864514
20
191.403686
11
45.486602
21
191.146088
0
LINE
8
Layer 1
10
45.486602
20
191.146088
11
45.744200
21
190.524000
0
LINE
8
Layer 1
10
45.744200
20
190.524000
11
45.744200
21
190.524000
0
LINE
8
Layer 1
10
80.960200
20
179.236000
11
80.702708
21
178.613101
0
LINE
8
Layer 1
10
80.702708
20
178.613101
11
80.080514
21
178.354903
0
LINE
8
Layer 1
10
80.080514
20
178.354903
11
79.457756
21
178.613101
0
LINE
8
Layer 1
10
79.457756
20
178.613101
11
79.199699
21
179.236000
0
LINE
8
Layer 1
10
79.199699
20
179.236000
11
79.457756
21
179.857664
0
LINE
8
Layer 1
10
79.457756
20
179.857664
11
80.080514
21
180.115686
0
LINE
8
Layer 1
10
80.080514
20
180.115686
11
80.702708
21
179.857664
0
LINE
8
Layer 1
10
80.702708
20
179.857664
11
80.960200
21
179.236000
0
LINE
8
Layer 1
10
80.960200
20
179.236000
11
80.960200
21
179.236000
0
LINE
8
Layer 1
10
82.130000
20
192.595000
11
82.130000
21
176.442000
0
LINE
8
Layer 1
10
149.940000
20
132.912000
11
149.682508
21
132.289242
0
LINE
8
Layer 1
10
149.682508
20
132.289242
11
149.060314
21
132.031185
0
LINE
8
Layer 1
10
149.060314
20
132.031185
11
148.438120
21
132.289242
0
LINE
8
Layer 1
10
148.438120
20
132.289242
11
148.180628
21
132.912000
0
LINE
8
Layer 1
10
148.180628
20
132.912000
11
148.438120
21
133.533771
0
LINE
8
Layer 1
10
148.438120
20
133.533771
11
149.060314
21
133.791686
0
LINE
8
Layer 1
10
149.060314
20
133.791686
11
149.682508
21
133.533771
0
LINE
8
Layer 1
10
149.682508
20
133.533771
11
149.940000
21
132.912000
0
LINE
8
Layer 1
10
149.940000
20
132.912000
11
149.940000
21
132.912000
0
LINE
8
Layer 1
10
104.149000
20
133.095000
11
103.890943
21
132.473336
0
LINE
8
Layer 1
10
103.890943
20
132.473336
11
103.268185
21
132.215314
0
LINE
8
Layer 1
10
103.268185
20
132.215314
11
102.646414
21
132.473336
0
LINE
8
Layer 1
10
102.646414
20
132.473336
11
102.388499
21
133.095000
0
LINE
8
Layer 1
10
102.388499
20
133.095000
11
102.646414
21
133.717758
0
LINE
8
Layer 1
10
102.646414
20
133.717758
11
103.268185
21
133.975815
0
LINE
8
Layer 1
10
103.268185
20
133.975815
11
103.890943
21
133.717758
0
LINE
8
Layer 1
10
103.890943
20
133.717758
11
104.149000
21
133.095000
0
LINE
8
Layer 1
10
104.149000
20
133.095000
11
104.149000
21
133.095000
0
LINE
8
Layer 1
10
166.070000
20
166.669000
11
166.070000
21
88.230500
0
LINE
8
Layer 1
10
86.908900
20
166.669000
11
166.070000
21
166.669000
0
LINE
8
Layer 1
10
86.908900
20
99.927200
11
86.908900
21
166.669000
0
LINE
8
Layer 1
10
109.765000
20
88.230500
11
86.908900
21
99.927200
0
LINE
8
Layer 1
10
166.070000
20
88.230500
11
109.765000
21
88.230500
0
LINE
8
Layer 1
10
164.156000
20
92.383400
11
163.898508
21
91.761065
0
LINE
8
Layer 1
10
163.898508
20
91.761065
11
163.276314
21
91.503432
0
LINE
8
Layer 1
10
163.276314
20
91.503432
11
162.654120
21
91.761066
0
LINE
8
Layer 1
10
162.654120
20
91.761066
11
162.396628
21
92.383400
0
LINE
8
Layer 1
10
162.396628
20
92.383400
11
162.654120
21
93.005488
0
LINE
8
Layer 1
10
162.654120
20
93.005488
11
163.276314
21
93.263086
0
LINE
8
Layer 1
10
163.276314
20
93.263086
11
163.898508
21
93.005488
0
LINE
8
Layer 1
10
163.898508
20
93.005488
11
164.156000
21
92.383400
0
LINE
8
Layer 1
10
164.156000
20
92.383400
11
164.156000
21
92.383400
0
LINE
8
Layer 1
10
109.268000
20
92.383400
11
109.010402
21
91.761065
0
LINE
8
Layer 1
10
109.010402
20
91.761065
11
108.388314
21
91.503432
0
LINE
8
Layer 1
10
108.388314
20
91.503432
11
107.766120
21
91.761066
0
LINE
8
Layer 1
10
107.766120
20
91.761066
11
107.508628
21
92.383400
0
LINE
8
Layer 1
10
107.508628
20
92.383400
11
107.766120
21
93.005488
0
LINE
8
Layer 1
10
107.766120
20
93.005488
11
108.388314
21
93.263086
0
LINE
8
Layer 1
10
108.388314
20
93.263086
11
109.010402
21
93.005488
0
LINE
8
Layer 1
10
109.010402
20
93.005488
11
109.268000
21
92.383400
0
LINE
8
Layer 1
10
109.268000
20
92.383400
11
109.268000
21
92.383400
0
LINE
8
Layer 1
10
25.522500
20
92.206700
11
25.264443
21
91.584612
0
LINE
8
Layer 1
10
25.264443
20
91.584612
11
24.642532
21
91.327014
0
LINE
8
Layer 1
10
24.642532
20
91.327014
11
24.019880
21
91.584612
0
LINE
8
Layer 1
10
24.019880
20
91.584612
11
23.761717
21
92.206700
0
LINE
8
Layer 1
10
23.761717
20
92.206700
11
24.019880
21
92.829035
0
LINE
8
Layer 1
10
24.019880
20
92.829035
11
24.642532
21
93.086668
0
LINE
8
Layer 1
10
24.642532
20
93.086668
11
25.264443
21
92.829035
0
LINE
8
Layer 1
10
25.264443
20
92.829035
11
25.522500
21
92.206700
0
LINE
8
Layer 1
10
25.522500
20
92.206700
11
25.522500
21
92.206700
0
LINE
8
Layer 1
10
80.410100
20
92.206700
11
80.152502
21
91.584612
0
LINE
8
Layer 1
10
80.152502
20
91.584612
11
79.530414
21
91.327014
0
LINE
8
Layer 1
10
79.530414
20
91.327014
11
78.907656
21
91.584612
0
LINE
8
Layer 1
10
78.907656
20
91.584612
11
78.649599
21
92.206700
0
LINE
8
Layer 1
10
78.649599
20
92.206700
11
78.907656
21
92.829035
0
LINE
8
Layer 1
10
78.907656
20
92.829035
11
79.530414
21
93.086668
0
LINE
8
Layer 1
10
79.530414
20
93.086668
11
80.152502
21
92.829035
0
LINE
8
Layer 1
10
80.152502
20
92.829035
11
80.410100
21
92.206700
0
LINE
8
Layer 1
10
80.410100
20
92.206700
11
80.410100
21
92.206700
0
LINE
8
Layer 1
10
74.714900
20
102.813000
11
63.515500
21
102.813000
0
LINE
8
Layer 1
10
63.283800
20
148.533000
11
52.083200
21
148.533000
0
LINE
8
Layer 1
10
49.634700
20
150.143000
11
82.322700
21
150.143000
0
LINE
8
Layer 1
10
17.563800
20
114.245000
11
6.363260
21
114.245000
0
LINE
8
Layer 1
10
67.323200
20
118.061000
11
67.323200
21
106.861000
0
LINE
8
Layer 1
10
78.523800
20
118.061000
11
67.323200
21
118.061000
0
LINE
8
Layer 1
10
21.603200
20
118.070000
11
21.603200
21
106.869000
0
LINE
8
Layer 1
10
67.323200
20
106.861000
11
78.523800
21
106.861000
0
LINE
8
Layer 1
10
55.659500
20
91.612600
11
55.659500
21
102.813000
0
LINE
8
Layer 1
10
63.283800
20
106.861000
11
63.283800
21
118.061000
0
LINE
8
Layer 1
10
63.283800
20
118.061000
11
52.083200
21
118.061000
0
LINE
8
Layer 1
10
48.043800
20
121.869000
11
36.843200
21
121.869000
0
LINE
8
Layer 1
10
36.843200
20
121.869000
11
36.843200
21
110.669000
0
LINE
8
Layer 1
10
52.083200
20
118.061000
11
52.083200
21
106.861000
0
LINE
8
Layer 1
10
32.803800
20
106.869000
11
32.803800
21
118.070000
0
LINE
8
Layer 1
10
52.083200
20
106.861000
11
63.283800
21
106.861000
0
LINE
8
Layer 1
10
78.523800
20
106.861000
11
78.523800
21
118.061000
0
LINE
8
Layer 1
10
36.843200
20
137.101000
11
36.843200
21
125.900000
0
LINE
8
Layer 1
10
52.083200
20
133.293000
11
52.083200
21
122.093000
0
LINE
8
Layer 1
10
32.803800
20
122.101000
11
32.803800
21
133.301000
0
LINE
8
Layer 1
10
52.083200
20
122.093000
11
63.283800
21
122.093000
0
LINE
8
Layer 1
10
78.523800
20
122.093000
11
78.523800
21
133.293000
0
LINE
8
Layer 1
10
17.563800
20
129.477000
11
6.363260
21
129.477000
0
LINE
8
Layer 1
10
67.323200
20
133.293000
11
67.323200
21
122.093000
0
LINE
8
Layer 1
10
78.523800
20
133.293000
11
67.323200
21
133.293000
0
LINE
8
Layer 1
10
21.603200
20
133.301000
11
21.603200
21
122.101000
0
LINE
8
Layer 1
10
67.323200
20
122.093000
11
78.523800
21
122.093000
0
LINE
8
Layer 1
10
82.322700
20
150.143000
11
82.322700
21
88.053000
0
LINE
8
Layer 1
10
3.162860
20
99.748500
11
3.162860
21
150.148000
0
LINE
8
Layer 1
10
26.018300
20
88.053000
11
3.162860
21
99.748500
0
LINE
8
Layer 1
10
82.322700
20
88.053000
11
26.018300
21
88.053000
0
LINE
8
Layer 1
10
21.603200
20
148.541000
11
21.603200
21
137.341000
0
LINE
8
Layer 1
10
29.218700
20
102.813000
11
29.218700
21
91.612600
0
LINE
8
Layer 1
10
29.218700
20
91.612600
11
40.419600
21
91.612600
0
LINE
8
Layer 1
10
40.419600
20
102.813000
11
29.218700
21
102.813000
0
LINE
8
Layer 1
10
40.419600
20
91.612600
11
40.419600
21
102.813000
0
LINE
8
Layer 1
10
35.252400
20
153.943000
11
49.634700
21
153.943000
0
LINE
8
Layer 1
10
44.458700
20
102.813000
11
44.458700
21
91.612600
0
LINE
8
Layer 1
10
44.458700
20
91.612600
11
55.659500
21
91.612600
0
LINE
8
Layer 1
10
55.659500
20
102.813000
11
44.458700
21
102.813000
0
LINE
8
Layer 1
10
36.843200
20
110.669000
11
48.043800
21
110.669000
0
LINE
8
Layer 1
10
17.563800
20
144.717000
11
6.363260
21
144.717000
0
LINE
8
Layer 1
10
48.043800
20
125.900000
11
48.043800
21
137.101000
0
LINE
8
Layer 1
10
36.843200
20
125.900000
11
48.043800
21
125.900000
0
LINE
8
Layer 1
10
21.603200
20
122.101000
11
32.803800
21
122.101000
0
LINE
8
Layer 1
10
32.803800
20
133.301000
11
21.603200
21
133.301000
0
LINE
8
Layer 1
10
17.563800
20
118.277000
11
17.563800
21
129.477000
0
LINE
8
Layer 1
10
6.363260
20
129.477000
11
6.363260
21
118.277000
0
LINE
8
Layer 1
10
6.363260
20
118.277000
11
17.563800
21
118.277000
0
LINE
8
Layer 1
10
63.283800
20
122.093000
11
63.283800
21
133.293000
0
LINE
8
Layer 1
10
63.283800
20
133.293000
11
52.083200
21
133.293000
0
LINE
8
Layer 1
10
48.043800
20
110.669000
11
48.043800
21
121.869000
0
LINE
8
Layer 1
10
67.323200
20
148.533000
11
67.323200
21
137.333000
0
LINE
8
Layer 1
10
78.523800
20
148.533000
11
67.323200
21
148.533000
0
LINE
8
Layer 1
10
78.523800
20
137.333000
11
78.523800
21
148.533000
0
LINE
8
Layer 1
10
67.323200
20
137.333000
11
78.523800
21
137.333000
0
LINE
8
Layer 1
10
48.043800
20
137.101000
11
36.843200
21
137.101000
0
LINE
8
Layer 1
10
63.283800
20
137.333000
11
63.283800
21
148.533000
0
LINE
8
Layer 1
10
48.043800
20
141.140000
11
48.043800
21
152.341000
0
LINE
8
Layer 1
10
36.843200
20
141.140000
11
48.043800
21
141.140000
0
LINE
8
Layer 1
10
48.043800
20
152.341000
11
36.843200
21
152.341000
0
LINE
8
Layer 1
10
36.843200
20
152.341000
11
36.843200
21
141.140000
0
LINE
8
Layer 1
10
52.083200
20
148.533000
11
52.083200
21
137.333000
0
LINE
8
Layer 1
10
32.803800
20
137.341000
11
32.803800
21
148.541000
0
LINE
8
Layer 1
10
52.083200
20
137.333000
11
63.283800
21
137.333000
0
LINE
8
Layer 1
10
21.603200
20
137.341000
11
32.803800
21
137.341000
0
LINE
8
Layer 1
10
32.803800
20
148.541000
11
21.603200
21
148.541000
0
LINE
8
Layer 1
10
63.515500
20
102.813000
11
63.515500
21
91.612600
0
LINE
8
Layer 1
10
74.714900
20
91.612600
11
74.714900
21
102.813000
0
LINE
8
Layer 1
10
66.194300
20
132.734000
11
65.936137
21
132.111806
0
LINE
8
Layer 1
10
65.936137
20
132.111806
11
65.313485
21
131.854314
0
LINE
8
Layer 1
10
65.313485
20
131.854314
11
64.691714
21
132.111806
0
LINE
8
Layer 1
10
64.691714
20
132.111806
11
64.433799
21
132.734000
0
LINE
8
Layer 1
10
64.433799
20
132.734000
11
64.691714
21
133.356194
0
LINE
8
Layer 1
10
64.691714
20
133.356194
11
65.313485
21
133.613686
0
LINE
8
Layer 1
10
65.313485
20
133.613686
11
65.936137
21
133.356194
0
LINE
8
Layer 1
10
65.936137
20
133.356194
11
66.194300
21
132.734000
0
LINE
8
Layer 1
10
66.194300
20
132.734000
11
66.194300
21
132.734000
0
LINE
8
Layer 1
10
35.252400
20
150.148000
11
3.162860
21
150.148000
0
LINE
8
Layer 1
10
63.515500
20
91.612600
11
74.714900
21
91.612600
0
LINE
8
Layer 1
10
20.401500
20
132.918000
11
20.144008
21
132.295912
0
LINE
8
Layer 1
10
20.144008
20
132.295912
11
19.521814
21
132.038314
0
LINE
8
Layer 1
10
19.521814
20
132.038314
11
18.899620
21
132.295912
0
LINE
8
Layer 1
10
18.899620
20
132.295912
11
18.642128
21
132.918000
0
LINE
8
Layer 1
10
18.642128
20
132.918000
11
18.899620
21
133.540335
0
LINE
8
Layer 1
10
18.899620
20
133.540335
11
19.521814
21
133.797968
0
LINE
8
Layer 1
10
19.521814
20
133.797968
11
20.144008
21
133.540335
0
LINE
8
Layer 1
10
20.144008
20
133.540335
11
20.401500
21
132.918000
0
LINE
8
Layer 1
10
20.401500
20
132.918000
11
20.401500
21
132.918000
0
LINE
8
Layer 1
10
17.563800
20
133.517000
11
17.563800
21
144.717000
0
LINE
8
Layer 1
10
49.634700
20
153.943000
11
49.634700
21
150.143000
0
LINE
8
Layer 1
10
6.363260
20
144.717000
11
6.363260
21
133.517000
0
LINE
8
Layer 1
10
35.252400
20
150.148000
11
35.252400
21
153.943000
0
LINE
8
Layer 1
10
21.603200
20
106.869000
11
32.803800
21
106.869000
0
LINE
8
Layer 1
10
32.803800
20
118.070000
11
21.603200
21
118.070000
0
LINE
8
Layer 1
10
17.563800
20
103.045000
11
17.563800
21
114.245000
0
LINE
8
Layer 1
10
6.363260
20
114.245000
11
6.363260
21
103.045000
0
LINE
8
Layer 1
10
6.363260
20
103.045000
11
17.563800
21
103.045000
0
LINE
8
Layer 1
10
6.363260
20
133.517000
11
17.563800
21
133.517000
0
LINE
8
Layer 1
10
82.130000
20
156.059000
11
49.634700
21
156.059000
0
LINE
8
Layer 1
10
34.915100
20
156.059000
11
2.969820
21
156.059000
0
LINE
8
Layer 1
10
82.130000
20
172.209000
11
82.130000
21
156.059000
0
LINE
8
Layer 1
10
2.969820
20
172.209000
11
82.130000
21
172.209000
0
LINE
8
Layer 1
10
2.969820
20
156.059000
11
2.969820
21
172.209000
0
LINE
8
Layer 1
10
32.849200
20
158.851000
11
32.591566
21
158.229230
0
LINE
8
Layer 1
10
32.591566
20
158.229230
11
31.969232
21
157.971314
0
LINE
8
Layer 1
10
31.969232
20
157.971314
11
31.347144
21
158.229230
0
LINE
8
Layer 1
10
31.347144
20
158.229230
11
31.089546
21
158.851000
0
LINE
8
Layer 1
10
31.089546
20
158.851000
11
31.347144
21
159.473758
0
LINE
8
Layer 1
10
31.347144
20
159.473758
11
31.969232
21
159.731815
0
LINE
8
Layer 1
10
31.969232
20
159.731815
11
32.591567
21
159.473758
0
LINE
8
Layer 1
10
32.591567
20
159.473758
11
32.849200
21
158.851000
0
LINE
8
Layer 1
10
32.849200
20
158.851000
11
32.849200
21
158.851000
0
LINE
8
Layer 1
10
49.634700
20
159.867000
11
34.915100
21
159.867000
0
LINE
8
Layer 1
10
34.915100
20
159.867000
11
34.915100
21
156.059000
0
LINE
8
Layer 1
10
49.634700
20
156.059000
11
49.634700
21
159.867000
0
LINE
8
Layer 1
10
80.961300
20
158.851000
11
80.703808
21
158.229230
0
LINE
8
Layer 1
10
80.703808
20
158.229230
11
80.081614
21
157.971314
0
LINE
8
Layer 1
10
80.081614
20
157.971314
11
79.459420
21
158.229230
0
LINE
8
Layer 1
10
79.459420
20
158.229230
11
79.201928
21
158.851000
0
LINE
8
Layer 1
10
79.201928
20
158.851000
11
79.459420
21
159.473758
0
LINE
8
Layer 1
10
79.459420
20
159.473758
11
80.081614
21
159.731815
0
LINE
8
Layer 1
10
80.081614
20
159.731815
11
80.703808
21
159.473758
0
LINE
8
Layer 1
10
80.703808
20
159.473758
11
80.961300
21
158.851000
0
LINE
8
Layer 1
10
80.961300
20
158.851000
11
80.961300
21
158.851000
0
LINE
8
Layer 1
10
45.745400
20
170.140000
11
45.487802
21
169.517242
0
LINE
8
Layer 1
10
45.487802
20
169.517242
11
44.865714
21
169.259185
0
LINE
8
Layer 1
10
44.865714
20
169.259185
11
44.243379
21
169.517242
0
LINE
8
Layer 1
10
44.243379
20
169.517242
11
43.985746
21
170.140000
0
LINE
8
Layer 1
10
43.985746
20
170.140000
11
44.243380
21
170.761770
0
LINE
8
Layer 1
10
44.243380
20
170.761770
11
44.865714
21
171.019686
0
LINE
8
Layer 1
10
44.865714
20
171.019686
11
45.487802
21
170.761770
0
LINE
8
Layer 1
10
45.487802
20
170.761770
11
45.745400
21
170.140000
0
LINE
8
Layer 1
10
45.745400
20
170.140000
11
45.745400
21
170.140000
0
LINE
8
Layer 1
10
80.961300
20
170.180000
11
80.703808
21
169.557806
0
LINE
8
Layer 1
10
80.703808
20
169.557806
11
80.081614
21
169.300314
0
LINE
8
Layer 1
10
80.081614
20
169.300314
11
79.459420
21
169.557806
0
LINE
8
Layer 1
10
79.459420
20
169.557806
11
79.201928
21
170.180000
0
LINE
8
Layer 1
10
79.201928
20
170.180000
11
79.459420
21
170.802088
0
LINE
8
Layer 1
10
79.459420
20
170.802088
11
80.081614
21
171.059686
0
LINE
8
Layer 1
10
80.081614
20
171.059686
11
80.703808
21
170.802088
0
LINE
8
Layer 1
10
80.703808
20
170.802088
11
80.961300
21
170.180000
0
LINE
8
Layer 1
10
80.961300
20
170.180000
11
80.961300
21
170.180000
0
LINE
8
Layer 1
10
131.698000
20
186.683000
11
131.698000
21
174.338000
0
LINE
8
Layer 1
10
131.698000
20
174.338000
11
118.977000
21
174.338000
0
LINE
8
Layer 1
10
87.034700
20
186.683000
11
131.698000
21
186.683000
0
LINE
8
Layer 1
10
118.977000
20
174.338000
11
118.977000
21
170.530000
0
LINE
8
Layer 1
10
87.034700
20
170.530000
11
87.034700
21
186.683000
0
LINE
8
Layer 1
10
118.977000
20
170.530000
11
87.034700
21
170.530000
0
LINE
8
Layer 1
10
129.809000
20
184.611000
11
129.551508
21
183.989336
0
LINE
8
Layer 1
10
129.551508
20
183.989336
11
128.929314
21
183.731314
0
LINE
8
Layer 1
10
128.929314
20
183.731314
11
128.307120
21
183.989336
0
LINE
8
Layer 1
10
128.307120
20
183.989336
11
128.049628
21
184.611000
0
LINE
8
Layer 1
10
128.049628
20
184.611000
11
128.307120
21
185.233899
0
LINE
8
Layer 1
10
128.307120
20
185.233899
11
128.929314
21
185.492097
0
LINE
8
Layer 1
10
128.929314
20
185.492097
11
129.551508
21
185.233899
0
LINE
8
Layer 1
10
129.551508
20
185.233899
11
129.809000
21
184.611000
0
LINE
8
Layer 1
10
129.809000
20
184.611000
11
129.809000
21
184.611000
0
LINE
8
Layer 1
10
116.913000
20
173.324000
11
116.655402
21
172.701912
0
LINE
8
Layer 1
10
116.655402
20
172.701912
11
116.033314
21
172.444314
0
LINE
8
Layer 1
10
116.033314
20
172.444314
11
115.410979
21
172.701912
0
LINE
8
Layer 1
10
115.410979
20
172.701912
11
115.153346
21
173.324000
0
LINE
8
Layer 1
10
115.153346
20
173.324000
11
115.410979
21
173.946758
0
LINE
8
Layer 1
10
115.410979
20
173.946758
11
116.033314
21
174.204815
0
LINE
8
Layer 1
10
116.033314
20
174.204815
11
116.655402
21
173.946758
0
LINE
8
Layer 1
10
116.655402
20
173.946758
11
116.913000
21
173.324000
0
LINE
8
Layer 1
10
116.913000
20
173.324000
11
116.913000
21
173.324000
0
LINE
8
Layer 1
10
53.320200
20
187.891000
11
53.320200
21
177.987000
0
LINE
8
Layer 1
10
63.856100
20
187.891000
11
53.320200
21
187.891000
0
LINE
8
Layer 1
10
63.856100
20
177.987000
11
63.856100
21
187.891000
0
LINE
8
Layer 1
10
53.320200
20
177.987000
11
63.856100
21
177.987000
0
LINE
8
Layer 1
10
77.873500
20
187.891000
11
67.337600
21
187.891000
0
LINE
8
Layer 1
10
67.337600
20
187.891000
11
67.337600
21
177.987000
0
LINE
8
Layer 1
10
77.873500
20
177.987000
11
77.873500
21
187.891000
0
LINE
8
Layer 1
10
67.337600
20
177.987000
11
77.873500
21
177.987000
0
LINE
8
Layer 1
10
49.632400
20
180.250000
11
34.912800
21
180.250000
0
LINE
8
Layer 1
10
2.969820
20
192.595000
11
82.130000
21
192.595000
0
LINE
8
Layer 1
10
34.912800
20
180.250000
11
34.912800
21
176.442000
0
LINE
8
Layer 1
10
49.632400
20
176.442000
11
49.632400
21
180.250000
0
LINE
8
Layer 1
10
82.130000
20
176.442000
11
49.632400
21
176.442000
0
LINE
8
Layer 1
10
2.969820
20
176.442000
11
2.969820
21
192.595000
0
LINE
8
Layer 1
10
34.912800
20
176.442000
11
2.969820
21
176.442000
0
LINE
8
Layer 1
10
32.848100
20
179.236000
11
32.590467
21
178.613101
0
LINE
8
Layer 1
10
32.590467
20
178.613101
11
31.968132
21
178.354903
0
LINE
8
Layer 1
10
31.968132
20
178.354903
11
31.346044
21
178.613101
0
LINE
8
Layer 1
10
31.346044
20
178.613101
11
31.088446
21
179.236000
0
LINE
8
Layer 1
10
31.088446
20
179.236000
11
31.346044
21
179.857664
0
LINE
8
Layer 1
10
31.346044
20
179.857664
11
31.968132
21
180.115686
0
LINE
8
Layer 1
10
31.968132
20
180.115686
11
32.590467
21
179.857664
0
LINE
8
Layer 1
10
32.590467
20
179.857664
11
32.848100
21
179.236000
0
LINE
8
Layer 1
10
32.848100
20
179.236000
11
32.848100
21
179.236000
0
LINE
8
Layer 1
10
80.960200
20
190.563000
11
80.702708
21
189.940912
0
LINE
8
Layer 1
10
80.702708
20
189.940912
11
80.080514
21
189.683314
0
LINE
8
Layer 1
10
80.080514
20
189.683314
11
79.457756
21
189.940912
0
LINE
8
Layer 1
10
79.457756
20
189.940912
11
79.199699
21
190.563000
0
LINE
8
Layer 1
10
79.199699
20
190.563000
11
79.457756
21
191.185335
0
LINE
8
Layer 1
10
79.457756
20
191.185335
11
80.080514
21
191.442968
0
LINE
8
Layer 1
10
80.080514
20
191.442968
11
80.702708
21
191.185334
0
LINE
8
Layer 1
10
80.702708
20
191.185334
11
80.960200
21
190.563000
0
LINE
8
Layer 1
10
80.960200
20
190.563000
11
80.960200
21
190.563000
0
LINE
8
Layer 1
10
45.744200
20
190.524000
11
45.486602
21
189.901665
0
LINE
8
Layer 1
10
45.486602
20
189.901665
11
44.864514
21
189.644032
0
LINE
8
Layer 1
10
44.864514
20
189.644032
11
44.241756
21
189.901666
0
LINE
8
Layer 1
10
44.241756
20
189.901666
11
43.983699
21
190.524000
0
LINE
8
Layer 1
10
43.983699
20
190.524000
11
44.241756
21
191.146088
0
LINE
8
Layer 1
10
44.241756
20
191.146088
11
44.864514
21
191.403686
0
LINE
8
Layer 1
10
44.864514
20
191.403686
11
45.486602
21
191.146088
0
LINE
8
Layer 1
10
45.486602
20
191.146088
11
45.744200
21
190.524000
0
LINE
8
Layer 1
10
45.744200
20
190.524000
11
45.744200
21
190.524000
0
LINE
8
Layer 1
10
80.960200
20
179.236000
11
80.702708
21
178.613101
0
LINE
8
Layer 1
10
80.702708
20
178.613101
11
80.080514
21
178.354903
0
LINE
8
Layer 1
10
80.080514
20
178.354903
11
79.457756
21
178.613101
0
LINE
8
Layer 1
10
79.457756
20
178.613101
11
79.199699
21
179.236000
0
LINE
8
Layer 1
10
79.199699
20
179.236000
11
79.457756
21
179.857664
0
LINE
8
Layer 1
10
79.457756
20
179.857664
11
80.080514
21
180.115686
0
LINE
8
Layer 1
10
80.080514
20
180.115686
11
80.702708
21
179.857664
0
LINE
8
Layer 1
10
80.702708
20
179.857664
11
80.960200
21
179.236000
0
LINE
8
Layer 1
10
80.960200
20
179.236000
11
80.960200
21
179.236000
0
LINE
8
Layer 1
10
82.130000
20
192.595000
11
82.130000
21
176.442000
 0 
ENDSEC
 0 
EOF