G04 #@! TF.GenerationSoftware,KiCad,Pcbnew,(5.1.6-0-10_14)*
G04 #@! TF.CreationDate,2022-12-26T18:07:59+09:00*
G04 #@! TF.ProjectId,cool536trackballparts,636f6f6c-3533-4367-9472-61636b62616c,rev?*
G04 #@! TF.SameCoordinates,Original*
G04 #@! TF.FileFunction,Copper,L2,Bot*
G04 #@! TF.FilePolarity,Positive*
%FSLAX46Y46*%
G04 Gerber Fmt 4.6, Leading zero omitted, Abs format (unit mm)*
G04 Created by KiCad (PCBNEW (5.1.6-0-10_14)) date 2022-12-26 18:07:59*
%MOMM*%
%LPD*%
G01*
G04 APERTURE LIST*
G04 #@! TA.AperFunction,ComponentPad*
%ADD10C,1.397000*%
G04 #@! TD*
G04 #@! TA.AperFunction,ComponentPad*
%ADD11R,1.397000X1.397000*%
G04 #@! TD*
G04 #@! TA.AperFunction,ViaPad*
%ADD12C,0.800000*%
G04 #@! TD*
G04 #@! TA.AperFunction,Conductor*
%ADD13C,0.250000*%
G04 #@! TD*
G04 APERTURE END LIST*
D10*
X79090000Y-69860000D03*
X76550000Y-69860000D03*
X74010000Y-69860000D03*
X71470000Y-69860000D03*
X85860000Y-42340000D03*
X85860000Y-44880000D03*
X85860000Y-47420000D03*
X85860000Y-49960000D03*
D11*
X85860000Y-52500000D03*
D12*
X74020000Y-52350000D03*
X81370000Y-52310000D03*
D13*
X85860000Y-47420000D02*
X85840000Y-47440000D01*
X85840000Y-47440000D02*
X76990000Y-47440000D01*
X76550000Y-47880000D02*
X76550000Y-69860000D01*
X76990000Y-47440000D02*
X76550000Y-47880000D01*
X79090000Y-69860000D02*
X80554499Y-68395501D01*
X80554499Y-68395501D02*
X80554499Y-50815501D01*
X80554499Y-50815501D02*
X81410000Y-49960000D01*
X81410000Y-49960000D02*
X85860000Y-49960000D01*
X85820000Y-52540000D02*
X85860000Y-52500000D01*
X85670000Y-52310000D02*
X85860000Y-52500000D01*
X74010000Y-69860000D02*
X74010000Y-52360000D01*
X81370000Y-52310000D02*
X85670000Y-52310000D01*
X74010000Y-52360000D02*
X74020000Y-52350000D01*
X72570000Y-42340000D02*
X85860000Y-42340000D01*
X71470000Y-69860000D02*
X71470000Y-43440000D01*
X71470000Y-43440000D02*
X72570000Y-42340000D01*
M02*
