M48
; DRILL file {KiCad (5.1.6-0-10_14)} date Saturday, July 16, 2022 at 11:36:21 PM
; FORMAT={-:-/ absolute / metric / decimal}
; #@! TF.CreationDate,2022-07-16T23:36:21+09:00
; #@! TF.GenerationSoftware,Kicad,Pcbnew,(5.1.6-0-10_14)
; #@! TF.FileFunction,NonPlated,1,2,NPTH
FMAT,2
METRIC
T1C1.200
T2C1.700
T3C1.900
T4C3.000
T5C4.000
%
G90
G05
T1
X33.33Y23.16
X33.33Y16.16
X35.08Y23.16
X35.08Y16.16
T2
X66.358Y-61.912
X76.518Y-61.912
X42.545Y-61.912
X52.705Y-61.912
X-5.08Y-47.625
X5.08Y-47.625
X71.12Y-4.762
X81.28Y-4.762
X-5.08Y-28.575
X5.08Y-28.575
X23.495Y-61.912
X33.655Y-61.912
X52.07Y-42.862
X62.23Y-42.862
X71.12Y-23.812
X81.28Y-23.812
X33.02Y0.0
X43.18Y0.0
X33.02Y-38.1
X43.18Y-38.1
X13.97Y-23.812
X24.13Y-23.812
X-5.08Y-9.525
X5.08Y-9.525
X52.07Y-4.762
X62.23Y-4.762
X33.02Y-19.05
X43.18Y-19.05
X52.07Y-23.812
X62.23Y-23.812
X13.97Y-4.762
X24.13Y-4.762
X71.12Y-42.862
X81.28Y-42.862
X13.97Y-42.862
X24.13Y-42.862
T3
X13.55Y-42.862
X24.55Y-42.862
X65.938Y-61.912
X76.938Y-61.912
X42.125Y-61.912
X53.125Y-61.912
X-5.5Y-47.625
X5.5Y-47.625
X70.7Y-4.762
X81.7Y-4.762
X-5.5Y-28.575
X5.5Y-28.575
X23.075Y-61.912
X34.075Y-61.912
X51.65Y-42.862
X62.65Y-42.862
X70.7Y-23.812
X81.7Y-23.812
X32.6Y0.0
X43.6Y0.0
X32.6Y-38.1
X43.6Y-38.1
X13.55Y-23.812
X24.55Y-23.812
X-5.5Y-9.525
X5.5Y-9.525
X51.65Y-4.762
X62.65Y-4.762
X32.6Y-19.05
X43.6Y-19.05
X51.65Y-23.812
X62.65Y-23.812
X13.55Y-4.762
X24.55Y-4.762
X70.7Y-42.862
X81.7Y-42.862
T4
X14.05Y-46.562
X15.24Y-40.322
X16.51Y-37.782
X19.05Y-48.762
X21.59Y-37.782
X22.86Y-40.322
X24.05Y-46.562
X66.438Y-65.612
X67.628Y-59.372
X68.898Y-56.832
X71.438Y-67.812
X73.978Y-56.832
X75.248Y-59.372
X76.438Y-65.612
X42.625Y-65.612
X43.815Y-59.372
X45.085Y-56.832
X47.625Y-67.812
X50.165Y-56.832
X51.435Y-59.372
X52.625Y-65.612
X-5.0Y-51.325
X-3.81Y-45.085
X-2.54Y-42.545
X0.0Y-53.525
X2.54Y-42.545
X3.81Y-45.085
X5.0Y-51.325
X71.2Y-8.462
X72.39Y-2.222
X73.66Y0.318
X76.2Y-10.662
X78.74Y0.318
X80.01Y-2.222
X81.2Y-8.462
X-5.0Y-32.275
X-3.81Y-26.035
X-2.54Y-23.495
X0.0Y-34.475
X2.54Y-23.495
X3.81Y-26.035
X5.0Y-32.275
X23.575Y-65.612
X24.765Y-59.372
X26.035Y-56.832
X28.575Y-67.812
X31.115Y-56.832
X32.385Y-59.372
X33.575Y-65.612
X52.15Y-46.562
X53.34Y-40.322
X54.61Y-37.782
X57.15Y-48.762
X59.69Y-37.782
X60.96Y-40.322
X62.15Y-46.562
X71.2Y-27.512
X72.39Y-21.272
X73.66Y-18.732
X76.2Y-29.712
X78.74Y-18.732
X80.01Y-21.272
X81.2Y-27.512
X33.1Y-3.7
X34.29Y2.54
X35.56Y5.08
X38.1Y-5.9
X40.64Y5.08
X41.91Y2.54
X43.1Y-3.7
X33.1Y-41.8
X34.29Y-35.56
X35.56Y-33.02
X38.1Y-44.0
X40.64Y-33.02
X41.91Y-35.56
X43.1Y-41.8
X14.05Y-27.512
X15.24Y-21.272
X16.51Y-18.732
X19.05Y-29.712
X21.59Y-18.732
X22.86Y-21.272
X24.05Y-27.512
X-5.0Y-13.225
X-3.81Y-6.985
X-2.54Y-4.445
X0.0Y-15.425
X2.54Y-4.445
X3.81Y-6.985
X5.0Y-13.225
X52.15Y-8.462
X53.34Y-2.222
X54.61Y0.318
X57.15Y-10.662
X59.69Y0.318
X60.96Y-2.222
X62.15Y-8.462
X33.1Y-22.75
X34.29Y-16.51
X35.56Y-13.97
X38.1Y-24.95
X40.64Y-13.97
X41.91Y-16.51
X43.1Y-22.75
X52.15Y-27.512
X53.34Y-21.272
X54.61Y-18.732
X57.15Y-29.712
X59.69Y-18.732
X60.96Y-21.272
X62.15Y-27.512
X14.05Y-8.462
X15.24Y-2.222
X16.51Y0.318
X19.05Y-10.662
X21.59Y0.318
X22.86Y-2.222
X24.05Y-8.462
X71.2Y-46.562
X72.39Y-40.322
X73.66Y-37.782
X76.2Y-48.762
X78.74Y-37.782
X80.01Y-40.322
X81.2Y-46.562
T5
X47.625Y-61.912
X0.0Y-47.625
X76.2Y-4.762
X0.0Y-28.575
X28.575Y-61.912
X57.15Y-42.862
X76.2Y-23.812
X38.1Y0.0
X38.1Y-38.1
X19.05Y-23.812
X0.0Y-9.525
X57.15Y-4.762
X38.1Y-19.05
X57.15Y-23.812
X19.05Y-4.762
X76.2Y-42.862
X19.05Y-42.862
X71.438Y-61.912
T0
M30
