G04 #@! TF.GenerationSoftware,KiCad,Pcbnew,(5.1.6-0-10_14)*
G04 #@! TF.CreationDate,2022-12-26T18:06:38+09:00*
G04 #@! TF.ProjectId,cool536trackballparts,636f6f6c-3533-4367-9472-61636b62616c,rev?*
G04 #@! TF.SameCoordinates,Original*
G04 #@! TF.FileFunction,Legend,Top*
G04 #@! TF.FilePolarity,Positive*
%FSLAX46Y46*%
G04 Gerber Fmt 4.6, Leading zero omitted, Abs format (unit mm)*
G04 Created by KiCad (PCBNEW (5.1.6-0-10_14)) date 2022-12-26 18:06:38*
%MOMM*%
%LPD*%
G01*
G04 APERTURE LIST*
%ADD10C,0.150000*%
G04 APERTURE END LIST*
D10*
X53892380Y-54661428D02*
X53892380Y-54090000D01*
X54892380Y-54375714D02*
X53892380Y-54375714D01*
X54892380Y-53756666D02*
X54225714Y-53756666D01*
X54416190Y-53756666D02*
X54320952Y-53709047D01*
X54273333Y-53661428D01*
X54225714Y-53566190D01*
X54225714Y-53470952D01*
X54892380Y-52709047D02*
X54368571Y-52709047D01*
X54273333Y-52756666D01*
X54225714Y-52851904D01*
X54225714Y-53042380D01*
X54273333Y-53137619D01*
X54844761Y-52709047D02*
X54892380Y-52804285D01*
X54892380Y-53042380D01*
X54844761Y-53137619D01*
X54749523Y-53185238D01*
X54654285Y-53185238D01*
X54559047Y-53137619D01*
X54511428Y-53042380D01*
X54511428Y-52804285D01*
X54463809Y-52709047D01*
X54844761Y-51804285D02*
X54892380Y-51899523D01*
X54892380Y-52090000D01*
X54844761Y-52185238D01*
X54797142Y-52232857D01*
X54701904Y-52280476D01*
X54416190Y-52280476D01*
X54320952Y-52232857D01*
X54273333Y-52185238D01*
X54225714Y-52090000D01*
X54225714Y-51899523D01*
X54273333Y-51804285D01*
X54892380Y-51232857D02*
X54844761Y-51328095D01*
X54749523Y-51375714D01*
X53892380Y-51375714D01*
X54892380Y-50090000D02*
X53892380Y-50090000D01*
X54273333Y-50090000D02*
X54225714Y-49994761D01*
X54225714Y-49804285D01*
X54273333Y-49709047D01*
X54320952Y-49661428D01*
X54416190Y-49613809D01*
X54701904Y-49613809D01*
X54797142Y-49661428D01*
X54844761Y-49709047D01*
X54892380Y-49804285D01*
X54892380Y-49994761D01*
X54844761Y-50090000D01*
X54892380Y-48756666D02*
X54368571Y-48756666D01*
X54273333Y-48804285D01*
X54225714Y-48899523D01*
X54225714Y-49090000D01*
X54273333Y-49185238D01*
X54844761Y-48756666D02*
X54892380Y-48851904D01*
X54892380Y-49090000D01*
X54844761Y-49185238D01*
X54749523Y-49232857D01*
X54654285Y-49232857D01*
X54559047Y-49185238D01*
X54511428Y-49090000D01*
X54511428Y-48851904D01*
X54463809Y-48756666D01*
X54892380Y-48137619D02*
X54844761Y-48232857D01*
X54749523Y-48280476D01*
X53892380Y-48280476D01*
X54892380Y-47613809D02*
X54844761Y-47709047D01*
X54749523Y-47756666D01*
X53892380Y-47756666D01*
X54892380Y-46328095D02*
X54844761Y-46423333D01*
X54749523Y-46470952D01*
X53892380Y-46470952D01*
X54844761Y-45566190D02*
X54892380Y-45661428D01*
X54892380Y-45851904D01*
X54844761Y-45947142D01*
X54749523Y-45994761D01*
X54368571Y-45994761D01*
X54273333Y-45947142D01*
X54225714Y-45851904D01*
X54225714Y-45661428D01*
X54273333Y-45566190D01*
X54368571Y-45518571D01*
X54463809Y-45518571D01*
X54559047Y-45994761D01*
X54225714Y-45232857D02*
X54225714Y-44851904D01*
X54892380Y-45090000D02*
X54035238Y-45090000D01*
X53940000Y-45042380D01*
X53892380Y-44947142D01*
X53892380Y-44851904D01*
X54225714Y-44661428D02*
X54225714Y-44280476D01*
X53892380Y-44518571D02*
X54749523Y-44518571D01*
X54844761Y-44470952D01*
X54892380Y-44375714D01*
X54892380Y-44280476D01*
X54225714Y-43185238D02*
X55225714Y-43185238D01*
X54273333Y-43185238D02*
X54225714Y-43090000D01*
X54225714Y-42899523D01*
X54273333Y-42804285D01*
X54320952Y-42756666D01*
X54416190Y-42709047D01*
X54701904Y-42709047D01*
X54797142Y-42756666D01*
X54844761Y-42804285D01*
X54892380Y-42899523D01*
X54892380Y-43090000D01*
X54844761Y-43185238D01*
X54892380Y-41851904D02*
X54368571Y-41851904D01*
X54273333Y-41899523D01*
X54225714Y-41994761D01*
X54225714Y-42185238D01*
X54273333Y-42280476D01*
X54844761Y-41851904D02*
X54892380Y-41947142D01*
X54892380Y-42185238D01*
X54844761Y-42280476D01*
X54749523Y-42328095D01*
X54654285Y-42328095D01*
X54559047Y-42280476D01*
X54511428Y-42185238D01*
X54511428Y-41947142D01*
X54463809Y-41851904D01*
X54892380Y-41375714D02*
X54225714Y-41375714D01*
X54416190Y-41375714D02*
X54320952Y-41328095D01*
X54273333Y-41280476D01*
X54225714Y-41185238D01*
X54225714Y-41090000D01*
X54225714Y-40899523D02*
X54225714Y-40518571D01*
X53892380Y-40756666D02*
X54749523Y-40756666D01*
X54844761Y-40709047D01*
X54892380Y-40613809D01*
X54892380Y-40518571D01*
X45717619Y-67942380D02*
X45908095Y-67942380D01*
X46003333Y-67990000D01*
X46098571Y-68085238D01*
X46146190Y-68275714D01*
X46146190Y-68609047D01*
X46098571Y-68799523D01*
X46003333Y-68894761D01*
X45908095Y-68942380D01*
X45717619Y-68942380D01*
X45622380Y-68894761D01*
X45527142Y-68799523D01*
X45479523Y-68609047D01*
X45479523Y-68275714D01*
X45527142Y-68085238D01*
X45622380Y-67990000D01*
X45717619Y-67942380D01*
X47050952Y-68942380D02*
X46574761Y-68942380D01*
X46574761Y-67942380D01*
X47384285Y-68418571D02*
X47717619Y-68418571D01*
X47860476Y-68942380D02*
X47384285Y-68942380D01*
X47384285Y-67942380D01*
X47860476Y-67942380D01*
X48289047Y-68942380D02*
X48289047Y-67942380D01*
X48527142Y-67942380D01*
X48670000Y-67990000D01*
X48765238Y-68085238D01*
X48812857Y-68180476D01*
X48860476Y-68370952D01*
X48860476Y-68513809D01*
X48812857Y-68704285D01*
X48765238Y-68799523D01*
X48670000Y-68894761D01*
X48527142Y-68942380D01*
X48289047Y-68942380D01*
M02*
