G04 #@! TF.GenerationSoftware,KiCad,Pcbnew,(5.1.6-0-10_14)*
G04 #@! TF.CreationDate,2022-09-03T20:20:15+09:00*
G04 #@! TF.ProjectId,cool536,636f6f6c-3533-4362-9e6b-696361645f70,rev?*
G04 #@! TF.SameCoordinates,Original*
G04 #@! TF.FileFunction,Legend,Top*
G04 #@! TF.FilePolarity,Positive*
%FSLAX46Y46*%
G04 Gerber Fmt 4.6, Leading zero omitted, Abs format (unit mm)*
G04 Created by KiCad (PCBNEW (5.1.6-0-10_14)) date 2022-09-03 20:20:15*
%MOMM*%
%LPD*%
G01*
G04 APERTURE LIST*
%ADD10C,0.150000*%
G04 APERTURE END LIST*
D10*
X170966666Y70148619D02*
X170633333Y70624809D01*
X170395238Y70148619D02*
X170395238Y71148619D01*
X170776190Y71148619D01*
X170871428Y71101000D01*
X170919047Y71053380D01*
X170966666Y70958142D01*
X170966666Y70815285D01*
X170919047Y70720047D01*
X170871428Y70672428D01*
X170776190Y70624809D01*
X170395238Y70624809D01*
X171395238Y70672428D02*
X171728571Y70672428D01*
X171871428Y70148619D02*
X171395238Y70148619D01*
X171395238Y71148619D01*
X171871428Y71148619D01*
X172633333Y70672428D02*
X172300000Y70672428D01*
X172300000Y70148619D02*
X172300000Y71148619D01*
X172776190Y71148619D01*
X173300000Y71148619D02*
X173300000Y70910523D01*
X173061904Y71005761D02*
X173300000Y70910523D01*
X173538095Y71005761D01*
X173157142Y70720047D02*
X173300000Y70910523D01*
X173442857Y70720047D01*
X174061904Y71148619D02*
X174061904Y70910523D01*
X173823809Y71005761D02*
X174061904Y70910523D01*
X174300000Y71005761D01*
X173919047Y70720047D02*
X174061904Y70910523D01*
X174204761Y70720047D01*
X262146666Y70148619D02*
X261813333Y70624809D01*
X261575238Y70148619D02*
X261575238Y71148619D01*
X261956190Y71148619D01*
X262051428Y71101000D01*
X262099047Y71053380D01*
X262146666Y70958142D01*
X262146666Y70815285D01*
X262099047Y70720047D01*
X262051428Y70672428D01*
X261956190Y70624809D01*
X261575238Y70624809D01*
X262575238Y70672428D02*
X262908571Y70672428D01*
X263051428Y70148619D02*
X262575238Y70148619D01*
X262575238Y71148619D01*
X263051428Y71148619D01*
X263813333Y70672428D02*
X263480000Y70672428D01*
X263480000Y70148619D02*
X263480000Y71148619D01*
X263956190Y71148619D01*
X264480000Y71148619D02*
X264480000Y70910523D01*
X264241904Y71005761D02*
X264480000Y70910523D01*
X264718095Y71005761D01*
X264337142Y70720047D02*
X264480000Y70910523D01*
X264622857Y70720047D01*
X265241904Y71148619D02*
X265241904Y70910523D01*
X265003809Y71005761D02*
X265241904Y70910523D01*
X265480000Y71005761D01*
X265099047Y70720047D02*
X265241904Y70910523D01*
X265384761Y70720047D01*
X229986666Y24648619D02*
X229653333Y25124809D01*
X229415238Y24648619D02*
X229415238Y25648619D01*
X229796190Y25648619D01*
X229891428Y25601000D01*
X229939047Y25553380D01*
X229986666Y25458142D01*
X229986666Y25315285D01*
X229939047Y25220047D01*
X229891428Y25172428D01*
X229796190Y25124809D01*
X229415238Y25124809D01*
X230415238Y25172428D02*
X230748571Y25172428D01*
X230891428Y24648619D02*
X230415238Y24648619D01*
X230415238Y25648619D01*
X230891428Y25648619D01*
X231653333Y25172428D02*
X231320000Y25172428D01*
X231320000Y24648619D02*
X231320000Y25648619D01*
X231796190Y25648619D01*
X232320000Y25648619D02*
X232320000Y25410523D01*
X232081904Y25505761D02*
X232320000Y25410523D01*
X232558095Y25505761D01*
X232177142Y25220047D02*
X232320000Y25410523D01*
X232462857Y25220047D01*
X233081904Y25648619D02*
X233081904Y25410523D01*
X232843809Y25505761D02*
X233081904Y25410523D01*
X233320000Y25505761D01*
X232939047Y25220047D02*
X233081904Y25410523D01*
X233224761Y25220047D01*
X262146666Y24648619D02*
X261813333Y25124809D01*
X261575238Y24648619D02*
X261575238Y25648619D01*
X261956190Y25648619D01*
X262051428Y25601000D01*
X262099047Y25553380D01*
X262146666Y25458142D01*
X262146666Y25315285D01*
X262099047Y25220047D01*
X262051428Y25172428D01*
X261956190Y25124809D01*
X261575238Y25124809D01*
X262575238Y25172428D02*
X262908571Y25172428D01*
X263051428Y24648619D02*
X262575238Y24648619D01*
X262575238Y25648619D01*
X263051428Y25648619D01*
X263813333Y25172428D02*
X263480000Y25172428D01*
X263480000Y24648619D02*
X263480000Y25648619D01*
X263956190Y25648619D01*
X264480000Y25648619D02*
X264480000Y25410523D01*
X264241904Y25505761D02*
X264480000Y25410523D01*
X264718095Y25505761D01*
X264337142Y25220047D02*
X264480000Y25410523D01*
X264622857Y25220047D01*
X265241904Y25648619D02*
X265241904Y25410523D01*
X265003809Y25505761D02*
X265241904Y25410523D01*
X265480000Y25505761D01*
X265099047Y25220047D02*
X265241904Y25410523D01*
X265384761Y25220047D01*
X262146666Y47398619D02*
X261813333Y47874809D01*
X261575238Y47398619D02*
X261575238Y48398619D01*
X261956190Y48398619D01*
X262051428Y48351000D01*
X262099047Y48303380D01*
X262146666Y48208142D01*
X262146666Y48065285D01*
X262099047Y47970047D01*
X262051428Y47922428D01*
X261956190Y47874809D01*
X261575238Y47874809D01*
X262575238Y47922428D02*
X262908571Y47922428D01*
X263051428Y47398619D02*
X262575238Y47398619D01*
X262575238Y48398619D01*
X263051428Y48398619D01*
X263813333Y47922428D02*
X263480000Y47922428D01*
X263480000Y47398619D02*
X263480000Y48398619D01*
X263956190Y48398619D01*
X264480000Y48398619D02*
X264480000Y48160523D01*
X264241904Y48255761D02*
X264480000Y48160523D01*
X264718095Y48255761D01*
X264337142Y47970047D02*
X264480000Y48160523D01*
X264622857Y47970047D01*
X265241904Y48398619D02*
X265241904Y48160523D01*
X265003809Y48255761D02*
X265241904Y48160523D01*
X265480000Y48255761D01*
X265099047Y47970047D02*
X265241904Y48160523D01*
X265384761Y47970047D01*
X170966666Y47398619D02*
X170633333Y47874809D01*
X170395238Y47398619D02*
X170395238Y48398619D01*
X170776190Y48398619D01*
X170871428Y48351000D01*
X170919047Y48303380D01*
X170966666Y48208142D01*
X170966666Y48065285D01*
X170919047Y47970047D01*
X170871428Y47922428D01*
X170776190Y47874809D01*
X170395238Y47874809D01*
X171395238Y47922428D02*
X171728571Y47922428D01*
X171871428Y47398619D02*
X171395238Y47398619D01*
X171395238Y48398619D01*
X171871428Y48398619D01*
X172633333Y47922428D02*
X172300000Y47922428D01*
X172300000Y47398619D02*
X172300000Y48398619D01*
X172776190Y48398619D01*
X173300000Y48398619D02*
X173300000Y48160523D01*
X173061904Y48255761D02*
X173300000Y48160523D01*
X173538095Y48255761D01*
X173157142Y47970047D02*
X173300000Y48160523D01*
X173442857Y47970047D01*
X174061904Y48398619D02*
X174061904Y48160523D01*
X173823809Y48255761D02*
X174061904Y48160523D01*
X174300000Y48255761D01*
X173919047Y47970047D02*
X174061904Y48160523D01*
X174204761Y47970047D01*
M02*
