G04 #@! TF.GenerationSoftware,KiCad,Pcbnew,(5.1.6-0-10_14)*
G04 #@! TF.CreationDate,2022-09-03T20:20:15+09:00*
G04 #@! TF.ProjectId,cool536,636f6f6c-3533-4362-9e6b-696361645f70,rev?*
G04 #@! TF.SameCoordinates,Original*
G04 #@! TF.FileFunction,Soldermask,Top*
G04 #@! TF.FilePolarity,Negative*
%FSLAX46Y46*%
G04 Gerber Fmt 4.6, Leading zero omitted, Abs format (unit mm)*
G04 Created by KiCad (PCBNEW (5.1.6-0-10_14)) date 2022-09-03 20:20:15*
%MOMM*%
%LPD*%
G01*
G04 APERTURE LIST*
%ADD10C,0.100000*%
G04 APERTURE END LIST*
D10*
G36*
X260915383Y26581511D02*
G01*
X260915386Y26581510D01*
X260915385Y26581510D01*
X260979258Y26555054D01*
X261036748Y26516640D01*
X261085640Y26467748D01*
X261124053Y26410259D01*
X261142016Y26366892D01*
X261153567Y26345282D01*
X261169112Y26326340D01*
X261188054Y26310794D01*
X261209664Y26299243D01*
X261233113Y26292130D01*
X261257499Y26289728D01*
X261281886Y26292130D01*
X261305335Y26299243D01*
X261326945Y26310794D01*
X261345887Y26326339D01*
X261361433Y26345281D01*
X261372984Y26366892D01*
X261390947Y26410259D01*
X261429360Y26467748D01*
X261478252Y26516640D01*
X261535742Y26555054D01*
X261599615Y26581510D01*
X261599614Y26581510D01*
X261599617Y26581511D01*
X261667430Y26595000D01*
X261736570Y26595000D01*
X261804383Y26581511D01*
X261804386Y26581510D01*
X261804385Y26581510D01*
X261868258Y26555054D01*
X261925748Y26516640D01*
X261974640Y26467748D01*
X262013053Y26410259D01*
X262031016Y26366892D01*
X262042567Y26345282D01*
X262058112Y26326340D01*
X262077054Y26310794D01*
X262098664Y26299243D01*
X262122113Y26292130D01*
X262146499Y26289728D01*
X262170886Y26292130D01*
X262194335Y26299243D01*
X262215945Y26310794D01*
X262234887Y26326339D01*
X262250433Y26345281D01*
X262261984Y26366892D01*
X262279947Y26410259D01*
X262318360Y26467748D01*
X262367252Y26516640D01*
X262424742Y26555054D01*
X262488615Y26581510D01*
X262488614Y26581510D01*
X262488617Y26581511D01*
X262556430Y26595000D01*
X262625570Y26595000D01*
X262693383Y26581511D01*
X262693386Y26581510D01*
X262693385Y26581510D01*
X262757258Y26555054D01*
X262814748Y26516640D01*
X262863640Y26467748D01*
X262902053Y26410259D01*
X262920016Y26366892D01*
X262931567Y26345282D01*
X262947112Y26326340D01*
X262966054Y26310794D01*
X262987664Y26299243D01*
X263011113Y26292130D01*
X263035499Y26289728D01*
X263059886Y26292130D01*
X263083335Y26299243D01*
X263104945Y26310794D01*
X263123887Y26326339D01*
X263139433Y26345281D01*
X263150984Y26366892D01*
X263168947Y26410259D01*
X263207360Y26467748D01*
X263256252Y26516640D01*
X263313742Y26555054D01*
X263377615Y26581510D01*
X263377614Y26581510D01*
X263377617Y26581511D01*
X263445430Y26595000D01*
X263514570Y26595000D01*
X263582383Y26581511D01*
X263582386Y26581510D01*
X263582385Y26581510D01*
X263646258Y26555054D01*
X263703748Y26516640D01*
X263752640Y26467748D01*
X263791053Y26410259D01*
X263809016Y26366892D01*
X263820567Y26345282D01*
X263836112Y26326340D01*
X263855054Y26310794D01*
X263876664Y26299243D01*
X263900113Y26292130D01*
X263924499Y26289728D01*
X263948886Y26292130D01*
X263972335Y26299243D01*
X263993945Y26310794D01*
X264012887Y26326339D01*
X264028433Y26345281D01*
X264039984Y26366892D01*
X264057947Y26410259D01*
X264096360Y26467748D01*
X264145252Y26516640D01*
X264202742Y26555054D01*
X264266615Y26581510D01*
X264266614Y26581510D01*
X264266617Y26581511D01*
X264334430Y26595000D01*
X264403570Y26595000D01*
X264471383Y26581511D01*
X264471386Y26581510D01*
X264471385Y26581510D01*
X264535258Y26555054D01*
X264592748Y26516640D01*
X264641640Y26467748D01*
X264680053Y26410259D01*
X264698016Y26366892D01*
X264709567Y26345282D01*
X264725112Y26326340D01*
X264744054Y26310794D01*
X264765664Y26299243D01*
X264789113Y26292130D01*
X264813499Y26289728D01*
X264837886Y26292130D01*
X264861335Y26299243D01*
X264882945Y26310794D01*
X264901887Y26326339D01*
X264917433Y26345281D01*
X264928984Y26366892D01*
X264946947Y26410259D01*
X264985360Y26467748D01*
X265034252Y26516640D01*
X265091742Y26555054D01*
X265155615Y26581510D01*
X265155614Y26581510D01*
X265155617Y26581511D01*
X265223430Y26595000D01*
X265292570Y26595000D01*
X265360383Y26581511D01*
X265360386Y26581510D01*
X265360385Y26581510D01*
X265424258Y26555054D01*
X265481748Y26516640D01*
X265530640Y26467748D01*
X265569053Y26410259D01*
X265587016Y26366892D01*
X265598567Y26345282D01*
X265614112Y26326340D01*
X265633054Y26310794D01*
X265654664Y26299243D01*
X265678113Y26292130D01*
X265702499Y26289728D01*
X265726886Y26292130D01*
X265750335Y26299243D01*
X265771945Y26310794D01*
X265790887Y26326339D01*
X265806433Y26345281D01*
X265817984Y26366892D01*
X265835947Y26410259D01*
X265874360Y26467748D01*
X265923252Y26516640D01*
X265980742Y26555054D01*
X266044615Y26581510D01*
X266044614Y26581510D01*
X266044617Y26581511D01*
X266112430Y26595000D01*
X266181570Y26595000D01*
X266249383Y26581511D01*
X266249386Y26581510D01*
X266249385Y26581510D01*
X266313258Y26555054D01*
X266370748Y26516640D01*
X266419640Y26467748D01*
X266458054Y26410258D01*
X266476016Y26366892D01*
X266484511Y26346383D01*
X266498000Y26278570D01*
X266498000Y26209430D01*
X266484511Y26141617D01*
X266484510Y26141615D01*
X266458054Y26077742D01*
X266419640Y26020252D01*
X266370748Y25971360D01*
X266313258Y25932946D01*
X266261182Y25911376D01*
X266249383Y25906489D01*
X266181570Y25893000D01*
X266112430Y25893000D01*
X266044617Y25906489D01*
X266032818Y25911376D01*
X265980742Y25932946D01*
X265923252Y25971360D01*
X265874360Y26020252D01*
X265835947Y26077741D01*
X265817984Y26121108D01*
X265806433Y26142718D01*
X265790888Y26161660D01*
X265771946Y26177206D01*
X265750336Y26188757D01*
X265726887Y26195870D01*
X265702501Y26198272D01*
X265678114Y26195870D01*
X265654665Y26188757D01*
X265633055Y26177206D01*
X265614113Y26161661D01*
X265598567Y26142719D01*
X265587016Y26121108D01*
X265569053Y26077741D01*
X265530640Y26020252D01*
X265481748Y25971360D01*
X265424258Y25932946D01*
X265372182Y25911376D01*
X265360383Y25906489D01*
X265292570Y25893000D01*
X265223430Y25893000D01*
X265155617Y25906489D01*
X265143818Y25911376D01*
X265091742Y25932946D01*
X265034252Y25971360D01*
X264985360Y26020252D01*
X264946947Y26077741D01*
X264928984Y26121108D01*
X264917433Y26142718D01*
X264901888Y26161660D01*
X264882946Y26177206D01*
X264861336Y26188757D01*
X264837887Y26195870D01*
X264813501Y26198272D01*
X264789114Y26195870D01*
X264765665Y26188757D01*
X264744055Y26177206D01*
X264725113Y26161661D01*
X264709567Y26142719D01*
X264698016Y26121108D01*
X264680053Y26077741D01*
X264641640Y26020252D01*
X264592748Y25971360D01*
X264535258Y25932946D01*
X264483182Y25911376D01*
X264471383Y25906489D01*
X264403570Y25893000D01*
X264334430Y25893000D01*
X264266617Y25906489D01*
X264254818Y25911376D01*
X264202742Y25932946D01*
X264145252Y25971360D01*
X264096360Y26020252D01*
X264057947Y26077741D01*
X264039984Y26121108D01*
X264028433Y26142718D01*
X264012888Y26161660D01*
X263993946Y26177206D01*
X263972336Y26188757D01*
X263948887Y26195870D01*
X263924501Y26198272D01*
X263900114Y26195870D01*
X263876665Y26188757D01*
X263855055Y26177206D01*
X263836113Y26161661D01*
X263820567Y26142719D01*
X263809016Y26121108D01*
X263791053Y26077741D01*
X263752640Y26020252D01*
X263703748Y25971360D01*
X263646258Y25932946D01*
X263594182Y25911376D01*
X263582383Y25906489D01*
X263514570Y25893000D01*
X263445430Y25893000D01*
X263377617Y25906489D01*
X263365818Y25911376D01*
X263313742Y25932946D01*
X263256252Y25971360D01*
X263207360Y26020252D01*
X263168947Y26077741D01*
X263150984Y26121108D01*
X263139433Y26142718D01*
X263123888Y26161660D01*
X263104946Y26177206D01*
X263083336Y26188757D01*
X263059887Y26195870D01*
X263035501Y26198272D01*
X263011114Y26195870D01*
X262987665Y26188757D01*
X262966055Y26177206D01*
X262947113Y26161661D01*
X262931567Y26142719D01*
X262920016Y26121108D01*
X262902053Y26077741D01*
X262863640Y26020252D01*
X262814748Y25971360D01*
X262757258Y25932946D01*
X262705182Y25911376D01*
X262693383Y25906489D01*
X262625570Y25893000D01*
X262556430Y25893000D01*
X262488617Y25906489D01*
X262476818Y25911376D01*
X262424742Y25932946D01*
X262367252Y25971360D01*
X262318360Y26020252D01*
X262279947Y26077741D01*
X262261984Y26121108D01*
X262250433Y26142718D01*
X262234888Y26161660D01*
X262215946Y26177206D01*
X262194336Y26188757D01*
X262170887Y26195870D01*
X262146501Y26198272D01*
X262122114Y26195870D01*
X262098665Y26188757D01*
X262077055Y26177206D01*
X262058113Y26161661D01*
X262042567Y26142719D01*
X262031016Y26121108D01*
X262013053Y26077741D01*
X261974640Y26020252D01*
X261925748Y25971360D01*
X261868258Y25932946D01*
X261816182Y25911376D01*
X261804383Y25906489D01*
X261736570Y25893000D01*
X261667430Y25893000D01*
X261599617Y25906489D01*
X261587818Y25911376D01*
X261535742Y25932946D01*
X261478252Y25971360D01*
X261429360Y26020252D01*
X261390947Y26077741D01*
X261372984Y26121108D01*
X261361433Y26142718D01*
X261345888Y26161660D01*
X261326946Y26177206D01*
X261305336Y26188757D01*
X261281887Y26195870D01*
X261257501Y26198272D01*
X261233114Y26195870D01*
X261209665Y26188757D01*
X261188055Y26177206D01*
X261169113Y26161661D01*
X261153567Y26142719D01*
X261142016Y26121108D01*
X261124053Y26077741D01*
X261085640Y26020252D01*
X261036748Y25971360D01*
X260979258Y25932946D01*
X260927182Y25911376D01*
X260915383Y25906489D01*
X260847570Y25893000D01*
X260778430Y25893000D01*
X260710617Y25906489D01*
X260698818Y25911376D01*
X260646742Y25932946D01*
X260589252Y25971360D01*
X260540360Y26020252D01*
X260501946Y26077742D01*
X260475490Y26141615D01*
X260475489Y26141617D01*
X260462000Y26209430D01*
X260462000Y26278570D01*
X260475489Y26346383D01*
X260483984Y26366892D01*
X260501946Y26410258D01*
X260540360Y26467748D01*
X260589252Y26516640D01*
X260646742Y26555054D01*
X260710615Y26581510D01*
X260710614Y26581510D01*
X260710617Y26581511D01*
X260778430Y26595000D01*
X260847570Y26595000D01*
X260915383Y26581511D01*
G37*
G36*
X228755383Y26581511D02*
G01*
X228755386Y26581510D01*
X228755385Y26581510D01*
X228819258Y26555054D01*
X228876748Y26516640D01*
X228925640Y26467748D01*
X228964053Y26410259D01*
X228982016Y26366892D01*
X228993567Y26345282D01*
X229009112Y26326340D01*
X229028054Y26310794D01*
X229049664Y26299243D01*
X229073113Y26292130D01*
X229097499Y26289728D01*
X229121886Y26292130D01*
X229145335Y26299243D01*
X229166945Y26310794D01*
X229185887Y26326339D01*
X229201433Y26345281D01*
X229212984Y26366892D01*
X229230947Y26410259D01*
X229269360Y26467748D01*
X229318252Y26516640D01*
X229375742Y26555054D01*
X229439615Y26581510D01*
X229439614Y26581510D01*
X229439617Y26581511D01*
X229507430Y26595000D01*
X229576570Y26595000D01*
X229644383Y26581511D01*
X229644386Y26581510D01*
X229644385Y26581510D01*
X229708258Y26555054D01*
X229765748Y26516640D01*
X229814640Y26467748D01*
X229853053Y26410259D01*
X229871016Y26366892D01*
X229882567Y26345282D01*
X229898112Y26326340D01*
X229917054Y26310794D01*
X229938664Y26299243D01*
X229962113Y26292130D01*
X229986499Y26289728D01*
X230010886Y26292130D01*
X230034335Y26299243D01*
X230055945Y26310794D01*
X230074887Y26326339D01*
X230090433Y26345281D01*
X230101984Y26366892D01*
X230119947Y26410259D01*
X230158360Y26467748D01*
X230207252Y26516640D01*
X230264742Y26555054D01*
X230328615Y26581510D01*
X230328614Y26581510D01*
X230328617Y26581511D01*
X230396430Y26595000D01*
X230465570Y26595000D01*
X230533383Y26581511D01*
X230533386Y26581510D01*
X230533385Y26581510D01*
X230597258Y26555054D01*
X230654748Y26516640D01*
X230703640Y26467748D01*
X230742053Y26410259D01*
X230760016Y26366892D01*
X230771567Y26345282D01*
X230787112Y26326340D01*
X230806054Y26310794D01*
X230827664Y26299243D01*
X230851113Y26292130D01*
X230875499Y26289728D01*
X230899886Y26292130D01*
X230923335Y26299243D01*
X230944945Y26310794D01*
X230963887Y26326339D01*
X230979433Y26345281D01*
X230990984Y26366892D01*
X231008947Y26410259D01*
X231047360Y26467748D01*
X231096252Y26516640D01*
X231153742Y26555054D01*
X231217615Y26581510D01*
X231217614Y26581510D01*
X231217617Y26581511D01*
X231285430Y26595000D01*
X231354570Y26595000D01*
X231422383Y26581511D01*
X231422386Y26581510D01*
X231422385Y26581510D01*
X231486258Y26555054D01*
X231543748Y26516640D01*
X231592640Y26467748D01*
X231631053Y26410259D01*
X231649016Y26366892D01*
X231660567Y26345282D01*
X231676112Y26326340D01*
X231695054Y26310794D01*
X231716664Y26299243D01*
X231740113Y26292130D01*
X231764499Y26289728D01*
X231788886Y26292130D01*
X231812335Y26299243D01*
X231833945Y26310794D01*
X231852887Y26326339D01*
X231868433Y26345281D01*
X231879984Y26366892D01*
X231897947Y26410259D01*
X231936360Y26467748D01*
X231985252Y26516640D01*
X232042742Y26555054D01*
X232106615Y26581510D01*
X232106614Y26581510D01*
X232106617Y26581511D01*
X232174430Y26595000D01*
X232243570Y26595000D01*
X232311383Y26581511D01*
X232311386Y26581510D01*
X232311385Y26581510D01*
X232375258Y26555054D01*
X232432748Y26516640D01*
X232481640Y26467748D01*
X232520053Y26410259D01*
X232538016Y26366892D01*
X232549567Y26345282D01*
X232565112Y26326340D01*
X232584054Y26310794D01*
X232605664Y26299243D01*
X232629113Y26292130D01*
X232653499Y26289728D01*
X232677886Y26292130D01*
X232701335Y26299243D01*
X232722945Y26310794D01*
X232741887Y26326339D01*
X232757433Y26345281D01*
X232768984Y26366892D01*
X232786947Y26410259D01*
X232825360Y26467748D01*
X232874252Y26516640D01*
X232931742Y26555054D01*
X232995615Y26581510D01*
X232995614Y26581510D01*
X232995617Y26581511D01*
X233063430Y26595000D01*
X233132570Y26595000D01*
X233200383Y26581511D01*
X233200386Y26581510D01*
X233200385Y26581510D01*
X233264258Y26555054D01*
X233321748Y26516640D01*
X233370640Y26467748D01*
X233409053Y26410259D01*
X233427016Y26366892D01*
X233438567Y26345282D01*
X233454112Y26326340D01*
X233473054Y26310794D01*
X233494664Y26299243D01*
X233518113Y26292130D01*
X233542499Y26289728D01*
X233566886Y26292130D01*
X233590335Y26299243D01*
X233611945Y26310794D01*
X233630887Y26326339D01*
X233646433Y26345281D01*
X233657984Y26366892D01*
X233675947Y26410259D01*
X233714360Y26467748D01*
X233763252Y26516640D01*
X233820742Y26555054D01*
X233884615Y26581510D01*
X233884614Y26581510D01*
X233884617Y26581511D01*
X233952430Y26595000D01*
X234021570Y26595000D01*
X234089383Y26581511D01*
X234089386Y26581510D01*
X234089385Y26581510D01*
X234153258Y26555054D01*
X234210748Y26516640D01*
X234259640Y26467748D01*
X234298054Y26410258D01*
X234316016Y26366892D01*
X234324511Y26346383D01*
X234338000Y26278570D01*
X234338000Y26209430D01*
X234324511Y26141617D01*
X234324510Y26141615D01*
X234298054Y26077742D01*
X234259640Y26020252D01*
X234210748Y25971360D01*
X234153258Y25932946D01*
X234101182Y25911376D01*
X234089383Y25906489D01*
X234021570Y25893000D01*
X233952430Y25893000D01*
X233884617Y25906489D01*
X233872818Y25911376D01*
X233820742Y25932946D01*
X233763252Y25971360D01*
X233714360Y26020252D01*
X233675947Y26077741D01*
X233657984Y26121108D01*
X233646433Y26142718D01*
X233630888Y26161660D01*
X233611946Y26177206D01*
X233590336Y26188757D01*
X233566887Y26195870D01*
X233542501Y26198272D01*
X233518114Y26195870D01*
X233494665Y26188757D01*
X233473055Y26177206D01*
X233454113Y26161661D01*
X233438567Y26142719D01*
X233427016Y26121108D01*
X233409053Y26077741D01*
X233370640Y26020252D01*
X233321748Y25971360D01*
X233264258Y25932946D01*
X233212182Y25911376D01*
X233200383Y25906489D01*
X233132570Y25893000D01*
X233063430Y25893000D01*
X232995617Y25906489D01*
X232983818Y25911376D01*
X232931742Y25932946D01*
X232874252Y25971360D01*
X232825360Y26020252D01*
X232786947Y26077741D01*
X232768984Y26121108D01*
X232757433Y26142718D01*
X232741888Y26161660D01*
X232722946Y26177206D01*
X232701336Y26188757D01*
X232677887Y26195870D01*
X232653501Y26198272D01*
X232629114Y26195870D01*
X232605665Y26188757D01*
X232584055Y26177206D01*
X232565113Y26161661D01*
X232549567Y26142719D01*
X232538016Y26121108D01*
X232520053Y26077741D01*
X232481640Y26020252D01*
X232432748Y25971360D01*
X232375258Y25932946D01*
X232323182Y25911376D01*
X232311383Y25906489D01*
X232243570Y25893000D01*
X232174430Y25893000D01*
X232106617Y25906489D01*
X232094818Y25911376D01*
X232042742Y25932946D01*
X231985252Y25971360D01*
X231936360Y26020252D01*
X231897947Y26077741D01*
X231879984Y26121108D01*
X231868433Y26142718D01*
X231852888Y26161660D01*
X231833946Y26177206D01*
X231812336Y26188757D01*
X231788887Y26195870D01*
X231764501Y26198272D01*
X231740114Y26195870D01*
X231716665Y26188757D01*
X231695055Y26177206D01*
X231676113Y26161661D01*
X231660567Y26142719D01*
X231649016Y26121108D01*
X231631053Y26077741D01*
X231592640Y26020252D01*
X231543748Y25971360D01*
X231486258Y25932946D01*
X231434182Y25911376D01*
X231422383Y25906489D01*
X231354570Y25893000D01*
X231285430Y25893000D01*
X231217617Y25906489D01*
X231205818Y25911376D01*
X231153742Y25932946D01*
X231096252Y25971360D01*
X231047360Y26020252D01*
X231008947Y26077741D01*
X230990984Y26121108D01*
X230979433Y26142718D01*
X230963888Y26161660D01*
X230944946Y26177206D01*
X230923336Y26188757D01*
X230899887Y26195870D01*
X230875501Y26198272D01*
X230851114Y26195870D01*
X230827665Y26188757D01*
X230806055Y26177206D01*
X230787113Y26161661D01*
X230771567Y26142719D01*
X230760016Y26121108D01*
X230742053Y26077741D01*
X230703640Y26020252D01*
X230654748Y25971360D01*
X230597258Y25932946D01*
X230545182Y25911376D01*
X230533383Y25906489D01*
X230465570Y25893000D01*
X230396430Y25893000D01*
X230328617Y25906489D01*
X230316818Y25911376D01*
X230264742Y25932946D01*
X230207252Y25971360D01*
X230158360Y26020252D01*
X230119947Y26077741D01*
X230101984Y26121108D01*
X230090433Y26142718D01*
X230074888Y26161660D01*
X230055946Y26177206D01*
X230034336Y26188757D01*
X230010887Y26195870D01*
X229986501Y26198272D01*
X229962114Y26195870D01*
X229938665Y26188757D01*
X229917055Y26177206D01*
X229898113Y26161661D01*
X229882567Y26142719D01*
X229871016Y26121108D01*
X229853053Y26077741D01*
X229814640Y26020252D01*
X229765748Y25971360D01*
X229708258Y25932946D01*
X229656182Y25911376D01*
X229644383Y25906489D01*
X229576570Y25893000D01*
X229507430Y25893000D01*
X229439617Y25906489D01*
X229427818Y25911376D01*
X229375742Y25932946D01*
X229318252Y25971360D01*
X229269360Y26020252D01*
X229230947Y26077741D01*
X229212984Y26121108D01*
X229201433Y26142718D01*
X229185888Y26161660D01*
X229166946Y26177206D01*
X229145336Y26188757D01*
X229121887Y26195870D01*
X229097501Y26198272D01*
X229073114Y26195870D01*
X229049665Y26188757D01*
X229028055Y26177206D01*
X229009113Y26161661D01*
X228993567Y26142719D01*
X228982016Y26121108D01*
X228964053Y26077741D01*
X228925640Y26020252D01*
X228876748Y25971360D01*
X228819258Y25932946D01*
X228767182Y25911376D01*
X228755383Y25906489D01*
X228687570Y25893000D01*
X228618430Y25893000D01*
X228550617Y25906489D01*
X228538818Y25911376D01*
X228486742Y25932946D01*
X228429252Y25971360D01*
X228380360Y26020252D01*
X228341946Y26077742D01*
X228315490Y26141615D01*
X228315489Y26141617D01*
X228302000Y26209430D01*
X228302000Y26278570D01*
X228315489Y26346383D01*
X228323984Y26366892D01*
X228341946Y26410258D01*
X228380360Y26467748D01*
X228429252Y26516640D01*
X228486742Y26555054D01*
X228550615Y26581510D01*
X228550614Y26581510D01*
X228550617Y26581511D01*
X228618430Y26595000D01*
X228687570Y26595000D01*
X228755383Y26581511D01*
G37*
G36*
X228755383Y28613511D02*
G01*
X228755386Y28613510D01*
X228755385Y28613510D01*
X228819258Y28587054D01*
X228876748Y28548640D01*
X228925640Y28499748D01*
X228964053Y28442259D01*
X228982016Y28398892D01*
X228993567Y28377282D01*
X229009112Y28358340D01*
X229028054Y28342794D01*
X229049664Y28331243D01*
X229073113Y28324130D01*
X229097499Y28321728D01*
X229121886Y28324130D01*
X229145335Y28331243D01*
X229166945Y28342794D01*
X229185887Y28358339D01*
X229201433Y28377281D01*
X229212984Y28398892D01*
X229230947Y28442259D01*
X229269360Y28499748D01*
X229318252Y28548640D01*
X229375742Y28587054D01*
X229439615Y28613510D01*
X229439614Y28613510D01*
X229439617Y28613511D01*
X229507430Y28627000D01*
X229576570Y28627000D01*
X229644383Y28613511D01*
X229644386Y28613510D01*
X229644385Y28613510D01*
X229708258Y28587054D01*
X229765748Y28548640D01*
X229814640Y28499748D01*
X229853053Y28442259D01*
X229871016Y28398892D01*
X229882567Y28377282D01*
X229898112Y28358340D01*
X229917054Y28342794D01*
X229938664Y28331243D01*
X229962113Y28324130D01*
X229986499Y28321728D01*
X230010886Y28324130D01*
X230034335Y28331243D01*
X230055945Y28342794D01*
X230074887Y28358339D01*
X230090433Y28377281D01*
X230101984Y28398892D01*
X230119947Y28442259D01*
X230158360Y28499748D01*
X230207252Y28548640D01*
X230264742Y28587054D01*
X230328615Y28613510D01*
X230328614Y28613510D01*
X230328617Y28613511D01*
X230396430Y28627000D01*
X230465570Y28627000D01*
X230533383Y28613511D01*
X230533386Y28613510D01*
X230533385Y28613510D01*
X230597258Y28587054D01*
X230654748Y28548640D01*
X230703640Y28499748D01*
X230742053Y28442259D01*
X230760016Y28398892D01*
X230771567Y28377282D01*
X230787112Y28358340D01*
X230806054Y28342794D01*
X230827664Y28331243D01*
X230851113Y28324130D01*
X230875499Y28321728D01*
X230899886Y28324130D01*
X230923335Y28331243D01*
X230944945Y28342794D01*
X230963887Y28358339D01*
X230979433Y28377281D01*
X230990984Y28398892D01*
X231008947Y28442259D01*
X231047360Y28499748D01*
X231096252Y28548640D01*
X231153742Y28587054D01*
X231217615Y28613510D01*
X231217614Y28613510D01*
X231217617Y28613511D01*
X231285430Y28627000D01*
X231354570Y28627000D01*
X231422383Y28613511D01*
X231422386Y28613510D01*
X231422385Y28613510D01*
X231486258Y28587054D01*
X231543748Y28548640D01*
X231592640Y28499748D01*
X231631053Y28442259D01*
X231649016Y28398892D01*
X231660567Y28377282D01*
X231676112Y28358340D01*
X231695054Y28342794D01*
X231716664Y28331243D01*
X231740113Y28324130D01*
X231764499Y28321728D01*
X231788886Y28324130D01*
X231812335Y28331243D01*
X231833945Y28342794D01*
X231852887Y28358339D01*
X231868433Y28377281D01*
X231879984Y28398892D01*
X231897947Y28442259D01*
X231936360Y28499748D01*
X231985252Y28548640D01*
X232042742Y28587054D01*
X232106615Y28613510D01*
X232106614Y28613510D01*
X232106617Y28613511D01*
X232174430Y28627000D01*
X232243570Y28627000D01*
X232311383Y28613511D01*
X232311386Y28613510D01*
X232311385Y28613510D01*
X232375258Y28587054D01*
X232432748Y28548640D01*
X232481640Y28499748D01*
X232520053Y28442259D01*
X232538016Y28398892D01*
X232549567Y28377282D01*
X232565112Y28358340D01*
X232584054Y28342794D01*
X232605664Y28331243D01*
X232629113Y28324130D01*
X232653499Y28321728D01*
X232677886Y28324130D01*
X232701335Y28331243D01*
X232722945Y28342794D01*
X232741887Y28358339D01*
X232757433Y28377281D01*
X232768984Y28398892D01*
X232786947Y28442259D01*
X232825360Y28499748D01*
X232874252Y28548640D01*
X232931742Y28587054D01*
X232995615Y28613510D01*
X232995614Y28613510D01*
X232995617Y28613511D01*
X233063430Y28627000D01*
X233132570Y28627000D01*
X233200383Y28613511D01*
X233200386Y28613510D01*
X233200385Y28613510D01*
X233264258Y28587054D01*
X233321748Y28548640D01*
X233370640Y28499748D01*
X233409053Y28442259D01*
X233427016Y28398892D01*
X233438567Y28377282D01*
X233454112Y28358340D01*
X233473054Y28342794D01*
X233494664Y28331243D01*
X233518113Y28324130D01*
X233542499Y28321728D01*
X233566886Y28324130D01*
X233590335Y28331243D01*
X233611945Y28342794D01*
X233630887Y28358339D01*
X233646433Y28377281D01*
X233657984Y28398892D01*
X233675947Y28442259D01*
X233714360Y28499748D01*
X233763252Y28548640D01*
X233820742Y28587054D01*
X233884615Y28613510D01*
X233884614Y28613510D01*
X233884617Y28613511D01*
X233952430Y28627000D01*
X234021570Y28627000D01*
X234089383Y28613511D01*
X234089386Y28613510D01*
X234089385Y28613510D01*
X234153258Y28587054D01*
X234210748Y28548640D01*
X234259640Y28499748D01*
X234298054Y28442258D01*
X234316016Y28398892D01*
X234324511Y28378383D01*
X234338000Y28310570D01*
X234338000Y28241430D01*
X234324511Y28173617D01*
X234324510Y28173615D01*
X234298054Y28109742D01*
X234259640Y28052252D01*
X234210748Y28003360D01*
X234153258Y27964946D01*
X234101182Y27943376D01*
X234089383Y27938489D01*
X234021570Y27925000D01*
X233952430Y27925000D01*
X233884617Y27938489D01*
X233872818Y27943376D01*
X233820742Y27964946D01*
X233763252Y28003360D01*
X233714360Y28052252D01*
X233675947Y28109741D01*
X233657984Y28153108D01*
X233646433Y28174718D01*
X233630888Y28193660D01*
X233611946Y28209206D01*
X233590336Y28220757D01*
X233566887Y28227870D01*
X233542501Y28230272D01*
X233518114Y28227870D01*
X233494665Y28220757D01*
X233473055Y28209206D01*
X233454113Y28193661D01*
X233438567Y28174719D01*
X233427016Y28153108D01*
X233409053Y28109741D01*
X233370640Y28052252D01*
X233321748Y28003360D01*
X233264258Y27964946D01*
X233212182Y27943376D01*
X233200383Y27938489D01*
X233132570Y27925000D01*
X233063430Y27925000D01*
X232995617Y27938489D01*
X232983818Y27943376D01*
X232931742Y27964946D01*
X232874252Y28003360D01*
X232825360Y28052252D01*
X232786947Y28109741D01*
X232768984Y28153108D01*
X232757433Y28174718D01*
X232741888Y28193660D01*
X232722946Y28209206D01*
X232701336Y28220757D01*
X232677887Y28227870D01*
X232653501Y28230272D01*
X232629114Y28227870D01*
X232605665Y28220757D01*
X232584055Y28209206D01*
X232565113Y28193661D01*
X232549567Y28174719D01*
X232538016Y28153108D01*
X232520053Y28109741D01*
X232481640Y28052252D01*
X232432748Y28003360D01*
X232375258Y27964946D01*
X232323182Y27943376D01*
X232311383Y27938489D01*
X232243570Y27925000D01*
X232174430Y27925000D01*
X232106617Y27938489D01*
X232094818Y27943376D01*
X232042742Y27964946D01*
X231985252Y28003360D01*
X231936360Y28052252D01*
X231897947Y28109741D01*
X231879984Y28153108D01*
X231868433Y28174718D01*
X231852888Y28193660D01*
X231833946Y28209206D01*
X231812336Y28220757D01*
X231788887Y28227870D01*
X231764501Y28230272D01*
X231740114Y28227870D01*
X231716665Y28220757D01*
X231695055Y28209206D01*
X231676113Y28193661D01*
X231660567Y28174719D01*
X231649016Y28153108D01*
X231631053Y28109741D01*
X231592640Y28052252D01*
X231543748Y28003360D01*
X231486258Y27964946D01*
X231434182Y27943376D01*
X231422383Y27938489D01*
X231354570Y27925000D01*
X231285430Y27925000D01*
X231217617Y27938489D01*
X231205818Y27943376D01*
X231153742Y27964946D01*
X231096252Y28003360D01*
X231047360Y28052252D01*
X231008947Y28109741D01*
X230990984Y28153108D01*
X230979433Y28174718D01*
X230963888Y28193660D01*
X230944946Y28209206D01*
X230923336Y28220757D01*
X230899887Y28227870D01*
X230875501Y28230272D01*
X230851114Y28227870D01*
X230827665Y28220757D01*
X230806055Y28209206D01*
X230787113Y28193661D01*
X230771567Y28174719D01*
X230760016Y28153108D01*
X230742053Y28109741D01*
X230703640Y28052252D01*
X230654748Y28003360D01*
X230597258Y27964946D01*
X230545182Y27943376D01*
X230533383Y27938489D01*
X230465570Y27925000D01*
X230396430Y27925000D01*
X230328617Y27938489D01*
X230316818Y27943376D01*
X230264742Y27964946D01*
X230207252Y28003360D01*
X230158360Y28052252D01*
X230119947Y28109741D01*
X230101984Y28153108D01*
X230090433Y28174718D01*
X230074888Y28193660D01*
X230055946Y28209206D01*
X230034336Y28220757D01*
X230010887Y28227870D01*
X229986501Y28230272D01*
X229962114Y28227870D01*
X229938665Y28220757D01*
X229917055Y28209206D01*
X229898113Y28193661D01*
X229882567Y28174719D01*
X229871016Y28153108D01*
X229853053Y28109741D01*
X229814640Y28052252D01*
X229765748Y28003360D01*
X229708258Y27964946D01*
X229656182Y27943376D01*
X229644383Y27938489D01*
X229576570Y27925000D01*
X229507430Y27925000D01*
X229439617Y27938489D01*
X229427818Y27943376D01*
X229375742Y27964946D01*
X229318252Y28003360D01*
X229269360Y28052252D01*
X229230947Y28109741D01*
X229212984Y28153108D01*
X229201433Y28174718D01*
X229185888Y28193660D01*
X229166946Y28209206D01*
X229145336Y28220757D01*
X229121887Y28227870D01*
X229097501Y28230272D01*
X229073114Y28227870D01*
X229049665Y28220757D01*
X229028055Y28209206D01*
X229009113Y28193661D01*
X228993567Y28174719D01*
X228982016Y28153108D01*
X228964053Y28109741D01*
X228925640Y28052252D01*
X228876748Y28003360D01*
X228819258Y27964946D01*
X228767182Y27943376D01*
X228755383Y27938489D01*
X228687570Y27925000D01*
X228618430Y27925000D01*
X228550617Y27938489D01*
X228538818Y27943376D01*
X228486742Y27964946D01*
X228429252Y28003360D01*
X228380360Y28052252D01*
X228341946Y28109742D01*
X228315490Y28173615D01*
X228315489Y28173617D01*
X228302000Y28241430D01*
X228302000Y28310570D01*
X228315489Y28378383D01*
X228323984Y28398892D01*
X228341946Y28442258D01*
X228380360Y28499748D01*
X228429252Y28548640D01*
X228486742Y28587054D01*
X228550615Y28613510D01*
X228550614Y28613510D01*
X228550617Y28613511D01*
X228618430Y28627000D01*
X228687570Y28627000D01*
X228755383Y28613511D01*
G37*
G36*
X260915383Y28613511D02*
G01*
X260915386Y28613510D01*
X260915385Y28613510D01*
X260979258Y28587054D01*
X261036748Y28548640D01*
X261085640Y28499748D01*
X261124053Y28442259D01*
X261142016Y28398892D01*
X261153567Y28377282D01*
X261169112Y28358340D01*
X261188054Y28342794D01*
X261209664Y28331243D01*
X261233113Y28324130D01*
X261257499Y28321728D01*
X261281886Y28324130D01*
X261305335Y28331243D01*
X261326945Y28342794D01*
X261345887Y28358339D01*
X261361433Y28377281D01*
X261372984Y28398892D01*
X261390947Y28442259D01*
X261429360Y28499748D01*
X261478252Y28548640D01*
X261535742Y28587054D01*
X261599615Y28613510D01*
X261599614Y28613510D01*
X261599617Y28613511D01*
X261667430Y28627000D01*
X261736570Y28627000D01*
X261804383Y28613511D01*
X261804386Y28613510D01*
X261804385Y28613510D01*
X261868258Y28587054D01*
X261925748Y28548640D01*
X261974640Y28499748D01*
X262013053Y28442259D01*
X262031016Y28398892D01*
X262042567Y28377282D01*
X262058112Y28358340D01*
X262077054Y28342794D01*
X262098664Y28331243D01*
X262122113Y28324130D01*
X262146499Y28321728D01*
X262170886Y28324130D01*
X262194335Y28331243D01*
X262215945Y28342794D01*
X262234887Y28358339D01*
X262250433Y28377281D01*
X262261984Y28398892D01*
X262279947Y28442259D01*
X262318360Y28499748D01*
X262367252Y28548640D01*
X262424742Y28587054D01*
X262488615Y28613510D01*
X262488614Y28613510D01*
X262488617Y28613511D01*
X262556430Y28627000D01*
X262625570Y28627000D01*
X262693383Y28613511D01*
X262693386Y28613510D01*
X262693385Y28613510D01*
X262757258Y28587054D01*
X262814748Y28548640D01*
X262863640Y28499748D01*
X262902053Y28442259D01*
X262920016Y28398892D01*
X262931567Y28377282D01*
X262947112Y28358340D01*
X262966054Y28342794D01*
X262987664Y28331243D01*
X263011113Y28324130D01*
X263035499Y28321728D01*
X263059886Y28324130D01*
X263083335Y28331243D01*
X263104945Y28342794D01*
X263123887Y28358339D01*
X263139433Y28377281D01*
X263150984Y28398892D01*
X263168947Y28442259D01*
X263207360Y28499748D01*
X263256252Y28548640D01*
X263313742Y28587054D01*
X263377615Y28613510D01*
X263377614Y28613510D01*
X263377617Y28613511D01*
X263445430Y28627000D01*
X263514570Y28627000D01*
X263582383Y28613511D01*
X263582386Y28613510D01*
X263582385Y28613510D01*
X263646258Y28587054D01*
X263703748Y28548640D01*
X263752640Y28499748D01*
X263791053Y28442259D01*
X263809016Y28398892D01*
X263820567Y28377282D01*
X263836112Y28358340D01*
X263855054Y28342794D01*
X263876664Y28331243D01*
X263900113Y28324130D01*
X263924499Y28321728D01*
X263948886Y28324130D01*
X263972335Y28331243D01*
X263993945Y28342794D01*
X264012887Y28358339D01*
X264028433Y28377281D01*
X264039984Y28398892D01*
X264057947Y28442259D01*
X264096360Y28499748D01*
X264145252Y28548640D01*
X264202742Y28587054D01*
X264266615Y28613510D01*
X264266614Y28613510D01*
X264266617Y28613511D01*
X264334430Y28627000D01*
X264403570Y28627000D01*
X264471383Y28613511D01*
X264471386Y28613510D01*
X264471385Y28613510D01*
X264535258Y28587054D01*
X264592748Y28548640D01*
X264641640Y28499748D01*
X264680053Y28442259D01*
X264698016Y28398892D01*
X264709567Y28377282D01*
X264725112Y28358340D01*
X264744054Y28342794D01*
X264765664Y28331243D01*
X264789113Y28324130D01*
X264813499Y28321728D01*
X264837886Y28324130D01*
X264861335Y28331243D01*
X264882945Y28342794D01*
X264901887Y28358339D01*
X264917433Y28377281D01*
X264928984Y28398892D01*
X264946947Y28442259D01*
X264985360Y28499748D01*
X265034252Y28548640D01*
X265091742Y28587054D01*
X265155615Y28613510D01*
X265155614Y28613510D01*
X265155617Y28613511D01*
X265223430Y28627000D01*
X265292570Y28627000D01*
X265360383Y28613511D01*
X265360386Y28613510D01*
X265360385Y28613510D01*
X265424258Y28587054D01*
X265481748Y28548640D01*
X265530640Y28499748D01*
X265569053Y28442259D01*
X265587016Y28398892D01*
X265598567Y28377282D01*
X265614112Y28358340D01*
X265633054Y28342794D01*
X265654664Y28331243D01*
X265678113Y28324130D01*
X265702499Y28321728D01*
X265726886Y28324130D01*
X265750335Y28331243D01*
X265771945Y28342794D01*
X265790887Y28358339D01*
X265806433Y28377281D01*
X265817984Y28398892D01*
X265835947Y28442259D01*
X265874360Y28499748D01*
X265923252Y28548640D01*
X265980742Y28587054D01*
X266044615Y28613510D01*
X266044614Y28613510D01*
X266044617Y28613511D01*
X266112430Y28627000D01*
X266181570Y28627000D01*
X266249383Y28613511D01*
X266249386Y28613510D01*
X266249385Y28613510D01*
X266313258Y28587054D01*
X266370748Y28548640D01*
X266419640Y28499748D01*
X266458054Y28442258D01*
X266476016Y28398892D01*
X266484511Y28378383D01*
X266498000Y28310570D01*
X266498000Y28241430D01*
X266484511Y28173617D01*
X266484510Y28173615D01*
X266458054Y28109742D01*
X266419640Y28052252D01*
X266370748Y28003360D01*
X266313258Y27964946D01*
X266261182Y27943376D01*
X266249383Y27938489D01*
X266181570Y27925000D01*
X266112430Y27925000D01*
X266044617Y27938489D01*
X266032818Y27943376D01*
X265980742Y27964946D01*
X265923252Y28003360D01*
X265874360Y28052252D01*
X265835947Y28109741D01*
X265817984Y28153108D01*
X265806433Y28174718D01*
X265790888Y28193660D01*
X265771946Y28209206D01*
X265750336Y28220757D01*
X265726887Y28227870D01*
X265702501Y28230272D01*
X265678114Y28227870D01*
X265654665Y28220757D01*
X265633055Y28209206D01*
X265614113Y28193661D01*
X265598567Y28174719D01*
X265587016Y28153108D01*
X265569053Y28109741D01*
X265530640Y28052252D01*
X265481748Y28003360D01*
X265424258Y27964946D01*
X265372182Y27943376D01*
X265360383Y27938489D01*
X265292570Y27925000D01*
X265223430Y27925000D01*
X265155617Y27938489D01*
X265143818Y27943376D01*
X265091742Y27964946D01*
X265034252Y28003360D01*
X264985360Y28052252D01*
X264946947Y28109741D01*
X264928984Y28153108D01*
X264917433Y28174718D01*
X264901888Y28193660D01*
X264882946Y28209206D01*
X264861336Y28220757D01*
X264837887Y28227870D01*
X264813501Y28230272D01*
X264789114Y28227870D01*
X264765665Y28220757D01*
X264744055Y28209206D01*
X264725113Y28193661D01*
X264709567Y28174719D01*
X264698016Y28153108D01*
X264680053Y28109741D01*
X264641640Y28052252D01*
X264592748Y28003360D01*
X264535258Y27964946D01*
X264483182Y27943376D01*
X264471383Y27938489D01*
X264403570Y27925000D01*
X264334430Y27925000D01*
X264266617Y27938489D01*
X264254818Y27943376D01*
X264202742Y27964946D01*
X264145252Y28003360D01*
X264096360Y28052252D01*
X264057947Y28109741D01*
X264039984Y28153108D01*
X264028433Y28174718D01*
X264012888Y28193660D01*
X263993946Y28209206D01*
X263972336Y28220757D01*
X263948887Y28227870D01*
X263924501Y28230272D01*
X263900114Y28227870D01*
X263876665Y28220757D01*
X263855055Y28209206D01*
X263836113Y28193661D01*
X263820567Y28174719D01*
X263809016Y28153108D01*
X263791053Y28109741D01*
X263752640Y28052252D01*
X263703748Y28003360D01*
X263646258Y27964946D01*
X263594182Y27943376D01*
X263582383Y27938489D01*
X263514570Y27925000D01*
X263445430Y27925000D01*
X263377617Y27938489D01*
X263365818Y27943376D01*
X263313742Y27964946D01*
X263256252Y28003360D01*
X263207360Y28052252D01*
X263168947Y28109741D01*
X263150984Y28153108D01*
X263139433Y28174718D01*
X263123888Y28193660D01*
X263104946Y28209206D01*
X263083336Y28220757D01*
X263059887Y28227870D01*
X263035501Y28230272D01*
X263011114Y28227870D01*
X262987665Y28220757D01*
X262966055Y28209206D01*
X262947113Y28193661D01*
X262931567Y28174719D01*
X262920016Y28153108D01*
X262902053Y28109741D01*
X262863640Y28052252D01*
X262814748Y28003360D01*
X262757258Y27964946D01*
X262705182Y27943376D01*
X262693383Y27938489D01*
X262625570Y27925000D01*
X262556430Y27925000D01*
X262488617Y27938489D01*
X262476818Y27943376D01*
X262424742Y27964946D01*
X262367252Y28003360D01*
X262318360Y28052252D01*
X262279947Y28109741D01*
X262261984Y28153108D01*
X262250433Y28174718D01*
X262234888Y28193660D01*
X262215946Y28209206D01*
X262194336Y28220757D01*
X262170887Y28227870D01*
X262146501Y28230272D01*
X262122114Y28227870D01*
X262098665Y28220757D01*
X262077055Y28209206D01*
X262058113Y28193661D01*
X262042567Y28174719D01*
X262031016Y28153108D01*
X262013053Y28109741D01*
X261974640Y28052252D01*
X261925748Y28003360D01*
X261868258Y27964946D01*
X261816182Y27943376D01*
X261804383Y27938489D01*
X261736570Y27925000D01*
X261667430Y27925000D01*
X261599617Y27938489D01*
X261587818Y27943376D01*
X261535742Y27964946D01*
X261478252Y28003360D01*
X261429360Y28052252D01*
X261390947Y28109741D01*
X261372984Y28153108D01*
X261361433Y28174718D01*
X261345888Y28193660D01*
X261326946Y28209206D01*
X261305336Y28220757D01*
X261281887Y28227870D01*
X261257501Y28230272D01*
X261233114Y28227870D01*
X261209665Y28220757D01*
X261188055Y28209206D01*
X261169113Y28193661D01*
X261153567Y28174719D01*
X261142016Y28153108D01*
X261124053Y28109741D01*
X261085640Y28052252D01*
X261036748Y28003360D01*
X260979258Y27964946D01*
X260927182Y27943376D01*
X260915383Y27938489D01*
X260847570Y27925000D01*
X260778430Y27925000D01*
X260710617Y27938489D01*
X260698818Y27943376D01*
X260646742Y27964946D01*
X260589252Y28003360D01*
X260540360Y28052252D01*
X260501946Y28109742D01*
X260475490Y28173615D01*
X260475489Y28173617D01*
X260462000Y28241430D01*
X260462000Y28310570D01*
X260475489Y28378383D01*
X260483984Y28398892D01*
X260501946Y28442258D01*
X260540360Y28499748D01*
X260589252Y28548640D01*
X260646742Y28587054D01*
X260710615Y28613510D01*
X260710614Y28613510D01*
X260710617Y28613511D01*
X260778430Y28627000D01*
X260847570Y28627000D01*
X260915383Y28613511D01*
G37*
G36*
X169735383Y49331511D02*
G01*
X169735386Y49331510D01*
X169735385Y49331510D01*
X169799258Y49305054D01*
X169856748Y49266640D01*
X169905640Y49217748D01*
X169944053Y49160259D01*
X169962016Y49116892D01*
X169973567Y49095282D01*
X169989112Y49076340D01*
X170008054Y49060794D01*
X170029664Y49049243D01*
X170053113Y49042130D01*
X170077499Y49039728D01*
X170101886Y49042130D01*
X170125335Y49049243D01*
X170146945Y49060794D01*
X170165887Y49076339D01*
X170181433Y49095281D01*
X170192984Y49116892D01*
X170210947Y49160259D01*
X170249360Y49217748D01*
X170298252Y49266640D01*
X170355742Y49305054D01*
X170419615Y49331510D01*
X170419614Y49331510D01*
X170419617Y49331511D01*
X170487430Y49345000D01*
X170556570Y49345000D01*
X170624383Y49331511D01*
X170624386Y49331510D01*
X170624385Y49331510D01*
X170688258Y49305054D01*
X170745748Y49266640D01*
X170794640Y49217748D01*
X170833053Y49160259D01*
X170851016Y49116892D01*
X170862567Y49095282D01*
X170878112Y49076340D01*
X170897054Y49060794D01*
X170918664Y49049243D01*
X170942113Y49042130D01*
X170966499Y49039728D01*
X170990886Y49042130D01*
X171014335Y49049243D01*
X171035945Y49060794D01*
X171054887Y49076339D01*
X171070433Y49095281D01*
X171081984Y49116892D01*
X171099947Y49160259D01*
X171138360Y49217748D01*
X171187252Y49266640D01*
X171244742Y49305054D01*
X171308615Y49331510D01*
X171308614Y49331510D01*
X171308617Y49331511D01*
X171376430Y49345000D01*
X171445570Y49345000D01*
X171513383Y49331511D01*
X171513386Y49331510D01*
X171513385Y49331510D01*
X171577258Y49305054D01*
X171634748Y49266640D01*
X171683640Y49217748D01*
X171722053Y49160259D01*
X171740016Y49116892D01*
X171751567Y49095282D01*
X171767112Y49076340D01*
X171786054Y49060794D01*
X171807664Y49049243D01*
X171831113Y49042130D01*
X171855499Y49039728D01*
X171879886Y49042130D01*
X171903335Y49049243D01*
X171924945Y49060794D01*
X171943887Y49076339D01*
X171959433Y49095281D01*
X171970984Y49116892D01*
X171988947Y49160259D01*
X172027360Y49217748D01*
X172076252Y49266640D01*
X172133742Y49305054D01*
X172197615Y49331510D01*
X172197614Y49331510D01*
X172197617Y49331511D01*
X172265430Y49345000D01*
X172334570Y49345000D01*
X172402383Y49331511D01*
X172402386Y49331510D01*
X172402385Y49331510D01*
X172466258Y49305054D01*
X172523748Y49266640D01*
X172572640Y49217748D01*
X172611053Y49160259D01*
X172629016Y49116892D01*
X172640567Y49095282D01*
X172656112Y49076340D01*
X172675054Y49060794D01*
X172696664Y49049243D01*
X172720113Y49042130D01*
X172744499Y49039728D01*
X172768886Y49042130D01*
X172792335Y49049243D01*
X172813945Y49060794D01*
X172832887Y49076339D01*
X172848433Y49095281D01*
X172859984Y49116892D01*
X172877947Y49160259D01*
X172916360Y49217748D01*
X172965252Y49266640D01*
X173022742Y49305054D01*
X173086615Y49331510D01*
X173086614Y49331510D01*
X173086617Y49331511D01*
X173154430Y49345000D01*
X173223570Y49345000D01*
X173291383Y49331511D01*
X173291386Y49331510D01*
X173291385Y49331510D01*
X173355258Y49305054D01*
X173412748Y49266640D01*
X173461640Y49217748D01*
X173500053Y49160259D01*
X173518016Y49116892D01*
X173529567Y49095282D01*
X173545112Y49076340D01*
X173564054Y49060794D01*
X173585664Y49049243D01*
X173609113Y49042130D01*
X173633499Y49039728D01*
X173657886Y49042130D01*
X173681335Y49049243D01*
X173702945Y49060794D01*
X173721887Y49076339D01*
X173737433Y49095281D01*
X173748984Y49116892D01*
X173766947Y49160259D01*
X173805360Y49217748D01*
X173854252Y49266640D01*
X173911742Y49305054D01*
X173975615Y49331510D01*
X173975614Y49331510D01*
X173975617Y49331511D01*
X174043430Y49345000D01*
X174112570Y49345000D01*
X174180383Y49331511D01*
X174180386Y49331510D01*
X174180385Y49331510D01*
X174244258Y49305054D01*
X174301748Y49266640D01*
X174350640Y49217748D01*
X174389053Y49160259D01*
X174407016Y49116892D01*
X174418567Y49095282D01*
X174434112Y49076340D01*
X174453054Y49060794D01*
X174474664Y49049243D01*
X174498113Y49042130D01*
X174522499Y49039728D01*
X174546886Y49042130D01*
X174570335Y49049243D01*
X174591945Y49060794D01*
X174610887Y49076339D01*
X174626433Y49095281D01*
X174637984Y49116892D01*
X174655947Y49160259D01*
X174694360Y49217748D01*
X174743252Y49266640D01*
X174800742Y49305054D01*
X174864615Y49331510D01*
X174864614Y49331510D01*
X174864617Y49331511D01*
X174932430Y49345000D01*
X175001570Y49345000D01*
X175069383Y49331511D01*
X175069386Y49331510D01*
X175069385Y49331510D01*
X175133258Y49305054D01*
X175190748Y49266640D01*
X175239640Y49217748D01*
X175278054Y49160258D01*
X175296016Y49116892D01*
X175304511Y49096383D01*
X175318000Y49028570D01*
X175318000Y48959430D01*
X175304511Y48891617D01*
X175304510Y48891615D01*
X175278054Y48827742D01*
X175239640Y48770252D01*
X175190748Y48721360D01*
X175133258Y48682946D01*
X175081182Y48661376D01*
X175069383Y48656489D01*
X175001570Y48643000D01*
X174932430Y48643000D01*
X174864617Y48656489D01*
X174852818Y48661376D01*
X174800742Y48682946D01*
X174743252Y48721360D01*
X174694360Y48770252D01*
X174655947Y48827741D01*
X174637984Y48871108D01*
X174626433Y48892718D01*
X174610888Y48911660D01*
X174591946Y48927206D01*
X174570336Y48938757D01*
X174546887Y48945870D01*
X174522501Y48948272D01*
X174498114Y48945870D01*
X174474665Y48938757D01*
X174453055Y48927206D01*
X174434113Y48911661D01*
X174418567Y48892719D01*
X174407016Y48871108D01*
X174389053Y48827741D01*
X174350640Y48770252D01*
X174301748Y48721360D01*
X174244258Y48682946D01*
X174192182Y48661376D01*
X174180383Y48656489D01*
X174112570Y48643000D01*
X174043430Y48643000D01*
X173975617Y48656489D01*
X173963818Y48661376D01*
X173911742Y48682946D01*
X173854252Y48721360D01*
X173805360Y48770252D01*
X173766947Y48827741D01*
X173748984Y48871108D01*
X173737433Y48892718D01*
X173721888Y48911660D01*
X173702946Y48927206D01*
X173681336Y48938757D01*
X173657887Y48945870D01*
X173633501Y48948272D01*
X173609114Y48945870D01*
X173585665Y48938757D01*
X173564055Y48927206D01*
X173545113Y48911661D01*
X173529567Y48892719D01*
X173518016Y48871108D01*
X173500053Y48827741D01*
X173461640Y48770252D01*
X173412748Y48721360D01*
X173355258Y48682946D01*
X173303182Y48661376D01*
X173291383Y48656489D01*
X173223570Y48643000D01*
X173154430Y48643000D01*
X173086617Y48656489D01*
X173074818Y48661376D01*
X173022742Y48682946D01*
X172965252Y48721360D01*
X172916360Y48770252D01*
X172877947Y48827741D01*
X172859984Y48871108D01*
X172848433Y48892718D01*
X172832888Y48911660D01*
X172813946Y48927206D01*
X172792336Y48938757D01*
X172768887Y48945870D01*
X172744501Y48948272D01*
X172720114Y48945870D01*
X172696665Y48938757D01*
X172675055Y48927206D01*
X172656113Y48911661D01*
X172640567Y48892719D01*
X172629016Y48871108D01*
X172611053Y48827741D01*
X172572640Y48770252D01*
X172523748Y48721360D01*
X172466258Y48682946D01*
X172414182Y48661376D01*
X172402383Y48656489D01*
X172334570Y48643000D01*
X172265430Y48643000D01*
X172197617Y48656489D01*
X172185818Y48661376D01*
X172133742Y48682946D01*
X172076252Y48721360D01*
X172027360Y48770252D01*
X171988947Y48827741D01*
X171970984Y48871108D01*
X171959433Y48892718D01*
X171943888Y48911660D01*
X171924946Y48927206D01*
X171903336Y48938757D01*
X171879887Y48945870D01*
X171855501Y48948272D01*
X171831114Y48945870D01*
X171807665Y48938757D01*
X171786055Y48927206D01*
X171767113Y48911661D01*
X171751567Y48892719D01*
X171740016Y48871108D01*
X171722053Y48827741D01*
X171683640Y48770252D01*
X171634748Y48721360D01*
X171577258Y48682946D01*
X171525182Y48661376D01*
X171513383Y48656489D01*
X171445570Y48643000D01*
X171376430Y48643000D01*
X171308617Y48656489D01*
X171296818Y48661376D01*
X171244742Y48682946D01*
X171187252Y48721360D01*
X171138360Y48770252D01*
X171099947Y48827741D01*
X171081984Y48871108D01*
X171070433Y48892718D01*
X171054888Y48911660D01*
X171035946Y48927206D01*
X171014336Y48938757D01*
X170990887Y48945870D01*
X170966501Y48948272D01*
X170942114Y48945870D01*
X170918665Y48938757D01*
X170897055Y48927206D01*
X170878113Y48911661D01*
X170862567Y48892719D01*
X170851016Y48871108D01*
X170833053Y48827741D01*
X170794640Y48770252D01*
X170745748Y48721360D01*
X170688258Y48682946D01*
X170636182Y48661376D01*
X170624383Y48656489D01*
X170556570Y48643000D01*
X170487430Y48643000D01*
X170419617Y48656489D01*
X170407818Y48661376D01*
X170355742Y48682946D01*
X170298252Y48721360D01*
X170249360Y48770252D01*
X170210947Y48827741D01*
X170192984Y48871108D01*
X170181433Y48892718D01*
X170165888Y48911660D01*
X170146946Y48927206D01*
X170125336Y48938757D01*
X170101887Y48945870D01*
X170077501Y48948272D01*
X170053114Y48945870D01*
X170029665Y48938757D01*
X170008055Y48927206D01*
X169989113Y48911661D01*
X169973567Y48892719D01*
X169962016Y48871108D01*
X169944053Y48827741D01*
X169905640Y48770252D01*
X169856748Y48721360D01*
X169799258Y48682946D01*
X169747182Y48661376D01*
X169735383Y48656489D01*
X169667570Y48643000D01*
X169598430Y48643000D01*
X169530617Y48656489D01*
X169518818Y48661376D01*
X169466742Y48682946D01*
X169409252Y48721360D01*
X169360360Y48770252D01*
X169321946Y48827742D01*
X169295490Y48891615D01*
X169295489Y48891617D01*
X169282000Y48959430D01*
X169282000Y49028570D01*
X169295489Y49096383D01*
X169303984Y49116892D01*
X169321946Y49160258D01*
X169360360Y49217748D01*
X169409252Y49266640D01*
X169466742Y49305054D01*
X169530615Y49331510D01*
X169530614Y49331510D01*
X169530617Y49331511D01*
X169598430Y49345000D01*
X169667570Y49345000D01*
X169735383Y49331511D01*
G37*
G36*
X260915383Y49331511D02*
G01*
X260915386Y49331510D01*
X260915385Y49331510D01*
X260979258Y49305054D01*
X261036748Y49266640D01*
X261085640Y49217748D01*
X261124053Y49160259D01*
X261142016Y49116892D01*
X261153567Y49095282D01*
X261169112Y49076340D01*
X261188054Y49060794D01*
X261209664Y49049243D01*
X261233113Y49042130D01*
X261257499Y49039728D01*
X261281886Y49042130D01*
X261305335Y49049243D01*
X261326945Y49060794D01*
X261345887Y49076339D01*
X261361433Y49095281D01*
X261372984Y49116892D01*
X261390947Y49160259D01*
X261429360Y49217748D01*
X261478252Y49266640D01*
X261535742Y49305054D01*
X261599615Y49331510D01*
X261599614Y49331510D01*
X261599617Y49331511D01*
X261667430Y49345000D01*
X261736570Y49345000D01*
X261804383Y49331511D01*
X261804386Y49331510D01*
X261804385Y49331510D01*
X261868258Y49305054D01*
X261925748Y49266640D01*
X261974640Y49217748D01*
X262013053Y49160259D01*
X262031016Y49116892D01*
X262042567Y49095282D01*
X262058112Y49076340D01*
X262077054Y49060794D01*
X262098664Y49049243D01*
X262122113Y49042130D01*
X262146499Y49039728D01*
X262170886Y49042130D01*
X262194335Y49049243D01*
X262215945Y49060794D01*
X262234887Y49076339D01*
X262250433Y49095281D01*
X262261984Y49116892D01*
X262279947Y49160259D01*
X262318360Y49217748D01*
X262367252Y49266640D01*
X262424742Y49305054D01*
X262488615Y49331510D01*
X262488614Y49331510D01*
X262488617Y49331511D01*
X262556430Y49345000D01*
X262625570Y49345000D01*
X262693383Y49331511D01*
X262693386Y49331510D01*
X262693385Y49331510D01*
X262757258Y49305054D01*
X262814748Y49266640D01*
X262863640Y49217748D01*
X262902053Y49160259D01*
X262920016Y49116892D01*
X262931567Y49095282D01*
X262947112Y49076340D01*
X262966054Y49060794D01*
X262987664Y49049243D01*
X263011113Y49042130D01*
X263035499Y49039728D01*
X263059886Y49042130D01*
X263083335Y49049243D01*
X263104945Y49060794D01*
X263123887Y49076339D01*
X263139433Y49095281D01*
X263150984Y49116892D01*
X263168947Y49160259D01*
X263207360Y49217748D01*
X263256252Y49266640D01*
X263313742Y49305054D01*
X263377615Y49331510D01*
X263377614Y49331510D01*
X263377617Y49331511D01*
X263445430Y49345000D01*
X263514570Y49345000D01*
X263582383Y49331511D01*
X263582386Y49331510D01*
X263582385Y49331510D01*
X263646258Y49305054D01*
X263703748Y49266640D01*
X263752640Y49217748D01*
X263791053Y49160259D01*
X263809016Y49116892D01*
X263820567Y49095282D01*
X263836112Y49076340D01*
X263855054Y49060794D01*
X263876664Y49049243D01*
X263900113Y49042130D01*
X263924499Y49039728D01*
X263948886Y49042130D01*
X263972335Y49049243D01*
X263993945Y49060794D01*
X264012887Y49076339D01*
X264028433Y49095281D01*
X264039984Y49116892D01*
X264057947Y49160259D01*
X264096360Y49217748D01*
X264145252Y49266640D01*
X264202742Y49305054D01*
X264266615Y49331510D01*
X264266614Y49331510D01*
X264266617Y49331511D01*
X264334430Y49345000D01*
X264403570Y49345000D01*
X264471383Y49331511D01*
X264471386Y49331510D01*
X264471385Y49331510D01*
X264535258Y49305054D01*
X264592748Y49266640D01*
X264641640Y49217748D01*
X264680053Y49160259D01*
X264698016Y49116892D01*
X264709567Y49095282D01*
X264725112Y49076340D01*
X264744054Y49060794D01*
X264765664Y49049243D01*
X264789113Y49042130D01*
X264813499Y49039728D01*
X264837886Y49042130D01*
X264861335Y49049243D01*
X264882945Y49060794D01*
X264901887Y49076339D01*
X264917433Y49095281D01*
X264928984Y49116892D01*
X264946947Y49160259D01*
X264985360Y49217748D01*
X265034252Y49266640D01*
X265091742Y49305054D01*
X265155615Y49331510D01*
X265155614Y49331510D01*
X265155617Y49331511D01*
X265223430Y49345000D01*
X265292570Y49345000D01*
X265360383Y49331511D01*
X265360386Y49331510D01*
X265360385Y49331510D01*
X265424258Y49305054D01*
X265481748Y49266640D01*
X265530640Y49217748D01*
X265569053Y49160259D01*
X265587016Y49116892D01*
X265598567Y49095282D01*
X265614112Y49076340D01*
X265633054Y49060794D01*
X265654664Y49049243D01*
X265678113Y49042130D01*
X265702499Y49039728D01*
X265726886Y49042130D01*
X265750335Y49049243D01*
X265771945Y49060794D01*
X265790887Y49076339D01*
X265806433Y49095281D01*
X265817984Y49116892D01*
X265835947Y49160259D01*
X265874360Y49217748D01*
X265923252Y49266640D01*
X265980742Y49305054D01*
X266044615Y49331510D01*
X266044614Y49331510D01*
X266044617Y49331511D01*
X266112430Y49345000D01*
X266181570Y49345000D01*
X266249383Y49331511D01*
X266249386Y49331510D01*
X266249385Y49331510D01*
X266313258Y49305054D01*
X266370748Y49266640D01*
X266419640Y49217748D01*
X266458054Y49160258D01*
X266476016Y49116892D01*
X266484511Y49096383D01*
X266498000Y49028570D01*
X266498000Y48959430D01*
X266484511Y48891617D01*
X266484510Y48891615D01*
X266458054Y48827742D01*
X266419640Y48770252D01*
X266370748Y48721360D01*
X266313258Y48682946D01*
X266261182Y48661376D01*
X266249383Y48656489D01*
X266181570Y48643000D01*
X266112430Y48643000D01*
X266044617Y48656489D01*
X266032818Y48661376D01*
X265980742Y48682946D01*
X265923252Y48721360D01*
X265874360Y48770252D01*
X265835947Y48827741D01*
X265817984Y48871108D01*
X265806433Y48892718D01*
X265790888Y48911660D01*
X265771946Y48927206D01*
X265750336Y48938757D01*
X265726887Y48945870D01*
X265702501Y48948272D01*
X265678114Y48945870D01*
X265654665Y48938757D01*
X265633055Y48927206D01*
X265614113Y48911661D01*
X265598567Y48892719D01*
X265587016Y48871108D01*
X265569053Y48827741D01*
X265530640Y48770252D01*
X265481748Y48721360D01*
X265424258Y48682946D01*
X265372182Y48661376D01*
X265360383Y48656489D01*
X265292570Y48643000D01*
X265223430Y48643000D01*
X265155617Y48656489D01*
X265143818Y48661376D01*
X265091742Y48682946D01*
X265034252Y48721360D01*
X264985360Y48770252D01*
X264946947Y48827741D01*
X264928984Y48871108D01*
X264917433Y48892718D01*
X264901888Y48911660D01*
X264882946Y48927206D01*
X264861336Y48938757D01*
X264837887Y48945870D01*
X264813501Y48948272D01*
X264789114Y48945870D01*
X264765665Y48938757D01*
X264744055Y48927206D01*
X264725113Y48911661D01*
X264709567Y48892719D01*
X264698016Y48871108D01*
X264680053Y48827741D01*
X264641640Y48770252D01*
X264592748Y48721360D01*
X264535258Y48682946D01*
X264483182Y48661376D01*
X264471383Y48656489D01*
X264403570Y48643000D01*
X264334430Y48643000D01*
X264266617Y48656489D01*
X264254818Y48661376D01*
X264202742Y48682946D01*
X264145252Y48721360D01*
X264096360Y48770252D01*
X264057947Y48827741D01*
X264039984Y48871108D01*
X264028433Y48892718D01*
X264012888Y48911660D01*
X263993946Y48927206D01*
X263972336Y48938757D01*
X263948887Y48945870D01*
X263924501Y48948272D01*
X263900114Y48945870D01*
X263876665Y48938757D01*
X263855055Y48927206D01*
X263836113Y48911661D01*
X263820567Y48892719D01*
X263809016Y48871108D01*
X263791053Y48827741D01*
X263752640Y48770252D01*
X263703748Y48721360D01*
X263646258Y48682946D01*
X263594182Y48661376D01*
X263582383Y48656489D01*
X263514570Y48643000D01*
X263445430Y48643000D01*
X263377617Y48656489D01*
X263365818Y48661376D01*
X263313742Y48682946D01*
X263256252Y48721360D01*
X263207360Y48770252D01*
X263168947Y48827741D01*
X263150984Y48871108D01*
X263139433Y48892718D01*
X263123888Y48911660D01*
X263104946Y48927206D01*
X263083336Y48938757D01*
X263059887Y48945870D01*
X263035501Y48948272D01*
X263011114Y48945870D01*
X262987665Y48938757D01*
X262966055Y48927206D01*
X262947113Y48911661D01*
X262931567Y48892719D01*
X262920016Y48871108D01*
X262902053Y48827741D01*
X262863640Y48770252D01*
X262814748Y48721360D01*
X262757258Y48682946D01*
X262705182Y48661376D01*
X262693383Y48656489D01*
X262625570Y48643000D01*
X262556430Y48643000D01*
X262488617Y48656489D01*
X262476818Y48661376D01*
X262424742Y48682946D01*
X262367252Y48721360D01*
X262318360Y48770252D01*
X262279947Y48827741D01*
X262261984Y48871108D01*
X262250433Y48892718D01*
X262234888Y48911660D01*
X262215946Y48927206D01*
X262194336Y48938757D01*
X262170887Y48945870D01*
X262146501Y48948272D01*
X262122114Y48945870D01*
X262098665Y48938757D01*
X262077055Y48927206D01*
X262058113Y48911661D01*
X262042567Y48892719D01*
X262031016Y48871108D01*
X262013053Y48827741D01*
X261974640Y48770252D01*
X261925748Y48721360D01*
X261868258Y48682946D01*
X261816182Y48661376D01*
X261804383Y48656489D01*
X261736570Y48643000D01*
X261667430Y48643000D01*
X261599617Y48656489D01*
X261587818Y48661376D01*
X261535742Y48682946D01*
X261478252Y48721360D01*
X261429360Y48770252D01*
X261390947Y48827741D01*
X261372984Y48871108D01*
X261361433Y48892718D01*
X261345888Y48911660D01*
X261326946Y48927206D01*
X261305336Y48938757D01*
X261281887Y48945870D01*
X261257501Y48948272D01*
X261233114Y48945870D01*
X261209665Y48938757D01*
X261188055Y48927206D01*
X261169113Y48911661D01*
X261153567Y48892719D01*
X261142016Y48871108D01*
X261124053Y48827741D01*
X261085640Y48770252D01*
X261036748Y48721360D01*
X260979258Y48682946D01*
X260927182Y48661376D01*
X260915383Y48656489D01*
X260847570Y48643000D01*
X260778430Y48643000D01*
X260710617Y48656489D01*
X260698818Y48661376D01*
X260646742Y48682946D01*
X260589252Y48721360D01*
X260540360Y48770252D01*
X260501946Y48827742D01*
X260475490Y48891615D01*
X260475489Y48891617D01*
X260462000Y48959430D01*
X260462000Y49028570D01*
X260475489Y49096383D01*
X260483984Y49116892D01*
X260501946Y49160258D01*
X260540360Y49217748D01*
X260589252Y49266640D01*
X260646742Y49305054D01*
X260710615Y49331510D01*
X260710614Y49331510D01*
X260710617Y49331511D01*
X260778430Y49345000D01*
X260847570Y49345000D01*
X260915383Y49331511D01*
G37*
G36*
X260915383Y51363511D02*
G01*
X260915386Y51363510D01*
X260915385Y51363510D01*
X260979258Y51337054D01*
X261036748Y51298640D01*
X261085640Y51249748D01*
X261124053Y51192259D01*
X261142016Y51148892D01*
X261153567Y51127282D01*
X261169112Y51108340D01*
X261188054Y51092794D01*
X261209664Y51081243D01*
X261233113Y51074130D01*
X261257499Y51071728D01*
X261281886Y51074130D01*
X261305335Y51081243D01*
X261326945Y51092794D01*
X261345887Y51108339D01*
X261361433Y51127281D01*
X261372984Y51148892D01*
X261390947Y51192259D01*
X261429360Y51249748D01*
X261478252Y51298640D01*
X261535742Y51337054D01*
X261599615Y51363510D01*
X261599614Y51363510D01*
X261599617Y51363511D01*
X261667430Y51377000D01*
X261736570Y51377000D01*
X261804383Y51363511D01*
X261804386Y51363510D01*
X261804385Y51363510D01*
X261868258Y51337054D01*
X261925748Y51298640D01*
X261974640Y51249748D01*
X262013053Y51192259D01*
X262031016Y51148892D01*
X262042567Y51127282D01*
X262058112Y51108340D01*
X262077054Y51092794D01*
X262098664Y51081243D01*
X262122113Y51074130D01*
X262146499Y51071728D01*
X262170886Y51074130D01*
X262194335Y51081243D01*
X262215945Y51092794D01*
X262234887Y51108339D01*
X262250433Y51127281D01*
X262261984Y51148892D01*
X262279947Y51192259D01*
X262318360Y51249748D01*
X262367252Y51298640D01*
X262424742Y51337054D01*
X262488615Y51363510D01*
X262488614Y51363510D01*
X262488617Y51363511D01*
X262556430Y51377000D01*
X262625570Y51377000D01*
X262693383Y51363511D01*
X262693386Y51363510D01*
X262693385Y51363510D01*
X262757258Y51337054D01*
X262814748Y51298640D01*
X262863640Y51249748D01*
X262902053Y51192259D01*
X262920016Y51148892D01*
X262931567Y51127282D01*
X262947112Y51108340D01*
X262966054Y51092794D01*
X262987664Y51081243D01*
X263011113Y51074130D01*
X263035499Y51071728D01*
X263059886Y51074130D01*
X263083335Y51081243D01*
X263104945Y51092794D01*
X263123887Y51108339D01*
X263139433Y51127281D01*
X263150984Y51148892D01*
X263168947Y51192259D01*
X263207360Y51249748D01*
X263256252Y51298640D01*
X263313742Y51337054D01*
X263377615Y51363510D01*
X263377614Y51363510D01*
X263377617Y51363511D01*
X263445430Y51377000D01*
X263514570Y51377000D01*
X263582383Y51363511D01*
X263582386Y51363510D01*
X263582385Y51363510D01*
X263646258Y51337054D01*
X263703748Y51298640D01*
X263752640Y51249748D01*
X263791053Y51192259D01*
X263809016Y51148892D01*
X263820567Y51127282D01*
X263836112Y51108340D01*
X263855054Y51092794D01*
X263876664Y51081243D01*
X263900113Y51074130D01*
X263924499Y51071728D01*
X263948886Y51074130D01*
X263972335Y51081243D01*
X263993945Y51092794D01*
X264012887Y51108339D01*
X264028433Y51127281D01*
X264039984Y51148892D01*
X264057947Y51192259D01*
X264096360Y51249748D01*
X264145252Y51298640D01*
X264202742Y51337054D01*
X264266615Y51363510D01*
X264266614Y51363510D01*
X264266617Y51363511D01*
X264334430Y51377000D01*
X264403570Y51377000D01*
X264471383Y51363511D01*
X264471386Y51363510D01*
X264471385Y51363510D01*
X264535258Y51337054D01*
X264592748Y51298640D01*
X264641640Y51249748D01*
X264680053Y51192259D01*
X264698016Y51148892D01*
X264709567Y51127282D01*
X264725112Y51108340D01*
X264744054Y51092794D01*
X264765664Y51081243D01*
X264789113Y51074130D01*
X264813499Y51071728D01*
X264837886Y51074130D01*
X264861335Y51081243D01*
X264882945Y51092794D01*
X264901887Y51108339D01*
X264917433Y51127281D01*
X264928984Y51148892D01*
X264946947Y51192259D01*
X264985360Y51249748D01*
X265034252Y51298640D01*
X265091742Y51337054D01*
X265155615Y51363510D01*
X265155614Y51363510D01*
X265155617Y51363511D01*
X265223430Y51377000D01*
X265292570Y51377000D01*
X265360383Y51363511D01*
X265360386Y51363510D01*
X265360385Y51363510D01*
X265424258Y51337054D01*
X265481748Y51298640D01*
X265530640Y51249748D01*
X265569053Y51192259D01*
X265587016Y51148892D01*
X265598567Y51127282D01*
X265614112Y51108340D01*
X265633054Y51092794D01*
X265654664Y51081243D01*
X265678113Y51074130D01*
X265702499Y51071728D01*
X265726886Y51074130D01*
X265750335Y51081243D01*
X265771945Y51092794D01*
X265790887Y51108339D01*
X265806433Y51127281D01*
X265817984Y51148892D01*
X265835947Y51192259D01*
X265874360Y51249748D01*
X265923252Y51298640D01*
X265980742Y51337054D01*
X266044615Y51363510D01*
X266044614Y51363510D01*
X266044617Y51363511D01*
X266112430Y51377000D01*
X266181570Y51377000D01*
X266249383Y51363511D01*
X266249386Y51363510D01*
X266249385Y51363510D01*
X266313258Y51337054D01*
X266370748Y51298640D01*
X266419640Y51249748D01*
X266458054Y51192258D01*
X266476016Y51148892D01*
X266484511Y51128383D01*
X266498000Y51060570D01*
X266498000Y50991430D01*
X266484511Y50923617D01*
X266484510Y50923615D01*
X266458054Y50859742D01*
X266419640Y50802252D01*
X266370748Y50753360D01*
X266313258Y50714946D01*
X266261182Y50693376D01*
X266249383Y50688489D01*
X266181570Y50675000D01*
X266112430Y50675000D01*
X266044617Y50688489D01*
X266032818Y50693376D01*
X265980742Y50714946D01*
X265923252Y50753360D01*
X265874360Y50802252D01*
X265835947Y50859741D01*
X265817984Y50903108D01*
X265806433Y50924718D01*
X265790888Y50943660D01*
X265771946Y50959206D01*
X265750336Y50970757D01*
X265726887Y50977870D01*
X265702501Y50980272D01*
X265678114Y50977870D01*
X265654665Y50970757D01*
X265633055Y50959206D01*
X265614113Y50943661D01*
X265598567Y50924719D01*
X265587016Y50903108D01*
X265569053Y50859741D01*
X265530640Y50802252D01*
X265481748Y50753360D01*
X265424258Y50714946D01*
X265372182Y50693376D01*
X265360383Y50688489D01*
X265292570Y50675000D01*
X265223430Y50675000D01*
X265155617Y50688489D01*
X265143818Y50693376D01*
X265091742Y50714946D01*
X265034252Y50753360D01*
X264985360Y50802252D01*
X264946947Y50859741D01*
X264928984Y50903108D01*
X264917433Y50924718D01*
X264901888Y50943660D01*
X264882946Y50959206D01*
X264861336Y50970757D01*
X264837887Y50977870D01*
X264813501Y50980272D01*
X264789114Y50977870D01*
X264765665Y50970757D01*
X264744055Y50959206D01*
X264725113Y50943661D01*
X264709567Y50924719D01*
X264698016Y50903108D01*
X264680053Y50859741D01*
X264641640Y50802252D01*
X264592748Y50753360D01*
X264535258Y50714946D01*
X264483182Y50693376D01*
X264471383Y50688489D01*
X264403570Y50675000D01*
X264334430Y50675000D01*
X264266617Y50688489D01*
X264254818Y50693376D01*
X264202742Y50714946D01*
X264145252Y50753360D01*
X264096360Y50802252D01*
X264057947Y50859741D01*
X264039984Y50903108D01*
X264028433Y50924718D01*
X264012888Y50943660D01*
X263993946Y50959206D01*
X263972336Y50970757D01*
X263948887Y50977870D01*
X263924501Y50980272D01*
X263900114Y50977870D01*
X263876665Y50970757D01*
X263855055Y50959206D01*
X263836113Y50943661D01*
X263820567Y50924719D01*
X263809016Y50903108D01*
X263791053Y50859741D01*
X263752640Y50802252D01*
X263703748Y50753360D01*
X263646258Y50714946D01*
X263594182Y50693376D01*
X263582383Y50688489D01*
X263514570Y50675000D01*
X263445430Y50675000D01*
X263377617Y50688489D01*
X263365818Y50693376D01*
X263313742Y50714946D01*
X263256252Y50753360D01*
X263207360Y50802252D01*
X263168947Y50859741D01*
X263150984Y50903108D01*
X263139433Y50924718D01*
X263123888Y50943660D01*
X263104946Y50959206D01*
X263083336Y50970757D01*
X263059887Y50977870D01*
X263035501Y50980272D01*
X263011114Y50977870D01*
X262987665Y50970757D01*
X262966055Y50959206D01*
X262947113Y50943661D01*
X262931567Y50924719D01*
X262920016Y50903108D01*
X262902053Y50859741D01*
X262863640Y50802252D01*
X262814748Y50753360D01*
X262757258Y50714946D01*
X262705182Y50693376D01*
X262693383Y50688489D01*
X262625570Y50675000D01*
X262556430Y50675000D01*
X262488617Y50688489D01*
X262476818Y50693376D01*
X262424742Y50714946D01*
X262367252Y50753360D01*
X262318360Y50802252D01*
X262279947Y50859741D01*
X262261984Y50903108D01*
X262250433Y50924718D01*
X262234888Y50943660D01*
X262215946Y50959206D01*
X262194336Y50970757D01*
X262170887Y50977870D01*
X262146501Y50980272D01*
X262122114Y50977870D01*
X262098665Y50970757D01*
X262077055Y50959206D01*
X262058113Y50943661D01*
X262042567Y50924719D01*
X262031016Y50903108D01*
X262013053Y50859741D01*
X261974640Y50802252D01*
X261925748Y50753360D01*
X261868258Y50714946D01*
X261816182Y50693376D01*
X261804383Y50688489D01*
X261736570Y50675000D01*
X261667430Y50675000D01*
X261599617Y50688489D01*
X261587818Y50693376D01*
X261535742Y50714946D01*
X261478252Y50753360D01*
X261429360Y50802252D01*
X261390947Y50859741D01*
X261372984Y50903108D01*
X261361433Y50924718D01*
X261345888Y50943660D01*
X261326946Y50959206D01*
X261305336Y50970757D01*
X261281887Y50977870D01*
X261257501Y50980272D01*
X261233114Y50977870D01*
X261209665Y50970757D01*
X261188055Y50959206D01*
X261169113Y50943661D01*
X261153567Y50924719D01*
X261142016Y50903108D01*
X261124053Y50859741D01*
X261085640Y50802252D01*
X261036748Y50753360D01*
X260979258Y50714946D01*
X260927182Y50693376D01*
X260915383Y50688489D01*
X260847570Y50675000D01*
X260778430Y50675000D01*
X260710617Y50688489D01*
X260698818Y50693376D01*
X260646742Y50714946D01*
X260589252Y50753360D01*
X260540360Y50802252D01*
X260501946Y50859742D01*
X260475490Y50923615D01*
X260475489Y50923617D01*
X260462000Y50991430D01*
X260462000Y51060570D01*
X260475489Y51128383D01*
X260483984Y51148892D01*
X260501946Y51192258D01*
X260540360Y51249748D01*
X260589252Y51298640D01*
X260646742Y51337054D01*
X260710615Y51363510D01*
X260710614Y51363510D01*
X260710617Y51363511D01*
X260778430Y51377000D01*
X260847570Y51377000D01*
X260915383Y51363511D01*
G37*
G36*
X169735383Y51363511D02*
G01*
X169735386Y51363510D01*
X169735385Y51363510D01*
X169799258Y51337054D01*
X169856748Y51298640D01*
X169905640Y51249748D01*
X169944053Y51192259D01*
X169962016Y51148892D01*
X169973567Y51127282D01*
X169989112Y51108340D01*
X170008054Y51092794D01*
X170029664Y51081243D01*
X170053113Y51074130D01*
X170077499Y51071728D01*
X170101886Y51074130D01*
X170125335Y51081243D01*
X170146945Y51092794D01*
X170165887Y51108339D01*
X170181433Y51127281D01*
X170192984Y51148892D01*
X170210947Y51192259D01*
X170249360Y51249748D01*
X170298252Y51298640D01*
X170355742Y51337054D01*
X170419615Y51363510D01*
X170419614Y51363510D01*
X170419617Y51363511D01*
X170487430Y51377000D01*
X170556570Y51377000D01*
X170624383Y51363511D01*
X170624386Y51363510D01*
X170624385Y51363510D01*
X170688258Y51337054D01*
X170745748Y51298640D01*
X170794640Y51249748D01*
X170833053Y51192259D01*
X170851016Y51148892D01*
X170862567Y51127282D01*
X170878112Y51108340D01*
X170897054Y51092794D01*
X170918664Y51081243D01*
X170942113Y51074130D01*
X170966499Y51071728D01*
X170990886Y51074130D01*
X171014335Y51081243D01*
X171035945Y51092794D01*
X171054887Y51108339D01*
X171070433Y51127281D01*
X171081984Y51148892D01*
X171099947Y51192259D01*
X171138360Y51249748D01*
X171187252Y51298640D01*
X171244742Y51337054D01*
X171308615Y51363510D01*
X171308614Y51363510D01*
X171308617Y51363511D01*
X171376430Y51377000D01*
X171445570Y51377000D01*
X171513383Y51363511D01*
X171513386Y51363510D01*
X171513385Y51363510D01*
X171577258Y51337054D01*
X171634748Y51298640D01*
X171683640Y51249748D01*
X171722053Y51192259D01*
X171740016Y51148892D01*
X171751567Y51127282D01*
X171767112Y51108340D01*
X171786054Y51092794D01*
X171807664Y51081243D01*
X171831113Y51074130D01*
X171855499Y51071728D01*
X171879886Y51074130D01*
X171903335Y51081243D01*
X171924945Y51092794D01*
X171943887Y51108339D01*
X171959433Y51127281D01*
X171970984Y51148892D01*
X171988947Y51192259D01*
X172027360Y51249748D01*
X172076252Y51298640D01*
X172133742Y51337054D01*
X172197615Y51363510D01*
X172197614Y51363510D01*
X172197617Y51363511D01*
X172265430Y51377000D01*
X172334570Y51377000D01*
X172402383Y51363511D01*
X172402386Y51363510D01*
X172402385Y51363510D01*
X172466258Y51337054D01*
X172523748Y51298640D01*
X172572640Y51249748D01*
X172611053Y51192259D01*
X172629016Y51148892D01*
X172640567Y51127282D01*
X172656112Y51108340D01*
X172675054Y51092794D01*
X172696664Y51081243D01*
X172720113Y51074130D01*
X172744499Y51071728D01*
X172768886Y51074130D01*
X172792335Y51081243D01*
X172813945Y51092794D01*
X172832887Y51108339D01*
X172848433Y51127281D01*
X172859984Y51148892D01*
X172877947Y51192259D01*
X172916360Y51249748D01*
X172965252Y51298640D01*
X173022742Y51337054D01*
X173086615Y51363510D01*
X173086614Y51363510D01*
X173086617Y51363511D01*
X173154430Y51377000D01*
X173223570Y51377000D01*
X173291383Y51363511D01*
X173291386Y51363510D01*
X173291385Y51363510D01*
X173355258Y51337054D01*
X173412748Y51298640D01*
X173461640Y51249748D01*
X173500053Y51192259D01*
X173518016Y51148892D01*
X173529567Y51127282D01*
X173545112Y51108340D01*
X173564054Y51092794D01*
X173585664Y51081243D01*
X173609113Y51074130D01*
X173633499Y51071728D01*
X173657886Y51074130D01*
X173681335Y51081243D01*
X173702945Y51092794D01*
X173721887Y51108339D01*
X173737433Y51127281D01*
X173748984Y51148892D01*
X173766947Y51192259D01*
X173805360Y51249748D01*
X173854252Y51298640D01*
X173911742Y51337054D01*
X173975615Y51363510D01*
X173975614Y51363510D01*
X173975617Y51363511D01*
X174043430Y51377000D01*
X174112570Y51377000D01*
X174180383Y51363511D01*
X174180386Y51363510D01*
X174180385Y51363510D01*
X174244258Y51337054D01*
X174301748Y51298640D01*
X174350640Y51249748D01*
X174389053Y51192259D01*
X174407016Y51148892D01*
X174418567Y51127282D01*
X174434112Y51108340D01*
X174453054Y51092794D01*
X174474664Y51081243D01*
X174498113Y51074130D01*
X174522499Y51071728D01*
X174546886Y51074130D01*
X174570335Y51081243D01*
X174591945Y51092794D01*
X174610887Y51108339D01*
X174626433Y51127281D01*
X174637984Y51148892D01*
X174655947Y51192259D01*
X174694360Y51249748D01*
X174743252Y51298640D01*
X174800742Y51337054D01*
X174864615Y51363510D01*
X174864614Y51363510D01*
X174864617Y51363511D01*
X174932430Y51377000D01*
X175001570Y51377000D01*
X175069383Y51363511D01*
X175069386Y51363510D01*
X175069385Y51363510D01*
X175133258Y51337054D01*
X175190748Y51298640D01*
X175239640Y51249748D01*
X175278054Y51192258D01*
X175296016Y51148892D01*
X175304511Y51128383D01*
X175318000Y51060570D01*
X175318000Y50991430D01*
X175304511Y50923617D01*
X175304510Y50923615D01*
X175278054Y50859742D01*
X175239640Y50802252D01*
X175190748Y50753360D01*
X175133258Y50714946D01*
X175081182Y50693376D01*
X175069383Y50688489D01*
X175001570Y50675000D01*
X174932430Y50675000D01*
X174864617Y50688489D01*
X174852818Y50693376D01*
X174800742Y50714946D01*
X174743252Y50753360D01*
X174694360Y50802252D01*
X174655947Y50859741D01*
X174637984Y50903108D01*
X174626433Y50924718D01*
X174610888Y50943660D01*
X174591946Y50959206D01*
X174570336Y50970757D01*
X174546887Y50977870D01*
X174522501Y50980272D01*
X174498114Y50977870D01*
X174474665Y50970757D01*
X174453055Y50959206D01*
X174434113Y50943661D01*
X174418567Y50924719D01*
X174407016Y50903108D01*
X174389053Y50859741D01*
X174350640Y50802252D01*
X174301748Y50753360D01*
X174244258Y50714946D01*
X174192182Y50693376D01*
X174180383Y50688489D01*
X174112570Y50675000D01*
X174043430Y50675000D01*
X173975617Y50688489D01*
X173963818Y50693376D01*
X173911742Y50714946D01*
X173854252Y50753360D01*
X173805360Y50802252D01*
X173766947Y50859741D01*
X173748984Y50903108D01*
X173737433Y50924718D01*
X173721888Y50943660D01*
X173702946Y50959206D01*
X173681336Y50970757D01*
X173657887Y50977870D01*
X173633501Y50980272D01*
X173609114Y50977870D01*
X173585665Y50970757D01*
X173564055Y50959206D01*
X173545113Y50943661D01*
X173529567Y50924719D01*
X173518016Y50903108D01*
X173500053Y50859741D01*
X173461640Y50802252D01*
X173412748Y50753360D01*
X173355258Y50714946D01*
X173303182Y50693376D01*
X173291383Y50688489D01*
X173223570Y50675000D01*
X173154430Y50675000D01*
X173086617Y50688489D01*
X173074818Y50693376D01*
X173022742Y50714946D01*
X172965252Y50753360D01*
X172916360Y50802252D01*
X172877947Y50859741D01*
X172859984Y50903108D01*
X172848433Y50924718D01*
X172832888Y50943660D01*
X172813946Y50959206D01*
X172792336Y50970757D01*
X172768887Y50977870D01*
X172744501Y50980272D01*
X172720114Y50977870D01*
X172696665Y50970757D01*
X172675055Y50959206D01*
X172656113Y50943661D01*
X172640567Y50924719D01*
X172629016Y50903108D01*
X172611053Y50859741D01*
X172572640Y50802252D01*
X172523748Y50753360D01*
X172466258Y50714946D01*
X172414182Y50693376D01*
X172402383Y50688489D01*
X172334570Y50675000D01*
X172265430Y50675000D01*
X172197617Y50688489D01*
X172185818Y50693376D01*
X172133742Y50714946D01*
X172076252Y50753360D01*
X172027360Y50802252D01*
X171988947Y50859741D01*
X171970984Y50903108D01*
X171959433Y50924718D01*
X171943888Y50943660D01*
X171924946Y50959206D01*
X171903336Y50970757D01*
X171879887Y50977870D01*
X171855501Y50980272D01*
X171831114Y50977870D01*
X171807665Y50970757D01*
X171786055Y50959206D01*
X171767113Y50943661D01*
X171751567Y50924719D01*
X171740016Y50903108D01*
X171722053Y50859741D01*
X171683640Y50802252D01*
X171634748Y50753360D01*
X171577258Y50714946D01*
X171525182Y50693376D01*
X171513383Y50688489D01*
X171445570Y50675000D01*
X171376430Y50675000D01*
X171308617Y50688489D01*
X171296818Y50693376D01*
X171244742Y50714946D01*
X171187252Y50753360D01*
X171138360Y50802252D01*
X171099947Y50859741D01*
X171081984Y50903108D01*
X171070433Y50924718D01*
X171054888Y50943660D01*
X171035946Y50959206D01*
X171014336Y50970757D01*
X170990887Y50977870D01*
X170966501Y50980272D01*
X170942114Y50977870D01*
X170918665Y50970757D01*
X170897055Y50959206D01*
X170878113Y50943661D01*
X170862567Y50924719D01*
X170851016Y50903108D01*
X170833053Y50859741D01*
X170794640Y50802252D01*
X170745748Y50753360D01*
X170688258Y50714946D01*
X170636182Y50693376D01*
X170624383Y50688489D01*
X170556570Y50675000D01*
X170487430Y50675000D01*
X170419617Y50688489D01*
X170407818Y50693376D01*
X170355742Y50714946D01*
X170298252Y50753360D01*
X170249360Y50802252D01*
X170210947Y50859741D01*
X170192984Y50903108D01*
X170181433Y50924718D01*
X170165888Y50943660D01*
X170146946Y50959206D01*
X170125336Y50970757D01*
X170101887Y50977870D01*
X170077501Y50980272D01*
X170053114Y50977870D01*
X170029665Y50970757D01*
X170008055Y50959206D01*
X169989113Y50943661D01*
X169973567Y50924719D01*
X169962016Y50903108D01*
X169944053Y50859741D01*
X169905640Y50802252D01*
X169856748Y50753360D01*
X169799258Y50714946D01*
X169747182Y50693376D01*
X169735383Y50688489D01*
X169667570Y50675000D01*
X169598430Y50675000D01*
X169530617Y50688489D01*
X169518818Y50693376D01*
X169466742Y50714946D01*
X169409252Y50753360D01*
X169360360Y50802252D01*
X169321946Y50859742D01*
X169295490Y50923615D01*
X169295489Y50923617D01*
X169282000Y50991430D01*
X169282000Y51060570D01*
X169295489Y51128383D01*
X169303984Y51148892D01*
X169321946Y51192258D01*
X169360360Y51249748D01*
X169409252Y51298640D01*
X169466742Y51337054D01*
X169530615Y51363510D01*
X169530614Y51363510D01*
X169530617Y51363511D01*
X169598430Y51377000D01*
X169667570Y51377000D01*
X169735383Y51363511D01*
G37*
G36*
X169735383Y72081511D02*
G01*
X169735386Y72081510D01*
X169735385Y72081510D01*
X169799258Y72055054D01*
X169856748Y72016640D01*
X169905640Y71967748D01*
X169944053Y71910259D01*
X169962016Y71866892D01*
X169973567Y71845282D01*
X169989112Y71826340D01*
X170008054Y71810794D01*
X170029664Y71799243D01*
X170053113Y71792130D01*
X170077499Y71789728D01*
X170101886Y71792130D01*
X170125335Y71799243D01*
X170146945Y71810794D01*
X170165887Y71826339D01*
X170181433Y71845281D01*
X170192984Y71866892D01*
X170210947Y71910259D01*
X170249360Y71967748D01*
X170298252Y72016640D01*
X170355742Y72055054D01*
X170419615Y72081510D01*
X170419614Y72081510D01*
X170419617Y72081511D01*
X170487430Y72095000D01*
X170556570Y72095000D01*
X170624383Y72081511D01*
X170624386Y72081510D01*
X170624385Y72081510D01*
X170688258Y72055054D01*
X170745748Y72016640D01*
X170794640Y71967748D01*
X170833053Y71910259D01*
X170851016Y71866892D01*
X170862567Y71845282D01*
X170878112Y71826340D01*
X170897054Y71810794D01*
X170918664Y71799243D01*
X170942113Y71792130D01*
X170966499Y71789728D01*
X170990886Y71792130D01*
X171014335Y71799243D01*
X171035945Y71810794D01*
X171054887Y71826339D01*
X171070433Y71845281D01*
X171081984Y71866892D01*
X171099947Y71910259D01*
X171138360Y71967748D01*
X171187252Y72016640D01*
X171244742Y72055054D01*
X171308615Y72081510D01*
X171308614Y72081510D01*
X171308617Y72081511D01*
X171376430Y72095000D01*
X171445570Y72095000D01*
X171513383Y72081511D01*
X171513386Y72081510D01*
X171513385Y72081510D01*
X171577258Y72055054D01*
X171634748Y72016640D01*
X171683640Y71967748D01*
X171722053Y71910259D01*
X171740016Y71866892D01*
X171751567Y71845282D01*
X171767112Y71826340D01*
X171786054Y71810794D01*
X171807664Y71799243D01*
X171831113Y71792130D01*
X171855499Y71789728D01*
X171879886Y71792130D01*
X171903335Y71799243D01*
X171924945Y71810794D01*
X171943887Y71826339D01*
X171959433Y71845281D01*
X171970984Y71866892D01*
X171988947Y71910259D01*
X172027360Y71967748D01*
X172076252Y72016640D01*
X172133742Y72055054D01*
X172197615Y72081510D01*
X172197614Y72081510D01*
X172197617Y72081511D01*
X172265430Y72095000D01*
X172334570Y72095000D01*
X172402383Y72081511D01*
X172402386Y72081510D01*
X172402385Y72081510D01*
X172466258Y72055054D01*
X172523748Y72016640D01*
X172572640Y71967748D01*
X172611053Y71910259D01*
X172629016Y71866892D01*
X172640567Y71845282D01*
X172656112Y71826340D01*
X172675054Y71810794D01*
X172696664Y71799243D01*
X172720113Y71792130D01*
X172744499Y71789728D01*
X172768886Y71792130D01*
X172792335Y71799243D01*
X172813945Y71810794D01*
X172832887Y71826339D01*
X172848433Y71845281D01*
X172859984Y71866892D01*
X172877947Y71910259D01*
X172916360Y71967748D01*
X172965252Y72016640D01*
X173022742Y72055054D01*
X173086615Y72081510D01*
X173086614Y72081510D01*
X173086617Y72081511D01*
X173154430Y72095000D01*
X173223570Y72095000D01*
X173291383Y72081511D01*
X173291386Y72081510D01*
X173291385Y72081510D01*
X173355258Y72055054D01*
X173412748Y72016640D01*
X173461640Y71967748D01*
X173500053Y71910259D01*
X173518016Y71866892D01*
X173529567Y71845282D01*
X173545112Y71826340D01*
X173564054Y71810794D01*
X173585664Y71799243D01*
X173609113Y71792130D01*
X173633499Y71789728D01*
X173657886Y71792130D01*
X173681335Y71799243D01*
X173702945Y71810794D01*
X173721887Y71826339D01*
X173737433Y71845281D01*
X173748984Y71866892D01*
X173766947Y71910259D01*
X173805360Y71967748D01*
X173854252Y72016640D01*
X173911742Y72055054D01*
X173975615Y72081510D01*
X173975614Y72081510D01*
X173975617Y72081511D01*
X174043430Y72095000D01*
X174112570Y72095000D01*
X174180383Y72081511D01*
X174180386Y72081510D01*
X174180385Y72081510D01*
X174244258Y72055054D01*
X174301748Y72016640D01*
X174350640Y71967748D01*
X174389053Y71910259D01*
X174407016Y71866892D01*
X174418567Y71845282D01*
X174434112Y71826340D01*
X174453054Y71810794D01*
X174474664Y71799243D01*
X174498113Y71792130D01*
X174522499Y71789728D01*
X174546886Y71792130D01*
X174570335Y71799243D01*
X174591945Y71810794D01*
X174610887Y71826339D01*
X174626433Y71845281D01*
X174637984Y71866892D01*
X174655947Y71910259D01*
X174694360Y71967748D01*
X174743252Y72016640D01*
X174800742Y72055054D01*
X174864615Y72081510D01*
X174864614Y72081510D01*
X174864617Y72081511D01*
X174932430Y72095000D01*
X175001570Y72095000D01*
X175069383Y72081511D01*
X175069386Y72081510D01*
X175069385Y72081510D01*
X175133258Y72055054D01*
X175190748Y72016640D01*
X175239640Y71967748D01*
X175278054Y71910258D01*
X175296016Y71866892D01*
X175304511Y71846383D01*
X175318000Y71778570D01*
X175318000Y71709430D01*
X175304511Y71641617D01*
X175304510Y71641615D01*
X175278054Y71577742D01*
X175239640Y71520252D01*
X175190748Y71471360D01*
X175133258Y71432946D01*
X175081182Y71411376D01*
X175069383Y71406489D01*
X175001570Y71393000D01*
X174932430Y71393000D01*
X174864617Y71406489D01*
X174852818Y71411376D01*
X174800742Y71432946D01*
X174743252Y71471360D01*
X174694360Y71520252D01*
X174655947Y71577741D01*
X174637984Y71621108D01*
X174626433Y71642718D01*
X174610888Y71661660D01*
X174591946Y71677206D01*
X174570336Y71688757D01*
X174546887Y71695870D01*
X174522501Y71698272D01*
X174498114Y71695870D01*
X174474665Y71688757D01*
X174453055Y71677206D01*
X174434113Y71661661D01*
X174418567Y71642719D01*
X174407016Y71621108D01*
X174389053Y71577741D01*
X174350640Y71520252D01*
X174301748Y71471360D01*
X174244258Y71432946D01*
X174192182Y71411376D01*
X174180383Y71406489D01*
X174112570Y71393000D01*
X174043430Y71393000D01*
X173975617Y71406489D01*
X173963818Y71411376D01*
X173911742Y71432946D01*
X173854252Y71471360D01*
X173805360Y71520252D01*
X173766947Y71577741D01*
X173748984Y71621108D01*
X173737433Y71642718D01*
X173721888Y71661660D01*
X173702946Y71677206D01*
X173681336Y71688757D01*
X173657887Y71695870D01*
X173633501Y71698272D01*
X173609114Y71695870D01*
X173585665Y71688757D01*
X173564055Y71677206D01*
X173545113Y71661661D01*
X173529567Y71642719D01*
X173518016Y71621108D01*
X173500053Y71577741D01*
X173461640Y71520252D01*
X173412748Y71471360D01*
X173355258Y71432946D01*
X173303182Y71411376D01*
X173291383Y71406489D01*
X173223570Y71393000D01*
X173154430Y71393000D01*
X173086617Y71406489D01*
X173074818Y71411376D01*
X173022742Y71432946D01*
X172965252Y71471360D01*
X172916360Y71520252D01*
X172877947Y71577741D01*
X172859984Y71621108D01*
X172848433Y71642718D01*
X172832888Y71661660D01*
X172813946Y71677206D01*
X172792336Y71688757D01*
X172768887Y71695870D01*
X172744501Y71698272D01*
X172720114Y71695870D01*
X172696665Y71688757D01*
X172675055Y71677206D01*
X172656113Y71661661D01*
X172640567Y71642719D01*
X172629016Y71621108D01*
X172611053Y71577741D01*
X172572640Y71520252D01*
X172523748Y71471360D01*
X172466258Y71432946D01*
X172414182Y71411376D01*
X172402383Y71406489D01*
X172334570Y71393000D01*
X172265430Y71393000D01*
X172197617Y71406489D01*
X172185818Y71411376D01*
X172133742Y71432946D01*
X172076252Y71471360D01*
X172027360Y71520252D01*
X171988947Y71577741D01*
X171970984Y71621108D01*
X171959433Y71642718D01*
X171943888Y71661660D01*
X171924946Y71677206D01*
X171903336Y71688757D01*
X171879887Y71695870D01*
X171855501Y71698272D01*
X171831114Y71695870D01*
X171807665Y71688757D01*
X171786055Y71677206D01*
X171767113Y71661661D01*
X171751567Y71642719D01*
X171740016Y71621108D01*
X171722053Y71577741D01*
X171683640Y71520252D01*
X171634748Y71471360D01*
X171577258Y71432946D01*
X171525182Y71411376D01*
X171513383Y71406489D01*
X171445570Y71393000D01*
X171376430Y71393000D01*
X171308617Y71406489D01*
X171296818Y71411376D01*
X171244742Y71432946D01*
X171187252Y71471360D01*
X171138360Y71520252D01*
X171099947Y71577741D01*
X171081984Y71621108D01*
X171070433Y71642718D01*
X171054888Y71661660D01*
X171035946Y71677206D01*
X171014336Y71688757D01*
X170990887Y71695870D01*
X170966501Y71698272D01*
X170942114Y71695870D01*
X170918665Y71688757D01*
X170897055Y71677206D01*
X170878113Y71661661D01*
X170862567Y71642719D01*
X170851016Y71621108D01*
X170833053Y71577741D01*
X170794640Y71520252D01*
X170745748Y71471360D01*
X170688258Y71432946D01*
X170636182Y71411376D01*
X170624383Y71406489D01*
X170556570Y71393000D01*
X170487430Y71393000D01*
X170419617Y71406489D01*
X170407818Y71411376D01*
X170355742Y71432946D01*
X170298252Y71471360D01*
X170249360Y71520252D01*
X170210947Y71577741D01*
X170192984Y71621108D01*
X170181433Y71642718D01*
X170165888Y71661660D01*
X170146946Y71677206D01*
X170125336Y71688757D01*
X170101887Y71695870D01*
X170077501Y71698272D01*
X170053114Y71695870D01*
X170029665Y71688757D01*
X170008055Y71677206D01*
X169989113Y71661661D01*
X169973567Y71642719D01*
X169962016Y71621108D01*
X169944053Y71577741D01*
X169905640Y71520252D01*
X169856748Y71471360D01*
X169799258Y71432946D01*
X169747182Y71411376D01*
X169735383Y71406489D01*
X169667570Y71393000D01*
X169598430Y71393000D01*
X169530617Y71406489D01*
X169518818Y71411376D01*
X169466742Y71432946D01*
X169409252Y71471360D01*
X169360360Y71520252D01*
X169321946Y71577742D01*
X169295490Y71641615D01*
X169295489Y71641617D01*
X169282000Y71709430D01*
X169282000Y71778570D01*
X169295489Y71846383D01*
X169303984Y71866892D01*
X169321946Y71910258D01*
X169360360Y71967748D01*
X169409252Y72016640D01*
X169466742Y72055054D01*
X169530615Y72081510D01*
X169530614Y72081510D01*
X169530617Y72081511D01*
X169598430Y72095000D01*
X169667570Y72095000D01*
X169735383Y72081511D01*
G37*
G36*
X260915383Y72081511D02*
G01*
X260915386Y72081510D01*
X260915385Y72081510D01*
X260979258Y72055054D01*
X261036748Y72016640D01*
X261085640Y71967748D01*
X261124053Y71910259D01*
X261142016Y71866892D01*
X261153567Y71845282D01*
X261169112Y71826340D01*
X261188054Y71810794D01*
X261209664Y71799243D01*
X261233113Y71792130D01*
X261257499Y71789728D01*
X261281886Y71792130D01*
X261305335Y71799243D01*
X261326945Y71810794D01*
X261345887Y71826339D01*
X261361433Y71845281D01*
X261372984Y71866892D01*
X261390947Y71910259D01*
X261429360Y71967748D01*
X261478252Y72016640D01*
X261535742Y72055054D01*
X261599615Y72081510D01*
X261599614Y72081510D01*
X261599617Y72081511D01*
X261667430Y72095000D01*
X261736570Y72095000D01*
X261804383Y72081511D01*
X261804386Y72081510D01*
X261804385Y72081510D01*
X261868258Y72055054D01*
X261925748Y72016640D01*
X261974640Y71967748D01*
X262013053Y71910259D01*
X262031016Y71866892D01*
X262042567Y71845282D01*
X262058112Y71826340D01*
X262077054Y71810794D01*
X262098664Y71799243D01*
X262122113Y71792130D01*
X262146499Y71789728D01*
X262170886Y71792130D01*
X262194335Y71799243D01*
X262215945Y71810794D01*
X262234887Y71826339D01*
X262250433Y71845281D01*
X262261984Y71866892D01*
X262279947Y71910259D01*
X262318360Y71967748D01*
X262367252Y72016640D01*
X262424742Y72055054D01*
X262488615Y72081510D01*
X262488614Y72081510D01*
X262488617Y72081511D01*
X262556430Y72095000D01*
X262625570Y72095000D01*
X262693383Y72081511D01*
X262693386Y72081510D01*
X262693385Y72081510D01*
X262757258Y72055054D01*
X262814748Y72016640D01*
X262863640Y71967748D01*
X262902053Y71910259D01*
X262920016Y71866892D01*
X262931567Y71845282D01*
X262947112Y71826340D01*
X262966054Y71810794D01*
X262987664Y71799243D01*
X263011113Y71792130D01*
X263035499Y71789728D01*
X263059886Y71792130D01*
X263083335Y71799243D01*
X263104945Y71810794D01*
X263123887Y71826339D01*
X263139433Y71845281D01*
X263150984Y71866892D01*
X263168947Y71910259D01*
X263207360Y71967748D01*
X263256252Y72016640D01*
X263313742Y72055054D01*
X263377615Y72081510D01*
X263377614Y72081510D01*
X263377617Y72081511D01*
X263445430Y72095000D01*
X263514570Y72095000D01*
X263582383Y72081511D01*
X263582386Y72081510D01*
X263582385Y72081510D01*
X263646258Y72055054D01*
X263703748Y72016640D01*
X263752640Y71967748D01*
X263791053Y71910259D01*
X263809016Y71866892D01*
X263820567Y71845282D01*
X263836112Y71826340D01*
X263855054Y71810794D01*
X263876664Y71799243D01*
X263900113Y71792130D01*
X263924499Y71789728D01*
X263948886Y71792130D01*
X263972335Y71799243D01*
X263993945Y71810794D01*
X264012887Y71826339D01*
X264028433Y71845281D01*
X264039984Y71866892D01*
X264057947Y71910259D01*
X264096360Y71967748D01*
X264145252Y72016640D01*
X264202742Y72055054D01*
X264266615Y72081510D01*
X264266614Y72081510D01*
X264266617Y72081511D01*
X264334430Y72095000D01*
X264403570Y72095000D01*
X264471383Y72081511D01*
X264471386Y72081510D01*
X264471385Y72081510D01*
X264535258Y72055054D01*
X264592748Y72016640D01*
X264641640Y71967748D01*
X264680053Y71910259D01*
X264698016Y71866892D01*
X264709567Y71845282D01*
X264725112Y71826340D01*
X264744054Y71810794D01*
X264765664Y71799243D01*
X264789113Y71792130D01*
X264813499Y71789728D01*
X264837886Y71792130D01*
X264861335Y71799243D01*
X264882945Y71810794D01*
X264901887Y71826339D01*
X264917433Y71845281D01*
X264928984Y71866892D01*
X264946947Y71910259D01*
X264985360Y71967748D01*
X265034252Y72016640D01*
X265091742Y72055054D01*
X265155615Y72081510D01*
X265155614Y72081510D01*
X265155617Y72081511D01*
X265223430Y72095000D01*
X265292570Y72095000D01*
X265360383Y72081511D01*
X265360386Y72081510D01*
X265360385Y72081510D01*
X265424258Y72055054D01*
X265481748Y72016640D01*
X265530640Y71967748D01*
X265569053Y71910259D01*
X265587016Y71866892D01*
X265598567Y71845282D01*
X265614112Y71826340D01*
X265633054Y71810794D01*
X265654664Y71799243D01*
X265678113Y71792130D01*
X265702499Y71789728D01*
X265726886Y71792130D01*
X265750335Y71799243D01*
X265771945Y71810794D01*
X265790887Y71826339D01*
X265806433Y71845281D01*
X265817984Y71866892D01*
X265835947Y71910259D01*
X265874360Y71967748D01*
X265923252Y72016640D01*
X265980742Y72055054D01*
X266044615Y72081510D01*
X266044614Y72081510D01*
X266044617Y72081511D01*
X266112430Y72095000D01*
X266181570Y72095000D01*
X266249383Y72081511D01*
X266249386Y72081510D01*
X266249385Y72081510D01*
X266313258Y72055054D01*
X266370748Y72016640D01*
X266419640Y71967748D01*
X266458054Y71910258D01*
X266476016Y71866892D01*
X266484511Y71846383D01*
X266498000Y71778570D01*
X266498000Y71709430D01*
X266484511Y71641617D01*
X266484510Y71641615D01*
X266458054Y71577742D01*
X266419640Y71520252D01*
X266370748Y71471360D01*
X266313258Y71432946D01*
X266261182Y71411376D01*
X266249383Y71406489D01*
X266181570Y71393000D01*
X266112430Y71393000D01*
X266044617Y71406489D01*
X266032818Y71411376D01*
X265980742Y71432946D01*
X265923252Y71471360D01*
X265874360Y71520252D01*
X265835947Y71577741D01*
X265817984Y71621108D01*
X265806433Y71642718D01*
X265790888Y71661660D01*
X265771946Y71677206D01*
X265750336Y71688757D01*
X265726887Y71695870D01*
X265702501Y71698272D01*
X265678114Y71695870D01*
X265654665Y71688757D01*
X265633055Y71677206D01*
X265614113Y71661661D01*
X265598567Y71642719D01*
X265587016Y71621108D01*
X265569053Y71577741D01*
X265530640Y71520252D01*
X265481748Y71471360D01*
X265424258Y71432946D01*
X265372182Y71411376D01*
X265360383Y71406489D01*
X265292570Y71393000D01*
X265223430Y71393000D01*
X265155617Y71406489D01*
X265143818Y71411376D01*
X265091742Y71432946D01*
X265034252Y71471360D01*
X264985360Y71520252D01*
X264946947Y71577741D01*
X264928984Y71621108D01*
X264917433Y71642718D01*
X264901888Y71661660D01*
X264882946Y71677206D01*
X264861336Y71688757D01*
X264837887Y71695870D01*
X264813501Y71698272D01*
X264789114Y71695870D01*
X264765665Y71688757D01*
X264744055Y71677206D01*
X264725113Y71661661D01*
X264709567Y71642719D01*
X264698016Y71621108D01*
X264680053Y71577741D01*
X264641640Y71520252D01*
X264592748Y71471360D01*
X264535258Y71432946D01*
X264483182Y71411376D01*
X264471383Y71406489D01*
X264403570Y71393000D01*
X264334430Y71393000D01*
X264266617Y71406489D01*
X264254818Y71411376D01*
X264202742Y71432946D01*
X264145252Y71471360D01*
X264096360Y71520252D01*
X264057947Y71577741D01*
X264039984Y71621108D01*
X264028433Y71642718D01*
X264012888Y71661660D01*
X263993946Y71677206D01*
X263972336Y71688757D01*
X263948887Y71695870D01*
X263924501Y71698272D01*
X263900114Y71695870D01*
X263876665Y71688757D01*
X263855055Y71677206D01*
X263836113Y71661661D01*
X263820567Y71642719D01*
X263809016Y71621108D01*
X263791053Y71577741D01*
X263752640Y71520252D01*
X263703748Y71471360D01*
X263646258Y71432946D01*
X263594182Y71411376D01*
X263582383Y71406489D01*
X263514570Y71393000D01*
X263445430Y71393000D01*
X263377617Y71406489D01*
X263365818Y71411376D01*
X263313742Y71432946D01*
X263256252Y71471360D01*
X263207360Y71520252D01*
X263168947Y71577741D01*
X263150984Y71621108D01*
X263139433Y71642718D01*
X263123888Y71661660D01*
X263104946Y71677206D01*
X263083336Y71688757D01*
X263059887Y71695870D01*
X263035501Y71698272D01*
X263011114Y71695870D01*
X262987665Y71688757D01*
X262966055Y71677206D01*
X262947113Y71661661D01*
X262931567Y71642719D01*
X262920016Y71621108D01*
X262902053Y71577741D01*
X262863640Y71520252D01*
X262814748Y71471360D01*
X262757258Y71432946D01*
X262705182Y71411376D01*
X262693383Y71406489D01*
X262625570Y71393000D01*
X262556430Y71393000D01*
X262488617Y71406489D01*
X262476818Y71411376D01*
X262424742Y71432946D01*
X262367252Y71471360D01*
X262318360Y71520252D01*
X262279947Y71577741D01*
X262261984Y71621108D01*
X262250433Y71642718D01*
X262234888Y71661660D01*
X262215946Y71677206D01*
X262194336Y71688757D01*
X262170887Y71695870D01*
X262146501Y71698272D01*
X262122114Y71695870D01*
X262098665Y71688757D01*
X262077055Y71677206D01*
X262058113Y71661661D01*
X262042567Y71642719D01*
X262031016Y71621108D01*
X262013053Y71577741D01*
X261974640Y71520252D01*
X261925748Y71471360D01*
X261868258Y71432946D01*
X261816182Y71411376D01*
X261804383Y71406489D01*
X261736570Y71393000D01*
X261667430Y71393000D01*
X261599617Y71406489D01*
X261587818Y71411376D01*
X261535742Y71432946D01*
X261478252Y71471360D01*
X261429360Y71520252D01*
X261390947Y71577741D01*
X261372984Y71621108D01*
X261361433Y71642718D01*
X261345888Y71661660D01*
X261326946Y71677206D01*
X261305336Y71688757D01*
X261281887Y71695870D01*
X261257501Y71698272D01*
X261233114Y71695870D01*
X261209665Y71688757D01*
X261188055Y71677206D01*
X261169113Y71661661D01*
X261153567Y71642719D01*
X261142016Y71621108D01*
X261124053Y71577741D01*
X261085640Y71520252D01*
X261036748Y71471360D01*
X260979258Y71432946D01*
X260927182Y71411376D01*
X260915383Y71406489D01*
X260847570Y71393000D01*
X260778430Y71393000D01*
X260710617Y71406489D01*
X260698818Y71411376D01*
X260646742Y71432946D01*
X260589252Y71471360D01*
X260540360Y71520252D01*
X260501946Y71577742D01*
X260475490Y71641615D01*
X260475489Y71641617D01*
X260462000Y71709430D01*
X260462000Y71778570D01*
X260475489Y71846383D01*
X260483984Y71866892D01*
X260501946Y71910258D01*
X260540360Y71967748D01*
X260589252Y72016640D01*
X260646742Y72055054D01*
X260710615Y72081510D01*
X260710614Y72081510D01*
X260710617Y72081511D01*
X260778430Y72095000D01*
X260847570Y72095000D01*
X260915383Y72081511D01*
G37*
G36*
X169735383Y74113511D02*
G01*
X169735386Y74113510D01*
X169735385Y74113510D01*
X169799258Y74087054D01*
X169856748Y74048640D01*
X169905640Y73999748D01*
X169944053Y73942259D01*
X169962016Y73898892D01*
X169973567Y73877282D01*
X169989112Y73858340D01*
X170008054Y73842794D01*
X170029664Y73831243D01*
X170053113Y73824130D01*
X170077499Y73821728D01*
X170101886Y73824130D01*
X170125335Y73831243D01*
X170146945Y73842794D01*
X170165887Y73858339D01*
X170181433Y73877281D01*
X170192984Y73898892D01*
X170210947Y73942259D01*
X170249360Y73999748D01*
X170298252Y74048640D01*
X170355742Y74087054D01*
X170419615Y74113510D01*
X170419614Y74113510D01*
X170419617Y74113511D01*
X170487430Y74127000D01*
X170556570Y74127000D01*
X170624383Y74113511D01*
X170624386Y74113510D01*
X170624385Y74113510D01*
X170688258Y74087054D01*
X170745748Y74048640D01*
X170794640Y73999748D01*
X170833053Y73942259D01*
X170851016Y73898892D01*
X170862567Y73877282D01*
X170878112Y73858340D01*
X170897054Y73842794D01*
X170918664Y73831243D01*
X170942113Y73824130D01*
X170966499Y73821728D01*
X170990886Y73824130D01*
X171014335Y73831243D01*
X171035945Y73842794D01*
X171054887Y73858339D01*
X171070433Y73877281D01*
X171081984Y73898892D01*
X171099947Y73942259D01*
X171138360Y73999748D01*
X171187252Y74048640D01*
X171244742Y74087054D01*
X171308615Y74113510D01*
X171308614Y74113510D01*
X171308617Y74113511D01*
X171376430Y74127000D01*
X171445570Y74127000D01*
X171513383Y74113511D01*
X171513386Y74113510D01*
X171513385Y74113510D01*
X171577258Y74087054D01*
X171634748Y74048640D01*
X171683640Y73999748D01*
X171722053Y73942259D01*
X171740016Y73898892D01*
X171751567Y73877282D01*
X171767112Y73858340D01*
X171786054Y73842794D01*
X171807664Y73831243D01*
X171831113Y73824130D01*
X171855499Y73821728D01*
X171879886Y73824130D01*
X171903335Y73831243D01*
X171924945Y73842794D01*
X171943887Y73858339D01*
X171959433Y73877281D01*
X171970984Y73898892D01*
X171988947Y73942259D01*
X172027360Y73999748D01*
X172076252Y74048640D01*
X172133742Y74087054D01*
X172197615Y74113510D01*
X172197614Y74113510D01*
X172197617Y74113511D01*
X172265430Y74127000D01*
X172334570Y74127000D01*
X172402383Y74113511D01*
X172402386Y74113510D01*
X172402385Y74113510D01*
X172466258Y74087054D01*
X172523748Y74048640D01*
X172572640Y73999748D01*
X172611053Y73942259D01*
X172629016Y73898892D01*
X172640567Y73877282D01*
X172656112Y73858340D01*
X172675054Y73842794D01*
X172696664Y73831243D01*
X172720113Y73824130D01*
X172744499Y73821728D01*
X172768886Y73824130D01*
X172792335Y73831243D01*
X172813945Y73842794D01*
X172832887Y73858339D01*
X172848433Y73877281D01*
X172859984Y73898892D01*
X172877947Y73942259D01*
X172916360Y73999748D01*
X172965252Y74048640D01*
X173022742Y74087054D01*
X173086615Y74113510D01*
X173086614Y74113510D01*
X173086617Y74113511D01*
X173154430Y74127000D01*
X173223570Y74127000D01*
X173291383Y74113511D01*
X173291386Y74113510D01*
X173291385Y74113510D01*
X173355258Y74087054D01*
X173412748Y74048640D01*
X173461640Y73999748D01*
X173500053Y73942259D01*
X173518016Y73898892D01*
X173529567Y73877282D01*
X173545112Y73858340D01*
X173564054Y73842794D01*
X173585664Y73831243D01*
X173609113Y73824130D01*
X173633499Y73821728D01*
X173657886Y73824130D01*
X173681335Y73831243D01*
X173702945Y73842794D01*
X173721887Y73858339D01*
X173737433Y73877281D01*
X173748984Y73898892D01*
X173766947Y73942259D01*
X173805360Y73999748D01*
X173854252Y74048640D01*
X173911742Y74087054D01*
X173975615Y74113510D01*
X173975614Y74113510D01*
X173975617Y74113511D01*
X174043430Y74127000D01*
X174112570Y74127000D01*
X174180383Y74113511D01*
X174180386Y74113510D01*
X174180385Y74113510D01*
X174244258Y74087054D01*
X174301748Y74048640D01*
X174350640Y73999748D01*
X174389053Y73942259D01*
X174407016Y73898892D01*
X174418567Y73877282D01*
X174434112Y73858340D01*
X174453054Y73842794D01*
X174474664Y73831243D01*
X174498113Y73824130D01*
X174522499Y73821728D01*
X174546886Y73824130D01*
X174570335Y73831243D01*
X174591945Y73842794D01*
X174610887Y73858339D01*
X174626433Y73877281D01*
X174637984Y73898892D01*
X174655947Y73942259D01*
X174694360Y73999748D01*
X174743252Y74048640D01*
X174800742Y74087054D01*
X174864615Y74113510D01*
X174864614Y74113510D01*
X174864617Y74113511D01*
X174932430Y74127000D01*
X175001570Y74127000D01*
X175069383Y74113511D01*
X175069386Y74113510D01*
X175069385Y74113510D01*
X175133258Y74087054D01*
X175190748Y74048640D01*
X175239640Y73999748D01*
X175278054Y73942258D01*
X175296016Y73898892D01*
X175304511Y73878383D01*
X175318000Y73810570D01*
X175318000Y73741430D01*
X175304511Y73673617D01*
X175304510Y73673615D01*
X175278054Y73609742D01*
X175239640Y73552252D01*
X175190748Y73503360D01*
X175133258Y73464946D01*
X175081182Y73443376D01*
X175069383Y73438489D01*
X175001570Y73425000D01*
X174932430Y73425000D01*
X174864617Y73438489D01*
X174852818Y73443376D01*
X174800742Y73464946D01*
X174743252Y73503360D01*
X174694360Y73552252D01*
X174655947Y73609741D01*
X174637984Y73653108D01*
X174626433Y73674718D01*
X174610888Y73693660D01*
X174591946Y73709206D01*
X174570336Y73720757D01*
X174546887Y73727870D01*
X174522501Y73730272D01*
X174498114Y73727870D01*
X174474665Y73720757D01*
X174453055Y73709206D01*
X174434113Y73693661D01*
X174418567Y73674719D01*
X174407016Y73653108D01*
X174389053Y73609741D01*
X174350640Y73552252D01*
X174301748Y73503360D01*
X174244258Y73464946D01*
X174192182Y73443376D01*
X174180383Y73438489D01*
X174112570Y73425000D01*
X174043430Y73425000D01*
X173975617Y73438489D01*
X173963818Y73443376D01*
X173911742Y73464946D01*
X173854252Y73503360D01*
X173805360Y73552252D01*
X173766947Y73609741D01*
X173748984Y73653108D01*
X173737433Y73674718D01*
X173721888Y73693660D01*
X173702946Y73709206D01*
X173681336Y73720757D01*
X173657887Y73727870D01*
X173633501Y73730272D01*
X173609114Y73727870D01*
X173585665Y73720757D01*
X173564055Y73709206D01*
X173545113Y73693661D01*
X173529567Y73674719D01*
X173518016Y73653108D01*
X173500053Y73609741D01*
X173461640Y73552252D01*
X173412748Y73503360D01*
X173355258Y73464946D01*
X173303182Y73443376D01*
X173291383Y73438489D01*
X173223570Y73425000D01*
X173154430Y73425000D01*
X173086617Y73438489D01*
X173074818Y73443376D01*
X173022742Y73464946D01*
X172965252Y73503360D01*
X172916360Y73552252D01*
X172877947Y73609741D01*
X172859984Y73653108D01*
X172848433Y73674718D01*
X172832888Y73693660D01*
X172813946Y73709206D01*
X172792336Y73720757D01*
X172768887Y73727870D01*
X172744501Y73730272D01*
X172720114Y73727870D01*
X172696665Y73720757D01*
X172675055Y73709206D01*
X172656113Y73693661D01*
X172640567Y73674719D01*
X172629016Y73653108D01*
X172611053Y73609741D01*
X172572640Y73552252D01*
X172523748Y73503360D01*
X172466258Y73464946D01*
X172414182Y73443376D01*
X172402383Y73438489D01*
X172334570Y73425000D01*
X172265430Y73425000D01*
X172197617Y73438489D01*
X172185818Y73443376D01*
X172133742Y73464946D01*
X172076252Y73503360D01*
X172027360Y73552252D01*
X171988947Y73609741D01*
X171970984Y73653108D01*
X171959433Y73674718D01*
X171943888Y73693660D01*
X171924946Y73709206D01*
X171903336Y73720757D01*
X171879887Y73727870D01*
X171855501Y73730272D01*
X171831114Y73727870D01*
X171807665Y73720757D01*
X171786055Y73709206D01*
X171767113Y73693661D01*
X171751567Y73674719D01*
X171740016Y73653108D01*
X171722053Y73609741D01*
X171683640Y73552252D01*
X171634748Y73503360D01*
X171577258Y73464946D01*
X171525182Y73443376D01*
X171513383Y73438489D01*
X171445570Y73425000D01*
X171376430Y73425000D01*
X171308617Y73438489D01*
X171296818Y73443376D01*
X171244742Y73464946D01*
X171187252Y73503360D01*
X171138360Y73552252D01*
X171099947Y73609741D01*
X171081984Y73653108D01*
X171070433Y73674718D01*
X171054888Y73693660D01*
X171035946Y73709206D01*
X171014336Y73720757D01*
X170990887Y73727870D01*
X170966501Y73730272D01*
X170942114Y73727870D01*
X170918665Y73720757D01*
X170897055Y73709206D01*
X170878113Y73693661D01*
X170862567Y73674719D01*
X170851016Y73653108D01*
X170833053Y73609741D01*
X170794640Y73552252D01*
X170745748Y73503360D01*
X170688258Y73464946D01*
X170636182Y73443376D01*
X170624383Y73438489D01*
X170556570Y73425000D01*
X170487430Y73425000D01*
X170419617Y73438489D01*
X170407818Y73443376D01*
X170355742Y73464946D01*
X170298252Y73503360D01*
X170249360Y73552252D01*
X170210947Y73609741D01*
X170192984Y73653108D01*
X170181433Y73674718D01*
X170165888Y73693660D01*
X170146946Y73709206D01*
X170125336Y73720757D01*
X170101887Y73727870D01*
X170077501Y73730272D01*
X170053114Y73727870D01*
X170029665Y73720757D01*
X170008055Y73709206D01*
X169989113Y73693661D01*
X169973567Y73674719D01*
X169962016Y73653108D01*
X169944053Y73609741D01*
X169905640Y73552252D01*
X169856748Y73503360D01*
X169799258Y73464946D01*
X169747182Y73443376D01*
X169735383Y73438489D01*
X169667570Y73425000D01*
X169598430Y73425000D01*
X169530617Y73438489D01*
X169518818Y73443376D01*
X169466742Y73464946D01*
X169409252Y73503360D01*
X169360360Y73552252D01*
X169321946Y73609742D01*
X169295490Y73673615D01*
X169295489Y73673617D01*
X169282000Y73741430D01*
X169282000Y73810570D01*
X169295489Y73878383D01*
X169303984Y73898892D01*
X169321946Y73942258D01*
X169360360Y73999748D01*
X169409252Y74048640D01*
X169466742Y74087054D01*
X169530615Y74113510D01*
X169530614Y74113510D01*
X169530617Y74113511D01*
X169598430Y74127000D01*
X169667570Y74127000D01*
X169735383Y74113511D01*
G37*
G36*
X260915383Y74113511D02*
G01*
X260915386Y74113510D01*
X260915385Y74113510D01*
X260979258Y74087054D01*
X261036748Y74048640D01*
X261085640Y73999748D01*
X261124053Y73942259D01*
X261142016Y73898892D01*
X261153567Y73877282D01*
X261169112Y73858340D01*
X261188054Y73842794D01*
X261209664Y73831243D01*
X261233113Y73824130D01*
X261257499Y73821728D01*
X261281886Y73824130D01*
X261305335Y73831243D01*
X261326945Y73842794D01*
X261345887Y73858339D01*
X261361433Y73877281D01*
X261372984Y73898892D01*
X261390947Y73942259D01*
X261429360Y73999748D01*
X261478252Y74048640D01*
X261535742Y74087054D01*
X261599615Y74113510D01*
X261599614Y74113510D01*
X261599617Y74113511D01*
X261667430Y74127000D01*
X261736570Y74127000D01*
X261804383Y74113511D01*
X261804386Y74113510D01*
X261804385Y74113510D01*
X261868258Y74087054D01*
X261925748Y74048640D01*
X261974640Y73999748D01*
X262013053Y73942259D01*
X262031016Y73898892D01*
X262042567Y73877282D01*
X262058112Y73858340D01*
X262077054Y73842794D01*
X262098664Y73831243D01*
X262122113Y73824130D01*
X262146499Y73821728D01*
X262170886Y73824130D01*
X262194335Y73831243D01*
X262215945Y73842794D01*
X262234887Y73858339D01*
X262250433Y73877281D01*
X262261984Y73898892D01*
X262279947Y73942259D01*
X262318360Y73999748D01*
X262367252Y74048640D01*
X262424742Y74087054D01*
X262488615Y74113510D01*
X262488614Y74113510D01*
X262488617Y74113511D01*
X262556430Y74127000D01*
X262625570Y74127000D01*
X262693383Y74113511D01*
X262693386Y74113510D01*
X262693385Y74113510D01*
X262757258Y74087054D01*
X262814748Y74048640D01*
X262863640Y73999748D01*
X262902053Y73942259D01*
X262920016Y73898892D01*
X262931567Y73877282D01*
X262947112Y73858340D01*
X262966054Y73842794D01*
X262987664Y73831243D01*
X263011113Y73824130D01*
X263035499Y73821728D01*
X263059886Y73824130D01*
X263083335Y73831243D01*
X263104945Y73842794D01*
X263123887Y73858339D01*
X263139433Y73877281D01*
X263150984Y73898892D01*
X263168947Y73942259D01*
X263207360Y73999748D01*
X263256252Y74048640D01*
X263313742Y74087054D01*
X263377615Y74113510D01*
X263377614Y74113510D01*
X263377617Y74113511D01*
X263445430Y74127000D01*
X263514570Y74127000D01*
X263582383Y74113511D01*
X263582386Y74113510D01*
X263582385Y74113510D01*
X263646258Y74087054D01*
X263703748Y74048640D01*
X263752640Y73999748D01*
X263791053Y73942259D01*
X263809016Y73898892D01*
X263820567Y73877282D01*
X263836112Y73858340D01*
X263855054Y73842794D01*
X263876664Y73831243D01*
X263900113Y73824130D01*
X263924499Y73821728D01*
X263948886Y73824130D01*
X263972335Y73831243D01*
X263993945Y73842794D01*
X264012887Y73858339D01*
X264028433Y73877281D01*
X264039984Y73898892D01*
X264057947Y73942259D01*
X264096360Y73999748D01*
X264145252Y74048640D01*
X264202742Y74087054D01*
X264266615Y74113510D01*
X264266614Y74113510D01*
X264266617Y74113511D01*
X264334430Y74127000D01*
X264403570Y74127000D01*
X264471383Y74113511D01*
X264471386Y74113510D01*
X264471385Y74113510D01*
X264535258Y74087054D01*
X264592748Y74048640D01*
X264641640Y73999748D01*
X264680053Y73942259D01*
X264698016Y73898892D01*
X264709567Y73877282D01*
X264725112Y73858340D01*
X264744054Y73842794D01*
X264765664Y73831243D01*
X264789113Y73824130D01*
X264813499Y73821728D01*
X264837886Y73824130D01*
X264861335Y73831243D01*
X264882945Y73842794D01*
X264901887Y73858339D01*
X264917433Y73877281D01*
X264928984Y73898892D01*
X264946947Y73942259D01*
X264985360Y73999748D01*
X265034252Y74048640D01*
X265091742Y74087054D01*
X265155615Y74113510D01*
X265155614Y74113510D01*
X265155617Y74113511D01*
X265223430Y74127000D01*
X265292570Y74127000D01*
X265360383Y74113511D01*
X265360386Y74113510D01*
X265360385Y74113510D01*
X265424258Y74087054D01*
X265481748Y74048640D01*
X265530640Y73999748D01*
X265569053Y73942259D01*
X265587016Y73898892D01*
X265598567Y73877282D01*
X265614112Y73858340D01*
X265633054Y73842794D01*
X265654664Y73831243D01*
X265678113Y73824130D01*
X265702499Y73821728D01*
X265726886Y73824130D01*
X265750335Y73831243D01*
X265771945Y73842794D01*
X265790887Y73858339D01*
X265806433Y73877281D01*
X265817984Y73898892D01*
X265835947Y73942259D01*
X265874360Y73999748D01*
X265923252Y74048640D01*
X265980742Y74087054D01*
X266044615Y74113510D01*
X266044614Y74113510D01*
X266044617Y74113511D01*
X266112430Y74127000D01*
X266181570Y74127000D01*
X266249383Y74113511D01*
X266249386Y74113510D01*
X266249385Y74113510D01*
X266313258Y74087054D01*
X266370748Y74048640D01*
X266419640Y73999748D01*
X266458054Y73942258D01*
X266476016Y73898892D01*
X266484511Y73878383D01*
X266498000Y73810570D01*
X266498000Y73741430D01*
X266484511Y73673617D01*
X266484510Y73673615D01*
X266458054Y73609742D01*
X266419640Y73552252D01*
X266370748Y73503360D01*
X266313258Y73464946D01*
X266261182Y73443376D01*
X266249383Y73438489D01*
X266181570Y73425000D01*
X266112430Y73425000D01*
X266044617Y73438489D01*
X266032818Y73443376D01*
X265980742Y73464946D01*
X265923252Y73503360D01*
X265874360Y73552252D01*
X265835947Y73609741D01*
X265817984Y73653108D01*
X265806433Y73674718D01*
X265790888Y73693660D01*
X265771946Y73709206D01*
X265750336Y73720757D01*
X265726887Y73727870D01*
X265702501Y73730272D01*
X265678114Y73727870D01*
X265654665Y73720757D01*
X265633055Y73709206D01*
X265614113Y73693661D01*
X265598567Y73674719D01*
X265587016Y73653108D01*
X265569053Y73609741D01*
X265530640Y73552252D01*
X265481748Y73503360D01*
X265424258Y73464946D01*
X265372182Y73443376D01*
X265360383Y73438489D01*
X265292570Y73425000D01*
X265223430Y73425000D01*
X265155617Y73438489D01*
X265143818Y73443376D01*
X265091742Y73464946D01*
X265034252Y73503360D01*
X264985360Y73552252D01*
X264946947Y73609741D01*
X264928984Y73653108D01*
X264917433Y73674718D01*
X264901888Y73693660D01*
X264882946Y73709206D01*
X264861336Y73720757D01*
X264837887Y73727870D01*
X264813501Y73730272D01*
X264789114Y73727870D01*
X264765665Y73720757D01*
X264744055Y73709206D01*
X264725113Y73693661D01*
X264709567Y73674719D01*
X264698016Y73653108D01*
X264680053Y73609741D01*
X264641640Y73552252D01*
X264592748Y73503360D01*
X264535258Y73464946D01*
X264483182Y73443376D01*
X264471383Y73438489D01*
X264403570Y73425000D01*
X264334430Y73425000D01*
X264266617Y73438489D01*
X264254818Y73443376D01*
X264202742Y73464946D01*
X264145252Y73503360D01*
X264096360Y73552252D01*
X264057947Y73609741D01*
X264039984Y73653108D01*
X264028433Y73674718D01*
X264012888Y73693660D01*
X263993946Y73709206D01*
X263972336Y73720757D01*
X263948887Y73727870D01*
X263924501Y73730272D01*
X263900114Y73727870D01*
X263876665Y73720757D01*
X263855055Y73709206D01*
X263836113Y73693661D01*
X263820567Y73674719D01*
X263809016Y73653108D01*
X263791053Y73609741D01*
X263752640Y73552252D01*
X263703748Y73503360D01*
X263646258Y73464946D01*
X263594182Y73443376D01*
X263582383Y73438489D01*
X263514570Y73425000D01*
X263445430Y73425000D01*
X263377617Y73438489D01*
X263365818Y73443376D01*
X263313742Y73464946D01*
X263256252Y73503360D01*
X263207360Y73552252D01*
X263168947Y73609741D01*
X263150984Y73653108D01*
X263139433Y73674718D01*
X263123888Y73693660D01*
X263104946Y73709206D01*
X263083336Y73720757D01*
X263059887Y73727870D01*
X263035501Y73730272D01*
X263011114Y73727870D01*
X262987665Y73720757D01*
X262966055Y73709206D01*
X262947113Y73693661D01*
X262931567Y73674719D01*
X262920016Y73653108D01*
X262902053Y73609741D01*
X262863640Y73552252D01*
X262814748Y73503360D01*
X262757258Y73464946D01*
X262705182Y73443376D01*
X262693383Y73438489D01*
X262625570Y73425000D01*
X262556430Y73425000D01*
X262488617Y73438489D01*
X262476818Y73443376D01*
X262424742Y73464946D01*
X262367252Y73503360D01*
X262318360Y73552252D01*
X262279947Y73609741D01*
X262261984Y73653108D01*
X262250433Y73674718D01*
X262234888Y73693660D01*
X262215946Y73709206D01*
X262194336Y73720757D01*
X262170887Y73727870D01*
X262146501Y73730272D01*
X262122114Y73727870D01*
X262098665Y73720757D01*
X262077055Y73709206D01*
X262058113Y73693661D01*
X262042567Y73674719D01*
X262031016Y73653108D01*
X262013053Y73609741D01*
X261974640Y73552252D01*
X261925748Y73503360D01*
X261868258Y73464946D01*
X261816182Y73443376D01*
X261804383Y73438489D01*
X261736570Y73425000D01*
X261667430Y73425000D01*
X261599617Y73438489D01*
X261587818Y73443376D01*
X261535742Y73464946D01*
X261478252Y73503360D01*
X261429360Y73552252D01*
X261390947Y73609741D01*
X261372984Y73653108D01*
X261361433Y73674718D01*
X261345888Y73693660D01*
X261326946Y73709206D01*
X261305336Y73720757D01*
X261281887Y73727870D01*
X261257501Y73730272D01*
X261233114Y73727870D01*
X261209665Y73720757D01*
X261188055Y73709206D01*
X261169113Y73693661D01*
X261153567Y73674719D01*
X261142016Y73653108D01*
X261124053Y73609741D01*
X261085640Y73552252D01*
X261036748Y73503360D01*
X260979258Y73464946D01*
X260927182Y73443376D01*
X260915383Y73438489D01*
X260847570Y73425000D01*
X260778430Y73425000D01*
X260710617Y73438489D01*
X260698818Y73443376D01*
X260646742Y73464946D01*
X260589252Y73503360D01*
X260540360Y73552252D01*
X260501946Y73609742D01*
X260475490Y73673615D01*
X260475489Y73673617D01*
X260462000Y73741430D01*
X260462000Y73810570D01*
X260475489Y73878383D01*
X260483984Y73898892D01*
X260501946Y73942258D01*
X260540360Y73999748D01*
X260589252Y74048640D01*
X260646742Y74087054D01*
X260710615Y74113510D01*
X260710614Y74113510D01*
X260710617Y74113511D01*
X260778430Y74127000D01*
X260847570Y74127000D01*
X260915383Y74113511D01*
G37*
M02*
