G04 #@! TF.GenerationSoftware,KiCad,Pcbnew,(5.1.6-0-10_14)*
G04 #@! TF.CreationDate,2022-09-03T20:20:15+09:00*
G04 #@! TF.ProjectId,cool536,636f6f6c-3533-4362-9e6b-696361645f70,rev?*
G04 #@! TF.SameCoordinates,Original*
G04 #@! TF.FileFunction,Profile,NP*
%FSLAX46Y46*%
G04 Gerber Fmt 4.6, Leading zero omitted, Abs format (unit mm)*
G04 Created by KiCad (PCBNEW (5.1.6-0-10_14)) date 2022-09-03 20:20:15*
%MOMM*%
%LPD*%
G01*
G04 APERTURE LIST*
G04 #@! TA.AperFunction,Profile*
%ADD10C,0.150000*%
G04 #@! TD*
G04 APERTURE END LIST*
D10*
X168370000Y74040000D02*
G75*
G02*
X168370000Y71479922I0J-1280039D01*
G01*
X267320000Y71480000D02*
G75*
G02*
X267320000Y74040078I0J1280039D01*
G01*
X259550000Y74040000D02*
G75*
G02*
X259550000Y71479922I0J-1280039D01*
G01*
X176140000Y71480000D02*
G75*
G02*
X176140000Y74040078I0J1280039D01*
G01*
X248730000Y77610000D02*
X262100000Y77610000D01*
X248730000Y90190000D02*
X248730000Y77610000D01*
X267320000Y94230000D02*
X267320000Y74040078D01*
X265860000Y77530000D02*
G75*
G03*
X265860000Y77530000I-1100000J0D01*
G01*
X206810000Y79510000D02*
G75*
G03*
X206810000Y79510000I-1100000J0D01*
G01*
X211830000Y91700000D02*
G75*
G03*
X211830000Y91700000I-1100000J0D01*
G01*
X262100000Y77610000D02*
X262100000Y90190000D01*
X262100000Y90190000D02*
X248730000Y90190000D01*
X265860000Y91690000D02*
G75*
G03*
X265860000Y91690000I-1100000J0D01*
G01*
X208300000Y74040000D02*
X176140000Y74040078D01*
X168370000Y74040000D02*
X168370000Y94230000D01*
X259550000Y74040000D02*
X226700000Y74040000D01*
X226700000Y74040000D02*
X226700000Y78800000D01*
X208300000Y78800000D02*
X208300000Y74040000D01*
X168370000Y94230000D02*
X267320000Y94230000D01*
X226700000Y78800000D02*
X208300000Y78800000D01*
X226700000Y28540000D02*
X227390000Y28540000D01*
X227390000Y28540000D02*
G75*
G02*
X227390000Y25979922I0J-1280039D01*
G01*
X235160000Y25980000D02*
G75*
G02*
X235160000Y28540078I0J1280039D01*
G01*
X267320000Y25980000D02*
G75*
G02*
X267320000Y28540078I0J1280039D01*
G01*
X259550000Y28540000D02*
G75*
G02*
X259550000Y25979922I0J-1280039D01*
G01*
X259550000Y51290000D02*
G75*
G02*
X259550000Y48729922I0J-1280039D01*
G01*
X267320000Y48730000D02*
G75*
G02*
X267320000Y51290078I0J1280039D01*
G01*
X176140000Y48730000D02*
G75*
G02*
X176140000Y51290078I0J1280039D01*
G01*
X168370000Y51290000D02*
G75*
G02*
X168370000Y48729922I0J-1280039D01*
G01*
X213390000Y21220000D02*
X227390000Y21220000D01*
X267320000Y5790000D02*
X213390000Y5790000D01*
X227390000Y21220000D02*
X227390000Y25980000D01*
X267320000Y25980000D02*
X267320000Y5790000D01*
X235160000Y25980000D02*
X259550000Y25979922D01*
X226700000Y56050000D02*
X208300000Y56050000D01*
X176140000Y71480000D02*
X259550000Y71479922D01*
X208300000Y56050000D02*
X208300000Y51290000D01*
X226700000Y51290000D02*
X226700000Y56050000D01*
X259550000Y51290000D02*
X226700000Y51290000D01*
X168370000Y51290000D02*
X168370000Y71479922D01*
X208300000Y51290000D02*
X176140000Y51290078D01*
X265860000Y68940000D02*
G75*
G03*
X265860000Y68940000I-1100000J0D01*
G01*
X262100000Y67440000D02*
X248730000Y67440000D01*
X262100000Y54860000D02*
X262100000Y67440000D01*
X226050000Y8300000D02*
G75*
G03*
X226050000Y8300000I-1100000J0D01*
G01*
X211830000Y68950000D02*
G75*
G03*
X211830000Y68950000I-1100000J0D01*
G01*
X211830000Y46210000D02*
G75*
G03*
X211830000Y46210000I-1100000J0D01*
G01*
X231080000Y20500000D02*
G75*
G03*
X231080000Y20500000I-1100000J0D01*
G01*
X231200000Y67440000D02*
X231200000Y54860000D01*
X206810000Y34020000D02*
G75*
G03*
X206810000Y34020000I-1100000J0D01*
G01*
X206810000Y56760000D02*
G75*
G03*
X206810000Y56760000I-1100000J0D01*
G01*
X259550000Y28540000D02*
X235160000Y28540078D01*
X213390000Y5790000D02*
X213390000Y21220000D01*
X208300000Y28540000D02*
X168370000Y28540000D01*
X267320000Y48730000D02*
X267320000Y28540078D01*
X176140000Y48730000D02*
X259550000Y48729922D01*
X168370000Y28540000D02*
X168370000Y48730000D01*
X226700000Y33300000D02*
X208300000Y33300000D01*
X208300000Y33300000D02*
X208300000Y28540000D01*
X226700000Y28540000D02*
X226700000Y33300000D01*
X265860000Y32030000D02*
G75*
G03*
X265860000Y32030000I-1100000J0D01*
G01*
X265860000Y54780000D02*
G75*
G03*
X265860000Y54780000I-1100000J0D01*
G01*
X265860000Y46190000D02*
G75*
G03*
X265860000Y46190000I-1100000J0D01*
G01*
X267320000Y71480000D02*
X267320000Y51290078D01*
X231200000Y54860000D02*
X244570000Y54860000D01*
X248730000Y67440000D02*
X248730000Y54860000D01*
X244570000Y54860000D02*
X244570000Y67440000D01*
X248730000Y54860000D02*
X262100000Y54860000D01*
X244570000Y67440000D02*
X231200000Y67440000D01*
M02*
