M48
; DRILL file {KiCad (5.1.6-0-10_14)} date Saturday, September 03, 2022 at 08:20:16 PM
; FORMAT={-:-/ absolute / metric / decimal}
; #@! TF.CreationDate,2022-09-03T20:20:16+09:00
; #@! TF.GenerationSoftware,Kicad,Pcbnew,(5.1.6-0-10_14)
; #@! TF.FileFunction,NonPlated,1,2,NPTH
FMAT,2
METRIC
T1C0.600
%
G90
G05
T1
X260.813Y51.026
X260.813Y48.994
X261.702Y51.026
X261.702Y48.994
X262.591Y51.026
X262.591Y48.994
X263.48Y51.026
X263.48Y48.994
X264.369Y51.026
X264.369Y48.994
X265.258Y51.026
X265.258Y48.994
X266.147Y51.026
X266.147Y48.994
X260.813Y28.276
X260.813Y26.244
X261.702Y28.276
X261.702Y26.244
X262.591Y28.276
X262.591Y26.244
X263.48Y28.276
X263.48Y26.244
X264.369Y28.276
X264.369Y26.244
X265.258Y28.276
X265.258Y26.244
X266.147Y28.276
X266.147Y26.244
X169.633Y73.776
X169.633Y71.744
X170.522Y73.776
X170.522Y71.744
X171.411Y73.776
X171.411Y71.744
X172.3Y73.776
X172.3Y71.744
X173.189Y73.776
X173.189Y71.744
X174.078Y73.776
X174.078Y71.744
X174.967Y73.776
X174.967Y71.744
X260.813Y73.776
X260.813Y71.744
X261.702Y73.776
X261.702Y71.744
X262.591Y73.776
X262.591Y71.744
X263.48Y73.776
X263.48Y71.744
X264.369Y73.776
X264.369Y71.744
X265.258Y73.776
X265.258Y71.744
X266.147Y73.776
X266.147Y71.744
X228.653Y28.276
X228.653Y26.244
X229.542Y28.276
X229.542Y26.244
X230.431Y28.276
X230.431Y26.244
X231.32Y28.276
X231.32Y26.244
X232.209Y28.276
X232.209Y26.244
X233.098Y28.276
X233.098Y26.244
X233.987Y28.276
X233.987Y26.244
X169.633Y51.026
X169.633Y48.994
X170.522Y51.026
X170.522Y48.994
X171.411Y51.026
X171.411Y48.994
X172.3Y51.026
X172.3Y48.994
X173.189Y51.026
X173.189Y48.994
X174.078Y51.026
X174.078Y48.994
X174.967Y51.026
X174.967Y48.994
T0
M30
