G04 #@! TF.GenerationSoftware,KiCad,Pcbnew,(5.1.6-0-10_14)*
G04 #@! TF.CreationDate,2022-07-16T23:36:19+09:00*
G04 #@! TF.ProjectId,cool536,636f6f6c-3533-4362-9e6b-696361645f70,rev?*
G04 #@! TF.SameCoordinates,Original*
G04 #@! TF.FileFunction,Legend,Top*
G04 #@! TF.FilePolarity,Positive*
%FSLAX46Y46*%
G04 Gerber Fmt 4.6, Leading zero omitted, Abs format (unit mm)*
G04 Created by KiCad (PCBNEW (5.1.6-0-10_14)) date 2022-07-16 23:36:19*
%MOMM*%
%LPD*%
G01*
G04 APERTURE LIST*
%ADD10C,0.250000*%
%ADD11C,0.500000*%
%ADD12C,0.120000*%
%ADD13C,0.150000*%
%ADD14C,0.125000*%
G04 APERTURE END LIST*
D10*
X-10152380Y1890238D02*
X-10247619Y1842619D01*
X-10438095Y1842619D01*
X-10533333Y1890238D01*
X-10580952Y1937857D01*
X-10628571Y2033095D01*
X-10628571Y2318809D01*
X-10580952Y2414047D01*
X-10533333Y2461666D01*
X-10438095Y2509285D01*
X-10247619Y2509285D01*
X-10152380Y2461666D01*
X-9580952Y1842619D02*
X-9676190Y1890238D01*
X-9723809Y1937857D01*
X-9771428Y2033095D01*
X-9771428Y2318809D01*
X-9723809Y2414047D01*
X-9676190Y2461666D01*
X-9580952Y2509285D01*
X-9438095Y2509285D01*
X-9342857Y2461666D01*
X-9295238Y2414047D01*
X-9247619Y2318809D01*
X-9247619Y2033095D01*
X-9295238Y1937857D01*
X-9342857Y1890238D01*
X-9438095Y1842619D01*
X-9580952Y1842619D01*
X-8676190Y1842619D02*
X-8771428Y1890238D01*
X-8819047Y1937857D01*
X-8866666Y2033095D01*
X-8866666Y2318809D01*
X-8819047Y2414047D01*
X-8771428Y2461666D01*
X-8676190Y2509285D01*
X-8533333Y2509285D01*
X-8438095Y2461666D01*
X-8390476Y2414047D01*
X-8342857Y2318809D01*
X-8342857Y2033095D01*
X-8390476Y1937857D01*
X-8438095Y1890238D01*
X-8533333Y1842619D01*
X-8676190Y1842619D01*
X-7771428Y1842619D02*
X-7866666Y1890238D01*
X-7914285Y1985476D01*
X-7914285Y2842619D01*
X-6914285Y2842619D02*
X-7390476Y2842619D01*
X-7438095Y2366428D01*
X-7390476Y2414047D01*
X-7295238Y2461666D01*
X-7057142Y2461666D01*
X-6961904Y2414047D01*
X-6914285Y2366428D01*
X-6866666Y2271190D01*
X-6866666Y2033095D01*
X-6914285Y1937857D01*
X-6961904Y1890238D01*
X-7057142Y1842619D01*
X-7295238Y1842619D01*
X-7390476Y1890238D01*
X-7438095Y1937857D01*
X-6533333Y2842619D02*
X-5914285Y2842619D01*
X-6247619Y2461666D01*
X-6104761Y2461666D01*
X-6009523Y2414047D01*
X-5961904Y2366428D01*
X-5914285Y2271190D01*
X-5914285Y2033095D01*
X-5961904Y1937857D01*
X-6009523Y1890238D01*
X-6104761Y1842619D01*
X-6390476Y1842619D01*
X-6485714Y1890238D01*
X-6533333Y1937857D01*
X-5057142Y2842619D02*
X-5247619Y2842619D01*
X-5342857Y2795000D01*
X-5390476Y2747380D01*
X-5485714Y2604523D01*
X-5533333Y2414047D01*
X-5533333Y2033095D01*
X-5485714Y1937857D01*
X-5438095Y1890238D01*
X-5342857Y1842619D01*
X-5152380Y1842619D01*
X-5057142Y1890238D01*
X-5009523Y1937857D01*
X-4961904Y2033095D01*
X-4961904Y2271190D01*
X-5009523Y2366428D01*
X-5057142Y2414047D01*
X-5152380Y2461666D01*
X-5342857Y2461666D01*
X-5438095Y2414047D01*
X-5485714Y2366428D01*
X-5533333Y2271190D01*
X-1819047Y1842619D02*
X-1819047Y2842619D01*
X-1819047Y1890238D02*
X-1914285Y1842619D01*
X-2104761Y1842619D01*
X-2200000Y1890238D01*
X-2247619Y1937857D01*
X-2295238Y2033095D01*
X-2295238Y2318809D01*
X-2247619Y2414047D01*
X-2200000Y2461666D01*
X-2104761Y2509285D01*
X-1914285Y2509285D01*
X-1819047Y2461666D01*
X-961904Y1890238D02*
X-1057142Y1842619D01*
X-1247619Y1842619D01*
X-1342857Y1890238D01*
X-1390476Y1985476D01*
X-1390476Y2366428D01*
X-1342857Y2461666D01*
X-1247619Y2509285D01*
X-1057142Y2509285D01*
X-961904Y2461666D01*
X-914285Y2366428D01*
X-914285Y2271190D01*
X-1390476Y2175952D01*
X-533333Y1890238D02*
X-438095Y1842619D01*
X-247619Y1842619D01*
X-152380Y1890238D01*
X-104761Y1985476D01*
X-104761Y2033095D01*
X-152380Y2128333D01*
X-247619Y2175952D01*
X-390476Y2175952D01*
X-485714Y2223571D01*
X-533333Y2318809D01*
X-533333Y2366428D01*
X-485714Y2461666D01*
X-390476Y2509285D01*
X-247619Y2509285D01*
X-152380Y2461666D01*
X323809Y1842619D02*
X323809Y2509285D01*
X323809Y2842619D02*
X276190Y2795000D01*
X323809Y2747380D01*
X371428Y2795000D01*
X323809Y2842619D01*
X323809Y2747380D01*
X1228571Y2509285D02*
X1228571Y1699761D01*
X1180952Y1604523D01*
X1133333Y1556904D01*
X1038095Y1509285D01*
X895238Y1509285D01*
X799999Y1556904D01*
X1228571Y1890238D02*
X1133333Y1842619D01*
X942857Y1842619D01*
X847619Y1890238D01*
X799999Y1937857D01*
X752380Y2033095D01*
X752380Y2318809D01*
X799999Y2414047D01*
X847619Y2461666D01*
X942857Y2509285D01*
X1133333Y2509285D01*
X1228571Y2461666D01*
X1704761Y2509285D02*
X1704761Y1842619D01*
X1704761Y2414047D02*
X1752380Y2461666D01*
X1847619Y2509285D01*
X1990476Y2509285D01*
X2085714Y2461666D01*
X2133333Y2366428D01*
X2133333Y1842619D01*
X2990476Y1890238D02*
X2895238Y1842619D01*
X2704761Y1842619D01*
X2609523Y1890238D01*
X2561904Y1985476D01*
X2561904Y2366428D01*
X2609523Y2461666D01*
X2704761Y2509285D01*
X2895238Y2509285D01*
X2990476Y2461666D01*
X3038095Y2366428D01*
X3038095Y2271190D01*
X2561904Y2175952D01*
X3895238Y1842619D02*
X3895238Y2842619D01*
X3895238Y1890238D02*
X3799999Y1842619D01*
X3609523Y1842619D01*
X3514285Y1890238D01*
X3466666Y1937857D01*
X3419047Y2033095D01*
X3419047Y2318809D01*
X3466666Y2414047D01*
X3514285Y2461666D01*
X3609523Y2509285D01*
X3799999Y2509285D01*
X3895238Y2461666D01*
X5133333Y1842619D02*
X5133333Y2842619D01*
X5133333Y2461666D02*
X5228571Y2509285D01*
X5419047Y2509285D01*
X5514285Y2461666D01*
X5561904Y2414047D01*
X5609523Y2318809D01*
X5609523Y2033095D01*
X5561904Y1937857D01*
X5514285Y1890238D01*
X5419047Y1842619D01*
X5228571Y1842619D01*
X5133333Y1890238D01*
X5942857Y2509285D02*
X6180952Y1842619D01*
X6419047Y2509285D02*
X6180952Y1842619D01*
X6085714Y1604523D01*
X6038095Y1556904D01*
X5942857Y1509285D01*
X7561904Y1842619D02*
X7561904Y2509285D01*
X7561904Y2414047D02*
X7609523Y2461666D01*
X7704761Y2509285D01*
X7847619Y2509285D01*
X7942857Y2461666D01*
X7990476Y2366428D01*
X7990476Y1842619D01*
X7990476Y2366428D02*
X8038095Y2461666D01*
X8133333Y2509285D01*
X8276190Y2509285D01*
X8371428Y2461666D01*
X8419047Y2366428D01*
X8419047Y1842619D01*
X8895238Y1937857D02*
X8942857Y1890238D01*
X8895238Y1842619D01*
X8847619Y1890238D01*
X8895238Y1937857D01*
X8895238Y1842619D01*
X9371428Y1842619D02*
X9371428Y2842619D01*
X9466666Y2223571D02*
X9752380Y1842619D01*
X9752380Y2509285D02*
X9371428Y2128333D01*
X10180952Y1842619D02*
X10180952Y2509285D01*
X10180952Y2842619D02*
X10133333Y2795000D01*
X10180952Y2747380D01*
X10228571Y2795000D01*
X10180952Y2842619D01*
X10180952Y2747380D01*
X-10723809Y759285D02*
X-10485714Y92619D01*
X-10247619Y759285D01*
X-9485714Y140238D02*
X-9580952Y92619D01*
X-9771428Y92619D01*
X-9866666Y140238D01*
X-9914285Y235476D01*
X-9914285Y616428D01*
X-9866666Y711666D01*
X-9771428Y759285D01*
X-9580952Y759285D01*
X-9485714Y711666D01*
X-9438095Y616428D01*
X-9438095Y521190D01*
X-9914285Y425952D01*
X-9009523Y92619D02*
X-9009523Y759285D01*
X-9009523Y568809D02*
X-8961904Y664047D01*
X-8914285Y711666D01*
X-8819047Y759285D01*
X-8723809Y759285D01*
X-8390476Y187857D02*
X-8342857Y140238D01*
X-8390476Y92619D01*
X-8438095Y140238D01*
X-8390476Y187857D01*
X-8390476Y92619D01*
X-7390476Y92619D02*
X-7961904Y92619D01*
X-7676190Y92619D02*
X-7676190Y1092619D01*
X-7771428Y949761D01*
X-7866666Y854523D01*
X-7961904Y806904D01*
X-6961904Y187857D02*
X-6914285Y140238D01*
X-6961904Y92619D01*
X-7009523Y140238D01*
X-6961904Y187857D01*
X-6961904Y92619D01*
X-6295238Y1092619D02*
X-6200000Y1092619D01*
X-6104761Y1045000D01*
X-6057142Y997380D01*
X-6009523Y902142D01*
X-5961904Y711666D01*
X-5961904Y473571D01*
X-6009523Y283095D01*
X-6057142Y187857D01*
X-6104761Y140238D01*
X-6200000Y92619D01*
X-6295238Y92619D01*
X-6390476Y140238D01*
X-6438095Y187857D01*
X-6485714Y283095D01*
X-6533333Y473571D01*
X-6533333Y711666D01*
X-6485714Y902142D01*
X-6438095Y997380D01*
X-6390476Y1045000D01*
X-6295238Y1092619D01*
X-533333Y92619D02*
X-533333Y1092619D01*
X-533333Y140238D02*
X-628571Y92619D01*
X-819047Y92619D01*
X-914285Y140238D01*
X-961904Y187857D01*
X-1009523Y283095D01*
X-1009523Y568809D01*
X-961904Y664047D01*
X-914285Y711666D01*
X-819047Y759285D01*
X-628571Y759285D01*
X-533333Y711666D01*
X371428Y92619D02*
X371428Y616428D01*
X323809Y711666D01*
X228571Y759285D01*
X38095Y759285D01*
X-57142Y711666D01*
X371428Y140238D02*
X276190Y92619D01*
X38095Y92619D01*
X-57142Y140238D01*
X-104761Y235476D01*
X-104761Y330714D01*
X-57142Y425952D01*
X38095Y473571D01*
X276190Y473571D01*
X371428Y521190D01*
X704761Y759285D02*
X1085714Y759285D01*
X847619Y1092619D02*
X847619Y235476D01*
X895238Y140238D01*
X990476Y92619D01*
X1085714Y92619D01*
X1847619Y92619D02*
X1847619Y616428D01*
X1799999Y711666D01*
X1704761Y759285D01*
X1514285Y759285D01*
X1419047Y711666D01*
X1847619Y140238D02*
X1752380Y92619D01*
X1514285Y92619D01*
X1419047Y140238D01*
X1371428Y235476D01*
X1371428Y330714D01*
X1419047Y425952D01*
X1514285Y473571D01*
X1752380Y473571D01*
X1847619Y521190D01*
X3038095Y997380D02*
X3085714Y1045000D01*
X3180952Y1092619D01*
X3419047Y1092619D01*
X3514285Y1045000D01*
X3561904Y997380D01*
X3609523Y902142D01*
X3609523Y806904D01*
X3561904Y664047D01*
X2990476Y92619D01*
X3609523Y92619D01*
X4228571Y1092619D02*
X4323809Y1092619D01*
X4419047Y1045000D01*
X4466666Y997380D01*
X4514285Y902142D01*
X4561904Y711666D01*
X4561904Y473571D01*
X4514285Y283095D01*
X4466666Y187857D01*
X4419047Y140238D01*
X4323809Y92619D01*
X4228571Y92619D01*
X4133333Y140238D01*
X4085714Y187857D01*
X4038095Y283095D01*
X3990476Y473571D01*
X3990476Y711666D01*
X4038095Y902142D01*
X4085714Y997380D01*
X4133333Y1045000D01*
X4228571Y1092619D01*
X4942857Y997380D02*
X4990476Y1045000D01*
X5085714Y1092619D01*
X5323809Y1092619D01*
X5419047Y1045000D01*
X5466666Y997380D01*
X5514285Y902142D01*
X5514285Y806904D01*
X5466666Y664047D01*
X4895238Y92619D01*
X5514285Y92619D01*
X5895238Y997380D02*
X5942857Y1045000D01*
X6038095Y1092619D01*
X6276190Y1092619D01*
X6371428Y1045000D01*
X6419047Y997380D01*
X6466666Y902142D01*
X6466666Y806904D01*
X6419047Y664047D01*
X5847619Y92619D01*
X6466666Y92619D01*
X7085714Y1092619D02*
X7180952Y1092619D01*
X7276190Y1045000D01*
X7323809Y997380D01*
X7371428Y902142D01*
X7419047Y711666D01*
X7419047Y473571D01*
X7371428Y283095D01*
X7323809Y187857D01*
X7276190Y140238D01*
X7180952Y92619D01*
X7085714Y92619D01*
X6990476Y140238D01*
X6942857Y187857D01*
X6895238Y283095D01*
X6847619Y473571D01*
X6847619Y711666D01*
X6895238Y902142D01*
X6942857Y997380D01*
X6990476Y1045000D01*
X7085714Y1092619D01*
X7752380Y1092619D02*
X8419047Y1092619D01*
X7990476Y92619D01*
X9323809Y92619D02*
X8752380Y92619D01*
X9038095Y92619D02*
X9038095Y1092619D01*
X8942857Y949761D01*
X8847619Y854523D01*
X8752380Y806904D01*
X10180952Y1092619D02*
X9990476Y1092619D01*
X9895238Y1045000D01*
X9847619Y997380D01*
X9752380Y854523D01*
X9704761Y664047D01*
X9704761Y283095D01*
X9752380Y187857D01*
X9799999Y140238D01*
X9895238Y92619D01*
X10085714Y92619D01*
X10180952Y140238D01*
X10228571Y187857D01*
X10276190Y283095D01*
X10276190Y521190D01*
X10228571Y616428D01*
X10180952Y664047D01*
X10085714Y711666D01*
X9895238Y711666D01*
X9799999Y664047D01*
X9752380Y616428D01*
X9704761Y521190D01*
D11*
X1488571Y-62984285D02*
X1202857Y-63127142D01*
X631428Y-63127142D01*
X345714Y-62984285D01*
X202857Y-62841428D01*
X60000Y-62555714D01*
X60000Y-61698571D01*
X202857Y-61412857D01*
X345714Y-61270000D01*
X631428Y-61127142D01*
X1202857Y-61127142D01*
X1488571Y-61270000D01*
X3202857Y-63127142D02*
X2917142Y-62984285D01*
X2774285Y-62841428D01*
X2631428Y-62555714D01*
X2631428Y-61698571D01*
X2774285Y-61412857D01*
X2917142Y-61270000D01*
X3202857Y-61127142D01*
X3631428Y-61127142D01*
X3917142Y-61270000D01*
X4060000Y-61412857D01*
X4202857Y-61698571D01*
X4202857Y-62555714D01*
X4060000Y-62841428D01*
X3917142Y-62984285D01*
X3631428Y-63127142D01*
X3202857Y-63127142D01*
X5917142Y-63127142D02*
X5631428Y-62984285D01*
X5488571Y-62841428D01*
X5345714Y-62555714D01*
X5345714Y-61698571D01*
X5488571Y-61412857D01*
X5631428Y-61270000D01*
X5917142Y-61127142D01*
X6345714Y-61127142D01*
X6631428Y-61270000D01*
X6774285Y-61412857D01*
X6917142Y-61698571D01*
X6917142Y-62555714D01*
X6774285Y-62841428D01*
X6631428Y-62984285D01*
X6345714Y-63127142D01*
X5917142Y-63127142D01*
X8631428Y-63127142D02*
X8345714Y-62984285D01*
X8202857Y-62698571D01*
X8202857Y-60127142D01*
X11202857Y-60127142D02*
X9774285Y-60127142D01*
X9631428Y-61555714D01*
X9774285Y-61412857D01*
X10060000Y-61270000D01*
X10774285Y-61270000D01*
X11060000Y-61412857D01*
X11202857Y-61555714D01*
X11345714Y-61841428D01*
X11345714Y-62555714D01*
X11202857Y-62841428D01*
X11060000Y-62984285D01*
X10774285Y-63127142D01*
X10060000Y-63127142D01*
X9774285Y-62984285D01*
X9631428Y-62841428D01*
X12345714Y-60127142D02*
X14202857Y-60127142D01*
X13202857Y-61270000D01*
X13631428Y-61270000D01*
X13917142Y-61412857D01*
X14060000Y-61555714D01*
X14202857Y-61841428D01*
X14202857Y-62555714D01*
X14060000Y-62841428D01*
X13917142Y-62984285D01*
X13631428Y-63127142D01*
X12774285Y-63127142D01*
X12488571Y-62984285D01*
X12345714Y-62841428D01*
X16774285Y-60127142D02*
X16202857Y-60127142D01*
X15917142Y-60270000D01*
X15774285Y-60412857D01*
X15488571Y-60841428D01*
X15345714Y-61412857D01*
X15345714Y-62555714D01*
X15488571Y-62841428D01*
X15631428Y-62984285D01*
X15917142Y-63127142D01*
X16488571Y-63127142D01*
X16774285Y-62984285D01*
X16917142Y-62841428D01*
X17059999Y-62555714D01*
X17059999Y-61841428D01*
X16917142Y-61555714D01*
X16774285Y-61412857D01*
X16488571Y-61270000D01*
X15917142Y-61270000D01*
X15631428Y-61412857D01*
X15488571Y-61555714D01*
X15345714Y-61841428D01*
D12*
X75540000Y12640000D02*
X76540000Y12640000D01*
X76040000Y13140000D02*
X76040000Y12140000D01*
X82740000Y8940000D02*
X82740000Y6340000D01*
X82740000Y13940000D02*
X82740000Y11340000D01*
X82740000Y18940000D02*
X82740000Y16340000D01*
X68840000Y16740000D02*
X68540000Y16440000D01*
X68240000Y16740000D02*
X68840000Y16740000D01*
X68540000Y16440000D02*
X68240000Y16740000D01*
X69340000Y18940000D02*
X69340000Y16440000D01*
X74140000Y18940000D02*
X69340000Y18940000D01*
X69340000Y6340000D02*
X69340000Y9140000D01*
X74240000Y6340000D02*
X69340000Y6340000D01*
X82740000Y6340000D02*
X77840000Y6340000D01*
X77840000Y18940000D02*
X82740000Y18940000D01*
X79040000Y12640000D02*
G75*
G03*
X79040000Y12640000I-3000000J0D01*
G01*
X58010000Y12640000D02*
X59010000Y12640000D01*
X58510000Y13140000D02*
X58510000Y12140000D01*
X65210000Y8940000D02*
X65210000Y6340000D01*
X65210000Y13940000D02*
X65210000Y11340000D01*
X65210000Y18940000D02*
X65210000Y16340000D01*
X51310000Y16740000D02*
X51010000Y16440000D01*
X50710000Y16740000D02*
X51310000Y16740000D01*
X51010000Y16440000D02*
X50710000Y16740000D01*
X51810000Y18940000D02*
X51810000Y16440000D01*
X56610000Y18940000D02*
X51810000Y18940000D01*
X51810000Y6340000D02*
X51810000Y9140000D01*
X56710000Y6340000D02*
X51810000Y6340000D01*
X65210000Y6340000D02*
X60310000Y6340000D01*
X60310000Y18940000D02*
X65210000Y18940000D01*
X61510000Y12640000D02*
G75*
G03*
X61510000Y12640000I-3000000J0D01*
G01*
D13*
X28690000Y13290000D02*
X28690000Y18990000D01*
X28690000Y18990000D02*
X28440000Y18990000D01*
X28690000Y13290000D02*
X28440000Y13290000D01*
X25490000Y13290000D02*
X25740000Y13290000D01*
X25490000Y13290000D02*
X25490000Y18990000D01*
X25490000Y18990000D02*
X25740000Y18990000D01*
X56750000Y-33812500D02*
X57650000Y-34312500D01*
X57650000Y-34312500D02*
X57650000Y-33312500D01*
X57650000Y-33312500D02*
X56750000Y-33812500D01*
X56650000Y-34312500D02*
X56650000Y-33312500D01*
X59850000Y-34562500D02*
X54450000Y-34562500D01*
X54450000Y-34562500D02*
X54450000Y-33062500D01*
X54450000Y-33062500D02*
X59850000Y-33062500D01*
X59850000Y-33062500D02*
X59850000Y-34562500D01*
X75800000Y-33812500D02*
X76700000Y-34312500D01*
X76700000Y-34312500D02*
X76700000Y-33312500D01*
X76700000Y-33312500D02*
X75800000Y-33812500D01*
X75700000Y-34312500D02*
X75700000Y-33312500D01*
X78900000Y-34562500D02*
X73500000Y-34562500D01*
X73500000Y-34562500D02*
X73500000Y-33062500D01*
X73500000Y-33062500D02*
X78900000Y-33062500D01*
X78900000Y-33062500D02*
X78900000Y-34562500D01*
X47225000Y-71912500D02*
X48125000Y-72412500D01*
X48125000Y-72412500D02*
X48125000Y-71412500D01*
X48125000Y-71412500D02*
X47225000Y-71912500D01*
X47125000Y-72412500D02*
X47125000Y-71412500D01*
X50325000Y-72662500D02*
X44925000Y-72662500D01*
X44925000Y-72662500D02*
X44925000Y-71162500D01*
X44925000Y-71162500D02*
X50325000Y-71162500D01*
X50325000Y-71162500D02*
X50325000Y-72662500D01*
X71038000Y-71912500D02*
X71938000Y-72412500D01*
X71938000Y-72412500D02*
X71938000Y-71412500D01*
X71938000Y-71412500D02*
X71038000Y-71912500D01*
X70938000Y-72412500D02*
X70938000Y-71412500D01*
X74138000Y-72662500D02*
X68738000Y-72662500D01*
X68738000Y-72662500D02*
X68738000Y-71162500D01*
X68738000Y-71162500D02*
X74138000Y-71162500D01*
X74138000Y-71162500D02*
X74138000Y-72662500D01*
X58070000Y3350000D02*
X58970000Y3850000D01*
X58970000Y3850000D02*
X58970000Y2850000D01*
X58970000Y2850000D02*
X58070000Y3350000D01*
X57970000Y3850000D02*
X57970000Y2850000D01*
X61170000Y4100000D02*
X55770000Y4100000D01*
X55770000Y4100000D02*
X55770000Y2600000D01*
X55770000Y2600000D02*
X61170000Y2600000D01*
X61170000Y2600000D02*
X61170000Y4100000D01*
X77110000Y3370000D02*
X78010000Y3870000D01*
X78010000Y3870000D02*
X78010000Y2870000D01*
X78010000Y2870000D02*
X77110000Y3370000D01*
X77010000Y3870000D02*
X77010000Y2870000D01*
X80210000Y4120000D02*
X74810000Y4120000D01*
X74810000Y4120000D02*
X74810000Y2620000D01*
X74810000Y2620000D02*
X80210000Y2620000D01*
X80210000Y2620000D02*
X80210000Y4120000D01*
X-400000Y-57625000D02*
X500000Y-58125000D01*
X500000Y-58125000D02*
X500000Y-57125000D01*
X500000Y-57125000D02*
X-400000Y-57625000D01*
X-500000Y-58125000D02*
X-500000Y-57125000D01*
X2700000Y-58375000D02*
X-2700000Y-58375000D01*
X-2700000Y-58375000D02*
X-2700000Y-56875000D01*
X-2700000Y-56875000D02*
X2700000Y-56875000D01*
X2700000Y-56875000D02*
X2700000Y-58375000D01*
X37700000Y-10000000D02*
X38600000Y-10500000D01*
X38600000Y-10500000D02*
X38600000Y-9500000D01*
X38600000Y-9500000D02*
X37700000Y-10000000D01*
X37600000Y-10500000D02*
X37600000Y-9500000D01*
X40800000Y-10750000D02*
X35400000Y-10750000D01*
X35400000Y-10750000D02*
X35400000Y-9250000D01*
X35400000Y-9250000D02*
X40800000Y-9250000D01*
X40800000Y-9250000D02*
X40800000Y-10750000D01*
X56750000Y-14762499D02*
X57650000Y-15262499D01*
X57650000Y-15262499D02*
X57650000Y-14262499D01*
X57650000Y-14262499D02*
X56750000Y-14762499D01*
X56650000Y-15262499D02*
X56650000Y-14262499D01*
X59850000Y-15512499D02*
X54450000Y-15512499D01*
X54450000Y-15512499D02*
X54450000Y-14012499D01*
X54450000Y-14012499D02*
X59850000Y-14012499D01*
X59850000Y-14012499D02*
X59850000Y-15512499D01*
X-400000Y-38575000D02*
X500000Y-39075000D01*
X500000Y-39075000D02*
X500000Y-38075000D01*
X500000Y-38075000D02*
X-400000Y-38575000D01*
X-500000Y-39075000D02*
X-500000Y-38075000D01*
X2700000Y-39325000D02*
X-2700000Y-39325000D01*
X-2700000Y-39325000D02*
X-2700000Y-37825000D01*
X-2700000Y-37825000D02*
X2700000Y-37825000D01*
X2700000Y-37825000D02*
X2700000Y-39325000D01*
X75800000Y-14762499D02*
X76700000Y-15262499D01*
X76700000Y-15262499D02*
X76700000Y-14262499D01*
X76700000Y-14262499D02*
X75800000Y-14762499D01*
X75700000Y-15262499D02*
X75700000Y-14262499D01*
X78900000Y-15512499D02*
X73500000Y-15512499D01*
X73500000Y-15512499D02*
X73500000Y-14012499D01*
X73500000Y-14012499D02*
X78900000Y-14012499D01*
X78900000Y-14012499D02*
X78900000Y-15512499D01*
X37700000Y-29050000D02*
X38600000Y-29550000D01*
X38600000Y-29550000D02*
X38600000Y-28550000D01*
X38600000Y-28550000D02*
X37700000Y-29050000D01*
X37600000Y-29550000D02*
X37600000Y-28550000D01*
X40800000Y-29800000D02*
X35400000Y-29800000D01*
X35400000Y-29800000D02*
X35400000Y-28300000D01*
X35400000Y-28300000D02*
X40800000Y-28300000D01*
X40800000Y-28300000D02*
X40800000Y-29800000D01*
X18650000Y-33812500D02*
X19550000Y-34312500D01*
X19550000Y-34312500D02*
X19550000Y-33312500D01*
X19550000Y-33312500D02*
X18650000Y-33812500D01*
X18550000Y-34312500D02*
X18550000Y-33312500D01*
X21750000Y-34562500D02*
X16350000Y-34562500D01*
X16350000Y-34562500D02*
X16350000Y-33062500D01*
X16350000Y-33062500D02*
X21750000Y-33062500D01*
X21750000Y-33062500D02*
X21750000Y-34562500D01*
X18650000Y-52862500D02*
X19550000Y-53362500D01*
X19550000Y-53362500D02*
X19550000Y-52362500D01*
X19550000Y-52362500D02*
X18650000Y-52862500D01*
X18550000Y-53362500D02*
X18550000Y-52362500D01*
X21750000Y-53612500D02*
X16350000Y-53612500D01*
X16350000Y-53612500D02*
X16350000Y-52112500D01*
X16350000Y-52112500D02*
X21750000Y-52112500D01*
X21750000Y-52112500D02*
X21750000Y-53612500D01*
X37700000Y-48100000D02*
X38600000Y-48600000D01*
X38600000Y-48600000D02*
X38600000Y-47600000D01*
X38600000Y-47600000D02*
X37700000Y-48100000D01*
X37600000Y-48600000D02*
X37600000Y-47600000D01*
X40800000Y-48850000D02*
X35400000Y-48850000D01*
X35400000Y-48850000D02*
X35400000Y-47350000D01*
X35400000Y-47350000D02*
X40800000Y-47350000D01*
X40800000Y-47350000D02*
X40800000Y-48850000D01*
X56750000Y-52862500D02*
X57650000Y-53362500D01*
X57650000Y-53362500D02*
X57650000Y-52362500D01*
X57650000Y-52362500D02*
X56750000Y-52862500D01*
X56650000Y-53362500D02*
X56650000Y-52362500D01*
X59850000Y-53612500D02*
X54450000Y-53612500D01*
X54450000Y-53612500D02*
X54450000Y-52112500D01*
X54450000Y-52112500D02*
X59850000Y-52112500D01*
X59850000Y-52112500D02*
X59850000Y-53612500D01*
X75800000Y-52862500D02*
X76700000Y-53362500D01*
X76700000Y-53362500D02*
X76700000Y-52362500D01*
X76700000Y-52362500D02*
X75800000Y-52862500D01*
X75700000Y-53362500D02*
X75700000Y-52362500D01*
X78900000Y-53612500D02*
X73500000Y-53612500D01*
X73500000Y-53612500D02*
X73500000Y-52112500D01*
X73500000Y-52112500D02*
X78900000Y-52112500D01*
X78900000Y-52112500D02*
X78900000Y-53612500D01*
X28175000Y-71912500D02*
X29075000Y-72412500D01*
X29075000Y-72412500D02*
X29075000Y-71412500D01*
X29075000Y-71412500D02*
X28175000Y-71912500D01*
X28075000Y-72412500D02*
X28075000Y-71412500D01*
X31275000Y-72662500D02*
X25875000Y-72662500D01*
X25875000Y-72662500D02*
X25875000Y-71162500D01*
X25875000Y-71162500D02*
X31275000Y-71162500D01*
X31275000Y-71162500D02*
X31275000Y-72662500D01*
X22082000Y21446400D02*
X-8398000Y21446400D01*
X22082000Y23986400D02*
X22082000Y21446400D01*
X-8398000Y23986400D02*
X22082000Y23986400D01*
X-8398000Y21446400D02*
X-8398000Y23986400D01*
X22082000Y6226400D02*
X-8398000Y6226400D01*
X22082000Y8766400D02*
X22082000Y6226400D01*
X-8398000Y8766400D02*
X22082000Y8766400D01*
X-8398000Y6226400D02*
X-8398000Y8766400D01*
X-400000Y-19525000D02*
X500000Y-20025000D01*
X500000Y-20025000D02*
X500000Y-19025000D01*
X500000Y-19025000D02*
X-400000Y-19525000D01*
X-500000Y-20025000D02*
X-500000Y-19025000D01*
X2700000Y-20275000D02*
X-2700000Y-20275000D01*
X-2700000Y-20275000D02*
X-2700000Y-18775000D01*
X-2700000Y-18775000D02*
X2700000Y-18775000D01*
X2700000Y-18775000D02*
X2700000Y-20275000D01*
X77538000Y-61016500D02*
X73928000Y-61016500D01*
X77538000Y-57062500D02*
X77538000Y-61007500D01*
X66638000Y-55108500D02*
X75263000Y-55108500D01*
X66638000Y-59016500D02*
X66638000Y-55108500D01*
X66638000Y-59062500D02*
X71688000Y-59108500D01*
X69163000Y-70137500D02*
X73713000Y-70137500D01*
X69163000Y-65487500D02*
X71713000Y-65487500D01*
X74013000Y-63287500D02*
X78713000Y-63287500D01*
X74938000Y-67937500D02*
X78713000Y-67937500D01*
X69138000Y-65512500D02*
X69138000Y-70112500D01*
X78713000Y-63312500D02*
X78738000Y-67912500D01*
X73718000Y-69412500D02*
X73718000Y-70112500D01*
X73718000Y-69362500D02*
G75*
G02*
X74938000Y-67942500I1320000J100000D01*
G01*
X74008000Y-63312500D02*
G75*
G02*
X71638000Y-65482500I-2270000J100000D01*
G01*
X73923000Y-60992500D02*
G75*
G03*
X71663000Y-59112500I-2070000J-190000D01*
G01*
X77527000Y-56992500D02*
G75*
G03*
X75263000Y-55108500I-2074000J-190000D01*
G01*
X25139000Y157501D02*
G75*
G03*
X22875000Y2041501I-2074000J-190000D01*
G01*
X21535000Y-3842499D02*
G75*
G03*
X19275000Y-1962499I-2070000J-190000D01*
G01*
X21620000Y-6162499D02*
G75*
G02*
X19250000Y-8332499I-2270000J100000D01*
G01*
X21330000Y-12212499D02*
G75*
G02*
X22550000Y-10792499I1320000J100000D01*
G01*
X21330000Y-12262499D02*
X21330000Y-12962499D01*
X26325000Y-6162499D02*
X26350000Y-10762499D01*
X16750000Y-8362499D02*
X16750000Y-12962499D01*
X22550000Y-10787499D02*
X26325000Y-10787499D01*
X21625000Y-6137499D02*
X26325000Y-6137499D01*
X16775000Y-8337499D02*
X19325000Y-8337499D01*
X16775000Y-12987499D02*
X21325000Y-12987499D01*
X14250000Y-1912499D02*
X19300000Y-1958499D01*
X14250000Y-1866499D02*
X14250000Y2041501D01*
X14250000Y2041501D02*
X22875000Y2041501D01*
X25150000Y87501D02*
X25150000Y-3857499D01*
X25150000Y-3866499D02*
X21540000Y-3866499D01*
X44189000Y4920000D02*
G75*
G03*
X41925000Y6804000I-2074000J-190000D01*
G01*
X40585000Y920000D02*
G75*
G03*
X38325000Y2800000I-2070000J-190000D01*
G01*
X40670000Y-1400000D02*
G75*
G02*
X38300000Y-3570000I-2270000J100000D01*
G01*
X40380000Y-7450000D02*
G75*
G02*
X41600000Y-6030000I1320000J100000D01*
G01*
X40380000Y-7500000D02*
X40380000Y-8200000D01*
X45375000Y-1400000D02*
X45400000Y-6000000D01*
X35800000Y-3600000D02*
X35800000Y-8200000D01*
X41600000Y-6025000D02*
X45375000Y-6025000D01*
X40675000Y-1375000D02*
X45375000Y-1375000D01*
X35825000Y-3575000D02*
X38375000Y-3575000D01*
X35825000Y-8225000D02*
X40375000Y-8225000D01*
X33300000Y2850000D02*
X38350000Y2804000D01*
X33300000Y2896000D02*
X33300000Y6804000D01*
X33300000Y6804000D02*
X41925000Y6804000D01*
X44200000Y4850000D02*
X44200000Y905000D01*
X44200000Y896000D02*
X40590000Y896000D01*
X63239000Y157501D02*
G75*
G03*
X60975000Y2041501I-2074000J-190000D01*
G01*
X59635000Y-3842499D02*
G75*
G03*
X57375000Y-1962499I-2070000J-190000D01*
G01*
X59720000Y-6162499D02*
G75*
G02*
X57350000Y-8332499I-2270000J100000D01*
G01*
X59430000Y-12212499D02*
G75*
G02*
X60650000Y-10792499I1320000J100000D01*
G01*
X59430000Y-12262499D02*
X59430000Y-12962499D01*
X64425000Y-6162499D02*
X64450000Y-10762499D01*
X54850000Y-8362499D02*
X54850000Y-12962499D01*
X60650000Y-10787499D02*
X64425000Y-10787499D01*
X59725000Y-6137499D02*
X64425000Y-6137499D01*
X54875000Y-8337499D02*
X57425000Y-8337499D01*
X54875000Y-12987499D02*
X59425000Y-12987499D01*
X52350000Y-1912499D02*
X57400000Y-1958499D01*
X52350000Y-1866499D02*
X52350000Y2041501D01*
X52350000Y2041501D02*
X60975000Y2041501D01*
X63250000Y87501D02*
X63250000Y-3857499D01*
X63250000Y-3866499D02*
X59640000Y-3866499D01*
X6089000Y-4605000D02*
G75*
G03*
X3825000Y-2721000I-2074000J-190000D01*
G01*
X2485000Y-8605000D02*
G75*
G03*
X225000Y-6725000I-2070000J-190000D01*
G01*
X2570000Y-10925000D02*
G75*
G02*
X200000Y-13095000I-2270000J100000D01*
G01*
X2280000Y-16975000D02*
G75*
G02*
X3500000Y-15555000I1320000J100000D01*
G01*
X2280000Y-17025000D02*
X2280000Y-17725000D01*
X7275000Y-10925000D02*
X7300000Y-15525000D01*
X-2300000Y-13125000D02*
X-2300000Y-17725000D01*
X3500000Y-15550000D02*
X7275000Y-15550000D01*
X2575000Y-10900000D02*
X7275000Y-10900000D01*
X-2275000Y-13100000D02*
X275000Y-13100000D01*
X-2275000Y-17750000D02*
X2275000Y-17750000D01*
X-4800000Y-6675000D02*
X250000Y-6721000D01*
X-4800000Y-6629000D02*
X-4800000Y-2721000D01*
X-4800000Y-2721000D02*
X3825000Y-2721000D01*
X6100000Y-4675000D02*
X6100000Y-8620000D01*
X6100000Y-8629000D02*
X2490000Y-8629000D01*
X32080000Y24660000D02*
X38080000Y24660000D01*
X38080000Y24660000D02*
X38080000Y12660000D01*
X38080000Y12660000D02*
X32080000Y12660000D01*
X32080000Y12660000D02*
X32080000Y24660000D01*
X53714000Y-56992500D02*
G75*
G03*
X51450000Y-55108500I-2074000J-190000D01*
G01*
X50110000Y-60992500D02*
G75*
G03*
X47850000Y-59112500I-2070000J-190000D01*
G01*
X50195000Y-63312500D02*
G75*
G02*
X47825000Y-65482500I-2270000J100000D01*
G01*
X49905000Y-69362500D02*
G75*
G02*
X51125000Y-67942500I1320000J100000D01*
G01*
X49905000Y-69412500D02*
X49905000Y-70112500D01*
X54900000Y-63312500D02*
X54925000Y-67912500D01*
X45325000Y-65512500D02*
X45325000Y-70112500D01*
X51125000Y-67937500D02*
X54900000Y-67937500D01*
X50200000Y-63287500D02*
X54900000Y-63287500D01*
X45350000Y-65487500D02*
X47900000Y-65487500D01*
X45350000Y-70137500D02*
X49900000Y-70137500D01*
X42825000Y-59062500D02*
X47875000Y-59108500D01*
X42825000Y-59016500D02*
X42825000Y-55108500D01*
X42825000Y-55108500D02*
X51450000Y-55108500D01*
X53725000Y-57062500D02*
X53725000Y-61007500D01*
X53725000Y-61016500D02*
X50115000Y-61016500D01*
X34664000Y-56992500D02*
G75*
G03*
X32400000Y-55108500I-2074000J-190000D01*
G01*
X31060000Y-60992500D02*
G75*
G03*
X28800000Y-59112500I-2070000J-190000D01*
G01*
X31145000Y-63312500D02*
G75*
G02*
X28775000Y-65482500I-2270000J100000D01*
G01*
X30855000Y-69362500D02*
G75*
G02*
X32075000Y-67942500I1320000J100000D01*
G01*
X30855000Y-69412500D02*
X30855000Y-70112500D01*
X35850000Y-63312500D02*
X35875000Y-67912500D01*
X26275000Y-65512500D02*
X26275000Y-70112500D01*
X32075000Y-67937500D02*
X35850000Y-67937500D01*
X31150000Y-63287500D02*
X35850000Y-63287500D01*
X26300000Y-65487500D02*
X28850000Y-65487500D01*
X26300000Y-70137500D02*
X30850000Y-70137500D01*
X23775000Y-59062500D02*
X28825000Y-59108500D01*
X23775000Y-59016500D02*
X23775000Y-55108500D01*
X23775000Y-55108500D02*
X32400000Y-55108500D01*
X34675000Y-57062500D02*
X34675000Y-61007500D01*
X34675000Y-61016500D02*
X31065000Y-61016500D01*
X82300000Y-41966500D02*
X78690000Y-41966500D01*
X82300000Y-38012500D02*
X82300000Y-41957500D01*
X71400000Y-36058500D02*
X80025000Y-36058500D01*
X71400000Y-39966500D02*
X71400000Y-36058500D01*
X71400000Y-40012500D02*
X76450000Y-40058500D01*
X73925000Y-51087500D02*
X78475000Y-51087500D01*
X73925000Y-46437500D02*
X76475000Y-46437500D01*
X78775000Y-44237500D02*
X83475000Y-44237500D01*
X79700000Y-48887500D02*
X83475000Y-48887500D01*
X73900000Y-46462500D02*
X73900000Y-51062500D01*
X83475000Y-44262500D02*
X83500000Y-48862500D01*
X78480000Y-50362500D02*
X78480000Y-51062500D01*
X78480000Y-50312500D02*
G75*
G02*
X79700000Y-48892500I1320000J100000D01*
G01*
X78770000Y-44262500D02*
G75*
G02*
X76400000Y-46432500I-2270000J100000D01*
G01*
X78685000Y-41942500D02*
G75*
G03*
X76425000Y-40062500I-2070000J-190000D01*
G01*
X82289000Y-37942500D02*
G75*
G03*
X80025000Y-36058500I-2074000J-190000D01*
G01*
X82300000Y-3866499D02*
X78690000Y-3866499D01*
X82300000Y87501D02*
X82300000Y-3857499D01*
X71400000Y2041501D02*
X80025000Y2041501D01*
X71400000Y-1866499D02*
X71400000Y2041501D01*
X71400000Y-1912499D02*
X76450000Y-1958499D01*
X73925000Y-12987499D02*
X78475000Y-12987499D01*
X73925000Y-8337499D02*
X76475000Y-8337499D01*
X78775000Y-6137499D02*
X83475000Y-6137499D01*
X79700000Y-10787499D02*
X83475000Y-10787499D01*
X73900000Y-8362499D02*
X73900000Y-12962499D01*
X83475000Y-6162499D02*
X83500000Y-10762499D01*
X78480000Y-12262499D02*
X78480000Y-12962499D01*
X78480000Y-12212499D02*
G75*
G02*
X79700000Y-10792499I1320000J100000D01*
G01*
X78770000Y-6162499D02*
G75*
G02*
X76400000Y-8332499I-2270000J100000D01*
G01*
X78685000Y-3842499D02*
G75*
G03*
X76425000Y-1962499I-2070000J-190000D01*
G01*
X82289000Y157501D02*
G75*
G03*
X80025000Y2041501I-2074000J-190000D01*
G01*
X25139000Y-37942500D02*
G75*
G03*
X22875000Y-36058500I-2074000J-190000D01*
G01*
X21535000Y-41942500D02*
G75*
G03*
X19275000Y-40062500I-2070000J-190000D01*
G01*
X21620000Y-44262500D02*
G75*
G02*
X19250000Y-46432500I-2270000J100000D01*
G01*
X21330000Y-50312500D02*
G75*
G02*
X22550000Y-48892500I1320000J100000D01*
G01*
X21330000Y-50362500D02*
X21330000Y-51062500D01*
X26325000Y-44262500D02*
X26350000Y-48862500D01*
X16750000Y-46462500D02*
X16750000Y-51062500D01*
X22550000Y-48887500D02*
X26325000Y-48887500D01*
X21625000Y-44237500D02*
X26325000Y-44237500D01*
X16775000Y-46437500D02*
X19325000Y-46437500D01*
X16775000Y-51087500D02*
X21325000Y-51087500D01*
X14250000Y-40012500D02*
X19300000Y-40058500D01*
X14250000Y-39966500D02*
X14250000Y-36058500D01*
X14250000Y-36058500D02*
X22875000Y-36058500D01*
X25150000Y-38012500D02*
X25150000Y-41957500D01*
X25150000Y-41966500D02*
X21540000Y-41966500D01*
X44200000Y-37204000D02*
X40590000Y-37204000D01*
X44200000Y-33250000D02*
X44200000Y-37195000D01*
X33300000Y-31296000D02*
X41925000Y-31296000D01*
X33300000Y-35204000D02*
X33300000Y-31296000D01*
X33300000Y-35250000D02*
X38350000Y-35296000D01*
X35825000Y-46325000D02*
X40375000Y-46325000D01*
X35825000Y-41675000D02*
X38375000Y-41675000D01*
X40675000Y-39475000D02*
X45375000Y-39475000D01*
X41600000Y-44125000D02*
X45375000Y-44125000D01*
X35800000Y-41700000D02*
X35800000Y-46300000D01*
X45375000Y-39500000D02*
X45400000Y-44100000D01*
X40380000Y-45600000D02*
X40380000Y-46300000D01*
X40380000Y-45550000D02*
G75*
G02*
X41600000Y-44130000I1320000J100000D01*
G01*
X40670000Y-39500000D02*
G75*
G02*
X38300000Y-41670000I-2270000J100000D01*
G01*
X40585000Y-37180000D02*
G75*
G03*
X38325000Y-35300000I-2070000J-190000D01*
G01*
X44189000Y-33180000D02*
G75*
G03*
X41925000Y-31296000I-2074000J-190000D01*
G01*
X63250000Y-41966500D02*
X59640000Y-41966500D01*
X63250000Y-38012500D02*
X63250000Y-41957500D01*
X52350000Y-36058500D02*
X60975000Y-36058500D01*
X52350000Y-39966500D02*
X52350000Y-36058500D01*
X52350000Y-40012500D02*
X57400000Y-40058500D01*
X54875000Y-51087500D02*
X59425000Y-51087500D01*
X54875000Y-46437500D02*
X57425000Y-46437500D01*
X59725000Y-44237500D02*
X64425000Y-44237500D01*
X60650000Y-48887500D02*
X64425000Y-48887500D01*
X54850000Y-46462500D02*
X54850000Y-51062500D01*
X64425000Y-44262500D02*
X64450000Y-48862500D01*
X59430000Y-50362500D02*
X59430000Y-51062500D01*
X59430000Y-50312500D02*
G75*
G02*
X60650000Y-48892500I1320000J100000D01*
G01*
X59720000Y-44262500D02*
G75*
G02*
X57350000Y-46432500I-2270000J100000D01*
G01*
X59635000Y-41942500D02*
G75*
G03*
X57375000Y-40062500I-2070000J-190000D01*
G01*
X63239000Y-37942500D02*
G75*
G03*
X60975000Y-36058500I-2074000J-190000D01*
G01*
X82300000Y-22916500D02*
X78690000Y-22916500D01*
X82300000Y-18962500D02*
X82300000Y-22907500D01*
X71400000Y-17008500D02*
X80025000Y-17008500D01*
X71400000Y-20916500D02*
X71400000Y-17008500D01*
X71400000Y-20962500D02*
X76450000Y-21008500D01*
X73925000Y-32037500D02*
X78475000Y-32037500D01*
X73925000Y-27387500D02*
X76475000Y-27387500D01*
X78775000Y-25187500D02*
X83475000Y-25187500D01*
X79700000Y-29837500D02*
X83475000Y-29837500D01*
X73900000Y-27412500D02*
X73900000Y-32012500D01*
X83475000Y-25212500D02*
X83500000Y-29812500D01*
X78480000Y-31312500D02*
X78480000Y-32012500D01*
X78480000Y-31262500D02*
G75*
G02*
X79700000Y-29842500I1320000J100000D01*
G01*
X78770000Y-25212500D02*
G75*
G02*
X76400000Y-27382500I-2270000J100000D01*
G01*
X78685000Y-22892500D02*
G75*
G03*
X76425000Y-21012500I-2070000J-190000D01*
G01*
X82289000Y-18892500D02*
G75*
G03*
X80025000Y-17008500I-2074000J-190000D01*
G01*
X6100000Y-46729000D02*
X2490000Y-46729000D01*
X6100000Y-42775000D02*
X6100000Y-46720000D01*
X-4800000Y-40821000D02*
X3825000Y-40821000D01*
X-4800000Y-44729000D02*
X-4800000Y-40821000D01*
X-4800000Y-44775000D02*
X250000Y-44821000D01*
X-2275000Y-55850000D02*
X2275000Y-55850000D01*
X-2275000Y-51200000D02*
X275000Y-51200000D01*
X2575000Y-49000000D02*
X7275000Y-49000000D01*
X3500000Y-53650000D02*
X7275000Y-53650000D01*
X-2300000Y-51225000D02*
X-2300000Y-55825000D01*
X7275000Y-49025000D02*
X7300000Y-53625000D01*
X2280000Y-55125000D02*
X2280000Y-55825000D01*
X2280000Y-55075000D02*
G75*
G02*
X3500000Y-53655000I1320000J100000D01*
G01*
X2570000Y-49025000D02*
G75*
G02*
X200000Y-51195000I-2270000J100000D01*
G01*
X2485000Y-46705000D02*
G75*
G03*
X225000Y-44825000I-2070000J-190000D01*
G01*
X6089000Y-42705000D02*
G75*
G03*
X3825000Y-40821000I-2074000J-190000D01*
G01*
X63250000Y-22916500D02*
X59640000Y-22916500D01*
X63250000Y-18962500D02*
X63250000Y-22907500D01*
X52350000Y-17008500D02*
X60975000Y-17008500D01*
X52350000Y-20916500D02*
X52350000Y-17008500D01*
X52350000Y-20962500D02*
X57400000Y-21008500D01*
X54875000Y-32037500D02*
X59425000Y-32037500D01*
X54875000Y-27387500D02*
X57425000Y-27387500D01*
X59725000Y-25187500D02*
X64425000Y-25187500D01*
X60650000Y-29837500D02*
X64425000Y-29837500D01*
X54850000Y-27412500D02*
X54850000Y-32012500D01*
X64425000Y-25212500D02*
X64450000Y-29812500D01*
X59430000Y-31312500D02*
X59430000Y-32012500D01*
X59430000Y-31262500D02*
G75*
G02*
X60650000Y-29842500I1320000J100000D01*
G01*
X59720000Y-25212500D02*
G75*
G02*
X57350000Y-27382500I-2270000J100000D01*
G01*
X59635000Y-22892500D02*
G75*
G03*
X57375000Y-21012500I-2070000J-190000D01*
G01*
X63239000Y-18892500D02*
G75*
G03*
X60975000Y-17008500I-2074000J-190000D01*
G01*
X44200000Y-18154000D02*
X40590000Y-18154000D01*
X44200000Y-14200000D02*
X44200000Y-18145000D01*
X33300000Y-12246000D02*
X41925000Y-12246000D01*
X33300000Y-16154000D02*
X33300000Y-12246000D01*
X33300000Y-16200000D02*
X38350000Y-16246000D01*
X35825000Y-27275000D02*
X40375000Y-27275000D01*
X35825000Y-22625000D02*
X38375000Y-22625000D01*
X40675000Y-20425000D02*
X45375000Y-20425000D01*
X41600000Y-25075000D02*
X45375000Y-25075000D01*
X35800000Y-22650000D02*
X35800000Y-27250000D01*
X45375000Y-20450000D02*
X45400000Y-25050000D01*
X40380000Y-26550000D02*
X40380000Y-27250000D01*
X40380000Y-26500000D02*
G75*
G02*
X41600000Y-25080000I1320000J100000D01*
G01*
X40670000Y-20450000D02*
G75*
G02*
X38300000Y-22620000I-2270000J100000D01*
G01*
X40585000Y-18130000D02*
G75*
G03*
X38325000Y-16250000I-2070000J-190000D01*
G01*
X44189000Y-14130000D02*
G75*
G03*
X41925000Y-12246000I-2074000J-190000D01*
G01*
X6089000Y-23655000D02*
G75*
G03*
X3825000Y-21771000I-2074000J-190000D01*
G01*
X2485000Y-27655000D02*
G75*
G03*
X225000Y-25775000I-2070000J-190000D01*
G01*
X2570000Y-29975000D02*
G75*
G02*
X200000Y-32145000I-2270000J100000D01*
G01*
X2280000Y-36025000D02*
G75*
G02*
X3500000Y-34605000I1320000J100000D01*
G01*
X2280000Y-36075000D02*
X2280000Y-36775000D01*
X7275000Y-29975000D02*
X7300000Y-34575000D01*
X-2300000Y-32175000D02*
X-2300000Y-36775000D01*
X3500000Y-34600000D02*
X7275000Y-34600000D01*
X2575000Y-29950000D02*
X7275000Y-29950000D01*
X-2275000Y-32150000D02*
X275000Y-32150000D01*
X-2275000Y-36800000D02*
X2275000Y-36800000D01*
X-4800000Y-25725000D02*
X250000Y-25771000D01*
X-4800000Y-25679000D02*
X-4800000Y-21771000D01*
X-4800000Y-21771000D02*
X3825000Y-21771000D01*
X6100000Y-23725000D02*
X6100000Y-27670000D01*
X6100000Y-27679000D02*
X2490000Y-27679000D01*
X25150000Y-22916500D02*
X21540000Y-22916500D01*
X25150000Y-18962500D02*
X25150000Y-22907500D01*
X14250000Y-17008500D02*
X22875000Y-17008500D01*
X14250000Y-20916500D02*
X14250000Y-17008500D01*
X14250000Y-20962500D02*
X19300000Y-21008500D01*
X16775000Y-32037500D02*
X21325000Y-32037500D01*
X16775000Y-27387500D02*
X19325000Y-27387500D01*
X21625000Y-25187500D02*
X26325000Y-25187500D01*
X22550000Y-29837500D02*
X26325000Y-29837500D01*
X16750000Y-27412500D02*
X16750000Y-32012500D01*
X26325000Y-25212500D02*
X26350000Y-29812500D01*
X21330000Y-31312500D02*
X21330000Y-32012500D01*
X21330000Y-31262500D02*
G75*
G02*
X22550000Y-29842500I1320000J100000D01*
G01*
X21620000Y-25212500D02*
G75*
G02*
X19250000Y-27382500I-2270000J100000D01*
G01*
X21535000Y-22892500D02*
G75*
G03*
X19275000Y-21012500I-2070000J-190000D01*
G01*
X25139000Y-18892500D02*
G75*
G03*
X22875000Y-17008500I-2074000J-190000D01*
G01*
X18650000Y-14762499D02*
X19550000Y-15262499D01*
X19550000Y-15262499D02*
X19550000Y-14262499D01*
X19550000Y-14262499D02*
X18650000Y-14762499D01*
X18550000Y-15262499D02*
X18550000Y-14262499D01*
X21750000Y-15512499D02*
X16350000Y-15512499D01*
X16350000Y-15512499D02*
X16350000Y-14012499D01*
X16350000Y-14012499D02*
X21750000Y-14012499D01*
X21750000Y-14012499D02*
X21750000Y-15512499D01*
X69530476Y19435238D02*
X69673333Y19387619D01*
X69911428Y19387619D01*
X70006666Y19435238D01*
X70054285Y19482857D01*
X70101904Y19578095D01*
X70101904Y19673333D01*
X70054285Y19768571D01*
X70006666Y19816190D01*
X69911428Y19863809D01*
X69720952Y19911428D01*
X69625714Y19959047D01*
X69578095Y20006666D01*
X69530476Y20101904D01*
X69530476Y20197142D01*
X69578095Y20292380D01*
X69625714Y20340000D01*
X69720952Y20387619D01*
X69959047Y20387619D01*
X70101904Y20340000D01*
X70435238Y20387619D02*
X70673333Y19387619D01*
X70863809Y20101904D01*
X71054285Y19387619D01*
X71292380Y20387619D01*
X71578095Y20387619D02*
X72197142Y20387619D01*
X71863809Y20006666D01*
X72006666Y20006666D01*
X72101904Y19959047D01*
X72149523Y19911428D01*
X72197142Y19816190D01*
X72197142Y19578095D01*
X72149523Y19482857D01*
X72101904Y19435238D01*
X72006666Y19387619D01*
X71720952Y19387619D01*
X71625714Y19435238D01*
X71578095Y19482857D01*
X72768571Y19959047D02*
X72673333Y20006666D01*
X72625714Y20054285D01*
X72578095Y20149523D01*
X72578095Y20197142D01*
X72625714Y20292380D01*
X72673333Y20340000D01*
X72768571Y20387619D01*
X72959047Y20387619D01*
X73054285Y20340000D01*
X73101904Y20292380D01*
X73149523Y20197142D01*
X73149523Y20149523D01*
X73101904Y20054285D01*
X73054285Y20006666D01*
X72959047Y19959047D01*
X72768571Y19959047D01*
X72673333Y19911428D01*
X72625714Y19863809D01*
X72578095Y19768571D01*
X72578095Y19578095D01*
X72625714Y19482857D01*
X72673333Y19435238D01*
X72768571Y19387619D01*
X72959047Y19387619D01*
X73054285Y19435238D01*
X73101904Y19482857D01*
X73149523Y19578095D01*
X73149523Y19768571D01*
X73101904Y19863809D01*
X73054285Y19911428D01*
X72959047Y19959047D01*
X52000476Y19435238D02*
X52143333Y19387619D01*
X52381428Y19387619D01*
X52476666Y19435238D01*
X52524285Y19482857D01*
X52571904Y19578095D01*
X52571904Y19673333D01*
X52524285Y19768571D01*
X52476666Y19816190D01*
X52381428Y19863809D01*
X52190952Y19911428D01*
X52095714Y19959047D01*
X52048095Y20006666D01*
X52000476Y20101904D01*
X52000476Y20197142D01*
X52048095Y20292380D01*
X52095714Y20340000D01*
X52190952Y20387619D01*
X52429047Y20387619D01*
X52571904Y20340000D01*
X52905238Y20387619D02*
X53143333Y19387619D01*
X53333809Y20101904D01*
X53524285Y19387619D01*
X53762380Y20387619D01*
X54048095Y20387619D02*
X54667142Y20387619D01*
X54333809Y20006666D01*
X54476666Y20006666D01*
X54571904Y19959047D01*
X54619523Y19911428D01*
X54667142Y19816190D01*
X54667142Y19578095D01*
X54619523Y19482857D01*
X54571904Y19435238D01*
X54476666Y19387619D01*
X54190952Y19387619D01*
X54095714Y19435238D01*
X54048095Y19482857D01*
X55000476Y20387619D02*
X55667142Y20387619D01*
X55238571Y19387619D01*
X27422380Y14727619D02*
X26946190Y14394285D01*
X27422380Y14156190D02*
X26422380Y14156190D01*
X26422380Y14537142D01*
X26470000Y14632380D01*
X26517619Y14680000D01*
X26612857Y14727619D01*
X26755714Y14727619D01*
X26850952Y14680000D01*
X26898571Y14632380D01*
X26946190Y14537142D01*
X26946190Y14156190D01*
X26898571Y15156190D02*
X26898571Y15489523D01*
X27422380Y15632380D02*
X27422380Y15156190D01*
X26422380Y15156190D01*
X26422380Y15632380D01*
X27374761Y16013333D02*
X27422380Y16156190D01*
X27422380Y16394285D01*
X27374761Y16489523D01*
X27327142Y16537142D01*
X27231904Y16584761D01*
X27136666Y16584761D01*
X27041428Y16537142D01*
X26993809Y16489523D01*
X26946190Y16394285D01*
X26898571Y16203809D01*
X26850952Y16108571D01*
X26803333Y16060952D01*
X26708095Y16013333D01*
X26612857Y16013333D01*
X26517619Y16060952D01*
X26470000Y16108571D01*
X26422380Y16203809D01*
X26422380Y16441904D01*
X26470000Y16584761D01*
X26898571Y17013333D02*
X26898571Y17346666D01*
X27422380Y17489523D02*
X27422380Y17013333D01*
X26422380Y17013333D01*
X26422380Y17489523D01*
X26422380Y17775238D02*
X26422380Y18346666D01*
X27422380Y18060952D02*
X26422380Y18060952D01*
X-7721904Y17700000D02*
X-7817142Y17747619D01*
X-7960000Y17747619D01*
X-8102857Y17700000D01*
X-8198095Y17604761D01*
X-8245714Y17509523D01*
X-8293333Y17319047D01*
X-8293333Y17176190D01*
X-8245714Y16985714D01*
X-8198095Y16890476D01*
X-8102857Y16795238D01*
X-7960000Y16747619D01*
X-7864761Y16747619D01*
X-7721904Y16795238D01*
X-7674285Y16842857D01*
X-7674285Y17176190D01*
X-7864761Y17176190D01*
X-7245714Y16747619D02*
X-7245714Y17747619D01*
X-6674285Y16747619D01*
X-6674285Y17747619D01*
X-6198095Y16747619D02*
X-6198095Y17747619D01*
X-5960000Y17747619D01*
X-5817142Y17700000D01*
X-5721904Y17604761D01*
X-5674285Y17509523D01*
X-5626666Y17319047D01*
X-5626666Y17176190D01*
X-5674285Y16985714D01*
X-5721904Y16890476D01*
X-5817142Y16795238D01*
X-5960000Y16747619D01*
X-6198095Y16747619D01*
X-7592857Y14107619D02*
X-8069047Y14107619D01*
X-8069047Y15107619D01*
X-7259523Y14631428D02*
X-6926190Y14631428D01*
X-6783333Y14107619D02*
X-7259523Y14107619D01*
X-7259523Y15107619D01*
X-6783333Y15107619D01*
X-6354761Y14107619D02*
X-6354761Y15107619D01*
X-6116666Y15107619D01*
X-5973809Y15060000D01*
X-5878571Y14964761D01*
X-5830952Y14869523D01*
X-5783333Y14679047D01*
X-5783333Y14536190D01*
X-5830952Y14345714D01*
X-5878571Y14250476D01*
X-5973809Y14155238D01*
X-6116666Y14107619D01*
X-6354761Y14107619D01*
X-8233333Y12437619D02*
X-7900000Y11437619D01*
X-7566666Y12437619D01*
X-6661904Y11532857D02*
X-6709523Y11485238D01*
X-6852380Y11437619D01*
X-6947619Y11437619D01*
X-7090476Y11485238D01*
X-7185714Y11580476D01*
X-7233333Y11675714D01*
X-7280952Y11866190D01*
X-7280952Y12009047D01*
X-7233333Y12199523D01*
X-7185714Y12294761D01*
X-7090476Y12390000D01*
X-6947619Y12437619D01*
X-6852380Y12437619D01*
X-6709523Y12390000D01*
X-6661904Y12342380D01*
X-5661904Y11532857D02*
X-5709523Y11485238D01*
X-5852380Y11437619D01*
X-5947619Y11437619D01*
X-6090476Y11485238D01*
X-6185714Y11580476D01*
X-6233333Y11675714D01*
X-6280952Y11866190D01*
X-6280952Y12009047D01*
X-6233333Y12199523D01*
X-6185714Y12294761D01*
X-6090476Y12390000D01*
X-5947619Y12437619D01*
X-5852380Y12437619D01*
X-5709523Y12390000D01*
X-5661904Y12342380D01*
X46782380Y16307619D02*
X46782380Y16498095D01*
X46830000Y16593333D01*
X46925238Y16688571D01*
X47115714Y16736190D01*
X47449047Y16736190D01*
X47639523Y16688571D01*
X47734761Y16593333D01*
X47782380Y16498095D01*
X47782380Y16307619D01*
X47734761Y16212380D01*
X47639523Y16117142D01*
X47449047Y16069523D01*
X47115714Y16069523D01*
X46925238Y16117142D01*
X46830000Y16212380D01*
X46782380Y16307619D01*
X47782380Y17640952D02*
X47782380Y17164761D01*
X46782380Y17164761D01*
X47258571Y17974285D02*
X47258571Y18307619D01*
X47782380Y18450476D02*
X47782380Y17974285D01*
X46782380Y17974285D01*
X46782380Y18450476D01*
X47782380Y18879047D02*
X46782380Y18879047D01*
X46782380Y19117142D01*
X46830000Y19260000D01*
X46925238Y19355238D01*
X47020476Y19402857D01*
X47210952Y19450476D01*
X47353809Y19450476D01*
X47544285Y19402857D01*
X47639523Y19355238D01*
X47734761Y19260000D01*
X47782380Y19117142D01*
X47782380Y18879047D01*
D14*
X-6788714Y4999261D02*
X-7145857Y4832595D01*
X-6788714Y4713547D02*
X-7538714Y4713547D01*
X-7538714Y4904023D01*
X-7503000Y4951642D01*
X-7467285Y4975452D01*
X-7395857Y4999261D01*
X-7288714Y4999261D01*
X-7217285Y4975452D01*
X-7181571Y4951642D01*
X-7145857Y4904023D01*
X-7145857Y4713547D01*
X-7003000Y5189738D02*
X-7003000Y5427833D01*
X-6788714Y5142119D02*
X-7538714Y5308785D01*
X-6788714Y5475452D01*
X-7538714Y5594500D02*
X-6788714Y5713547D01*
X-7324428Y5808785D01*
X-6788714Y5904023D01*
X-7538714Y6023071D01*
X-6788714Y20238571D02*
X-6788714Y20000476D01*
X-7538714Y20000476D01*
X-7181571Y20405238D02*
X-7181571Y20571904D01*
X-6788714Y20643333D02*
X-6788714Y20405238D01*
X-7538714Y20405238D01*
X-7538714Y20643333D01*
X-6788714Y20857619D02*
X-7538714Y20857619D01*
X-7538714Y20976666D01*
X-7503000Y21048095D01*
X-7431571Y21095714D01*
X-7360142Y21119523D01*
X-7217285Y21143333D01*
X-7110142Y21143333D01*
X-6967285Y21119523D01*
X-6895857Y21095714D01*
X-6824428Y21048095D01*
X-6788714Y20976666D01*
X-6788714Y20857619D01*
X-4963000Y4963547D02*
X-4998714Y4915928D01*
X-4998714Y4844500D01*
X-4963000Y4773071D01*
X-4891571Y4725452D01*
X-4820142Y4701642D01*
X-4677285Y4677833D01*
X-4570142Y4677833D01*
X-4427285Y4701642D01*
X-4355857Y4725452D01*
X-4284428Y4773071D01*
X-4248714Y4844500D01*
X-4248714Y4892119D01*
X-4284428Y4963547D01*
X-4320142Y4987357D01*
X-4570142Y4987357D01*
X-4570142Y4892119D01*
X-4248714Y5201642D02*
X-4998714Y5201642D01*
X-4248714Y5487357D01*
X-4998714Y5487357D01*
X-4248714Y5725452D02*
X-4998714Y5725452D01*
X-4998714Y5844500D01*
X-4963000Y5915928D01*
X-4891571Y5963547D01*
X-4820142Y5987357D01*
X-4677285Y6011166D01*
X-4570142Y6011166D01*
X-4427285Y5987357D01*
X-4355857Y5963547D01*
X-4284428Y5915928D01*
X-4248714Y5844500D01*
X-4248714Y5725452D01*
X-4260714Y19660000D02*
X-5010714Y19660000D01*
X-5010714Y19779047D01*
X-4975000Y19850476D01*
X-4903571Y19898095D01*
X-4832142Y19921904D01*
X-4689285Y19945714D01*
X-4582142Y19945714D01*
X-4439285Y19921904D01*
X-4367857Y19898095D01*
X-4296428Y19850476D01*
X-4260714Y19779047D01*
X-4260714Y19660000D01*
X-4475000Y20136190D02*
X-4475000Y20374285D01*
X-4260714Y20088571D02*
X-5010714Y20255238D01*
X-4260714Y20421904D01*
X-5010714Y20517142D02*
X-5010714Y20802857D01*
X-4260714Y20660000D02*
X-5010714Y20660000D01*
X-4475000Y20945714D02*
X-4475000Y21183809D01*
X-4260714Y20898095D02*
X-5010714Y21064761D01*
X-4260714Y21231428D01*
X-1645214Y5070690D02*
X-2002357Y4904023D01*
X-1645214Y4784976D02*
X-2395214Y4784976D01*
X-2395214Y4975452D01*
X-2359500Y5023071D01*
X-2323785Y5046880D01*
X-2252357Y5070690D01*
X-2145214Y5070690D01*
X-2073785Y5046880D01*
X-2038071Y5023071D01*
X-2002357Y4975452D01*
X-2002357Y4784976D01*
X-1680928Y5261166D02*
X-1645214Y5332595D01*
X-1645214Y5451642D01*
X-1680928Y5499261D01*
X-1716642Y5523071D01*
X-1788071Y5546880D01*
X-1859500Y5546880D01*
X-1930928Y5523071D01*
X-1966642Y5499261D01*
X-2002357Y5451642D01*
X-2038071Y5356404D01*
X-2073785Y5308785D01*
X-2109500Y5284976D01*
X-2180928Y5261166D01*
X-2252357Y5261166D01*
X-2323785Y5284976D01*
X-2359500Y5308785D01*
X-2395214Y5356404D01*
X-2395214Y5475452D01*
X-2359500Y5546880D01*
X-2395214Y5689738D02*
X-2395214Y5975452D01*
X-1645214Y5832595D02*
X-2395214Y5832595D01*
X-2359500Y20203547D02*
X-2395214Y20155928D01*
X-2395214Y20084500D01*
X-2359500Y20013071D01*
X-2288071Y19965452D01*
X-2216642Y19941642D01*
X-2073785Y19917833D01*
X-1966642Y19917833D01*
X-1823785Y19941642D01*
X-1752357Y19965452D01*
X-1680928Y20013071D01*
X-1645214Y20084500D01*
X-1645214Y20132119D01*
X-1680928Y20203547D01*
X-1716642Y20227357D01*
X-1966642Y20227357D01*
X-1966642Y20132119D01*
X-1645214Y20441642D02*
X-2395214Y20441642D01*
X-1645214Y20727357D01*
X-2395214Y20727357D01*
X-1645214Y20965452D02*
X-2395214Y20965452D01*
X-2395214Y21084500D01*
X-2359500Y21155928D01*
X-2288071Y21203547D01*
X-2216642Y21227357D01*
X-2073785Y21251166D01*
X-1966642Y21251166D01*
X-1823785Y21227357D01*
X-1752357Y21203547D01*
X-1680928Y21155928D01*
X-1645214Y21084500D01*
X-1645214Y20965452D01*
X81285Y4677833D02*
X831285Y4844500D01*
X81285Y5011166D01*
X759857Y5463547D02*
X795571Y5439738D01*
X831285Y5368309D01*
X831285Y5320690D01*
X795571Y5249261D01*
X724142Y5201642D01*
X652714Y5177833D01*
X509857Y5154023D01*
X402714Y5154023D01*
X259857Y5177833D01*
X188428Y5201642D01*
X117000Y5249261D01*
X81285Y5320690D01*
X81285Y5368309D01*
X117000Y5439738D01*
X152714Y5463547D01*
X759857Y5963547D02*
X795571Y5939738D01*
X831285Y5868309D01*
X831285Y5820690D01*
X795571Y5749261D01*
X724142Y5701642D01*
X652714Y5677833D01*
X509857Y5654023D01*
X402714Y5654023D01*
X259857Y5677833D01*
X188428Y5701642D01*
X117000Y5749261D01*
X81285Y5820690D01*
X81285Y5868309D01*
X117000Y5939738D01*
X152714Y5963547D01*
X180500Y20140047D02*
X144785Y20092428D01*
X144785Y20021000D01*
X180499Y19949571D01*
X251928Y19901952D01*
X323357Y19878142D01*
X466214Y19854333D01*
X573357Y19854333D01*
X716214Y19878142D01*
X787642Y19901952D01*
X859071Y19949571D01*
X894785Y20021000D01*
X894785Y20068619D01*
X859071Y20140047D01*
X823357Y20163857D01*
X573357Y20163857D01*
X573357Y20068619D01*
X894785Y20378142D02*
X144785Y20378142D01*
X894785Y20663857D01*
X144785Y20663857D01*
X894785Y20901952D02*
X144785Y20901952D01*
X144785Y21021000D01*
X180500Y21092428D01*
X251928Y21140047D01*
X323357Y21163857D01*
X466214Y21187666D01*
X573357Y21187666D01*
X716214Y21163857D01*
X787642Y21140047D01*
X859071Y21092428D01*
X894785Y21021000D01*
X894785Y20901952D01*
X10967857Y4512380D02*
X11003571Y4488571D01*
X11039285Y4417142D01*
X11039285Y4369523D01*
X11003571Y4298095D01*
X10932142Y4250476D01*
X10860714Y4226666D01*
X10717857Y4202857D01*
X10610714Y4202857D01*
X10467857Y4226666D01*
X10396428Y4250476D01*
X10325000Y4298095D01*
X10289285Y4369523D01*
X10289285Y4417142D01*
X10325000Y4488571D01*
X10360714Y4512380D01*
X10289285Y4821904D02*
X10289285Y4917142D01*
X10325000Y4964761D01*
X10396428Y5012380D01*
X10539285Y5036190D01*
X10789285Y5036190D01*
X10932142Y5012380D01*
X11003571Y4964761D01*
X11039285Y4917142D01*
X11039285Y4821904D01*
X11003571Y4774285D01*
X10932142Y4726666D01*
X10789285Y4702857D01*
X10539285Y4702857D01*
X10396428Y4726666D01*
X10325000Y4774285D01*
X10289285Y4821904D01*
X11039285Y5488571D02*
X11039285Y5250476D01*
X10289285Y5250476D01*
X10289285Y5607619D02*
X10289285Y5917142D01*
X10575000Y5750476D01*
X10575000Y5821904D01*
X10610714Y5869523D01*
X10646428Y5893333D01*
X10717857Y5917142D01*
X10896428Y5917142D01*
X10967857Y5893333D01*
X11003571Y5869523D01*
X11039285Y5821904D01*
X11039285Y5679047D01*
X11003571Y5631428D01*
X10967857Y5607619D01*
X8489285Y19629047D02*
X8132142Y19462380D01*
X8489285Y19343333D02*
X7739285Y19343333D01*
X7739285Y19533809D01*
X7775000Y19581428D01*
X7810714Y19605238D01*
X7882142Y19629047D01*
X7989285Y19629047D01*
X8060714Y19605238D01*
X8096428Y19581428D01*
X8132142Y19533809D01*
X8132142Y19343333D01*
X7739285Y19938571D02*
X7739285Y20033809D01*
X7775000Y20081428D01*
X7846428Y20129047D01*
X7989285Y20152857D01*
X8239285Y20152857D01*
X8382142Y20129047D01*
X8453571Y20081428D01*
X8489285Y20033809D01*
X8489285Y19938571D01*
X8453571Y19890952D01*
X8382142Y19843333D01*
X8239285Y19819523D01*
X7989285Y19819523D01*
X7846428Y19843333D01*
X7775000Y19890952D01*
X7739285Y19938571D01*
X7739285Y20319523D02*
X8489285Y20438571D01*
X7953571Y20533809D01*
X8489285Y20629047D01*
X7739285Y20748095D01*
X7739285Y21033809D02*
X7739285Y21081428D01*
X7775000Y21129047D01*
X7810714Y21152857D01*
X7882142Y21176666D01*
X8025000Y21200476D01*
X8203571Y21200476D01*
X8346428Y21176666D01*
X8417857Y21152857D01*
X8453571Y21129047D01*
X8489285Y21081428D01*
X8489285Y21033809D01*
X8453571Y20986190D01*
X8417857Y20962380D01*
X8346428Y20938571D01*
X8203571Y20914761D01*
X8025000Y20914761D01*
X7882142Y20938571D01*
X7810714Y20962380D01*
X7775000Y20986190D01*
X7739285Y21033809D01*
X8379857Y4612380D02*
X8415571Y4588571D01*
X8451285Y4517142D01*
X8451285Y4469523D01*
X8415571Y4398095D01*
X8344142Y4350476D01*
X8272714Y4326666D01*
X8129857Y4302857D01*
X8022714Y4302857D01*
X7879857Y4326666D01*
X7808428Y4350476D01*
X7737000Y4398095D01*
X7701285Y4469523D01*
X7701285Y4517142D01*
X7737000Y4588571D01*
X7772714Y4612380D01*
X7701285Y4921904D02*
X7701285Y5017142D01*
X7737000Y5064761D01*
X7808428Y5112380D01*
X7951285Y5136190D01*
X8201285Y5136190D01*
X8344142Y5112380D01*
X8415571Y5064761D01*
X8451285Y5017142D01*
X8451285Y4921904D01*
X8415571Y4874285D01*
X8344142Y4826666D01*
X8201285Y4802857D01*
X7951285Y4802857D01*
X7808428Y4826666D01*
X7737000Y4874285D01*
X7701285Y4921904D01*
X8451285Y5588571D02*
X8451285Y5350476D01*
X7701285Y5350476D01*
X7772714Y5731428D02*
X7737000Y5755238D01*
X7701285Y5802857D01*
X7701285Y5921904D01*
X7737000Y5969523D01*
X7772714Y5993333D01*
X7844142Y6017142D01*
X7915571Y6017142D01*
X8022714Y5993333D01*
X8451285Y5707619D01*
X8451285Y6017142D01*
X5875571Y19925761D02*
X5911285Y19997190D01*
X5911285Y20116238D01*
X5875571Y20163857D01*
X5839857Y20187666D01*
X5768428Y20211476D01*
X5697000Y20211476D01*
X5625571Y20187666D01*
X5589857Y20163857D01*
X5554142Y20116238D01*
X5518428Y20021000D01*
X5482714Y19973380D01*
X5447000Y19949571D01*
X5375571Y19925761D01*
X5304142Y19925761D01*
X5232714Y19949571D01*
X5197000Y19973380D01*
X5161285Y20021000D01*
X5161285Y20140047D01*
X5197000Y20211476D01*
X5839857Y20711476D02*
X5875571Y20687666D01*
X5911285Y20616238D01*
X5911285Y20568619D01*
X5875571Y20497190D01*
X5804142Y20449571D01*
X5732714Y20425761D01*
X5589857Y20401952D01*
X5482714Y20401952D01*
X5339857Y20425761D01*
X5268428Y20449571D01*
X5197000Y20497190D01*
X5161285Y20568619D01*
X5161285Y20616238D01*
X5197000Y20687666D01*
X5232714Y20711476D01*
X5911285Y21163857D02*
X5911285Y20925761D01*
X5161285Y20925761D01*
X5839857Y4662380D02*
X5875571Y4638571D01*
X5911285Y4567142D01*
X5911285Y4519523D01*
X5875571Y4448095D01*
X5804142Y4400476D01*
X5732714Y4376666D01*
X5589857Y4352857D01*
X5482714Y4352857D01*
X5339857Y4376666D01*
X5268428Y4400476D01*
X5197000Y4448095D01*
X5161285Y4519523D01*
X5161285Y4567142D01*
X5197000Y4638571D01*
X5232714Y4662380D01*
X5161285Y4971904D02*
X5161285Y5067142D01*
X5197000Y5114761D01*
X5268428Y5162380D01*
X5411285Y5186190D01*
X5661285Y5186190D01*
X5804142Y5162380D01*
X5875571Y5114761D01*
X5911285Y5067142D01*
X5911285Y4971904D01*
X5875571Y4924285D01*
X5804142Y4876666D01*
X5661285Y4852857D01*
X5411285Y4852857D01*
X5268428Y4876666D01*
X5197000Y4924285D01*
X5161285Y4971904D01*
X5911285Y5638571D02*
X5911285Y5400476D01*
X5161285Y5400476D01*
X5911285Y6067142D02*
X5911285Y5781428D01*
X5911285Y5924285D02*
X5161285Y5924285D01*
X5268428Y5876666D01*
X5339857Y5829047D01*
X5375571Y5781428D01*
X3335571Y19913857D02*
X3371285Y19985285D01*
X3371285Y20104333D01*
X3335571Y20151952D01*
X3299857Y20175761D01*
X3228428Y20199571D01*
X3157000Y20199571D01*
X3085571Y20175761D01*
X3049857Y20151952D01*
X3014142Y20104333D01*
X2978428Y20009095D01*
X2942714Y19961476D01*
X2907000Y19937666D01*
X2835571Y19913857D01*
X2764142Y19913857D01*
X2692714Y19937666D01*
X2657000Y19961476D01*
X2621285Y20009095D01*
X2621285Y20128142D01*
X2657000Y20199571D01*
X3371285Y20413857D02*
X2621285Y20413857D01*
X2621285Y20532904D01*
X2657000Y20604333D01*
X2728428Y20651952D01*
X2799857Y20675761D01*
X2942714Y20699571D01*
X3049857Y20699571D01*
X3192714Y20675761D01*
X3264142Y20651952D01*
X3335571Y20604333D01*
X3371285Y20532904D01*
X3371285Y20413857D01*
X3157000Y20890047D02*
X3157000Y21128142D01*
X3371285Y20842428D02*
X2621285Y21009095D01*
X3371285Y21175761D01*
X3317857Y4612380D02*
X3353571Y4588571D01*
X3389285Y4517142D01*
X3389285Y4469523D01*
X3353571Y4398095D01*
X3282142Y4350476D01*
X3210714Y4326666D01*
X3067857Y4302857D01*
X2960714Y4302857D01*
X2817857Y4326666D01*
X2746428Y4350476D01*
X2675000Y4398095D01*
X2639285Y4469523D01*
X2639285Y4517142D01*
X2675000Y4588571D01*
X2710714Y4612380D01*
X2639285Y4921904D02*
X2639285Y5017142D01*
X2675000Y5064761D01*
X2746428Y5112380D01*
X2889285Y5136190D01*
X3139285Y5136190D01*
X3282142Y5112380D01*
X3353571Y5064761D01*
X3389285Y5017142D01*
X3389285Y4921904D01*
X3353571Y4874285D01*
X3282142Y4826666D01*
X3139285Y4802857D01*
X2889285Y4802857D01*
X2746428Y4826666D01*
X2675000Y4874285D01*
X2639285Y4921904D01*
X3389285Y5588571D02*
X3389285Y5350476D01*
X2639285Y5350476D01*
X2639285Y5850476D02*
X2639285Y5898095D01*
X2675000Y5945714D01*
X2710714Y5969523D01*
X2782142Y5993333D01*
X2925000Y6017142D01*
X3103571Y6017142D01*
X3246428Y5993333D01*
X3317857Y5969523D01*
X3353571Y5945714D01*
X3389285Y5898095D01*
X3389285Y5850476D01*
X3353571Y5802857D01*
X3317857Y5779047D01*
X3246428Y5755238D01*
X3103571Y5731428D01*
X2925000Y5731428D01*
X2782142Y5755238D01*
X2710714Y5779047D01*
X2675000Y5802857D01*
X2639285Y5850476D01*
X20796428Y4807619D02*
X20832142Y4879047D01*
X20867857Y4902857D01*
X20939285Y4926666D01*
X21046428Y4926666D01*
X21117857Y4902857D01*
X21153571Y4879047D01*
X21189285Y4831428D01*
X21189285Y4640952D01*
X20439285Y4640952D01*
X20439285Y4807619D01*
X20475000Y4855238D01*
X20510714Y4879047D01*
X20582142Y4902857D01*
X20653571Y4902857D01*
X20725000Y4879047D01*
X20760714Y4855238D01*
X20796428Y4807619D01*
X20796428Y4640952D01*
X20439285Y5355238D02*
X20439285Y5260000D01*
X20475000Y5212380D01*
X20510714Y5188571D01*
X20617857Y5140952D01*
X20760714Y5117142D01*
X21046428Y5117142D01*
X21117857Y5140952D01*
X21153571Y5164761D01*
X21189285Y5212380D01*
X21189285Y5307619D01*
X21153571Y5355238D01*
X21117857Y5379047D01*
X21046428Y5402857D01*
X20867857Y5402857D01*
X20796428Y5379047D01*
X20760714Y5355238D01*
X20725000Y5307619D01*
X20725000Y5212380D01*
X20760714Y5164761D01*
X20796428Y5140952D01*
X20867857Y5117142D01*
X20821928Y20057619D02*
X20857642Y20129047D01*
X20893357Y20152857D01*
X20964785Y20176666D01*
X21071928Y20176666D01*
X21143357Y20152857D01*
X21179071Y20129047D01*
X21214785Y20081428D01*
X21214785Y19890952D01*
X20464785Y19890952D01*
X20464785Y20057619D01*
X20500500Y20105238D01*
X20536214Y20129047D01*
X20607642Y20152857D01*
X20679071Y20152857D01*
X20750500Y20129047D01*
X20786214Y20105238D01*
X20821928Y20057619D01*
X20821928Y19890952D01*
X20464785Y20629047D02*
X20464785Y20390952D01*
X20821928Y20367142D01*
X20786214Y20390952D01*
X20750500Y20438571D01*
X20750500Y20557619D01*
X20786214Y20605238D01*
X20821928Y20629047D01*
X20893357Y20652857D01*
X21071928Y20652857D01*
X21143357Y20629047D01*
X21179071Y20605238D01*
X21214785Y20557619D01*
X21214785Y20438571D01*
X21179071Y20390952D01*
X21143357Y20367142D01*
X18218428Y20057619D02*
X18254142Y20129047D01*
X18289857Y20152857D01*
X18361285Y20176666D01*
X18468428Y20176666D01*
X18539857Y20152857D01*
X18575571Y20129047D01*
X18611285Y20081428D01*
X18611285Y19890952D01*
X17861285Y19890952D01*
X17861285Y20057619D01*
X17897000Y20105238D01*
X17932714Y20129047D01*
X18004142Y20152857D01*
X18075571Y20152857D01*
X18147000Y20129047D01*
X18182714Y20105238D01*
X18218428Y20057619D01*
X18218428Y19890952D01*
X18111285Y20605238D02*
X18611285Y20605238D01*
X17825571Y20486190D02*
X18361285Y20367142D01*
X18361285Y20676666D01*
X18246428Y4907619D02*
X18282142Y4979047D01*
X18317857Y5002857D01*
X18389285Y5026666D01*
X18496428Y5026666D01*
X18567857Y5002857D01*
X18603571Y4979047D01*
X18639285Y4931428D01*
X18639285Y4740952D01*
X17889285Y4740952D01*
X17889285Y4907619D01*
X17925000Y4955238D01*
X17960714Y4979047D01*
X18032142Y5002857D01*
X18103571Y5002857D01*
X18175000Y4979047D01*
X18210714Y4955238D01*
X18246428Y4907619D01*
X18246428Y4740952D01*
X17960714Y5217142D02*
X17925000Y5240952D01*
X17889285Y5288571D01*
X17889285Y5407619D01*
X17925000Y5455238D01*
X17960714Y5479047D01*
X18032142Y5502857D01*
X18103571Y5502857D01*
X18210714Y5479047D01*
X18639285Y5193333D01*
X18639285Y5502857D01*
X16134785Y19629047D02*
X15777642Y19462380D01*
X16134785Y19343333D02*
X15384785Y19343333D01*
X15384785Y19533809D01*
X15420500Y19581428D01*
X15456214Y19605238D01*
X15527642Y19629047D01*
X15634785Y19629047D01*
X15706214Y19605238D01*
X15741928Y19581428D01*
X15777642Y19533809D01*
X15777642Y19343333D01*
X15384785Y19938571D02*
X15384785Y20033809D01*
X15420500Y20081428D01*
X15491928Y20129047D01*
X15634785Y20152857D01*
X15884785Y20152857D01*
X16027642Y20129047D01*
X16099071Y20081428D01*
X16134785Y20033809D01*
X16134785Y19938571D01*
X16099071Y19890952D01*
X16027642Y19843333D01*
X15884785Y19819523D01*
X15634785Y19819523D01*
X15491928Y19843333D01*
X15420500Y19890952D01*
X15384785Y19938571D01*
X15384785Y20319523D02*
X16134785Y20438571D01*
X15599071Y20533809D01*
X16134785Y20629047D01*
X15384785Y20748095D01*
X15384785Y20890952D02*
X15384785Y21200476D01*
X15670500Y21033809D01*
X15670500Y21105238D01*
X15706214Y21152857D01*
X15741928Y21176666D01*
X15813357Y21200476D01*
X15991928Y21200476D01*
X16063357Y21176666D01*
X16099071Y21152857D01*
X16134785Y21105238D01*
X16134785Y20962380D01*
X16099071Y20914761D01*
X16063357Y20890952D01*
X16063357Y4562380D02*
X16099071Y4538571D01*
X16134785Y4467142D01*
X16134785Y4419523D01*
X16099071Y4348095D01*
X16027642Y4300476D01*
X15956214Y4276666D01*
X15813357Y4252857D01*
X15706214Y4252857D01*
X15563357Y4276666D01*
X15491928Y4300476D01*
X15420500Y4348095D01*
X15384785Y4419523D01*
X15384785Y4467142D01*
X15420500Y4538571D01*
X15456214Y4562380D01*
X15384785Y4871904D02*
X15384785Y4967142D01*
X15420500Y5014761D01*
X15491928Y5062380D01*
X15634785Y5086190D01*
X15884785Y5086190D01*
X16027642Y5062380D01*
X16099071Y5014761D01*
X16134785Y4967142D01*
X16134785Y4871904D01*
X16099071Y4824285D01*
X16027642Y4776666D01*
X15884785Y4752857D01*
X15634785Y4752857D01*
X15491928Y4776666D01*
X15420500Y4824285D01*
X15384785Y4871904D01*
X16134785Y5538571D02*
X16134785Y5300476D01*
X15384785Y5300476D01*
X15384785Y5943333D02*
X15384785Y5705238D01*
X15741928Y5681428D01*
X15706214Y5705238D01*
X15670500Y5752857D01*
X15670500Y5871904D01*
X15706214Y5919523D01*
X15741928Y5943333D01*
X15813357Y5967142D01*
X15991928Y5967142D01*
X16063357Y5943333D01*
X16099071Y5919523D01*
X16134785Y5871904D01*
X16134785Y5752857D01*
X16099071Y5705238D01*
X16063357Y5681428D01*
X13539285Y19629047D02*
X13182142Y19462380D01*
X13539285Y19343333D02*
X12789285Y19343333D01*
X12789285Y19533809D01*
X12825000Y19581428D01*
X12860714Y19605238D01*
X12932142Y19629047D01*
X13039285Y19629047D01*
X13110714Y19605238D01*
X13146428Y19581428D01*
X13182142Y19533809D01*
X13182142Y19343333D01*
X12789285Y19938571D02*
X12789285Y20033809D01*
X12825000Y20081428D01*
X12896428Y20129047D01*
X13039285Y20152857D01*
X13289285Y20152857D01*
X13432142Y20129047D01*
X13503571Y20081428D01*
X13539285Y20033809D01*
X13539285Y19938571D01*
X13503571Y19890952D01*
X13432142Y19843333D01*
X13289285Y19819523D01*
X13039285Y19819523D01*
X12896428Y19843333D01*
X12825000Y19890952D01*
X12789285Y19938571D01*
X12789285Y20319523D02*
X13539285Y20438571D01*
X13003571Y20533809D01*
X13539285Y20629047D01*
X12789285Y20748095D01*
X12860714Y20914761D02*
X12825000Y20938571D01*
X12789285Y20986190D01*
X12789285Y21105238D01*
X12825000Y21152857D01*
X12860714Y21176666D01*
X12932142Y21200476D01*
X13003571Y21200476D01*
X13110714Y21176666D01*
X13539285Y20890952D01*
X13539285Y21200476D01*
X13467857Y4562380D02*
X13503571Y4538571D01*
X13539285Y4467142D01*
X13539285Y4419523D01*
X13503571Y4348095D01*
X13432142Y4300476D01*
X13360714Y4276666D01*
X13217857Y4252857D01*
X13110714Y4252857D01*
X12967857Y4276666D01*
X12896428Y4300476D01*
X12825000Y4348095D01*
X12789285Y4419523D01*
X12789285Y4467142D01*
X12825000Y4538571D01*
X12860714Y4562380D01*
X12789285Y4871904D02*
X12789285Y4967142D01*
X12825000Y5014761D01*
X12896428Y5062380D01*
X13039285Y5086190D01*
X13289285Y5086190D01*
X13432142Y5062380D01*
X13503571Y5014761D01*
X13539285Y4967142D01*
X13539285Y4871904D01*
X13503571Y4824285D01*
X13432142Y4776666D01*
X13289285Y4752857D01*
X13039285Y4752857D01*
X12896428Y4776666D01*
X12825000Y4824285D01*
X12789285Y4871904D01*
X13539285Y5538571D02*
X13539285Y5300476D01*
X12789285Y5300476D01*
X13039285Y5919523D02*
X13539285Y5919523D01*
X12753571Y5800476D02*
X13289285Y5681428D01*
X13289285Y5990952D01*
X10991285Y19679047D02*
X10634142Y19512380D01*
X10991285Y19393333D02*
X10241285Y19393333D01*
X10241285Y19583809D01*
X10277000Y19631428D01*
X10312714Y19655238D01*
X10384142Y19679047D01*
X10491285Y19679047D01*
X10562714Y19655238D01*
X10598428Y19631428D01*
X10634142Y19583809D01*
X10634142Y19393333D01*
X10241285Y19988571D02*
X10241285Y20083809D01*
X10277000Y20131428D01*
X10348428Y20179047D01*
X10491285Y20202857D01*
X10741285Y20202857D01*
X10884142Y20179047D01*
X10955571Y20131428D01*
X10991285Y20083809D01*
X10991285Y19988571D01*
X10955571Y19940952D01*
X10884142Y19893333D01*
X10741285Y19869523D01*
X10491285Y19869523D01*
X10348428Y19893333D01*
X10277000Y19940952D01*
X10241285Y19988571D01*
X10241285Y20369523D02*
X10991285Y20488571D01*
X10455571Y20583809D01*
X10991285Y20679047D01*
X10241285Y20798095D01*
X10991285Y21250476D02*
X10991285Y20964761D01*
X10991285Y21107619D02*
X10241285Y21107619D01*
X10348428Y21060000D01*
X10419857Y21012380D01*
X10455571Y20964761D01*
D13*
X32568095Y18757619D02*
X33139523Y18757619D01*
X32853809Y17757619D02*
X32853809Y18757619D01*
X34044285Y17757619D02*
X33710952Y18233809D01*
X33472857Y17757619D02*
X33472857Y18757619D01*
X33853809Y18757619D01*
X33949047Y18710000D01*
X33996666Y18662380D01*
X34044285Y18567142D01*
X34044285Y18424285D01*
X33996666Y18329047D01*
X33949047Y18281428D01*
X33853809Y18233809D01*
X33472857Y18233809D01*
X35044285Y17757619D02*
X34710952Y18233809D01*
X34472857Y17757619D02*
X34472857Y18757619D01*
X34853809Y18757619D01*
X34949047Y18710000D01*
X34996666Y18662380D01*
X35044285Y18567142D01*
X35044285Y18424285D01*
X34996666Y18329047D01*
X34949047Y18281428D01*
X34853809Y18233809D01*
X34472857Y18233809D01*
X35425238Y17805238D02*
X35568095Y17757619D01*
X35806190Y17757619D01*
X35901428Y17805238D01*
X35949047Y17852857D01*
X35996666Y17948095D01*
X35996666Y18043333D01*
X35949047Y18138571D01*
X35901428Y18186190D01*
X35806190Y18233809D01*
X35615714Y18281428D01*
X35520476Y18329047D01*
X35472857Y18376666D01*
X35425238Y18471904D01*
X35425238Y18567142D01*
X35472857Y18662380D01*
X35520476Y18710000D01*
X35615714Y18757619D01*
X35853809Y18757619D01*
X35996666Y18710000D01*
M02*
