999
"DXF R12 Output" (www.mydxf.blogspot.com)
 0 
SECTION
 2 
HEADER
 9 
$ACADVER
 1 
AC1009
 9 
$EXTMIN
 10 
 0 
 20 
 0 
 9 
$EXTMAX
 10 
 8.5 
 20 
 11 
 0 
ENDSEC
 0 
SECTION
 2 
ENTITIES
0
LINE
8
Layer 1
10
149.940000
20
-52.198900
11
149.682508
21
-52.821658
0
LINE
8
Layer 1
10
149.682508
20
-52.821658
11
149.060314
21
-53.079715
0
LINE
8
Layer 1
10
149.060314
20
-53.079715
11
148.438120
21
-52.821658
0
LINE
8
Layer 1
10
148.438120
20
-52.821658
11
148.180628
21
-52.198900
0
LINE
8
Layer 1
10
148.180628
20
-52.198900
11
148.438120
21
-51.577129
0
LINE
8
Layer 1
10
148.438120
20
-51.577129
11
149.060314
21
-51.319214
0
LINE
8
Layer 1
10
149.060314
20
-51.319214
11
149.682508
21
-51.577129
0
LINE
8
Layer 1
10
149.682508
20
-51.577129
11
149.940000
21
-52.198900
0
LINE
8
Layer 1
10
149.940000
20
-52.198900
11
149.940000
21
-52.198900
0
LINE
8
Layer 1
10
104.149000
20
-52.016100
11
103.890943
21
-52.637764
0
LINE
8
Layer 1
10
103.890943
20
-52.637764
11
103.268185
21
-52.895786
0
LINE
8
Layer 1
10
103.268185
20
-52.895786
11
102.646414
21
-52.637764
0
LINE
8
Layer 1
10
102.646414
20
-52.637764
11
102.388499
21
-52.016100
0
LINE
8
Layer 1
10
102.388499
20
-52.016100
11
102.646414
21
-51.393342
0
LINE
8
Layer 1
10
102.646414
20
-51.393342
11
103.268185
21
-51.135285
0
LINE
8
Layer 1
10
103.268185
20
-51.135285
11
103.890943
21
-51.393342
0
LINE
8
Layer 1
10
103.890943
20
-51.393342
11
104.149000
21
-52.016100
0
LINE
8
Layer 1
10
104.149000
20
-52.016100
11
104.149000
21
-52.016100
0
LINE
8
Layer 1
10
166.070000
20
-18.441500
11
166.070000
21
-96.880300
0
LINE
8
Layer 1
10
86.908900
20
-18.441500
11
166.070000
21
-18.441500
0
LINE
8
Layer 1
10
86.908900
20
-85.183600
11
86.908900
21
-18.441500
0
LINE
8
Layer 1
10
109.765000
20
-96.880300
11
86.908900
21
-85.183600
0
LINE
8
Layer 1
10
166.070000
20
-96.880300
11
109.765000
21
-96.880300
0
LINE
8
Layer 1
10
164.156000
20
-92.727400
11
163.898508
21
-93.349735
0
LINE
8
Layer 1
10
163.898508
20
-93.349735
11
163.276314
21
-93.607368
0
LINE
8
Layer 1
10
163.276314
20
-93.607368
11
162.654120
21
-93.349735
0
LINE
8
Layer 1
10
162.654120
20
-93.349735
11
162.396628
21
-92.727400
0
LINE
8
Layer 1
10
162.396628
20
-92.727400
11
162.654120
21
-92.105312
0
LINE
8
Layer 1
10
162.654120
20
-92.105312
11
163.276314
21
-91.847714
0
LINE
8
Layer 1
10
163.276314
20
-91.847714
11
163.898508
21
-92.105312
0
LINE
8
Layer 1
10
163.898508
20
-92.105312
11
164.156000
21
-92.727400
0
LINE
8
Layer 1
10
164.156000
20
-92.727400
11
164.156000
21
-92.727400
0
LINE
8
Layer 1
10
109.268000
20
-92.727400
11
109.010402
21
-93.349735
0
LINE
8
Layer 1
10
109.010402
20
-93.349735
11
108.388314
21
-93.607368
0
LINE
8
Layer 1
10
108.388314
20
-93.607368
11
107.766120
21
-93.349735
0
LINE
8
Layer 1
10
107.766120
20
-93.349735
11
107.508628
21
-92.727400
0
LINE
8
Layer 1
10
107.508628
20
-92.727400
11
107.766120
21
-92.105312
0
LINE
8
Layer 1
10
107.766120
20
-92.105312
11
108.388314
21
-91.847714
0
LINE
8
Layer 1
10
108.388314
20
-91.847714
11
109.010402
21
-92.105312
0
LINE
8
Layer 1
10
109.010402
20
-92.105312
11
109.268000
21
-92.727400
0
LINE
8
Layer 1
10
109.268000
20
-92.727400
11
109.268000
21
-92.727400
 0 
ENDSEC
 0 
EOF