<?xml version="1.0" encoding="UTF-8" standalone="no"?>
<!-- Created with Inkscape (http://www.inkscape.org/) -->

<svg
   width="100mm"
   height="100mm"
   viewBox="0 0 100 100"
   version="1.1"
   id="svg1368"
   inkscape:version="1.1.1 (c3084ef, 2021-09-22)"
   sodipodi:docname="cool536bottomplate100x100.svg"
   xmlns:inkscape="http://www.inkscape.org/namespaces/inkscape"
   xmlns:sodipodi="http://sodipodi.sourceforge.net/DTD/sodipodi-0.dtd"
   xmlns="http://www.w3.org/2000/svg"
   xmlns:svg="http://www.w3.org/2000/svg">
  <sodipodi:namedview
     id="namedview1370"
     pagecolor="#ffffff"
     bordercolor="#666666"
     borderopacity="1.0"
     inkscape:pageshadow="2"
     inkscape:pageopacity="0.0"
     inkscape:pagecheckerboard="0"
     inkscape:document-units="mm"
     showgrid="false"
     inkscape:zoom="0.55678311"
     inkscape:cx="931.24233"
     inkscape:cy="88.005543"
     inkscape:window-width="1364"
     inkscape:window-height="708"
     inkscape:window-x="331"
     inkscape:window-y="65"
     inkscape:window-maximized="0"
     inkscape:current-layer="layer1" />
  <defs
     id="defs1365" />
  <g
     inkscape:label="Layer 1"
     inkscape:groupmode="layer"
     id="layer1">
    <g
       id="g6698"
       transform="matrix(-0.35277777,0,0,0.35277777,537.31824,-46.383599)">
      <g
         id="g6664"
         transform="translate(932.58981,-30.380649)">
        <path
           d="m 531.285,284.957 c 0,1.723 -1.394,3.121 -3.117,3.121 -1.723,0 -3.117,-1.398 -3.117,-3.121 0,-1.719 1.394,-3.117 3.117,-3.117 1.723,0 3.117,1.398 3.117,3.117 z"
           style="fill:none;stroke:#c23e04;stroke-width:0.425197;stroke-linecap:round;stroke-linejoin:round;stroke-miterlimit:4;stroke-dasharray:none;stroke-opacity:1"
           id="path6662" />
      </g>
      <g
         id="g6668"
         transform="translate(932.58981,-30.380649)">
        <path
           d="m 369.031,284.309 c 0,1.718 -1.398,3.117 -3.121,3.117 -1.719,0 -3.117,-1.399 -3.117,-3.117 0,-1.723 1.398,-3.121 3.117,-3.121 1.723,0 3.121,1.398 3.121,3.121 z"
           style="fill:none;stroke:#c23e04;stroke-width:0.425197;stroke-linecap:round;stroke-linejoin:round;stroke-miterlimit:4;stroke-dasharray:none;stroke-opacity:1"
           id="path6666" />
      </g>
      <g
         id="g6672"
         transform="translate(932.58981,-30.380649)">
        <path
           d="M 588.438,165.344 V 443.277"
           style="fill:none;stroke:#0000ff;stroke-width:0.425197;stroke-linecap:round;stroke-linejoin:round;stroke-miterlimit:4;stroke-dasharray:none;stroke-opacity:1"
           id="path6670" />
      </g>
      <g
         id="g6676"
         transform="translate(932.58981,-30.380649)">
        <path
           d="M 307.945,165.344 H 588.438"
           style="fill:none;stroke:#0000ff;stroke-width:0.425197;stroke-linecap:round;stroke-linejoin:round;stroke-miterlimit:4;stroke-dasharray:none;stroke-opacity:1"
           id="path6674" />
      </g>
      <g
         id="g6680"
         transform="translate(932.58981,-30.380649)">
        <path
           d="M 307.945,401.832 V 165.344"
           style="fill:none;stroke:#0000ff;stroke-width:0.425197;stroke-linecap:round;stroke-linejoin:round;stroke-miterlimit:4;stroke-dasharray:none;stroke-opacity:1"
           id="path6678" />
      </g>
      <g
         id="g6684"
         transform="translate(932.58981,-30.380649)">
        <path
           d="M 388.93,443.277 307.945,401.832"
           style="fill:none;stroke:#0000ff;stroke-width:0.425197;stroke-linecap:round;stroke-linejoin:round;stroke-miterlimit:4;stroke-dasharray:none;stroke-opacity:1"
           id="path6682" />
      </g>
      <g
         id="g6688"
         transform="translate(932.58981,-30.380649)">
        <path
           d="M 588.438,443.277 H 388.93"
           style="fill:none;stroke:#0000ff;stroke-width:0.425197;stroke-linecap:round;stroke-linejoin:round;stroke-miterlimit:4;stroke-dasharray:none;stroke-opacity:1"
           id="path6686" />
      </g>
      <g
         id="g6692"
         transform="translate(932.58981,-30.380649)">
        <path
           d="m 581.656,428.562 c 0,1.723 -1.394,3.118 -3.117,3.118 -1.723,0 -3.117,-1.395 -3.117,-3.118 0,-1.722 1.394,-3.117 3.117,-3.117 1.723,0 3.117,1.395 3.117,3.117 z"
           style="fill:none;stroke:#c23e04;stroke-width:0.425197;stroke-linecap:round;stroke-linejoin:round;stroke-miterlimit:4;stroke-dasharray:none;stroke-opacity:1"
           id="path6690" />
      </g>
      <g
         id="g6696"
         transform="translate(932.58981,-30.380649)">
        <path
           d="m 387.172,428.562 c 0,1.723 -1.395,3.118 -3.117,3.118 -1.723,0 -3.117,-1.395 -3.117,-3.118 0,-1.722 1.394,-3.117 3.117,-3.117 1.722,0 3.117,1.395 3.117,3.117 z"
           style="fill:none;stroke:#c23e04;stroke-width:0.425197;stroke-linecap:round;stroke-linejoin:round;stroke-miterlimit:4;stroke-dasharray:none;stroke-opacity:1"
           id="path6694" />
      </g>
    </g>
  </g>
</svg>
